<svg width="20" height="20" viewBox="0 0 20 20" fill="none" xmlns="http://www.w3.org/2000/svg">
<path d="M12.825 4.34169L13.9999 6.69168C14.1583 7.01668 14.5833 7.32501 14.9416 7.39168L17.0666 7.74168C18.425 7.96668 18.7416 8.95001 17.7666 9.93335L16.1083 11.5917C15.8333 11.8667 15.675 12.4083 15.7666 12.8L16.2416 14.85C16.6166 16.4667 15.75 17.1 14.325 16.25L12.3333 15.0667C11.9749 14.85 11.375 14.85 11.0166 15.0667L9.02495 16.25C7.59995 17.0917 6.73329 16.4667 7.10829 14.85L7.5833 12.8C7.67496 12.4167 7.51663 11.875 7.24163 11.5917L5.5833 9.93335C4.6083 8.95835 4.92497 7.97501 6.2833 7.74168L8.40829 7.39168C8.76662 7.33334 9.19163 7.01668 9.34996 6.69168L10.525 4.34169C11.15 3.06669 12.1833 3.06669 12.825 4.34169Z" stroke="#021115" stroke-width="1.5" stroke-linecap="round" stroke-linejoin="round"/>
<path d="M6.6665 4.16669H1.6665" stroke="#021115" stroke-width="1.5" stroke-linecap="round" stroke-linejoin="round"/>
<path d="M4.1665 15.8333H1.6665" stroke="#021115" stroke-width="1.5" stroke-linecap="round" stroke-linejoin="round"/>
<path d="M2.49984 10H1.6665" stroke="#021115" stroke-width="1.5" stroke-linecap="round" stroke-linejoin="round"/>
</svg>
