<svg width="232" height="54" viewBox="0 0 232 54" fill="none" xmlns="http://www.w3.org/2000/svg">
<path fill-rule="evenodd" clip-rule="evenodd" d="M21.2742 10.1902C20.2175 10.5314 19.1351 9.74343 19.1351 8.63303V3.65455C19.1351 3.05214 19.4661 2.49844 19.9968 2.21322L23.5247 0.316915C24.6104 -0.26666 25.9271 0.514171 25.9357 1.74673L25.976 7.46952C25.981 8.18379 25.5222 8.81879 24.8424 9.03824L21.2742 10.1902ZM2.7 13.9667C2.7 15.0788 3.78547 15.8669 4.84293 15.5227L16.5706 11.7045C17.2444 11.4852 17.7004 10.8571 17.7004 10.1485V6.35866C17.7004 5.11333 16.3646 4.32441 15.274 4.92565L3.54635 11.391C3.02425 11.6789 2.7 12.2279 2.7 12.8241V13.9667ZM12.0698 14.561C11.3846 14.7733 10.9176 15.4069 10.9176 16.1241V18.9978C10.9176 20.045 11.8876 20.8227 12.9097 20.595L24.6461 17.9805C25.3827 17.8164 25.9115 17.17 25.9264 16.4156L26.0037 12.4969C26.0257 11.3814 24.9493 10.5714 23.8835 10.9016L12.0698 14.561ZM4.30795 29.5317C3.41542 29.5163 2.7 28.7883 2.7 27.8956V25.3647C2.7 24.5896 3.24378 23.9209 4.00257 23.7628L15.7302 21.3191C16.7464 21.1074 17.7004 21.8831 17.7004 22.9211V28.0993C17.7004 29.0141 16.9503 29.7513 16.0356 29.7354L4.30795 29.5317ZM12.1789 38.0052C11.4399 37.8312 10.9176 37.1717 10.9176 36.4124V30.9376C10.9176 30.9368 10.9182 30.9363 10.9189 30.9363L25.5841 31.2468C25.8077 31.2515 26.0338 31.3377 26.0479 31.5609C26.0497 31.5901 26.0515 31.6191 26.055 31.6473C26.3315 33.9042 26.0784 37.7825 25.9115 40.1136C25.8934 40.3593 25.8939 40.6098 25.9612 40.8475C25.9812 40.9182 25.9771 40.9946 25.9416 41.0589C25.8875 41.1568 25.7749 41.2067 25.6661 41.1811L12.1789 38.0052ZM3.55113 41.8203C3.02636 41.5332 2.7 40.9828 2.7 40.3846V39.1214C2.7 38.0668 3.68301 37.2876 4.70981 37.5283L16.4375 40.2773C17.1773 40.4507 17.7004 41.1106 17.7004 41.8705V46.7991C17.7004 48.042 16.3693 48.8312 15.2788 48.2347L3.55113 41.8203ZM19.98 50.7424C19.4588 50.4543 19.1352 49.9058 19.1352 49.3102V40.9648C19.1352 40.9643 19.1354 40.9638 19.1358 40.9634C19.1362 40.963 19.1369 40.9628 19.1375 40.9629L24.9131 42.3823C25.4932 42.5249 25.8773 43.1586 25.9838 43.7463C26.0154 43.9208 26.0472 44.0961 26.0549 44.2783C26.1215 45.8278 26.0691 47.4136 26.0169 48.9937C25.9627 50.6356 25.9087 52.2714 25.9884 53.8542C25.9902 53.8928 26.0116 53.9231 26.0275 53.9454C26.117 54.0716 25.7826 53.9495 25.6471 53.8746L19.98 50.7424ZM20.4316 20.2438C19.6757 20.4043 19.1352 21.0717 19.1352 21.8444V28.1583C19.1352 29.0501 19.8492 29.7776 20.7407 29.7944L24.3276 29.862C25.2636 29.8796 26.0234 29.1097 26.0227 28.1735C26.022 27.2534 26.0386 26.331 26.0552 25.4082V25.4081V25.4081V25.408C26.0834 23.8389 26.1116 22.269 26.0549 20.708C26.0486 20.5242 26.0149 20.3619 25.9821 20.2038C25.9545 20.0706 25.9275 19.9404 25.918 19.8029C25.9112 19.7079 25.9431 19.6177 25.9734 19.5321C26.084 19.2193 25.6757 19.13 25.3512 19.1989L20.4316 20.2438ZM4.36772 30.838C3.45186 30.8204 2.69995 31.558 2.69995 32.4741V34.4525C2.69995 35.2147 3.22618 35.876 3.96892 36.0471L7.47898 36.8558C8.50421 37.092 9.48273 36.3133 9.48273 35.2612V32.5415C9.48273 31.65 8.76911 30.9225 7.87779 30.9054L4.36772 30.838ZM4.67445 22.3148C3.65709 22.5297 2.69995 21.7536 2.69995 20.7138V18.7318C2.69995 18.0131 3.16882 17.3786 3.85578 17.1676L7.36585 16.0893C8.41796 15.766 9.48273 16.5528 9.48273 17.6535V19.9724C9.48273 20.7459 8.94124 21.4137 8.18452 21.5735L4.67445 22.3148Z" fill="url(#paint0_linear_1039_229)"/>
<path fill-rule="evenodd" clip-rule="evenodd" d="M44.9818 9.58295C44.9818 8.9877 44.6586 8.43939 44.1378 8.15119L29.7814 0.206937C28.6908 -0.39658 27.3528 0.392221 27.3528 1.6387V3.71431C27.3528 4.34189 27.7117 4.91418 28.2767 5.18742L40.6084 11.1516C41.1734 11.4248 41.5323 11.9971 41.5323 12.6247V17.2986C41.5323 17.9265 41.9439 18.481 42.276 19.0138C42.4957 19.3664 42.626 19.8055 42.626 20.2814C42.626 21.4438 41.8488 22.3861 40.8901 22.3861C39.9314 22.3861 39.1542 21.4438 39.1542 20.2814C39.1542 19.8007 39.2872 19.3575 39.5109 19.0031C39.8561 18.4565 40.2924 17.8882 40.2924 17.2416V13.4007C40.2924 12.7731 39.9334 12.2008 39.3685 11.9275L29.7016 7.25223C28.615 6.72669 27.3528 7.51831 27.3528 8.72535V51.3113C27.3528 52.5563 28.688 53.3453 29.7785 52.7446L33.4714 50.7108C33.9938 50.4231 34.3183 49.8739 34.3183 49.2775V33.5946C34.3183 33.0129 33.9794 32.4845 33.4506 32.2421C32.465 31.7901 31.3425 32.5103 31.3425 33.5946V45.8204C31.3425 46.5083 31.8329 47.1287 32.1575 47.7352C32.3464 48.088 32.4584 48.5277 32.4584 49.0044C32.4584 50.1668 31.7922 51.1092 30.9705 51.1092C30.1487 51.1092 29.4826 50.1668 29.4826 49.0044C29.4826 48.5764 29.5729 48.1781 29.7281 47.8458C29.9097 47.457 30.1026 47.0543 30.1026 46.6252V31.8949C30.1026 30.7024 31.3371 29.9104 32.421 30.4075L34.604 31.4086C35.1855 31.6752 35.5583 32.2563 35.5583 32.896V46.7922C35.5583 48.0372 36.8935 48.8262 37.984 48.2256L39.4231 47.433C39.9455 47.1453 40.27 46.5961 40.27 45.9997L40.27 28.4536C40.2702 28.4443 40.2648 28.4358 40.2564 28.4318C39.6111 28.1249 39.1542 27.363 39.1542 26.4718C39.1542 25.3094 39.9314 24.367 40.8901 24.367C41.8488 24.367 42.626 25.3094 42.626 26.4718C42.626 27.3631 42.169 28.1251 41.5235 28.4319C41.5152 28.4359 41.5099 28.4443 41.51 28.4536V43.5144C41.51 44.7594 42.8452 45.5483 43.9357 44.9477L44.1349 44.838C44.6573 44.5503 44.9818 44.0011 44.9818 43.4047L44.9818 18.3353C44.9818 17.1193 46.2612 16.3281 47.3491 16.8713L48.2922 17.3421C48.847 17.6191 49.1976 18.186 49.1976 18.8062V24.9461C49.1976 25.5833 49.6214 26.1446 49.9601 26.6844C50.1819 27.0379 50.3135 27.479 50.3135 27.9575C50.3135 29.1199 49.5363 30.0622 48.5776 30.0622C47.6189 30.0622 46.8417 29.1199 46.8417 27.9575C46.8417 27.479 46.9734 27.0378 47.1952 26.6843C47.5338 26.1446 47.9577 25.5832 47.9577 24.946V19.0961C47.9577 18.7672 47.7717 18.4665 47.4774 18.3195C46.9003 18.0314 46.2218 18.4511 46.2218 19.0961V42.2198C46.2218 42.8802 46.93 43.2987 47.5084 42.9801C47.7855 42.8275 47.9577 42.5362 47.9577 42.2198V32.663C47.9577 32.3206 48.2352 32.0431 48.5776 32.0431C48.92 32.0431 49.1976 32.3206 49.1976 32.663V40.7228C49.1976 41.3194 49.8374 41.6974 50.36 41.4096C50.6099 41.272 50.7654 41.0094 50.7658 40.724L50.8089 12.2456C50.8092 11.9973 50.6745 11.7684 50.4573 11.6482C50.003 11.3968 49.4456 11.7253 49.4456 12.2446V13.9325C49.4456 15.1485 48.1663 15.9397 47.0783 15.3965L45.8873 14.8019C45.3324 14.5249 44.9818 13.958 44.9818 13.3379V9.58295ZM47.694 10.1191C47.0329 9.75322 46.2218 10.2314 46.2218 10.987V12.9712C46.2218 13.3472 46.4343 13.6908 46.7706 13.8587C47.4302 14.188 48.2057 13.7084 48.2057 12.9712V10.987C48.2057 10.6262 48.0097 10.2938 47.694 10.1191ZM34.2562 17.0073C34.8246 17.2792 35.1863 17.8533 35.1863 18.4834V23.1545C35.1863 24.3987 33.8528 25.1877 32.7623 24.5888L32.3152 24.3433C31.7918 24.0559 31.4665 23.5061 31.4665 22.909V20.4028C31.4665 19.9784 31.9032 19.6945 32.2911 19.8666C32.5869 19.9979 32.9333 19.8647 33.0649 19.569L33.0781 19.5392C33.2173 19.2266 33.0764 18.8603 32.7636 18.7215L32.1064 18.4298C31.2221 18.0374 30.2266 18.6848 30.2266 19.6523V23.641C30.2266 24.2382 30.5518 24.7879 31.0753 25.0753L34.0022 26.6827C35.0927 27.2816 36.4263 26.4926 36.4263 25.2484V17.7038C36.4263 17.0737 36.0645 16.4996 35.4961 16.2277L31.4999 14.3157C31.3212 14.2302 31.2186 14.0416 31.2186 13.8435C31.2186 12.6811 30.608 11.7388 29.8547 11.7388C29.1014 11.7388 28.4907 12.6811 28.4907 13.8435C28.4907 15.0059 29.1014 15.9482 29.8547 15.9482C30.5239 15.9482 31.2515 15.5697 31.8552 15.8585L34.2562 17.0073ZM29.9787 13.8435C29.9787 13.8465 29.9787 13.8496 29.9786 13.8527C29.9781 13.9817 29.9107 14.098 29.8549 14.2143C29.8368 14.252 29.7726 14.2515 29.7647 14.2105C29.7436 14.1012 29.7307 13.9782 29.7307 13.8435C29.7307 13.587 29.9787 13.587 29.9787 13.8435ZM41.3861 26.4718C41.3861 26.7823 41.2815 27.0261 41.1604 27.173C41.0415 27.3172 40.9398 27.3384 40.8901 27.3384C40.8404 27.3384 40.7387 27.3172 40.6198 27.173C40.4987 27.0261 40.3941 26.7823 40.3941 26.4718C40.3941 26.1612 40.4987 25.9174 40.6198 25.7705C40.7387 25.6263 40.8404 25.6051 40.8901 25.6051C40.9398 25.6051 41.0415 25.6263 41.1604 25.7705C41.2815 25.9174 41.3861 26.1612 41.3861 26.4718ZM41.1604 20.9826C41.2815 20.8358 41.3861 20.592 41.3861 20.2814C41.3861 19.9709 41.2815 19.727 41.1604 19.5802C41.0415 19.436 40.9398 19.4148 40.8901 19.4148C40.8404 19.4148 40.7387 19.436 40.6198 19.5802C40.4987 19.727 40.3941 19.9709 40.3941 20.2814C40.3941 20.592 40.4987 20.8358 40.6198 20.9826C40.7387 21.1269 40.8404 21.1481 40.8901 21.1481C40.9398 21.1481 41.0415 21.1269 41.1604 20.9826ZM49.0736 27.9575C49.0736 28.268 48.969 28.5119 48.8479 28.6587C48.729 28.8029 48.6273 28.8241 48.5776 28.8241C48.5279 28.8241 48.4262 28.8029 48.3073 28.6587C48.1862 28.5119 48.0816 28.268 48.0816 27.9575C48.0816 27.6469 48.1862 27.4031 48.3073 27.2563C48.4262 27.112 48.5279 27.0908 48.5776 27.0908C48.6273 27.0908 48.729 27.112 48.8479 27.2563C48.969 27.4031 49.0736 27.6469 49.0736 27.9575ZM29.7053 14.7484C29.705 14.7471 29.7055 14.7497 29.7053 14.7484V14.7484ZM30.0041 12.9385C30.0038 12.9372 30.0043 12.9398 30.0041 12.9385V12.9385ZM29.7053 12.9385C29.705 12.9398 29.7055 12.9372 29.7053 12.9385V12.9385ZM31.2185 49.0044C31.2185 49.3605 31.1145 49.6304 31.0096 49.7787C30.9902 49.8062 30.9508 49.8062 30.9314 49.7787C30.8265 49.6304 30.7225 49.3605 30.7225 49.0044C30.7225 48.6483 30.8265 48.3785 30.9314 48.2302C30.9508 48.2027 30.9902 48.2027 31.0096 48.2302C31.1145 48.3785 31.2185 48.6483 31.2185 49.0044ZM30.9124 49.8817C30.9133 49.8813 30.9129 49.8805 30.9121 49.881C30.9107 49.8817 30.91 49.8822 30.9101 49.8824C30.9101 49.8826 30.9109 49.8824 30.9124 49.8817ZM31.0309 49.8824C31.0306 49.8837 31.0312 49.8811 31.0309 49.8824V49.8824ZM31.0309 48.1265C31.0306 48.1252 31.0312 48.1278 31.0309 48.1265V48.1265ZM30.9101 48.1265C30.9098 48.1278 30.9104 48.1252 30.9101 48.1265V48.1265Z" fill="#323150"/>
<path d="M92.046 41H86.238L80.43 12.884H84.17L88.262 33.894L89.032 37.942H89.428L90.176 33.894L94.29 13.61H99.68L103.794 33.894L104.542 37.942H104.938L105.73 33.894L109.822 12.884H113.518L107.732 41H101.968L98.712 24.83L97.172 16.624H96.82L95.258 24.83L92.046 41ZM130.369 41H126.827L126.981 35.786L126.849 35.236V28.394L126.871 27.14C126.871 25.3947 126.424 24.104 125.529 23.268C124.649 22.432 123.249 22.014 121.327 22.014C119.787 22.014 118.372 22.234 117.081 22.674C115.805 23.114 114.669 23.6273 113.671 24.214L114.001 21.178C114.559 20.8407 115.219 20.5107 115.981 20.188C116.759 19.8507 117.639 19.572 118.621 19.352C119.619 19.132 120.711 19.022 121.899 19.022C123.439 19.022 124.745 19.2127 125.815 19.594C126.901 19.9607 127.773 20.496 128.433 21.2C129.108 21.904 129.599 22.7547 129.907 23.752C130.215 24.7493 130.369 25.864 130.369 27.096V41ZM119.435 41.462C117.309 41.462 115.673 40.9487 114.529 39.922C113.4 38.8807 112.835 37.3993 112.835 35.478V34.84C112.835 32.86 113.444 31.386 114.661 30.418C115.893 29.4353 117.844 28.7533 120.513 28.372L127.311 27.404L127.509 30L120.953 30.946C119.311 31.1807 118.137 31.584 117.433 32.156C116.729 32.7133 116.377 33.542 116.377 34.642V34.994C116.377 36.1233 116.722 36.9887 117.411 37.59C118.115 38.1913 119.164 38.492 120.557 38.492C121.789 38.492 122.845 38.2793 123.725 37.854C124.605 37.4287 125.317 36.8567 125.859 36.138C126.402 35.4193 126.769 34.62 126.959 33.74L127.509 36.16H126.827C126.622 37.0987 126.233 37.9713 125.661 38.778C125.104 39.5847 124.319 40.2373 123.307 40.736C122.295 41.22 121.005 41.462 119.435 41.462ZM137.723 41H134.181V11.85H137.723V41ZM145.932 41H142.39V11.85H145.932V41ZM159.122 41.484C155.852 41.484 153.388 40.6847 151.73 39.086C150.073 37.4873 149.244 35.1993 149.244 32.222V28.394C149.244 25.3727 150.014 23.048 151.554 21.42C153.094 19.7773 155.346 18.956 158.308 18.956C160.303 18.956 161.968 19.33 163.302 20.078C164.637 20.8113 165.642 21.86 166.316 23.224C166.991 24.588 167.328 26.216 167.328 28.108V28.9C167.328 29.3693 167.306 29.8387 167.262 30.308C167.233 30.7773 167.189 31.2393 167.13 31.694H163.852C163.882 30.99 163.896 30.3227 163.896 29.692C163.911 29.0613 163.918 28.482 163.918 27.954C163.918 26.6487 163.706 25.5487 163.28 24.654C162.87 23.7447 162.246 23.0553 161.41 22.586C160.589 22.102 159.555 21.86 158.308 21.86C156.46 21.86 155.074 22.3953 154.15 23.466C153.226 24.5367 152.764 26.0693 152.764 28.064V30.11L152.786 30.55V32.596C152.786 33.4907 152.918 34.2973 153.182 35.016C153.446 35.7347 153.857 36.358 154.414 36.886C154.986 37.3993 155.705 37.7953 156.57 38.074C157.45 38.338 158.492 38.47 159.694 38.47C161.088 38.47 162.386 38.2867 163.588 37.92C164.791 37.5533 165.92 37.0547 166.976 36.424L166.646 39.504C165.693 40.1053 164.586 40.5893 163.324 40.956C162.063 41.308 160.662 41.484 159.122 41.484ZM166.382 31.694H151.114V29.01H166.382V31.694ZM177.426 41.462C174.845 41.462 172.88 40.6627 171.53 39.064C170.181 37.4653 169.506 35.1333 169.506 32.068V28.526C169.506 25.446 170.188 23.0993 171.552 21.486C172.916 19.858 174.926 19.044 177.58 19.044C178.9 19.044 180.044 19.2713 181.012 19.726C181.98 20.166 182.765 20.7893 183.366 21.596C183.968 22.4027 184.371 23.356 184.576 24.456H185.742L184.686 27.734C184.642 26.4727 184.356 25.4167 183.828 24.566C183.315 23.7007 182.611 23.048 181.716 22.608C180.836 22.168 179.824 21.948 178.68 21.948C176.862 21.948 175.468 22.476 174.5 23.532C173.547 24.588 173.07 26.1427 173.07 28.196V32.288C173.07 34.312 173.547 35.852 174.5 36.908C175.468 37.964 176.862 38.492 178.68 38.492C179.766 38.492 180.726 38.2867 181.562 37.876C182.398 37.4507 183.088 36.8713 183.63 36.138C184.188 35.39 184.569 34.5467 184.774 33.608L185.654 36.16H184.598C184.393 37.128 183.997 38.0153 183.41 38.822C182.838 39.6287 182.061 40.274 181.078 40.758C180.11 41.2273 178.893 41.462 177.426 41.462ZM188.162 41H184.598L184.752 35.808L184.686 34.664V25.688L184.708 24.94L184.62 18.846V11.85H188.162V41Z" fill="#323150"/>
<path d="M201.692 41H197.996L206.796 12.884H212.56L221.382 41H217.686L209.964 15.348H209.414L201.692 41ZM216.08 32.706H203.276V29.67H216.08V32.706ZM227.7 12.884V41H224.048V12.884H227.7Z" fill="url(#paint1_linear_1039_229)"/>
<defs>
<linearGradient id="paint0_linear_1039_229" x1="14.4389" y1="0.119663" x2="14.4389" y2="54" gradientUnits="userSpaceOnUse">
<stop stop-color="#F93C52"/>
<stop offset="1" stop-color="#2B21F3"/>
</linearGradient>
<linearGradient id="paint1_linear_1039_229" x1="155.5" y1="13" x2="155.5" y2="41" gradientUnits="userSpaceOnUse">
<stop stop-color="#F93C52"/>
<stop offset="1" stop-color="#2B21F3"/>
</linearGradient>
</defs>
</svg>
