<svg width="233" height="54" viewBox="0 0 233 54" fill="none" xmlns="http://www.w3.org/2000/svg">
<path fill-rule="evenodd" clip-rule="evenodd" d="M21.9742 10.1902C20.9175 10.5314 19.8351 9.74343 19.8351 8.63303V3.65455C19.8351 3.05214 20.1661 2.49844 20.6967 2.21322L24.2246 0.316915C25.3103 -0.26666 26.627 0.514171 26.6357 1.74673L26.6759 7.46952C26.681 8.18379 26.2221 8.81879 25.5424 9.03824L21.9742 10.1902ZM3.39995 13.9667C3.39995 15.0788 4.48543 15.8669 5.54288 15.5227L17.2706 11.7045C17.9443 11.4852 18.4003 10.8571 18.4003 10.1485V6.35866C18.4003 5.11333 17.0646 4.32441 15.974 4.92565L4.2463 11.391C3.7242 11.6789 3.39995 12.2279 3.39995 12.8241V13.9667ZM12.7697 14.561C12.0846 14.7733 11.6175 15.4069 11.6175 16.1241V18.9978C11.6175 20.045 12.5875 20.8227 13.6097 20.595L25.3461 17.9805C26.0826 17.8164 26.6114 17.17 26.6263 16.4156L26.7036 12.4969C26.7257 11.3814 25.6492 10.5714 24.5834 10.9016L12.7697 14.561ZM5.0079 29.5317C4.11538 29.5163 3.39995 28.7883 3.39995 27.8956V25.3647C3.39995 24.5896 3.94373 23.9209 4.70252 23.7628L16.4302 21.3191C17.4464 21.1074 18.4003 21.8831 18.4003 22.9211V28.0993C18.4003 29.0141 17.6503 29.7513 16.7356 29.7354L5.0079 29.5317ZM12.8789 38.0052C12.1398 37.8312 11.6176 37.1717 11.6176 36.4124V30.9376C11.6176 30.9368 11.6182 30.9363 11.6189 30.9363L26.2841 31.2468C26.5077 31.2515 26.7338 31.3377 26.7478 31.5609C26.7497 31.5901 26.7515 31.6191 26.7549 31.6473C27.0314 33.9042 26.7784 37.7825 26.6114 40.1136C26.5934 40.3593 26.5939 40.6098 26.6611 40.8475C26.6811 40.9182 26.677 40.9946 26.6415 41.0589C26.5875 41.1568 26.4749 41.2067 26.366 41.1811L12.8789 38.0052ZM4.25108 41.8203C3.72631 41.5332 3.39995 40.9828 3.39995 40.3846V39.1214C3.39995 38.0668 4.38296 37.2876 5.40976 37.5283L17.1374 40.2773C17.8772 40.4507 18.4003 41.1106 18.4003 41.8705V46.7991C18.4003 48.042 17.0692 48.8312 15.9788 48.2347L4.25108 41.8203ZM20.6799 50.7424C20.1587 50.4543 19.8352 49.9058 19.8352 49.3102V40.9648C19.8352 40.9643 19.8354 40.9638 19.8357 40.9634C19.8362 40.963 19.8368 40.9628 19.8375 40.9629L25.6131 42.3823C26.1931 42.5249 26.5773 43.1586 26.6838 43.7463C26.7154 43.9208 26.7471 44.0961 26.7549 44.2783C26.8214 45.8278 26.7691 47.4136 26.7169 48.9937C26.6626 50.6356 26.6086 52.2714 26.6884 53.8542C26.6901 53.8928 26.7116 53.9231 26.7274 53.9454C26.817 54.0716 26.4825 53.9495 26.347 53.8746L20.6799 50.7424ZM21.1315 20.2438C20.3757 20.4043 19.8351 21.0717 19.8351 21.8444V28.1583C19.8351 29.0501 20.5491 29.7776 21.4407 29.7944L25.0275 29.862C25.9635 29.8796 26.7233 29.1097 26.7226 28.1735C26.7219 27.2534 26.7385 26.331 26.7551 25.4082V25.4081V25.4081V25.408C26.7833 23.8389 26.8116 22.269 26.7549 20.708C26.7485 20.5242 26.7149 20.3619 26.6821 20.2038C26.6545 20.0706 26.6275 19.9404 26.6179 19.8029C26.6112 19.7079 26.643 19.6177 26.6733 19.5321C26.7839 19.2193 26.3756 19.13 26.0512 19.1989L21.1315 20.2438ZM5.06767 30.838C4.15181 30.8204 3.3999 31.558 3.3999 32.4741V34.4525C3.3999 35.2147 3.92613 35.876 4.66887 36.0471L8.17894 36.8558C9.20416 37.092 10.1827 36.3133 10.1827 35.2612V32.5415C10.1827 31.65 9.46907 30.9225 8.57774 30.9054L5.06767 30.838ZM5.3744 22.3148C4.35704 22.5297 3.3999 21.7536 3.3999 20.7138V18.7318C3.3999 18.0131 3.86878 17.3786 4.55573 17.1676L8.0658 16.0893C9.11792 15.766 10.1827 16.5528 10.1827 17.6535V19.9724C10.1827 20.7459 9.64119 21.4137 8.88447 21.5735L5.3744 22.3148Z" fill="url(#paint0_linear_1047_291)"/>
<path fill-rule="evenodd" clip-rule="evenodd" d="M45.6818 9.58297C45.6818 8.98772 45.3585 8.43942 44.8377 8.15121L30.4814 0.206958C29.3907 -0.396558 28.0527 0.392242 28.0527 1.63872V3.71433C28.0527 4.34191 28.4116 4.9142 28.9766 5.18745L41.3083 11.1516C41.8733 11.4248 42.2322 11.9971 42.2322 12.6247V17.2987C42.2322 17.9265 42.6438 18.481 42.9759 19.0138C43.1956 19.3664 43.3259 19.8055 43.3259 20.2815C43.3259 21.4439 42.5488 22.3862 41.59 22.3862C40.6313 22.3862 39.8541 21.4439 39.8541 20.2815C39.8541 19.8007 39.9871 19.3575 40.2109 19.0032C40.5561 18.4565 40.9923 17.8882 40.9923 17.2417V13.4007C40.9923 12.7731 40.6334 12.2008 40.0684 11.9276L30.4015 7.25225C29.3149 6.72672 28.0527 7.51833 28.0527 8.72537V51.3113C28.0527 52.5563 29.3879 53.3453 30.4785 52.7447L34.1713 50.7109C34.6938 50.4231 35.0183 49.8739 35.0183 49.2775V33.5946C35.0183 33.0129 34.6793 32.4846 34.1506 32.2421C33.165 31.7901 32.0424 32.5103 32.0424 33.5946V45.8204C32.0424 46.5083 32.5328 47.1288 32.8574 47.7352C33.0463 48.0881 33.1583 48.5278 33.1583 49.0045C33.1583 50.1669 32.4922 51.1092 31.6704 51.1092C30.8487 51.1092 30.1825 50.1669 30.1825 49.0045C30.1825 48.5764 30.2728 48.1781 30.4281 47.8458C30.6096 47.4571 30.8025 47.0543 30.8025 46.6252V31.8949C30.8025 30.7025 32.037 29.9105 33.1209 30.4075L35.304 31.4086C35.8854 31.6753 36.2582 32.2563 36.2582 32.896V46.7922C36.2582 48.0373 37.5934 48.8262 38.684 48.2256L40.123 47.433C40.6455 47.1453 40.97 46.5961 40.97 45.9997L40.97 28.4536V28.4536C40.9701 28.4443 40.9647 28.4358 40.9563 28.4318C40.311 28.1249 39.8541 27.363 39.8541 26.4718C39.8541 25.3094 40.6313 24.3671 41.59 24.3671C42.5488 24.3671 43.3259 25.3094 43.3259 26.4718C43.3259 27.3631 42.8689 28.1251 42.2235 28.432C42.2151 28.4359 42.2098 28.4444 42.2099 28.4536V28.4536V43.5144C42.2099 44.7594 43.5451 45.5484 44.6357 44.9477L44.8348 44.8381C45.3572 44.5503 45.6818 44.0011 45.6818 43.4047L45.6818 18.3354C45.6818 17.1194 46.9611 16.3282 48.049 16.8713L48.9921 17.3421C49.547 17.6191 49.8975 18.186 49.8975 18.8062V24.9461C49.8975 25.5833 50.3213 26.1446 50.66 26.6844C50.8818 27.0379 51.0134 27.479 51.0134 27.9575C51.0134 29.1199 50.2363 30.0622 49.2775 30.0622C48.3188 30.0622 47.5416 29.1199 47.5416 27.9575C47.5416 27.479 47.6733 27.0379 47.8951 26.6844C48.2338 26.1446 48.6576 25.5832 48.6576 24.946V19.0961C48.6576 18.7672 48.4717 18.4665 48.1773 18.3196C47.6003 18.0315 46.9217 18.4511 46.9217 19.0961V42.2199C46.9217 42.8802 47.6299 43.2987 48.2084 42.9801V42.9801C48.4855 42.8275 48.6576 42.5362 48.6576 42.2198V32.6631C48.6576 32.3207 48.9352 32.0431 49.2776 32.0431C49.62 32.0431 49.8975 32.3207 49.8975 32.6631L49.8975 40.7228C49.8975 41.3194 50.5373 41.6975 51.0599 41.4097V41.4097C51.3099 41.272 51.4653 41.0094 51.4657 40.724L51.5088 12.2456C51.5092 11.9973 51.3745 11.7684 51.1572 11.6482V11.6482C50.7029 11.3968 50.1455 11.7254 50.1455 12.2446V13.9325C50.1455 15.1485 48.8662 15.9397 47.7783 15.3966L46.5872 14.8019C46.0323 14.5249 45.6818 13.9581 45.6818 13.3379V9.58297ZM48.3939 10.1191C47.7328 9.75325 46.9217 10.2314 46.9217 10.987V12.9713C46.9217 13.3472 47.1342 13.6908 47.4706 13.8588C48.1301 14.188 48.9056 13.7084 48.9056 12.9713V10.987C48.9056 10.6262 48.7096 10.2938 48.3939 10.1191V10.1191ZM34.9561 17.0073C35.5245 17.2792 35.8862 17.8533 35.8862 18.4834V23.1545C35.8862 24.3987 34.5527 25.1877 33.4622 24.5889L33.0151 24.3433C32.4917 24.0559 32.1664 23.5062 32.1664 22.909V20.4028C32.1664 19.9785 32.6031 19.6945 32.991 19.8666C33.2869 19.9979 33.6332 19.8647 33.7648 19.569L33.7781 19.5393C33.9172 19.2266 33.7764 18.8603 33.4636 18.7215L32.8064 18.4299C31.922 18.0374 30.9265 18.6848 30.9265 19.6523V23.641C30.9265 24.2382 31.2518 24.7879 31.7752 25.0754L34.7021 26.6828C35.7927 27.2816 37.1262 26.4926 37.1262 25.2484V17.7038C37.1262 17.0737 36.7644 16.4996 36.1961 16.2277L32.1998 14.3157C32.0211 14.2302 31.9185 14.0416 31.9185 13.8435V13.8435C31.9185 12.6811 31.3079 11.7388 30.5546 11.7388C29.8013 11.7388 29.1907 12.6811 29.1907 13.8435C29.1907 15.0059 29.8013 15.9482 30.5546 15.9482V15.9482C31.2238 15.9482 31.9515 15.5697 32.5551 15.8586L34.9561 17.0073ZM30.6786 13.8435C30.6786 13.8466 30.6786 13.8496 30.6786 13.8527C30.678 13.9817 30.6107 14.098 30.5548 14.2143V14.2143V14.2143C30.5368 14.252 30.4725 14.2515 30.4646 14.2105C30.4435 14.1012 30.4306 13.9783 30.4306 13.8435V13.8435C30.4306 13.587 30.6786 13.587 30.6786 13.8435V13.8435ZM42.086 26.4718C42.086 26.7823 41.9815 27.0262 41.8604 27.173C41.7414 27.3172 41.6398 27.3384 41.59 27.3384C41.5403 27.3384 41.4387 27.3172 41.3197 27.173C41.1986 27.0262 41.0941 26.7823 41.0941 26.4718C41.0941 26.1612 41.1986 25.9174 41.3197 25.7706C41.4387 25.6263 41.5403 25.6051 41.59 25.6051C41.6398 25.6051 41.7414 25.6263 41.8604 25.7706C41.9815 25.9174 42.086 26.1612 42.086 26.4718ZM41.8604 20.9827C41.9815 20.8359 42.086 20.592 42.086 20.2815C42.086 19.9709 41.9815 19.7271 41.8604 19.5803C41.7414 19.436 41.6398 19.4148 41.59 19.4148C41.5403 19.4148 41.4387 19.436 41.3197 19.5803C41.1986 19.7271 41.0941 19.9709 41.0941 20.2815C41.0941 20.592 41.1986 20.8359 41.3197 20.9827C41.4387 21.1269 41.5403 21.1481 41.59 21.1481C41.6398 21.1481 41.7414 21.1269 41.8604 20.9827ZM49.7735 27.9575C49.7735 28.268 49.669 28.5119 49.5479 28.6587C49.4289 28.8029 49.3273 28.8241 49.2775 28.8241C49.2278 28.8241 49.1262 28.8029 49.0072 28.6587C48.8861 28.5119 48.7816 28.268 48.7816 27.9575C48.7816 27.6469 48.8861 27.4031 49.0072 27.2563C49.1262 27.1121 49.2278 27.0908 49.2775 27.0908C49.3273 27.0908 49.4289 27.1121 49.5479 27.2563C49.669 27.4031 49.7735 27.6469 49.7735 27.9575ZM30.4052 14.7484V14.7484C30.405 14.7472 30.4055 14.7497 30.4052 14.7484V14.7484ZM30.704 12.9385V12.9385C30.7042 12.9398 30.7037 12.9373 30.704 12.9385V12.9385ZM30.4052 12.9385C30.4055 12.9373 30.405 12.9398 30.4052 12.9385V12.9385V12.9385ZM31.9184 49.0045C31.9184 49.3606 31.8144 49.6304 31.7096 49.7788V49.7788C31.6901 49.8062 31.6507 49.8062 31.6313 49.7788V49.7788C31.5264 49.6304 31.4224 49.3606 31.4224 49.0045C31.4224 48.6484 31.5264 48.3785 31.6313 48.2302V48.2302C31.6507 48.2027 31.6901 48.2027 31.7096 48.2302V48.2302C31.8144 48.3785 31.9184 48.6484 31.9184 49.0045ZM31.6124 49.8817C31.6132 49.8813 31.6128 49.8805 31.612 49.881C31.6106 49.8817 31.61 49.8823 31.61 49.8824C31.6101 49.8826 31.6108 49.8824 31.6124 49.8817V49.8817ZM31.7308 49.8824C31.7309 49.8823 31.7304 49.8818 31.7293 49.8812C31.7284 49.8807 31.728 49.8815 31.7289 49.8819V49.8819C31.7302 49.8825 31.7308 49.8826 31.7308 49.8824ZM31.7308 48.1265V48.1265C31.7311 48.1278 31.7306 48.1252 31.7308 48.1265V48.1265ZM31.61 48.1265C31.6103 48.1252 31.6097 48.1278 31.61 48.1265V48.1265V48.1265Z" fill="#EFEFF5"/>
<path d="M92.746 41H86.938L81.13 12.884H84.87L88.962 33.894L89.732 37.942H90.128L90.876 33.894L94.99 13.61H100.38L104.494 33.894L105.242 37.942H105.638L106.43 33.894L110.522 12.884H114.218L108.432 41H102.668L99.412 24.83L97.872 16.624H97.52L95.958 24.83L92.746 41ZM131.069 41H127.527L127.681 35.786L127.549 35.236V28.394L127.571 27.14C127.571 25.3947 127.124 24.104 126.229 23.268C125.349 22.432 123.949 22.014 122.027 22.014C120.487 22.014 119.072 22.234 117.781 22.674C116.505 23.114 115.369 23.6273 114.371 24.214L114.701 21.178C115.259 20.8407 115.919 20.5107 116.681 20.188C117.459 19.8507 118.339 19.572 119.321 19.352C120.319 19.132 121.411 19.022 122.599 19.022C124.139 19.022 125.445 19.2127 126.515 19.594C127.601 19.9607 128.473 20.496 129.133 21.2C129.808 21.904 130.299 22.7547 130.607 23.752C130.915 24.7493 131.069 25.864 131.069 27.096V41ZM120.135 41.462C118.009 41.462 116.373 40.9487 115.229 39.922C114.1 38.8807 113.535 37.3993 113.535 35.478V34.84C113.535 32.86 114.144 31.386 115.361 30.418C116.593 29.4353 118.544 28.7533 121.213 28.372L128.011 27.404L128.209 30L121.653 30.946C120.011 31.1807 118.837 31.584 118.133 32.156C117.429 32.7133 117.077 33.542 117.077 34.642V34.994C117.077 36.1233 117.422 36.9887 118.111 37.59C118.815 38.1913 119.864 38.492 121.257 38.492C122.489 38.492 123.545 38.2793 124.425 37.854C125.305 37.4287 126.017 36.8567 126.559 36.138C127.102 35.4193 127.469 34.62 127.659 33.74L128.209 36.16H127.527C127.322 37.0987 126.933 37.9713 126.361 38.778C125.804 39.5847 125.019 40.2373 124.007 40.736C122.995 41.22 121.705 41.462 120.135 41.462ZM138.423 41H134.881V11.85H138.423V41ZM146.632 41H143.09V11.85H146.632V41ZM159.822 41.484C156.552 41.484 154.088 40.6847 152.43 39.086C150.773 37.4873 149.944 35.1993 149.944 32.222V28.394C149.944 25.3727 150.714 23.048 152.254 21.42C153.794 19.7773 156.046 18.956 159.008 18.956C161.003 18.956 162.668 19.33 164.002 20.078C165.337 20.8113 166.342 21.86 167.016 23.224C167.691 24.588 168.028 26.216 168.028 28.108V28.9C168.028 29.3693 168.006 29.8387 167.962 30.308C167.933 30.7773 167.889 31.2393 167.83 31.694H164.552C164.582 30.99 164.596 30.3227 164.596 29.692C164.611 29.0613 164.618 28.482 164.618 27.954C164.618 26.6487 164.406 25.5487 163.98 24.654C163.57 23.7447 162.946 23.0553 162.11 22.586C161.289 22.102 160.255 21.86 159.008 21.86C157.16 21.86 155.774 22.3953 154.85 23.466C153.926 24.5367 153.464 26.0693 153.464 28.064V30.11L153.486 30.55V32.596C153.486 33.4907 153.618 34.2973 153.882 35.016C154.146 35.7347 154.557 36.358 155.114 36.886C155.686 37.3993 156.405 37.7953 157.27 38.074C158.15 38.338 159.192 38.47 160.394 38.47C161.788 38.47 163.086 38.2867 164.288 37.92C165.491 37.5533 166.62 37.0547 167.676 36.424L167.346 39.504C166.393 40.1053 165.286 40.5893 164.024 40.956C162.763 41.308 161.362 41.484 159.822 41.484ZM167.082 31.694H151.814V29.01H167.082V31.694ZM178.126 41.462C175.545 41.462 173.58 40.6627 172.23 39.064C170.881 37.4653 170.206 35.1333 170.206 32.068V28.526C170.206 25.446 170.888 23.0993 172.252 21.486C173.616 19.858 175.626 19.044 178.28 19.044C179.6 19.044 180.744 19.2713 181.712 19.726C182.68 20.166 183.465 20.7893 184.066 21.596C184.668 22.4027 185.071 23.356 185.276 24.456H186.442L185.386 27.734C185.342 26.4727 185.056 25.4167 184.528 24.566C184.015 23.7007 183.311 23.048 182.416 22.608C181.536 22.168 180.524 21.948 179.38 21.948C177.562 21.948 176.168 22.476 175.2 23.532C174.247 24.588 173.77 26.1427 173.77 28.196V32.288C173.77 34.312 174.247 35.852 175.2 36.908C176.168 37.964 177.562 38.492 179.38 38.492C180.466 38.492 181.426 38.2867 182.262 37.876C183.098 37.4507 183.788 36.8713 184.33 36.138C184.888 35.39 185.269 34.5467 185.474 33.608L186.354 36.16H185.298C185.093 37.128 184.697 38.0153 184.11 38.822C183.538 39.6287 182.761 40.274 181.778 40.758C180.81 41.2273 179.593 41.462 178.126 41.462ZM188.862 41H185.298L185.452 35.808L185.386 34.664V25.688L185.408 24.94L185.32 18.846V11.85H188.862V41Z" fill="#EFEFF5"/>
<path d="M202.392 41H198.696L207.496 12.884H213.26L222.082 41H218.386L210.664 15.348H210.114L202.392 41ZM216.78 32.706H203.976V29.67H216.78V32.706ZM228.4 12.884V41H224.748V12.884H228.4Z" fill="url(#paint1_linear_1047_291)"/>
<defs>
<linearGradient id="paint0_linear_1047_291" x1="15.1389" y1="0.119663" x2="15.1389" y2="54" gradientUnits="userSpaceOnUse">
<stop stop-color="#F93C52"/>
<stop offset="1" stop-color="#2B21F3"/>
</linearGradient>
<linearGradient id="paint1_linear_1047_291" x1="156.2" y1="13" x2="156.2" y2="41" gradientUnits="userSpaceOnUse">
<stop stop-color="#F93C52"/>
<stop offset="1" stop-color="#2B21F3"/>
</linearGradient>
</defs>
</svg>
