<svg width="193" height="219" viewBox="0 0 193 219" fill="none" xmlns="http://www.w3.org/2000/svg">
<rect y="1" width="193" height="217" rx="12" fill="#0A0A10"/>
<path d="M66.0702 165.478V186.487L52.4473 200.11V218" stroke="#28273F" stroke-linecap="round"/>
<path d="M127.243 165.478V186.487L140.866 200.11V218" stroke="#28273F" stroke-linecap="round"/>
<path d="M96.5 1L96.5 218" stroke="#28273F" stroke-linecap="round"/>
<path d="M15.584 127.864C17.0567 127.864 18.2507 126.67 18.2507 125.197C18.2507 123.725 17.0567 122.531 15.584 122.531C14.1112 122.531 12.9173 123.725 12.9173 125.197C12.9173 126.67 14.1112 127.864 15.584 127.864ZM177.73 127.864C179.203 127.864 180.397 126.67 180.397 125.197C180.397 123.724 179.203 122.531 177.73 122.531C176.258 122.531 175.064 123.724 175.064 125.197C175.064 126.67 176.258 127.864 177.73 127.864ZM15.584 125.697L177.73 125.697L177.73 124.697L15.584 124.697L15.584 125.697Z" fill="#28273F"/>
<path d="M15.584 156.296C17.0567 156.296 18.2507 155.102 18.2507 153.629C18.2507 152.156 17.0567 150.962 15.584 150.962C14.1112 150.962 12.9173 152.156 12.9173 153.629C12.9173 155.102 14.1112 156.296 15.584 156.296ZM177.73 156.296C179.203 156.296 180.397 155.102 180.397 153.629C180.397 152.156 179.203 150.962 177.73 150.962C176.258 150.962 175.064 152.156 175.064 153.629C175.064 155.102 176.258 156.296 177.73 156.296ZM15.584 154.129L177.73 154.129L177.73 153.129L15.584 153.129L15.584 154.129Z" fill="#28273F"/>
<path d="M87.7837 67.5684V80.9685L79 89.7522V103.446" stroke="#28273F" stroke-linecap="round"/>
<path d="M105.252 67.5684V80.9685L114.036 89.7522V103.446" stroke="#28273F" stroke-linecap="round"/>
<rect x="76.1445" y="28.1416" width="40.7098" height="40.7098" rx="10" fill="url(#paint0_linear_1124_9691)"/>
<rect x="77.623" y="29.6201" width="37.7521" height="37.7521" rx="10" fill="#28273F"/>
<rect x="33.124" y="88.4668" width="127.065" height="101.892" rx="15.5" fill="#141320" stroke="url(#paint1_linear_1124_9691)"/>
<circle cx="61.5481" cy="109.452" r="10.095" stroke="url(#paint2_linear_1124_9691)"/>
<circle cx="61.5481" cy="138.47" r="10.095" stroke="url(#paint3_linear_1124_9691)"/>
<circle cx="61.5481" cy="167.488" r="10.095" stroke="url(#paint4_linear_1124_9691)"/>
<circle cx="61.5485" cy="109.453" r="8.66566" fill="#28273F"/>
<circle cx="61.5485" cy="138.47" r="8.66566" fill="#28273F"/>
<circle cx="61.5485" cy="167.488" r="8.66566" fill="#28273F"/>
<path d="M63.3815 107.619L61.5482 109.452L59.7148 111.286" stroke="#F46E56" stroke-width="2" stroke-linecap="round" stroke-linejoin="round"/>
<path d="M63.3809 111.286L61.5475 109.452L59.7142 107.619" stroke="#F46E56" stroke-width="2" stroke-linecap="round" stroke-linejoin="round"/>
<path d="M63.3815 136.637L61.5482 138.47L59.7148 140.303" stroke="#F46E56" stroke-width="2" stroke-linecap="round" stroke-linejoin="round"/>
<path d="M63.3809 140.303L61.5475 138.47L59.7142 136.637" stroke="#F46E56" stroke-width="2" stroke-linecap="round" stroke-linejoin="round"/>
<g clip-path="url(#clip0_1124_9691)">
<path d="M64.2147 165.487L60.548 169.154L58.8813 167.487" stroke="#859900" stroke-width="2" stroke-linecap="round" stroke-linejoin="round"/>
</g>
<path d="M80.1436 105.662H141.317" stroke="#28273F" stroke-width="4" stroke-linecap="round"/>
<path d="M80.1436 134.68H141.317" stroke="#28273F" stroke-width="4" stroke-linecap="round"/>
<path d="M80.1436 163.697H141.317" stroke="#28273F" stroke-width="4" stroke-linecap="round"/>
<path d="M80.1436 113.243H110.73" stroke="#28273F" stroke-width="4" stroke-linecap="round"/>
<path d="M80.1436 142.261H110.73" stroke="#28273F" stroke-width="4" stroke-linecap="round"/>
<path d="M80.1436 171.277H110.73" stroke="#28273F" stroke-width="4" stroke-linecap="round"/>
<path d="M34.3164 1V40.2782C34.3164 45.2488 38.3458 49.2782 43.3164 49.2782H67.2578" stroke="#28273F" stroke-linecap="round"/>
<path d="M158.684 1V40.2782C158.684 45.2488 154.654 49.2782 149.684 49.2782H125.742" stroke="#28273F" stroke-linecap="round"/>
<g filter="url(#filter0_dddd_1124_9691)">
<rect x="67.2578" y="41.1875" width="4.41943" height="14.6176" rx="2.20972" fill="#28273F"/>
</g>
<g filter="url(#filter1_dddd_1124_9691)">
<rect x="121.322" y="41.1875" width="4.41943" height="14.6176" rx="2.20972" fill="#28273F"/>
</g>
<path fill-rule="evenodd" clip-rule="evenodd" d="M93.9555 41.0246C93.4859 41.1763 93.0048 40.8261 93.0048 40.3325V38.1199C93.0048 37.8521 93.1519 37.6061 93.3878 37.4793L94.9557 36.6365C95.4383 36.3771 96.0235 36.7242 96.0273 37.272L96.0452 39.8154C96.0474 40.1329 95.8435 40.4151 95.5414 40.5126L93.9555 41.0246ZM85.7003 42.703C85.7003 43.1973 86.1827 43.5476 86.6527 43.3946L91.865 41.6976C92.1644 41.6001 92.3671 41.321 92.3671 41.0061V39.3217C92.3671 38.7682 91.7734 38.4176 91.2887 38.6848L86.0764 41.5583C85.8444 41.6862 85.7003 41.9302 85.7003 42.1952V42.703ZM89.8647 42.9672C89.5602 43.0615 89.3526 43.3431 89.3526 43.6619V44.9391C89.3526 45.4045 89.7837 45.7502 90.238 45.649L95.4542 44.487C95.7815 44.4141 96.0165 44.1268 96.0232 43.7915L96.0575 42.0498C96.0673 41.554 95.5889 41.1941 95.1152 41.3408L89.8647 42.9672ZM86.4149 49.6209C86.0182 49.614 85.7003 49.2904 85.7003 48.8937V47.7688C85.7003 47.4244 85.942 47.1271 86.2792 47.0569L91.4915 45.9708C91.9431 45.8767 92.3671 46.2215 92.3671 46.6828V48.9842C92.3671 49.3908 92.0338 49.7184 91.6272 49.7114L86.4149 49.6209ZM89.9131 53.3868C89.5847 53.3095 89.3525 53.0164 89.3525 52.6789V50.2457C89.3525 50.2453 89.3528 50.2451 89.3531 50.2451L95.871 50.3831C95.9704 50.3852 96.0709 50.4235 96.0771 50.5227V50.5227V50.5227C96.0779 50.5357 96.0787 50.5486 96.0803 50.5611C96.2032 51.5642 96.0907 53.2878 96.0165 54.3239C96.0085 54.4331 96.0087 54.5444 96.0386 54.6501C96.0475 54.6815 96.0456 54.7154 96.0299 54.744C96.0058 54.7875 95.9558 54.8097 95.9074 54.7983L89.9131 53.3868ZM86.0786 55.0824C85.8453 54.9549 85.7003 54.7102 85.7003 54.4444V53.8829C85.7003 53.4142 86.1372 53.0679 86.5935 53.1749L91.8058 54.3967C92.1346 54.4737 92.3671 54.767 92.3671 55.1047V57.2952C92.3671 57.8476 91.7755 58.1984 91.2908 57.9333L86.0786 55.0824ZM93.3802 59.0478C93.1486 58.9198 93.0048 58.676 93.0048 58.4113V54.7022C93.0048 54.702 93.0048 54.7018 93.005 54.7016C93.0052 54.7014 93.0055 54.7013 93.0058 54.7014L95.5727 55.3322C95.8305 55.3956 96.0012 55.6773 96.0486 55.9385C96.0626 56.016 96.0767 56.0939 96.0802 56.1749C96.1098 56.8635 96.0865 57.5683 96.0633 58.2705V58.2706V58.2706V58.2706V58.2706C96.0392 59.0004 96.0152 59.7274 96.0506 60.4308C96.0514 60.448 96.0609 60.4614 96.068 60.4714C96.1078 60.5275 95.9591 60.4732 95.8989 60.4399L93.3802 59.0478ZM93.5809 45.4929C93.245 45.5642 93.0047 45.8608 93.0047 46.2043V49.0105C93.0047 49.4068 93.3221 49.7301 93.7183 49.7376L95.3125 49.7676C95.7285 49.7755 96.0662 49.4333 96.0658 49.0172C96.0655 48.6082 96.0729 48.1982 96.0803 47.7881V47.788V47.788V47.788C96.0928 47.0907 96.1054 46.393 96.0802 45.6992C96.0774 45.6175 96.0624 45.5454 96.0478 45.4751C96.0356 45.4159 96.0236 45.358 96.0193 45.2969C96.0163 45.2547 96.0305 45.2146 96.0439 45.1765C96.0931 45.0376 95.9116 44.9978 95.7674 45.0285L93.5809 45.4929ZM86.4414 50.2014C86.0344 50.1936 85.7002 50.5214 85.7002 50.9285V51.8079C85.7002 52.1466 85.9341 52.4405 86.2642 52.5166L87.8242 52.876C88.2799 52.981 88.7148 52.6349 88.7148 52.1673V50.9585C88.7148 50.5623 88.3976 50.239 88.0015 50.2314L86.4414 50.2014ZM86.5778 46.4133C86.1256 46.5088 85.7002 46.1639 85.7002 45.7018V44.8209C85.7002 44.5015 85.9086 44.2195 86.2139 44.1257L87.7739 43.6464C88.2415 43.5028 88.7148 43.8524 88.7148 44.3416V45.3723C88.7148 45.716 88.4741 46.0128 88.1378 46.0839L86.5778 46.4133Z" fill="url(#paint5_linear_1124_9691)"/>
<path fill-rule="evenodd" clip-rule="evenodd" d="M104.492 40.7552C104.492 40.4906 104.348 40.2469 104.117 40.1188L97.7361 36.5881C97.2514 36.3198 96.6567 36.6704 96.6567 37.2244V38.1469C96.6567 38.4258 96.8163 38.6802 97.0674 38.8016L102.548 41.4524C102.799 41.5738 102.959 41.8282 102.959 42.1071V44.1844C102.959 44.4634 103.142 44.7099 103.289 44.9467C103.387 45.1034 103.445 45.2985 103.445 45.5101C103.445 46.0267 103.099 46.4455 102.673 46.4455C102.247 46.4455 101.902 46.0267 101.902 45.5101C101.902 45.2964 101.961 45.0994 102.06 44.9419C102.214 44.699 102.408 44.4464 102.408 44.1591V42.4519C102.408 42.173 102.248 41.9187 101.997 41.7972L97.7007 39.7193C97.2177 39.4857 96.6567 39.8376 96.6567 40.374V59.3011C96.6567 59.8545 97.2502 60.2051 97.7349 59.9382L99.3761 59.0343C99.6083 58.9064 99.7525 58.6623 99.7525 58.3972V51.427C99.7525 51.1685 99.6018 50.9337 99.3668 50.8259C98.9288 50.625 98.4299 50.9451 98.4299 51.427V56.8605C98.4299 57.1663 98.648 57.4421 98.7923 57.7117C98.8762 57.8686 98.926 58.064 98.926 58.2758C98.926 58.7925 98.6299 59.2113 98.2647 59.2113C97.8995 59.2113 97.6034 58.7925 97.6034 58.2758C97.6034 58.0856 97.6436 57.9087 97.7125 57.761C97.7932 57.5883 97.8788 57.4093 97.8788 57.2187V50.6716C97.8788 50.1416 98.4275 49.7896 98.9092 50.0105L99.8795 50.4555C100.138 50.574 100.304 50.8322 100.304 51.1165V57.2927C100.304 57.846 100.897 58.1966 101.382 57.9297L102.021 57.5773C102.254 57.4495 102.398 57.2054 102.398 56.9403L102.398 49.1421C102.398 49.138 102.396 49.1343 102.392 49.1326C102.105 48.9962 101.902 48.6575 101.902 48.2613C101.902 47.7447 102.247 47.3259 102.673 47.3259C103.099 47.3259 103.445 47.7447 103.445 48.2613C103.445 48.6574 103.242 48.9959 102.955 49.1324C102.951 49.1342 102.949 49.138 102.949 49.1421V55.8357C102.949 56.3891 103.542 56.7397 104.027 56.4728L104.115 56.4241C104.348 56.2962 104.492 56.0521 104.492 55.7871L104.492 44.6451C104.492 44.1047 105.06 43.753 105.544 43.9944L105.963 44.2037C106.21 44.3268 106.366 44.5788 106.366 44.8544V47.5832C106.366 47.8664 106.554 48.1159 106.704 48.3558C106.803 48.5129 106.862 48.709 106.862 48.9216C106.862 49.4383 106.516 49.8571 106.09 49.8571C105.664 49.8571 105.318 49.4383 105.318 48.9216C105.318 48.709 105.377 48.5129 105.476 48.3558C105.626 48.1159 105.814 47.8664 105.814 47.5832V44.9832C105.814 44.837 105.732 44.7034 105.601 44.6381C105.345 44.5101 105.043 44.6966 105.043 44.9832V55.2604C105.043 55.5539 105.358 55.7399 105.615 55.5983C105.738 55.5305 105.815 55.401 105.815 55.2604V51.013C105.815 50.8608 105.938 50.7375 106.09 50.7375C106.242 50.7375 106.366 50.8608 106.366 51.013V54.5951C106.366 54.8603 106.65 55.0283 106.882 54.9004C106.993 54.8392 107.062 54.7225 107.063 54.5957L107.082 41.9386C107.082 41.8282 107.022 41.7265 106.925 41.6731C106.723 41.5613 106.476 41.7074 106.476 41.9381V42.6883C106.476 43.2288 105.907 43.5804 105.424 43.339L104.894 43.0747C104.648 42.9516 104.492 42.6997 104.492 42.424V40.7552ZM105.697 40.9935C105.403 40.8309 105.043 41.0434 105.043 41.3792V42.2611C105.043 42.4282 105.137 42.5809 105.287 42.6555C105.58 42.8019 105.925 42.5887 105.925 42.2611V41.3792C105.925 41.2188 105.838 41.0711 105.697 40.9935ZM99.725 44.0549C99.9776 44.1757 100.138 44.4309 100.138 44.7109V46.787C100.138 47.34 99.5457 47.6906 99.061 47.4245L98.8623 47.3153C98.6297 47.1876 98.4851 46.9433 98.4851 46.6779V45.564C98.4851 45.3754 98.6792 45.2492 98.8516 45.3257C98.9831 45.3841 99.137 45.3249 99.1955 45.1934L99.2014 45.1802C99.2633 45.0412 99.2006 44.8785 99.0616 44.8168L98.7695 44.6871C98.3765 44.5127 97.934 44.8004 97.934 45.2304V47.0032C97.934 47.2686 98.0786 47.5129 98.3112 47.6407L99.6121 48.3551C100.097 48.6213 100.689 48.2706 100.689 47.7176V44.3644C100.689 44.0844 100.529 43.8292 100.276 43.7084L98.5001 42.8587C98.4206 42.8207 98.375 42.7368 98.375 42.6488C98.375 42.1321 98.1036 41.7133 97.7689 41.7133C97.4341 41.7133 97.1627 42.1321 97.1627 42.6488C97.1627 43.1654 97.4341 43.5842 97.7689 43.5842C98.0662 43.5842 98.3896 43.416 98.6579 43.5444L99.725 44.0549ZM97.824 42.6488C97.824 42.65 97.824 42.6513 97.824 42.6525C97.8237 42.71 97.7937 42.7618 97.7688 42.8136C97.7608 42.8303 97.7324 42.8301 97.7289 42.8119C97.7195 42.7633 97.7137 42.7086 97.7137 42.6488C97.7137 42.5347 97.824 42.5347 97.824 42.6488ZM102.894 48.2613C102.894 48.3993 102.847 48.5077 102.793 48.573C102.741 48.6371 102.695 48.6465 102.673 48.6465C102.651 48.6465 102.606 48.6371 102.553 48.573C102.499 48.5077 102.453 48.3993 102.453 48.2613C102.453 48.1233 102.499 48.0149 102.553 47.9497C102.606 47.8856 102.651 47.8761 102.673 47.8761C102.695 47.8761 102.741 47.8856 102.793 47.9497C102.847 48.0149 102.894 48.1233 102.894 48.2613ZM102.793 45.8217C102.847 45.7565 102.894 45.6481 102.894 45.5101C102.894 45.3721 102.847 45.2637 102.793 45.1984C102.741 45.1343 102.695 45.1249 102.673 45.1249C102.651 45.1249 102.606 45.1343 102.553 45.1984C102.499 45.2637 102.453 45.3721 102.453 45.5101C102.453 45.6481 102.499 45.7565 102.553 45.8217C102.606 45.8858 102.651 45.8952 102.673 45.8952C102.695 45.8952 102.741 45.8858 102.793 45.8217ZM106.31 48.9216C106.31 49.0597 106.264 49.168 106.21 49.2333C106.157 49.2974 106.112 49.3068 106.09 49.3068C106.068 49.3068 106.023 49.2974 105.97 49.2333C105.916 49.168 105.87 49.0597 105.87 48.9216C105.87 48.7836 105.916 48.6752 105.97 48.61C106.023 48.5459 106.068 48.5365 106.09 48.5365C106.112 48.5365 106.157 48.5459 106.21 48.61C106.264 48.6752 106.31 48.7836 106.31 48.9216ZM97.7025 43.051C97.7023 43.0504 97.7026 43.0515 97.7025 43.051V43.051ZM97.8352 42.2466C97.8351 42.246 97.8354 42.2471 97.8352 42.2466V42.2466ZM97.7025 42.2466C97.7023 42.2471 97.7026 42.246 97.7025 42.2466V42.2466ZM98.3749 58.2758C98.3749 58.4341 98.3287 58.554 98.2821 58.62C98.2735 58.6322 98.256 58.6322 98.2473 58.62C98.2007 58.554 98.1545 58.4341 98.1545 58.2758C98.1545 58.1176 98.2007 57.9976 98.2473 57.9317C98.256 57.9195 98.2735 57.9195 98.2821 57.9317C98.3287 57.9976 98.3749 58.1176 98.3749 58.2758ZM98.2379 58.666C98.2377 58.6655 98.238 58.6666 98.2379 58.666V58.666ZM98.2916 58.6661C98.2916 58.666 98.2914 58.6658 98.291 58.6656C98.2906 58.6654 98.2904 58.6657 98.2909 58.6659C98.2913 58.6661 98.2915 58.6661 98.2916 58.6661ZM98.2913 57.8859C98.2915 57.8858 98.2916 57.8857 98.2916 57.8856C98.2916 57.8856 98.2914 57.8856 98.2911 57.8857C98.2906 57.8859 98.2908 57.8862 98.2913 57.8859ZM98.2379 57.8856C98.2377 57.8862 98.238 57.8851 98.2379 57.8856V57.8856Z" fill="#EFEFF5"/>
<defs>
<filter id="filter0_dddd_1124_9691" x="52.2578" y="38.1875" width="40.4194" height="81.6172" filterUnits="userSpaceOnUse" color-interpolation-filters="sRGB">
<feFlood flood-opacity="0" result="BackgroundImageFix"/>
<feColorMatrix in="SourceAlpha" type="matrix" values="0 0 0 0 0 0 0 0 0 0 0 0 0 0 0 0 0 0 127 0" result="hardAlpha"/>
<feOffset dy="3"/>
<feGaussianBlur stdDeviation="3"/>
<feColorMatrix type="matrix" values="0 0 0 0 0.639216 0 0 0 0 0.639216 0 0 0 0 0.639216 0 0 0 0.1 0"/>
<feBlend mode="normal" in2="BackgroundImageFix" result="effect1_dropShadow_1124_9691"/>
<feColorMatrix in="SourceAlpha" type="matrix" values="0 0 0 0 0 0 0 0 0 0 0 0 0 0 0 0 0 0 127 0" result="hardAlpha"/>
<feOffset dx="1" dy="11"/>
<feGaussianBlur stdDeviation="5.5"/>
<feColorMatrix type="matrix" values="0 0 0 0 0.639216 0 0 0 0 0.639216 0 0 0 0 0.639216 0 0 0 0.09 0"/>
<feBlend mode="normal" in2="effect1_dropShadow_1124_9691" result="effect2_dropShadow_1124_9691"/>
<feColorMatrix in="SourceAlpha" type="matrix" values="0 0 0 0 0 0 0 0 0 0 0 0 0 0 0 0 0 0 127 0" result="hardAlpha"/>
<feOffset dx="2" dy="26"/>
<feGaussianBlur stdDeviation="7.5"/>
<feColorMatrix type="matrix" values="0 0 0 0 0.639216 0 0 0 0 0.639216 0 0 0 0 0.639216 0 0 0 0.05 0"/>
<feBlend mode="normal" in2="effect2_dropShadow_1124_9691" result="effect3_dropShadow_1124_9691"/>
<feColorMatrix in="SourceAlpha" type="matrix" values="0 0 0 0 0 0 0 0 0 0 0 0 0 0 0 0 0 0 127 0" result="hardAlpha"/>
<feOffset dx="3" dy="46"/>
<feGaussianBlur stdDeviation="9"/>
<feColorMatrix type="matrix" values="0 0 0 0 0.639216 0 0 0 0 0.639216 0 0 0 0 0.639216 0 0 0 0.01 0"/>
<feBlend mode="normal" in2="effect3_dropShadow_1124_9691" result="effect4_dropShadow_1124_9691"/>
<feBlend mode="normal" in="SourceGraphic" in2="effect4_dropShadow_1124_9691" result="shape"/>
</filter>
<filter id="filter1_dddd_1124_9691" x="106.322" y="38.1875" width="40.4194" height="81.6172" filterUnits="userSpaceOnUse" color-interpolation-filters="sRGB">
<feFlood flood-opacity="0" result="BackgroundImageFix"/>
<feColorMatrix in="SourceAlpha" type="matrix" values="0 0 0 0 0 0 0 0 0 0 0 0 0 0 0 0 0 0 127 0" result="hardAlpha"/>
<feOffset dy="3"/>
<feGaussianBlur stdDeviation="3"/>
<feColorMatrix type="matrix" values="0 0 0 0 0.639216 0 0 0 0 0.639216 0 0 0 0 0.639216 0 0 0 0.1 0"/>
<feBlend mode="normal" in2="BackgroundImageFix" result="effect1_dropShadow_1124_9691"/>
<feColorMatrix in="SourceAlpha" type="matrix" values="0 0 0 0 0 0 0 0 0 0 0 0 0 0 0 0 0 0 127 0" result="hardAlpha"/>
<feOffset dx="1" dy="11"/>
<feGaussianBlur stdDeviation="5.5"/>
<feColorMatrix type="matrix" values="0 0 0 0 0.639216 0 0 0 0 0.639216 0 0 0 0 0.639216 0 0 0 0.09 0"/>
<feBlend mode="normal" in2="effect1_dropShadow_1124_9691" result="effect2_dropShadow_1124_9691"/>
<feColorMatrix in="SourceAlpha" type="matrix" values="0 0 0 0 0 0 0 0 0 0 0 0 0 0 0 0 0 0 127 0" result="hardAlpha"/>
<feOffset dx="2" dy="26"/>
<feGaussianBlur stdDeviation="7.5"/>
<feColorMatrix type="matrix" values="0 0 0 0 0.639216 0 0 0 0 0.639216 0 0 0 0 0.639216 0 0 0 0.05 0"/>
<feBlend mode="normal" in2="effect2_dropShadow_1124_9691" result="effect3_dropShadow_1124_9691"/>
<feColorMatrix in="SourceAlpha" type="matrix" values="0 0 0 0 0 0 0 0 0 0 0 0 0 0 0 0 0 0 127 0" result="hardAlpha"/>
<feOffset dx="3" dy="46"/>
<feGaussianBlur stdDeviation="9"/>
<feColorMatrix type="matrix" values="0 0 0 0 0.639216 0 0 0 0 0.639216 0 0 0 0 0.639216 0 0 0 0.01 0"/>
<feBlend mode="normal" in2="effect3_dropShadow_1124_9691" result="effect4_dropShadow_1124_9691"/>
<feBlend mode="normal" in="SourceGraphic" in2="effect4_dropShadow_1124_9691" result="shape"/>
</filter>
<linearGradient id="paint0_linear_1124_9691" x1="112.041" y1="23.289" x2="98.7077" y2="47.9845" gradientUnits="userSpaceOnUse">
<stop stop-color="#F93C52"/>
<stop offset="0.30858" stop-color="#DB3869" stop-opacity="0.927816"/>
<stop offset="0.703319" stop-color="#2B21F3" stop-opacity="0.5"/>
<stop offset="1" stop-color="#141320"/>
</linearGradient>
<linearGradient id="paint1_linear_1124_9691" x1="18.9492" y1="211.242" x2="74.676" y2="94.0775" gradientUnits="userSpaceOnUse">
<stop stop-color="#3B3A5F"/>
<stop offset="1" stop-color="#7A78C5" stop-opacity="0"/>
</linearGradient>
<linearGradient id="paint2_linear_1124_9691" x1="48.6905" y1="124.245" x2="61.6609" y2="102.336" gradientUnits="userSpaceOnUse">
<stop stop-color="#3B3A5F"/>
<stop offset="1" stop-color="#7A78C5" stop-opacity="0"/>
</linearGradient>
<linearGradient id="paint3_linear_1124_9691" x1="48.6905" y1="153.263" x2="61.6609" y2="131.353" gradientUnits="userSpaceOnUse">
<stop stop-color="#3B3A5F"/>
<stop offset="1" stop-color="#7A78C5" stop-opacity="0"/>
</linearGradient>
<linearGradient id="paint4_linear_1124_9691" x1="48.6905" y1="182.28" x2="61.6609" y2="160.371" gradientUnits="userSpaceOnUse">
<stop stop-color="#3B3A5F"/>
<stop offset="1" stop-color="#7A78C5" stop-opacity="0"/>
</linearGradient>
<linearGradient id="paint5_linear_1124_9691" x1="90.9175" y1="36.5488" x2="90.9175" y2="60.4957" gradientUnits="userSpaceOnUse">
<stop stop-color="#F93C52"/>
<stop offset="1" stop-color="#2B21F3"/>
</linearGradient>
<clipPath id="clip0_1124_9691">
<rect width="8" height="8" fill="white" transform="translate(57.5479 163.487)"/>
</clipPath>
</defs>
</svg>
