<svg width="193" height="219" viewBox="0 0 193 219" fill="none" xmlns="http://www.w3.org/2000/svg">
<rect y="1" width="193" height="217" rx="12" fill="#0A0A10"/>
<path d="M65.9129 53.8788V32.8701L52.29 19.2472V1.35693" stroke="#28273F" stroke-linecap="round"/>
<path d="M127.086 53.8788V32.8701L140.709 19.2472V1.35693" stroke="#28273F" stroke-linecap="round"/>
<path d="M65.9129 165.478V186.487L52.29 200.11V218" stroke="#28273F" stroke-linecap="round"/>
<path d="M127.086 165.478V186.487L140.709 200.11V218" stroke="#28273F" stroke-linecap="round"/>
<path d="M96.5 1L96.5 218" stroke="#28273F" stroke-linecap="round"/>
<path d="M109.126 36C109.126 37.4728 110.32 38.6667 111.793 38.6667C113.266 38.6667 114.46 37.4728 114.46 36C114.46 34.5272 113.266 33.3333 111.793 33.3333C110.32 33.3333 109.126 34.5272 109.126 36ZM109.126 183C109.126 184.473 110.32 185.667 111.793 185.667C113.266 185.667 114.46 184.473 114.46 183C114.46 181.527 113.266 180.333 111.793 180.333C110.32 180.333 109.126 181.527 109.126 183ZM111.293 36L111.293 183L112.293 183L112.293 36L111.293 36Z" fill="#28273F"/>
<path d="M78.3333 36C78.3333 37.4728 79.5272 38.6667 81 38.6667C82.4728 38.6667 83.6667 37.4728 83.6667 36C83.6667 34.5272 82.4728 33.3333 81 33.3333C79.5272 33.3333 78.3333 34.5272 78.3333 36ZM78.3333 183C78.3333 184.473 79.5272 185.667 81 185.667C82.4728 185.667 83.6667 184.473 83.6667 183C83.6667 181.527 82.4728 180.333 81 180.333C79.5272 180.333 78.3333 181.527 78.3333 183ZM80.5 36L80.5 183L81.5 183L81.5 36L80.5 36Z" fill="#28273F"/>
<rect x="10" y="79.8379" width="66.2192" height="58.2821" rx="8" fill="#28273F"/>
<rect x="23.6621" y="70.3726" width="66.2192" height="78.6119" rx="9" fill="#3B3A5F"/>
<rect width="66.2192" height="58.2821" rx="8" transform="matrix(-1 0 0 1 183 79.8379)" fill="#28273F"/>
<rect width="66.2192" height="78.6119" rx="9" transform="matrix(-1 0 0 1 169.338 70.3726)" fill="#3B3A5F"/>
<rect x="38.5" y="51.5" width="116" height="116" rx="15.5" fill="#28273F" stroke="url(#paint0_linear_1124_10168)"/>
<rect x="38" y="51" width="117" height="117" rx="16" fill="url(#paint1_linear_1124_10168)"/>
<rect x="42.25" y="55.25" width="108.5" height="108.5" rx="16" fill="#141320"/>
<circle cx="96.4998" cy="109.328" r="11.5642" stroke="#3B3A5F" stroke-width="3"/>
<circle cx="96.4997" cy="109.328" r="7.14764" fill="#3B3A5F"/>
<circle cx="96.4998" cy="109.328" r="4.19513" fill="#141320"/>
<mask id="path-19-inside-1_1124_10168" fill="white">
<path d="M87.1133 90.4356C87.1133 85.2328 91.3309 81.0151 96.5337 81.0151C101.736 81.0151 105.954 85.2328 105.954 90.4355V100.67H87.1133V90.4356Z"/>
</mask>
<path d="M84.1133 90.4355C84.1133 83.5759 89.6741 78.0151 96.5337 78.0151C103.393 78.0151 108.954 83.5759 108.954 90.4355H102.954C102.954 86.8897 100.08 84.0151 96.5337 84.0151C92.9878 84.0151 90.1133 86.8897 90.1133 90.4355H84.1133ZM105.954 100.67H87.1133H105.954ZM84.1133 100.67V90.4355C84.1133 83.5759 89.6741 78.0151 96.5337 78.0151V84.0151C92.9878 84.0151 90.1133 86.8897 90.1133 90.4355V100.67H84.1133ZM96.5337 78.0151C103.393 78.0151 108.954 83.5759 108.954 90.4355V100.67H102.954V90.4355C102.954 86.8897 100.08 84.0151 96.5337 84.0151V78.0151Z" fill="#3B3A5F" mask="url(#path-19-inside-1_1124_10168)"/>
<path d="M65.9131 130.404H127.086" stroke="#3B3A5F" stroke-width="4" stroke-linecap="round"/>
<path d="M81.2065 137.985H111.793" stroke="#3B3A5F" stroke-width="4" stroke-linecap="round"/>
<circle cx="59.3035" cy="72.9216" r="2.55933" fill="#3B3A5F"/>
<circle cx="68.4724" cy="72.9216" r="2.55933" fill="#3B3A5F"/>
<defs>
<linearGradient id="paint0_linear_1124_10168" x1="25.5068" y1="191.178" x2="97.1226" y2="70.2054" gradientUnits="userSpaceOnUse">
<stop stop-color="#3B3A5F"/>
<stop offset="1" stop-color="#7A78C5" stop-opacity="0"/>
</linearGradient>
<linearGradient id="paint1_linear_1124_10168" x1="141.166" y1="37.0537" x2="102.847" y2="108.028" gradientUnits="userSpaceOnUse">
<stop stop-color="#F93C52"/>
<stop offset="0.30858" stop-color="#DB3869" stop-opacity="0.927816"/>
<stop offset="0.703319" stop-color="#2B21F3" stop-opacity="0.5"/>
<stop offset="1" stop-color="#141320" stop-opacity="0"/>
</linearGradient>
</defs>
</svg>
