<svg width="244" height="256" viewBox="0 0 244 256" fill="none" xmlns="http://www.w3.org/2000/svg">
<g opacity="0.5">
<g filter="url(#filter0_f_2058_11)">
<circle cx="16.863" cy="28.863" r="63.863" fill="url(#paint0_linear_2058_11)"/>
</g>
<path opacity="0.52" d="M223.022 195.353L220.27 198.254L-16.9802 198.953C-18.5485 199.44 -22.5997 196.948 -22.5997 195.651V152.236L-23.4915 151.344H-78.2055C-80.1153 151.344 -81.2905 147.926 -81.4767 146.29C-83.1299 131.707 -80.2208 114.182 -81.5057 99.2787C-82.0457 97.1228 -78.9587 93.6571 -77.0179 93.6571H-22.5997V56.7845H-78.2055L-81.4891 51.7422C-80.4236 36.5926 -82.8588 19.645 -81.5036 4.71677C-81.2512 1.90079 -80.2125 0.228991 -77.4855 -0.780707L158.525 -0.937955C160.094 -1.42418 164.145 1.06696 164.145 2.36426V45.7792L165.037 46.671H219.751L223.022 50.2401V100.791C222.143 101.952 220.055 104.36 218.561 104.36H164.143V141.233H219.751L223.022 144.802V195.353ZM36.2794 9.79836H-70.7714V46.671H35.3876L36.2794 45.7792V9.79836ZM153.44 9.79836H46.3888V45.7792L47.2805 46.671H153.44V9.79836ZM95.1564 93.6551V57.6742L94.2646 56.7824H-11.8944V93.6551H95.1564ZM212.317 56.7824H105.266V93.6551H212.317V56.7824ZM36.2794 104.36H-70.7714V141.233H36.2794V104.36ZM153.44 104.36H46.3888V140.341L47.2805 141.233H153.44V104.36ZM95.1564 188.217V152.236L94.2646 151.344H-11.8944V188.217H95.1564ZM212.317 151.344H106.158L105.266 152.236V188.217H212.317V151.344Z" fill="#E0DFEC"/>
</g>
<defs>
<filter id="filter0_f_2058_11" x="-210" y="-198" width="453.726" height="453.726" filterUnits="userSpaceOnUse" color-interpolation-filters="sRGB">
<feFlood flood-opacity="0" result="BackgroundImageFix"/>
<feBlend mode="normal" in="SourceGraphic" in2="BackgroundImageFix" result="shape"/>
<feGaussianBlur stdDeviation="81.5" result="effect1_foregroundBlur_2058_11"/>
</filter>
<linearGradient id="paint0_linear_2058_11" x1="-58.7405" y1="-108.552" x2="24.3563" y2="-126.191" gradientUnits="userSpaceOnUse">
<stop stop-color="#F93C52"/>
<stop offset="1" stop-color="#2B21F3"/>
</linearGradient>
</defs>
</svg>
