<svg width="388" height="256" viewBox="0 0 388 256" fill="none" xmlns="http://www.w3.org/2000/svg">
<rect width="388" height="256" rx="29" fill="#323150"/>
<path opacity="0.52" d="M331.062 214.586L328.588 217.193L115.372 217.821C113.962 218.258 110.322 216.019 110.322 214.853V175.836L109.52 175.035H60.3486C58.6323 175.035 57.5761 171.963 57.4088 170.492C55.923 157.387 58.5374 141.637 57.3827 128.244C56.8974 126.306 59.6717 123.191 61.4159 123.191H110.322V90.054H60.3486L57.3976 85.5225C58.3552 71.9075 56.1666 56.6767 57.3846 43.2607C57.6114 40.73 58.5449 39.2275 60.9957 38.3201L273.099 38.1788C274.508 37.7418 278.149 39.9806 278.149 41.1465V80.1635L278.95 80.9649H328.122L331.062 84.1725V129.603C330.271 130.646 328.395 132.81 327.053 132.81H278.147V165.948H328.122L331.062 169.155V214.586ZM163.236 47.8275H67.0296V80.9649H162.435L163.236 80.1635V47.8275ZM268.528 47.8275H172.321V80.1635L173.123 80.9649H268.528V47.8275ZM216.149 123.19V90.8535L215.347 90.0521H119.942V123.19H216.149ZM321.441 90.0521H225.234V123.19H321.441V90.0521ZM163.236 132.81H67.0296V165.948H163.236V132.81ZM268.528 132.81H172.321V165.146L173.123 165.948H268.528V132.81ZM216.149 208.172V175.836L215.347 175.035H119.942V208.172H216.149ZM321.441 175.035H226.036L225.234 175.836V208.172H321.441V175.035Z" fill="#4F4E7E"/>
<path d="M114.008 135.5H105.516L100.28 107.384H106.154L109.212 126.766L109.894 130.682H110.246L110.928 126.766L114.074 108.044H121.598L124.744 126.766L125.404 130.682H125.8L126.482 126.788L129.562 107.384H135.392L130.178 135.5H121.708L119.09 119.33L118.012 112.818H117.66L116.582 119.33L114.008 135.5ZM153.418 135.5H147.852L148.05 130.22L147.896 129.736V122.982L147.874 122.014C147.874 120.606 147.486 119.572 146.708 118.912C145.946 118.252 144.692 117.922 142.946 117.922C141.465 117.922 140.072 118.12 138.766 118.516C137.476 118.897 136.28 119.345 135.18 119.858L135.664 115.37C136.31 115.033 137.043 114.717 137.864 114.424C138.7 114.116 139.632 113.867 140.658 113.676C141.685 113.485 142.792 113.39 143.98 113.39C145.74 113.39 147.229 113.603 148.446 114.028C149.664 114.439 150.632 115.033 151.35 115.81C152.084 116.587 152.612 117.519 152.934 118.604C153.257 119.675 153.418 120.863 153.418 122.168V135.5ZM140.79 136.006C138.649 136.006 137.014 135.471 135.884 134.4C134.77 133.329 134.212 131.804 134.212 129.824V129.208C134.212 127.111 134.858 125.563 136.148 124.566C137.439 123.554 139.485 122.857 142.286 122.476L148.402 121.64L148.732 125.27L143.1 126.084C141.868 126.245 140.988 126.539 140.46 126.964C139.947 127.389 139.69 128.013 139.69 128.834V129.054C139.69 129.861 139.94 130.491 140.438 130.946C140.952 131.386 141.751 131.606 142.836 131.606C143.804 131.606 144.633 131.452 145.322 131.144C146.012 130.836 146.576 130.433 147.016 129.934C147.471 129.421 147.794 128.849 147.984 128.218L148.776 131.012H147.808C147.574 131.936 147.192 132.779 146.664 133.542C146.151 134.29 145.425 134.891 144.486 135.346C143.548 135.786 142.316 136.006 140.79 136.006ZM161.982 135.5H156.328V106.416H161.982V135.5ZM171.05 135.5H165.396V106.416H171.05V135.5ZM184.39 136.028C180.694 136.028 177.944 135.177 176.14 133.476C174.336 131.775 173.434 129.311 173.434 126.084V123.268C173.434 120.071 174.278 117.614 175.964 115.898C177.651 114.182 180.1 113.324 183.312 113.324C185.483 113.324 187.294 113.705 188.746 114.468C190.198 115.231 191.284 116.316 192.002 117.724C192.736 119.117 193.102 120.789 193.102 122.74V123.51C193.102 124.038 193.073 124.581 193.014 125.138C192.97 125.681 192.904 126.194 192.816 126.678H187.712C187.756 125.871 187.778 125.109 187.778 124.39C187.793 123.657 187.8 122.997 187.8 122.41C187.8 121.398 187.639 120.54 187.316 119.836C186.994 119.117 186.502 118.575 185.842 118.208C185.182 117.841 184.339 117.658 183.312 117.658C181.802 117.658 180.687 118.076 179.968 118.912C179.25 119.748 178.89 120.936 178.89 122.476V124.478L178.912 125.116V126.81C178.912 127.485 179.015 128.108 179.22 128.68C179.44 129.252 179.8 129.751 180.298 130.176C180.797 130.587 181.457 130.909 182.278 131.144C183.114 131.379 184.156 131.496 185.402 131.496C186.752 131.496 188.035 131.349 189.252 131.056C190.484 130.748 191.65 130.337 192.75 129.824L192.266 134.268C191.284 134.811 190.125 135.236 188.79 135.544C187.47 135.867 186.004 136.028 184.39 136.028ZM191.672 126.678H176.426V122.938H191.672V126.678ZM202.344 136.006C199.806 136.006 197.878 135.185 196.558 133.542C195.238 131.899 194.578 129.479 194.578 126.282V123.312C194.578 120.071 195.245 117.614 196.58 115.942C197.914 114.27 199.902 113.434 202.542 113.434C203.832 113.434 204.918 113.639 205.798 114.05C206.692 114.461 207.411 115.047 207.954 115.81C208.511 116.573 208.9 117.467 209.12 118.494H210.77L209.34 122.674C209.31 121.662 209.098 120.811 208.702 120.122C208.32 119.418 207.785 118.883 207.096 118.516C206.406 118.149 205.592 117.966 204.654 117.966C203.231 117.966 202.138 118.377 201.376 119.198C200.628 120.019 200.254 121.244 200.254 122.872V126.436C200.254 128.049 200.628 129.267 201.376 130.088C202.138 130.909 203.246 131.32 204.698 131.32C205.519 131.32 206.252 131.166 206.898 130.858C207.543 130.55 208.078 130.132 208.504 129.604C208.944 129.061 209.259 128.453 209.45 127.778L210.792 130.924H209.208C208.973 131.863 208.592 132.721 208.064 133.498C207.536 134.261 206.81 134.869 205.886 135.324C204.962 135.779 203.781 136.006 202.344 136.006ZM214.884 135.5H209.252L209.45 130.22L209.34 128.966V120.144L209.362 119.242L209.252 113.06V106.416H214.884V135.5ZM224.043 135.5H218.367V107.384H224.043V135.5ZM237.331 135.5H220.061V130.682H237.331V135.5ZM236.825 123.554H221.667V118.868H236.825V123.554ZM237.155 112.158H220.039V107.384H237.155V112.158ZM248.104 131.76H248.61L253.252 113.918H259.06L252.9 135.5H243.792L237.61 113.918H243.462L248.104 131.76ZM277.696 135.5H272.13L272.328 130.22L272.174 129.736V122.982L272.152 122.014C272.152 120.606 271.763 119.572 270.986 118.912C270.223 118.252 268.969 117.922 267.224 117.922C265.743 117.922 264.349 118.12 263.044 118.516C261.753 118.897 260.558 119.345 259.458 119.858L259.942 115.37C260.587 115.033 261.321 114.717 262.142 114.424C262.978 114.116 263.909 113.867 264.936 113.676C265.963 113.485 267.07 113.39 268.258 113.39C270.018 113.39 271.507 113.603 272.724 114.028C273.941 114.439 274.909 115.033 275.628 115.81C276.361 116.587 276.889 117.519 277.212 118.604C277.535 119.675 277.696 120.863 277.696 122.168V135.5ZM265.068 136.006C262.927 136.006 261.291 135.471 260.162 134.4C259.047 133.329 258.49 131.804 258.49 129.824V129.208C258.49 127.111 259.135 125.563 260.426 124.566C261.717 123.554 263.763 122.857 266.564 122.476L272.68 121.64L273.01 125.27L267.378 126.084C266.146 126.245 265.266 126.539 264.738 126.964C264.225 127.389 263.968 128.013 263.968 128.834V129.054C263.968 129.861 264.217 130.491 264.716 130.946C265.229 131.386 266.029 131.606 267.114 131.606C268.082 131.606 268.911 131.452 269.6 131.144C270.289 130.836 270.854 130.433 271.294 129.934C271.749 129.421 272.071 128.849 272.262 128.218L273.054 131.012H272.086C271.851 131.936 271.47 132.779 270.942 133.542C270.429 134.29 269.703 134.891 268.764 135.346C267.825 135.786 266.593 136.006 265.068 136.006ZM286.26 135.5H280.606V106.416H286.26V135.5Z" fill="#EFEFF5"/>
<path fill-rule="evenodd" clip-rule="evenodd" d="M341.199 200.121C340.333 200.401 339.447 199.756 339.447 198.846V194.769C339.447 194.276 339.718 193.822 340.152 193.589L343.042 192.036C343.931 191.558 345.009 192.197 345.016 193.207L345.049 197.893C345.053 198.478 344.678 198.998 344.121 199.178L341.199 200.121ZM325.987 203.214C325.987 204.125 326.876 204.77 327.742 204.489L337.347 201.362C337.898 201.182 338.272 200.668 338.272 200.087V196.984C338.272 195.964 337.178 195.318 336.285 195.81L326.68 201.105C326.253 201.341 325.987 201.79 325.987 202.278V203.214ZM333.661 203.701C333.099 203.875 332.717 204.394 332.717 204.981V207.335C332.717 208.192 333.511 208.829 334.348 208.643L343.96 206.501C344.563 206.367 344.996 205.838 345.009 205.22L345.072 202.011C345.09 201.097 344.208 200.434 343.336 200.704L333.661 203.701ZM327.304 215.962C326.573 215.949 325.987 215.353 325.987 214.622V212.549C325.987 211.914 326.432 211.366 327.054 211.237L336.658 209.236C337.491 209.062 338.272 209.698 338.272 210.548V214.788C338.272 215.538 337.658 216.141 336.909 216.128L327.304 215.962ZM333.75 222.901C333.145 222.758 332.717 222.218 332.717 221.597V217.113C332.717 217.112 332.718 217.112 332.718 217.112L344.728 217.366C344.912 217.37 345.097 217.441 345.108 217.623L345.108 217.623C345.11 217.647 345.111 217.671 345.114 217.694C345.341 219.542 345.133 222.719 344.997 224.628C344.982 224.829 344.982 225.034 345.037 225.229C345.054 225.287 345.05 225.349 345.021 225.402C344.977 225.482 344.885 225.523 344.796 225.502L333.75 222.901ZM326.684 226.025C326.254 225.79 325.987 225.339 325.987 224.85V223.815C325.987 222.951 326.792 222.313 327.633 222.51L337.238 224.762C337.844 224.904 338.272 225.444 338.272 226.067V230.103C338.272 231.121 337.182 231.767 336.289 231.279L326.684 226.025ZM340.139 233.332C339.712 233.096 339.447 232.647 339.447 232.159V225.325C339.447 225.324 339.447 225.324 339.448 225.324C339.448 225.323 339.448 225.323 339.449 225.323L344.179 226.486C344.654 226.602 344.969 227.121 345.056 227.603C345.082 227.746 345.108 227.889 345.114 228.038C345.169 229.307 345.126 230.606 345.083 231.9V231.9V231.9V231.9V231.9C345.039 233.245 344.994 234.585 345.06 235.881C345.061 235.912 345.079 235.937 345.092 235.955C345.165 236.059 344.891 235.959 344.78 235.897L340.139 233.332ZM340.509 208.355C339.89 208.486 339.447 209.033 339.447 209.666V214.837C339.447 215.567 340.032 216.163 340.762 216.177L343.699 216.232C344.466 216.246 345.088 215.616 345.088 214.849C345.087 214.096 345.101 213.34 345.114 212.584V212.584C345.137 211.299 345.161 210.014 345.114 208.735C345.109 208.585 345.081 208.452 345.054 208.322L345.054 208.322C345.032 208.213 345.01 208.107 345.002 207.994C344.996 207.916 345.023 207.842 345.047 207.772C345.138 207.516 344.804 207.443 344.538 207.499L340.509 208.355ZM327.353 217.031C326.603 217.017 325.987 217.621 325.987 218.371V219.991C325.987 220.616 326.418 221.157 327.026 221.297L329.901 221.96C330.741 222.153 331.542 221.515 331.542 220.654V218.426C331.542 217.696 330.958 217.1 330.228 217.086L327.353 217.031ZM327.604 210.051C326.771 210.227 325.987 209.591 325.987 208.74V207.117C325.987 206.528 326.371 206.008 326.934 205.836L329.808 204.953C330.67 204.688 331.542 205.332 331.542 206.234V208.133C331.542 208.766 331.099 209.313 330.479 209.444L327.604 210.051Z" fill="#EFEFF5"/>
<path fill-rule="evenodd" clip-rule="evenodd" d="M360.614 199.624C360.614 199.136 360.35 198.687 359.923 198.451L348.166 191.945C347.273 191.451 346.177 192.097 346.177 193.118V194.818C346.177 195.332 346.471 195.8 346.933 196.024L357.033 200.909C357.495 201.132 357.789 201.601 357.789 202.115V205.943C357.789 206.457 358.126 206.911 358.398 207.348C358.578 207.636 358.685 207.996 358.685 208.386C358.685 209.338 358.049 210.109 357.263 210.109C356.478 210.109 355.842 209.338 355.842 208.386C355.842 207.992 355.951 207.629 356.134 207.339C356.417 206.891 356.774 206.426 356.774 205.896V202.751C356.774 202.237 356.48 201.768 356.017 201.544L348.1 197.715C347.21 197.285 346.177 197.933 346.177 198.922V233.798C346.177 234.818 347.27 235.464 348.163 234.972L351.188 233.306C351.615 233.071 351.881 232.621 351.881 232.132V219.289C351.881 218.812 351.604 218.38 351.171 218.181C350.363 217.811 349.444 218.401 349.444 219.289V229.301C349.444 229.865 349.846 230.373 350.111 230.869C350.266 231.158 350.358 231.518 350.358 231.909C350.358 232.861 349.812 233.633 349.139 233.633C348.466 233.633 347.921 232.861 347.921 231.909C347.921 231.558 347.995 231.232 348.122 230.96C348.271 230.641 348.429 230.312 348.429 229.96V217.897C348.429 216.92 349.44 216.271 350.327 216.679L352.115 217.498C352.591 217.717 352.897 218.193 352.897 218.717V230.097C352.897 231.117 353.99 231.763 354.883 231.271L356.062 230.622C356.49 230.386 356.755 229.937 356.755 229.448L356.755 215.078C356.756 215.071 356.751 215.064 356.744 215.06C356.216 214.809 355.842 214.185 355.842 213.455C355.842 212.503 356.478 211.732 357.263 211.732C358.049 211.732 358.685 212.503 358.685 213.455C358.685 214.185 358.311 214.809 357.782 215.061C357.775 215.064 357.771 215.071 357.771 215.078V227.413C357.771 228.432 358.864 229.078 359.758 228.587L359.921 228.497C360.349 228.261 360.614 227.811 360.614 227.323L360.614 206.792C360.614 205.796 361.662 205.148 362.553 205.593L363.325 205.978C363.78 206.205 364.067 206.67 364.067 207.177V212.206C364.067 212.728 364.414 213.187 364.691 213.629C364.873 213.919 364.981 214.28 364.981 214.672C364.981 215.624 364.344 216.396 363.559 216.396C362.774 216.396 362.138 215.624 362.138 214.672C362.138 214.28 362.245 213.919 362.427 213.629C362.704 213.187 363.051 212.728 363.051 212.206V207.415C363.051 207.146 362.899 206.899 362.658 206.779C362.186 206.543 361.63 206.887 361.63 207.415L361.63 226.353C361.63 226.893 362.21 227.236 362.683 226.975C362.91 226.85 363.051 226.612 363.051 226.353V218.526C363.051 218.245 363.279 218.018 363.559 218.018C363.839 218.018 364.067 218.245 364.067 218.526V225.126C364.067 225.615 364.591 225.925 365.019 225.689C365.224 225.576 365.351 225.361 365.351 225.127L365.386 201.805C365.387 201.601 365.276 201.414 365.099 201.315C364.726 201.109 364.27 201.379 364.27 201.804V203.186C364.27 204.182 363.222 204.83 362.331 204.385L361.356 203.898C360.901 203.671 360.614 203.207 360.614 202.699V199.624ZM362.836 200.063C362.294 199.763 361.63 200.155 361.63 200.774V202.399C361.63 202.707 361.804 202.988 362.079 203.126C362.619 203.395 363.255 203.003 363.255 202.399V200.774C363.255 200.478 363.094 200.206 362.836 200.063ZM351.83 205.704C352.296 205.927 352.592 206.397 352.592 206.913V210.739C352.592 211.758 351.5 212.404 350.607 211.913L350.241 211.712C349.812 211.477 349.546 211.027 349.546 210.538V208.485C349.546 208.138 349.903 207.905 350.221 208.046C350.463 208.153 350.747 208.044 350.855 207.802L350.866 207.778C350.98 207.522 350.864 207.222 350.608 207.108L350.07 206.869C349.346 206.548 348.53 207.078 348.53 207.87V211.137C348.53 211.626 348.797 212.076 349.225 212.312L351.622 213.628C352.515 214.119 353.608 213.472 353.608 212.453V206.275C353.608 205.759 353.311 205.288 352.846 205.066L349.573 203.5C349.427 203.43 349.343 203.275 349.343 203.113C349.343 202.161 348.843 201.39 348.226 201.39C347.609 201.39 347.109 202.161 347.109 203.113C347.109 204.065 347.609 204.837 348.226 204.837C348.774 204.837 349.37 204.527 349.864 204.763L351.83 205.704ZM348.327 203.113C348.327 203.116 348.327 203.118 348.327 203.121C348.327 203.226 348.272 203.322 348.226 203.417C348.211 203.448 348.158 203.447 348.152 203.414C348.135 203.324 348.124 203.224 348.124 203.113C348.124 202.903 348.327 202.903 348.327 203.113ZM357.67 213.455C357.67 213.71 357.584 213.909 357.485 214.03C357.387 214.148 357.304 214.165 357.263 214.165C357.223 214.165 357.139 214.148 357.042 214.03C356.943 213.909 356.857 213.71 356.857 213.455C356.857 213.201 356.943 213.001 357.042 212.881C357.139 212.763 357.223 212.746 357.263 212.746C357.304 212.746 357.387 212.763 357.485 212.881C357.584 213.001 357.67 213.201 357.67 213.455ZM357.485 208.96C357.584 208.84 357.67 208.64 357.67 208.386C357.67 208.131 357.584 207.932 357.485 207.811C357.387 207.693 357.304 207.676 357.263 207.676C357.223 207.676 357.139 207.693 357.042 207.811C356.943 207.932 356.857 208.131 356.857 208.386C356.857 208.64 356.943 208.84 357.042 208.96C357.139 209.078 357.223 209.095 357.263 209.095C357.304 209.095 357.387 209.078 357.485 208.96ZM363.965 214.672C363.965 214.926 363.88 215.126 363.781 215.246C363.683 215.364 363.6 215.382 363.559 215.382C363.518 215.382 363.435 215.364 363.338 215.246C363.239 215.126 363.153 214.926 363.153 214.672C363.153 214.418 363.239 214.218 363.338 214.098C363.435 213.98 363.518 213.962 363.559 213.962C363.6 213.962 363.683 213.98 363.781 214.098C363.88 214.218 363.965 214.418 363.965 214.672ZM348.103 203.854C348.103 203.853 348.103 203.855 348.103 203.854V203.854ZM348.348 202.372C348.348 202.371 348.348 202.373 348.348 202.372V202.372ZM348.103 202.372C348.103 202.373 348.103 202.371 348.103 202.372V202.372ZM349.342 231.909C349.342 232.2 349.257 232.421 349.171 232.543C349.155 232.565 349.123 232.565 349.107 232.543C349.021 232.421 348.936 232.2 348.936 231.909C348.936 231.617 349.021 231.396 349.107 231.275C349.123 231.252 349.155 231.252 349.171 231.275C349.257 231.396 349.342 231.617 349.342 231.909ZM349.09 232.628C349.09 232.627 349.09 232.629 349.09 232.628V232.628ZM349.189 232.628C349.189 232.629 349.189 232.627 349.189 232.628V232.628ZM349.189 231.19C349.189 231.189 349.189 231.191 349.189 231.19V231.19ZM349.09 231.19C349.09 231.191 349.09 231.189 349.09 231.19V231.19Z" fill="#EFEFF5"/>
</svg>
