<svg width="388" height="256" viewBox="0 0 388 256" fill="none" xmlns="http://www.w3.org/2000/svg">
<rect width="388" height="256" rx="29" fill="#323150"/>
<path opacity="0.52" d="M331.062 214.586L328.588 217.193L115.372 217.821C113.962 218.258 110.322 216.019 110.322 214.853V175.836L109.52 175.035H60.3486C58.6323 175.035 57.5761 171.963 57.4088 170.492C55.923 157.387 58.5374 141.637 57.3827 128.244C56.8974 126.306 59.6717 123.191 61.4159 123.191H110.322V90.054H60.3486L57.3976 85.5225C58.3552 71.9075 56.1666 56.6767 57.3846 43.2607C57.6114 40.73 58.5449 39.2275 60.9957 38.3201L273.099 38.1788C274.508 37.7418 278.149 39.9806 278.149 41.1465V80.1635L278.95 80.9649H328.122L331.062 84.1725V129.603C330.271 130.646 328.395 132.81 327.053 132.81H278.147V165.948H328.122L331.062 169.155V214.586ZM163.236 47.8275H67.0296V80.9649H162.435L163.236 80.1635V47.8275ZM268.528 47.8275H172.321V80.1635L173.123 80.9649H268.528V47.8275ZM216.149 123.19V90.8535L215.347 90.0521H119.942V123.19H216.149ZM321.441 90.0521H225.234V123.19H321.441V90.0521ZM163.236 132.81H67.0296V165.948H163.236V132.81ZM268.528 132.81H172.321V165.146L173.123 165.948H268.528V132.81ZM216.149 208.172V175.836L215.347 175.035H119.942V208.172H216.149ZM321.441 175.035H226.036L225.234 175.836V208.172H321.441V175.035Z" fill="#4F4E7E"/>
<path d="M147.688 135.5H141.924V107.384H147.688V135.5ZM159.788 125.028H145.224V120.188H159.788V125.028ZM160.118 112.246H143.596V107.384H160.118V112.246ZM172.363 136.028C168.667 136.028 165.917 135.177 164.113 133.476C162.309 131.775 161.407 129.311 161.407 126.084V123.268C161.407 120.071 162.251 117.614 163.937 115.898C165.624 114.182 168.073 113.324 171.285 113.324C173.456 113.324 175.267 113.705 176.719 114.468C178.171 115.231 179.257 116.316 179.975 117.724C180.709 119.117 181.075 120.789 181.075 122.74V123.51C181.075 124.038 181.046 124.581 180.987 125.138C180.943 125.681 180.877 126.194 180.789 126.678H175.685C175.729 125.871 175.751 125.109 175.751 124.39C175.766 123.657 175.773 122.997 175.773 122.41C175.773 121.398 175.612 120.54 175.289 119.836C174.967 119.117 174.475 118.575 173.815 118.208C173.155 117.841 172.312 117.658 171.285 117.658C169.775 117.658 168.66 118.076 167.941 118.912C167.223 119.748 166.863 120.936 166.863 122.476V124.478L166.885 125.116V126.81C166.885 127.485 166.988 128.108 167.193 128.68C167.413 129.252 167.773 129.751 168.271 130.176C168.77 130.587 169.43 130.909 170.251 131.144C171.087 131.379 172.129 131.496 173.375 131.496C174.725 131.496 176.008 131.349 177.225 131.056C178.457 130.748 179.623 130.337 180.723 129.824L180.239 134.268C179.257 134.811 178.098 135.236 176.763 135.544C175.443 135.867 173.977 136.028 172.363 136.028ZM179.645 126.678H164.399V122.938H179.645V126.678ZM188.756 122.96L187.326 119.198H188.69C189.086 117.453 189.804 116.081 190.846 115.084C191.887 114.087 193.332 113.588 195.18 113.588C195.561 113.588 195.906 113.617 196.214 113.676C196.522 113.72 196.8 113.779 197.05 113.852L197.358 119.484C197.035 119.381 196.661 119.308 196.236 119.264C195.81 119.205 195.363 119.176 194.894 119.176C193.398 119.176 192.122 119.506 191.066 120.166C190.024 120.826 189.254 121.757 188.756 122.96ZM188.91 135.5H183.278V113.918H188.646L188.404 120.54L188.91 120.738V135.5ZM204.054 122.96L202.624 119.198H203.988C204.384 117.453 205.103 116.081 206.144 115.084C207.186 114.087 208.63 113.588 210.478 113.588C210.86 113.588 211.204 113.617 211.512 113.676C211.82 113.72 212.099 113.779 212.348 113.852L212.656 119.484C212.334 119.381 211.96 119.308 211.534 119.264C211.109 119.205 210.662 119.176 210.192 119.176C208.696 119.176 207.42 119.506 206.364 120.166C205.323 120.826 204.553 121.757 204.054 122.96ZM204.208 135.5H198.576V113.918H203.944L203.702 120.54L204.208 120.738V135.5ZM223.63 136.028C219.934 136.028 217.184 135.177 215.38 133.476C213.576 131.775 212.674 129.311 212.674 126.084V123.268C212.674 120.071 213.517 117.614 215.204 115.898C216.891 114.182 219.34 113.324 222.552 113.324C224.723 113.324 226.534 113.705 227.986 114.468C229.438 115.231 230.523 116.316 231.242 117.724C231.975 119.117 232.342 120.789 232.342 122.74V123.51C232.342 124.038 232.313 124.581 232.254 125.138C232.21 125.681 232.144 126.194 232.056 126.678H226.952C226.996 125.871 227.018 125.109 227.018 124.39C227.033 123.657 227.04 122.997 227.04 122.41C227.04 121.398 226.879 120.54 226.556 119.836C226.233 119.117 225.742 118.575 225.082 118.208C224.422 117.841 223.579 117.658 222.552 117.658C221.041 117.658 219.927 118.076 219.208 118.912C218.489 119.748 218.13 120.936 218.13 122.476V124.478L218.152 125.116V126.81C218.152 127.485 218.255 128.108 218.46 128.68C218.68 129.252 219.039 129.751 219.538 130.176C220.037 130.587 220.697 130.909 221.518 131.144C222.354 131.379 223.395 131.496 224.642 131.496C225.991 131.496 227.275 131.349 228.492 131.056C229.724 130.748 230.89 130.337 231.99 129.824L231.506 134.268C230.523 134.811 229.365 135.236 228.03 135.544C226.71 135.867 225.243 136.028 223.63 136.028ZM230.912 126.678H215.666V122.938H230.912V126.678ZM243.033 135.962C241.2 135.962 239.733 135.691 238.633 135.148C237.548 134.591 236.763 133.755 236.279 132.64C235.795 131.525 235.553 130.154 235.553 128.526V115.942H241.141V127.69C241.141 128.863 241.405 129.729 241.933 130.286C242.476 130.829 243.422 131.1 244.771 131.1C245.563 131.1 246.326 131.019 247.059 130.858C247.793 130.682 248.467 130.455 249.083 130.176L248.599 134.884C247.866 135.221 247.023 135.485 246.069 135.676C245.131 135.867 244.119 135.962 243.033 135.962ZM248.401 118.538H232.429V114.094H248.885L248.401 118.538ZM240.987 114.512H235.619L235.597 108.792L241.207 108.22L240.987 114.512Z" fill="#EFEFF5"/>
<path fill-rule="evenodd" clip-rule="evenodd" d="M341.199 200.121C340.333 200.401 339.447 199.756 339.447 198.846V194.769C339.447 194.276 339.718 193.822 340.152 193.589L343.042 192.036C343.931 191.558 345.009 192.197 345.016 193.207L345.049 197.893C345.053 198.478 344.678 198.998 344.121 199.178L341.199 200.121ZM325.987 203.214C325.987 204.125 326.876 204.77 327.742 204.489L337.347 201.362C337.898 201.182 338.272 200.668 338.272 200.087V196.984C338.272 195.964 337.178 195.318 336.285 195.81L326.68 201.105C326.253 201.341 325.987 201.79 325.987 202.278V203.214ZM333.66 203.701C333.099 203.875 332.717 204.394 332.717 204.981V207.335C332.717 208.192 333.511 208.829 334.348 208.643L343.96 206.501C344.563 206.367 344.996 205.838 345.009 205.22L345.072 202.011C345.09 201.097 344.208 200.434 343.335 200.704L333.66 203.701ZM327.304 215.962C326.573 215.949 325.987 215.353 325.987 214.622V212.549C325.987 211.914 326.432 211.366 327.054 211.237L336.658 209.236C337.491 209.062 338.272 209.698 338.272 210.548V214.788C338.272 215.538 337.658 216.141 336.908 216.128L327.304 215.962ZM333.75 222.901C333.145 222.758 332.717 222.218 332.717 221.597V217.113C332.717 217.112 332.717 217.112 332.718 217.112L344.728 217.366C344.911 217.37 345.097 217.441 345.108 217.623L345.108 217.623C345.11 217.647 345.111 217.671 345.114 217.694C345.34 219.542 345.133 222.719 344.996 224.628C344.982 224.829 344.982 225.034 345.037 225.229C345.054 225.287 345.05 225.349 345.021 225.402C344.977 225.482 344.885 225.523 344.795 225.502L333.75 222.901ZM326.684 226.025C326.254 225.79 325.987 225.339 325.987 224.85V223.815C325.987 222.951 326.792 222.313 327.633 222.51L337.238 224.762C337.843 224.904 338.272 225.444 338.272 226.067V230.103C338.272 231.121 337.182 231.767 336.289 231.279L326.684 226.025ZM340.139 233.332C339.712 233.096 339.447 232.647 339.447 232.159V225.325C339.447 225.324 339.447 225.324 339.447 225.324C339.448 225.323 339.448 225.323 339.449 225.323L344.179 226.486C344.654 226.602 344.969 227.121 345.056 227.603C345.082 227.746 345.108 227.889 345.114 228.038C345.169 229.307 345.126 230.606 345.083 231.9V231.9V231.9V231.9V231.9C345.038 233.245 344.994 234.585 345.06 235.881C345.061 235.912 345.079 235.937 345.092 235.955C345.165 236.059 344.891 235.959 344.78 235.897L340.139 233.332ZM340.509 208.355C339.89 208.486 339.447 209.033 339.447 209.666V214.837C339.447 215.567 340.032 216.163 340.762 216.177L343.699 216.232C344.466 216.246 345.088 215.616 345.088 214.849C345.087 214.096 345.101 213.34 345.114 212.584V212.584C345.137 211.299 345.16 210.014 345.114 208.735C345.109 208.585 345.081 208.452 345.054 208.322L345.054 208.322C345.032 208.213 345.01 208.107 345.002 207.994C344.996 207.916 345.022 207.842 345.047 207.772C345.138 207.516 344.803 207.443 344.538 207.499L340.509 208.355ZM327.353 217.031C326.603 217.017 325.987 217.621 325.987 218.371V219.991C325.987 220.616 326.418 221.157 327.026 221.297L329.901 221.96C330.741 222.153 331.542 221.515 331.542 220.654V218.426C331.542 217.696 330.958 217.1 330.228 217.086L327.353 217.031ZM327.604 210.051C326.771 210.227 325.987 209.591 325.987 208.74V207.117C325.987 206.528 326.371 206.008 326.934 205.836L329.808 204.953C330.67 204.688 331.542 205.332 331.542 206.234V208.133C331.542 208.766 331.099 209.313 330.479 209.444L327.604 210.051Z" fill="#EFEFF5"/>
<path fill-rule="evenodd" clip-rule="evenodd" d="M360.614 199.624C360.614 199.136 360.35 198.687 359.923 198.451L348.166 191.945C347.273 191.451 346.177 192.097 346.177 193.118V194.818C346.177 195.332 346.471 195.8 346.934 196.024L357.033 200.909C357.495 201.132 357.789 201.601 357.789 202.115V205.943C357.789 206.457 358.127 206.911 358.398 207.348C358.578 207.636 358.685 207.996 358.685 208.386C358.685 209.338 358.049 210.109 357.263 210.109C356.478 210.109 355.842 209.338 355.842 208.386C355.842 207.992 355.951 207.629 356.134 207.339C356.417 206.891 356.774 206.426 356.774 205.896V202.751C356.774 202.237 356.48 201.768 356.017 201.544L348.1 197.715C347.211 197.285 346.177 197.933 346.177 198.922V233.798C346.177 234.818 347.27 235.464 348.163 234.972L351.188 233.306C351.616 233.071 351.881 232.621 351.881 232.132V219.289C351.881 218.812 351.604 218.38 351.171 218.181C350.364 217.811 349.444 218.401 349.444 219.289V229.301C349.444 229.865 349.846 230.373 350.112 230.869C350.266 231.158 350.358 231.518 350.358 231.909C350.358 232.861 349.812 233.633 349.139 233.633C348.466 233.633 347.921 232.861 347.921 231.909C347.921 231.558 347.995 231.232 348.122 230.96C348.271 230.641 348.429 230.312 348.429 229.96V217.897C348.429 216.92 349.44 216.271 350.327 216.679L352.115 217.498C352.592 217.717 352.897 218.193 352.897 218.717V230.097C352.897 231.117 353.99 231.763 354.883 231.271L356.062 230.622C356.49 230.386 356.756 229.937 356.756 229.448L356.756 215.078C356.756 215.071 356.751 215.064 356.744 215.06C356.216 214.809 355.842 214.185 355.842 213.455C355.842 212.503 356.478 211.732 357.263 211.732C358.049 211.732 358.685 212.503 358.685 213.455C358.685 214.185 358.311 214.809 357.782 215.061C357.775 215.064 357.771 215.071 357.771 215.078V227.413C357.771 228.432 358.865 229.078 359.758 228.587L359.921 228.497C360.349 228.261 360.614 227.811 360.614 227.323L360.614 206.792C360.614 205.796 361.662 205.148 362.553 205.593L363.326 205.978C363.78 206.205 364.067 206.67 364.067 207.177V212.206C364.067 212.728 364.414 213.187 364.691 213.629C364.873 213.919 364.981 214.28 364.981 214.672C364.981 215.624 364.344 216.396 363.559 216.396C362.774 216.396 362.138 215.624 362.138 214.672C362.138 214.28 362.245 213.919 362.427 213.629C362.704 213.187 363.052 212.728 363.052 212.206V207.415C363.052 207.146 362.899 206.899 362.658 206.779C362.186 206.543 361.63 206.887 361.63 207.415L361.63 226.353C361.63 226.893 362.21 227.236 362.684 226.975C362.91 226.85 363.051 226.612 363.051 226.353V218.526C363.051 218.245 363.279 218.018 363.559 218.018C363.84 218.018 364.067 218.245 364.067 218.526V225.126C364.067 225.615 364.591 225.925 365.019 225.689C365.224 225.576 365.351 225.361 365.351 225.127L365.387 201.805C365.387 201.601 365.277 201.414 365.099 201.315C364.727 201.109 364.27 201.379 364.27 201.804V203.186C364.27 204.182 363.222 204.83 362.331 204.385L361.356 203.898C360.902 203.671 360.614 203.207 360.614 202.699V199.624ZM362.836 200.063C362.294 199.763 361.63 200.155 361.63 200.774V202.399C361.63 202.707 361.804 202.988 362.079 203.126C362.62 203.395 363.255 203.003 363.255 202.399V200.774C363.255 200.478 363.094 200.206 362.836 200.063ZM351.83 205.704C352.296 205.927 352.592 206.397 352.592 206.913V210.739C352.592 211.758 351.5 212.404 350.607 211.913L350.241 211.712C349.812 211.477 349.546 211.027 349.546 210.538V208.485C349.546 208.138 349.903 207.905 350.221 208.046C350.463 208.153 350.747 208.044 350.855 207.802L350.866 207.778C350.98 207.522 350.864 207.222 350.608 207.108L350.07 206.869C349.346 206.548 348.53 207.078 348.53 207.87V211.137C348.53 211.626 348.797 212.076 349.225 212.312L351.622 213.628C352.516 214.119 353.608 213.472 353.608 212.453V206.275C353.608 205.759 353.311 205.288 352.846 205.066L349.573 203.5C349.427 203.43 349.343 203.275 349.343 203.113C349.343 202.161 348.843 201.39 348.226 201.39C347.609 201.39 347.109 202.161 347.109 203.113C347.109 204.065 347.609 204.837 348.226 204.837C348.774 204.837 349.37 204.527 349.864 204.763L351.83 205.704ZM348.327 203.113C348.327 203.116 348.327 203.118 348.327 203.121C348.327 203.226 348.272 203.322 348.226 203.417C348.211 203.448 348.159 203.447 348.152 203.414C348.135 203.324 348.124 203.224 348.124 203.113C348.124 202.903 348.327 202.903 348.327 203.113ZM357.67 213.455C357.67 213.71 357.584 213.909 357.485 214.03C357.387 214.148 357.304 214.165 357.263 214.165C357.223 214.165 357.14 214.148 357.042 214.03C356.943 213.909 356.857 213.71 356.857 213.455C356.857 213.201 356.943 213.001 357.042 212.881C357.14 212.763 357.223 212.746 357.263 212.746C357.304 212.746 357.387 212.763 357.485 212.881C357.584 213.001 357.67 213.201 357.67 213.455ZM357.485 208.96C357.584 208.84 357.67 208.64 357.67 208.386C357.67 208.131 357.584 207.932 357.485 207.811C357.387 207.693 357.304 207.676 357.263 207.676C357.223 207.676 357.14 207.693 357.042 207.811C356.943 207.932 356.857 208.131 356.857 208.386C356.857 208.64 356.943 208.84 357.042 208.96C357.14 209.078 357.223 209.095 357.263 209.095C357.304 209.095 357.387 209.078 357.485 208.96ZM363.965 214.672C363.965 214.926 363.88 215.126 363.781 215.246C363.683 215.364 363.6 215.382 363.559 215.382C363.519 215.382 363.435 215.364 363.338 215.246C363.239 215.126 363.153 214.926 363.153 214.672C363.153 214.418 363.239 214.218 363.338 214.098C363.435 213.98 363.519 213.962 363.559 213.962C363.6 213.962 363.683 213.98 363.781 214.098C363.88 214.218 363.965 214.418 363.965 214.672ZM348.103 203.854C348.103 203.853 348.104 203.855 348.103 203.854V203.854ZM348.348 202.372C348.348 202.371 348.348 202.373 348.348 202.372V202.372ZM348.103 202.372C348.103 202.373 348.104 202.371 348.103 202.372V202.372ZM349.343 231.909C349.343 232.2 349.257 232.421 349.172 232.543C349.156 232.565 349.123 232.565 349.107 232.543C349.022 232.421 348.936 232.2 348.936 231.909C348.936 231.617 349.022 231.396 349.107 231.275C349.123 231.252 349.156 231.252 349.172 231.275C349.257 231.396 349.343 231.617 349.343 231.909ZM349.09 232.628C349.09 232.627 349.09 232.629 349.09 232.628V232.628ZM349.189 232.628C349.189 232.629 349.189 232.627 349.189 232.628V232.628ZM349.189 231.19C349.189 231.189 349.189 231.191 349.189 231.19V231.19ZM349.09 231.19C349.09 231.191 349.09 231.189 349.09 231.19V231.19Z" fill="#EFEFF5"/>
</svg>
