<svg width="276" height="180" viewBox="0 0 276 180" fill="none" xmlns="http://www.w3.org/2000/svg">
<path opacity="0.52" d="M275.062 176.586L272.588 179.193L59.3718 179.821C57.9623 180.258 54.3215 178.019 54.3215 176.853V137.836L53.5201 137.035H4.34856C2.63228 137.035 1.57611 133.963 1.40876 132.492C-0.076951 119.387 2.53745 103.637 1.38272 90.2435C0.897405 88.306 3.67172 85.1914 5.41589 85.1914H54.3215V52.054H4.34856L1.3976 47.5225C2.35522 33.9075 0.166638 18.6767 1.38458 5.26071C1.61144 2.72998 2.54489 1.22754 4.99565 0.320126L217.099 0.178807C218.508 -0.258166 222.149 1.98062 222.149 3.1465V42.1635L222.95 42.9649H272.122L275.062 46.1725V91.6028C274.271 92.646 272.395 94.8104 271.053 94.8104H222.147V127.948H272.122L275.062 131.155V176.586ZM107.236 9.82754H11.0296V42.9649H106.435L107.236 42.1635V9.82754ZM212.528 9.82754H116.321V42.1635L117.123 42.9649H212.528V9.82754ZM160.149 85.1895V52.8535L159.347 52.0521H63.9423V85.1895H160.149ZM265.441 52.0521H169.234V85.1895H265.441V52.0521ZM107.236 94.8104H11.0296V127.948H107.236V94.8104ZM212.528 94.8104H116.321V127.146L117.123 127.948H212.528V94.8104ZM160.149 170.172V137.836L159.347 137.035H63.9423V170.172H160.149ZM265.441 137.035H170.036L169.234 137.836V170.172H265.441V137.035Z" fill="#4F4E7E"/>
</svg>
