<svg width="400" height="425" viewBox="0 0 400 425" fill="none" xmlns="http://www.w3.org/2000/svg">
<circle cx="200" cy="225" r="199.5" fill="#EFEFF5" stroke="url(#paint0_linear_483_850)"/>
<circle cx="200" cy="225" r="147.121" fill="#EFEFF5" stroke="#C1C0D8"/>
<circle cx="200" cy="225" r="105.774" fill="#EFEFF5" stroke="#C1C0D8"/>
<circle cx="200" cy="225" r="79.0325" fill="url(#paint1_radial_483_850)"/>
<circle cx="200" cy="225" r="49.5" fill="#EFEFF5" stroke="#473EF4"/>
<circle cx="200" cy="25" r="24.5" fill="#EFEFF5" stroke="#C1C0D8"/>
<circle cx="64.1665" cy="270.179" r="24.5" fill="#EFEFF5" stroke="#C1C0D8"/>
<circle cx="302.301" cy="228.279" r="24.5" fill="#EFEFF5" stroke="#C1C0D8"/>
<path d="M200 200.719L200 245.179" stroke="#473EF4" stroke-width="0.898413" stroke-linecap="round"/>
<path d="M193.965 175.29V197.371L186.074 204.558V215.763" stroke="#473EF4" stroke-width="0.898413" stroke-linecap="round"/>
<path d="M206.033 175.316V197.294L213.925 204.482V215.687" stroke="#473EF4" stroke-width="0.898413" stroke-linecap="round"/>
<rect x="181.712" y="210.055" width="36.5742" height="36.4492" rx="8.98413" fill="#473EF4"/>
<rect x="183.041" y="211.378" width="33.9169" height="33.801" rx="8.08571" fill="#E0DFEC"/>
<g filter="url(#filter0_dddd_483_850)">
<rect x="173.729" y="221.734" width="3.97048" height="13.0881" rx="1.98524" fill="#473EF4"/>
</g>
<g filter="url(#filter1_dddd_483_850)">
<rect x="222.301" y="221.734" width="3.97048" height="13.0881" rx="1.98524" fill="#473EF4"/>
</g>
<path d="M193.722 236.163H191.642L196.594 220.396H199.837L204.801 236.163H202.722L198.377 221.777H198.067L193.722 236.163ZM201.818 231.512H194.613V229.809H201.818V231.512Z" fill="#323150"/>
<path d="M208.356 220.396V236.163H206.301V220.396H208.356Z" fill="#323150"/>
<path d="M186.507 261.134H185.512L188.391 253.293H189.371L192.25 261.134H191.254L188.911 254.534H188.85L186.507 261.134ZM186.874 258.071H190.887V258.913H186.874V258.071ZM195.291 263.461C194.854 263.461 194.479 263.405 194.165 263.293C193.851 263.183 193.59 263.038 193.38 262.857C193.174 262.678 193.009 262.487 192.887 262.282L193.606 261.777C193.688 261.884 193.791 262.007 193.916 262.145C194.041 262.285 194.212 262.406 194.429 262.508C194.649 262.613 194.936 262.665 195.291 262.665C195.766 262.665 196.157 262.55 196.466 262.321C196.775 262.091 196.929 261.731 196.929 261.241V260.047H196.853C196.786 260.154 196.692 260.286 196.569 260.445C196.45 260.6 196.276 260.739 196.049 260.862C195.824 260.982 195.52 261.042 195.138 261.042C194.663 261.042 194.237 260.93 193.859 260.705C193.484 260.48 193.186 260.154 192.967 259.725C192.75 259.296 192.641 258.775 192.641 258.163C192.641 257.561 192.747 257.036 192.959 256.589C193.171 256.14 193.466 255.793 193.844 255.548C194.221 255.3 194.658 255.177 195.153 255.177C195.536 255.177 195.84 255.241 196.064 255.368C196.291 255.493 196.465 255.636 196.585 255.797C196.707 255.955 196.802 256.085 196.868 256.187H196.96V255.253H197.833V261.302C197.833 261.808 197.718 262.219 197.488 262.535C197.261 262.854 196.955 263.088 196.569 263.236C196.187 263.386 195.76 263.461 195.291 263.461ZM195.26 260.23C195.623 260.23 195.929 260.147 196.179 259.981C196.429 259.816 196.619 259.577 196.749 259.265C196.88 258.954 196.945 258.581 196.945 258.148C196.945 257.724 196.881 257.35 196.753 257.026C196.626 256.702 196.437 256.448 196.187 256.264C195.937 256.08 195.628 255.988 195.26 255.988C194.877 255.988 194.558 256.085 194.303 256.279C194.05 256.473 193.86 256.734 193.733 257.06C193.608 257.387 193.545 257.749 193.545 258.148C193.545 258.556 193.609 258.917 193.736 259.231C193.867 259.542 194.058 259.787 194.311 259.966C194.566 260.142 194.882 260.23 195.26 260.23ZM201.521 261.256C200.954 261.256 200.466 261.131 200.055 260.881C199.646 260.628 199.331 260.276 199.109 259.824C198.89 259.37 198.78 258.842 198.78 258.239C198.78 257.637 198.89 257.106 199.109 256.647C199.331 256.185 199.64 255.825 200.036 255.567C200.434 255.307 200.898 255.177 201.429 255.177C201.735 255.177 202.038 255.228 202.337 255.33C202.635 255.432 202.907 255.598 203.152 255.828C203.397 256.055 203.592 256.356 203.738 256.731C203.883 257.106 203.956 257.568 203.956 258.117V258.5H199.423V257.719H203.037C203.037 257.387 202.971 257.091 202.838 256.831C202.708 256.57 202.522 256.365 202.279 256.214C202.039 256.064 201.756 255.988 201.429 255.988C201.069 255.988 200.758 256.078 200.495 256.256C200.235 256.432 200.034 256.662 199.894 256.945C199.754 257.229 199.683 257.532 199.683 257.857V258.377C199.683 258.821 199.76 259.198 199.913 259.507C200.069 259.813 200.284 260.047 200.56 260.207C200.836 260.366 201.156 260.445 201.521 260.445C201.758 260.445 201.973 260.411 202.164 260.345C202.358 260.276 202.525 260.174 202.666 260.039C202.806 259.901 202.915 259.73 202.991 259.526L203.864 259.771C203.772 260.067 203.618 260.327 203.401 260.552C203.184 260.774 202.916 260.947 202.597 261.073C202.278 261.195 201.919 261.256 201.521 261.256ZM205.803 257.596V261.134H204.899V255.253H205.772V256.172H205.849C205.986 255.873 206.196 255.634 206.476 255.452C206.757 255.269 207.12 255.177 207.564 255.177C207.962 255.177 208.31 255.258 208.609 255.422C208.908 255.583 209.14 255.828 209.306 256.157C209.472 256.483 209.555 256.897 209.555 257.397V261.134H208.651V257.458C208.651 256.996 208.531 256.637 208.291 256.379C208.051 256.119 207.722 255.988 207.303 255.988C207.015 255.988 206.757 256.051 206.53 256.176C206.305 256.301 206.128 256.483 205.998 256.723C205.868 256.963 205.803 257.254 205.803 257.596ZM213.332 255.253V256.019H210.284V255.253H213.332ZM211.173 253.844H212.076V259.449C212.076 259.704 212.113 259.896 212.187 260.024C212.264 260.149 212.361 260.233 212.478 260.276C212.598 260.317 212.724 260.337 212.857 260.337C212.957 260.337 213.038 260.332 213.102 260.322C213.166 260.309 213.217 260.299 213.255 260.292L213.439 261.103C213.378 261.126 213.292 261.149 213.182 261.172C213.073 261.198 212.934 261.21 212.765 261.21C212.51 261.21 212.26 261.155 212.015 261.046C211.772 260.936 211.571 260.769 211.41 260.544C211.252 260.32 211.173 260.036 211.173 259.694V253.844Z" fill="#323150"/>
<g clip-path="url(#clip0_483_850)">
<path d="M187.838 18.1881L198.406 18.1666C198.829 18.0966 199.09 17.8234 199.149 17.4115C199.24 16.795 199.214 15.3562 199.164 14.7074C199.134 14.309 199.015 13.9739 198.606 13.8204C195.066 13.6522 191.492 13.7935 187.94 13.7478C187.475 13.7908 187.181 13.9658 187 14.3884V17.5461C187.17 17.9391 187.388 18.1424 187.836 18.1868L187.838 18.1881Z" fill="#C1C0D8"/>
<path d="M198.406 25.8099L187.937 25.7856C187.442 25.8233 187.205 25.9916 187.001 26.429V29.5867C187.12 29.8397 187.279 30.0537 187.56 30.1533C191.08 30.327 194.642 30.1776 198.178 30.2301C198.84 30.1789 199.116 29.9151 199.166 29.2677C199.216 28.6203 199.242 27.1814 199.151 26.565C199.09 26.1531 198.83 25.8799 198.407 25.8099H198.406Z" fill="#C1C0D8"/>
<path d="M205.12 31.8057L194.642 31.8205C194.255 31.8689 193.936 32.1947 193.894 32.5729C193.825 33.2001 193.82 34.861 193.9 35.4788C193.974 36.0482 194.442 36.2434 194.981 36.2514C198.247 36.067 201.784 36.4883 205.018 36.2514C205.615 36.207 206.002 36.0159 206.056 35.3873C206.113 34.7372 206.136 33.1503 206.05 32.5285C205.991 32.1045 205.554 31.7841 205.12 31.807V31.8057Z" fill="#C1C0D8"/>
<path d="M201.771 18.1909H212.062C212.572 18.1653 212.903 17.8773 212.949 17.3765C213.008 16.7264 213.029 15.0911 212.942 14.4679C212.869 13.943 212.386 13.7774 211.91 13.7451C208.602 13.523 205.021 13.9039 201.686 13.7626C201.144 13.7895 200.838 14.0883 200.785 14.6119C200.72 15.2405 200.713 16.752 200.79 17.3698C200.856 17.9042 201.23 18.1828 201.77 18.1922L201.771 18.1909Z" fill="#C1C0D8"/>
<path d="M206.058 23.3468C206.116 22.6873 206.134 21.1771 206.051 20.5377C205.982 20.0034 205.539 19.7705 205.02 19.7651L194.744 19.7813C194.268 19.8244 193.944 20.1137 193.894 20.5821C193.827 21.2349 193.821 22.7936 193.9 23.4383C193.962 23.9498 194.377 24.1974 194.88 24.2109H205.12C205.682 24.1638 206.009 23.9027 206.058 23.3468Z" fill="#C1C0D8"/>
<path d="M211.961 25.7857L201.583 25.8005C201.094 25.8718 200.834 26.18 200.786 26.6511C200.721 27.2784 200.714 28.7912 200.791 29.409C200.867 30.0134 201.25 30.1924 201.822 30.2314C205.108 30.4522 208.649 30.0605 211.962 30.2314C212.495 30.1911 212.899 29.9757 212.95 29.4171C213.01 28.7657 213.03 27.133 212.943 26.5085C212.88 26.0495 212.418 25.7655 211.962 25.7857H211.961Z" fill="#C1C0D8"/>
<path d="M187.988 24.2096C188.832 24.2795 190.55 24.289 191.384 24.2069C191.818 24.1638 192.179 23.9417 192.223 23.4948C192.291 22.8138 192.305 21.0977 192.222 20.4314C192.167 19.9845 191.747 19.8042 191.333 19.7678C190.527 19.6938 188.692 19.6844 187.903 19.7813C187.448 19.8365 187.118 20.0761 187.058 20.5377C186.977 21.1609 186.988 22.7559 187.053 23.3939C187.107 23.9202 187.465 24.1665 187.988 24.2109V24.2096Z" fill="#C1C0D8"/>
<path d="M207.726 23.5427C207.781 23.9855 208.208 24.1753 208.612 24.2089C209.455 24.2789 211.174 24.2884 212.008 24.2063C212.545 24.1538 212.851 23.8684 212.896 23.3448C212.957 22.657 212.964 21.2613 212.894 20.5802C212.838 20.0499 212.473 19.813 211.956 19.7659C211.151 19.6918 209.315 19.6824 208.526 19.7793C208.135 19.8264 207.833 19.9947 207.73 20.385C207.814 21.377 207.605 22.5749 207.726 23.5413V23.5427Z" fill="#C1C0D8"/>
<path d="M191.384 31.8085C190.261 31.6982 188.945 31.8785 187.8 31.8206C187.369 31.8825 187.095 32.2042 187.053 32.6228C186.983 33.2931 186.983 34.7656 187.053 35.4346C187.112 36.0026 187.502 36.2045 188.041 36.2489C188.634 36.2974 191.268 36.327 191.716 36.1776C192.001 36.082 192.19 35.8195 192.222 35.5342C192.298 34.8383 192.294 33.2231 192.225 32.5219C192.18 32.0737 191.82 31.8516 191.386 31.8099L191.384 31.8085Z" fill="#C1C0D8"/>
<path d="M212.059 31.8086C211.293 31.7333 209.213 31.7171 208.475 31.8208C208.117 31.8706 207.816 32.0778 207.73 32.4278C207.803 33.4171 207.619 34.5652 207.727 35.5343C207.759 35.8197 207.948 36.0821 208.233 36.1777C208.681 36.3271 211.315 36.2988 211.908 36.249C212.487 36.2006 212.847 35.9866 212.899 35.3876C212.96 34.6958 212.967 33.3067 212.897 32.623C212.848 32.1572 212.54 31.8558 212.06 31.8086H212.059Z" fill="#C1C0D8"/>
<path d="M205.111 19.7797C205.091 19.6536 204.988 19.5534 204.856 19.5304L200.005 18.6846C199.967 18.6781 199.928 18.6781 199.89 18.6846L195.039 19.5304C194.907 19.5534 194.804 19.6536 194.784 19.7797C194.764 19.9094 194.289 22.9862 195.243 25.6479C196.208 28.3415 199.635 30.388 199.78 30.4738C199.831 30.504 199.889 30.5191 199.947 30.5191C200.005 30.5191 200.064 30.504 200.115 30.4738C200.26 30.388 203.687 28.3415 204.652 25.6479C205.606 22.9862 205.132 19.9094 205.111 19.7797Z" fill="url(#paint2_linear_483_850)"/>
</g>
<g clip-path="url(#clip1_483_850)">
<path d="M290.138 221.292L300.706 221.27C301.129 221.198 301.391 220.918 301.45 220.495C301.541 219.863 301.515 218.387 301.465 217.722C301.435 217.313 301.316 216.969 300.907 216.812C297.367 216.639 293.793 216.784 290.241 216.737C289.776 216.782 289.482 216.961 289.301 217.395V220.634C289.471 221.037 289.689 221.245 290.137 221.291L290.138 221.292Z" fill="#C1C0D8"/>
<path d="M300.707 229.11L290.238 229.085C289.743 229.124 289.505 229.297 289.302 229.745V232.984C289.421 233.244 289.58 233.463 289.861 233.566C293.381 233.744 296.943 233.59 300.478 233.644C301.141 233.592 301.417 233.321 301.467 232.657C301.516 231.993 301.543 230.517 301.452 229.885C301.391 229.462 301.131 229.182 300.708 229.11H300.707Z" fill="#C1C0D8"/>
<path d="M307.421 235.261L296.943 235.276C296.556 235.326 296.237 235.66 296.195 236.048C296.126 236.692 296.121 238.395 296.201 239.029C296.275 239.613 296.743 239.813 297.282 239.821C300.548 239.632 304.085 240.064 307.319 239.821C307.916 239.776 308.303 239.58 308.357 238.935C308.414 238.268 308.437 236.64 308.351 236.003C308.292 235.568 307.855 235.239 307.421 235.263V235.261Z" fill="#C1C0D8"/>
<path d="M304.072 221.295H314.362C314.872 221.268 315.204 220.973 315.25 220.459C315.309 219.792 315.33 218.115 315.243 217.476C315.17 216.937 314.687 216.767 314.21 216.734C310.903 216.506 307.322 216.897 303.986 216.752C303.445 216.78 303.139 217.086 303.085 217.623C303.02 218.268 303.013 219.819 303.091 220.452C303.157 221 303.53 221.286 304.071 221.296L304.072 221.295Z" fill="#C1C0D8"/>
<path d="M308.358 226.584C308.416 225.908 308.434 224.358 308.351 223.703C308.282 223.155 307.84 222.916 307.32 222.91L297.045 222.927C296.568 222.971 296.245 223.268 296.195 223.748C296.127 224.418 296.122 226.017 296.201 226.678C296.263 227.203 296.677 227.457 297.18 227.47H307.421C307.982 227.422 308.31 227.154 308.358 226.584Z" fill="#C1C0D8"/>
<path d="M314.261 229.086L303.884 229.101C303.395 229.174 303.135 229.49 303.087 229.973C303.022 230.617 303.015 232.168 303.092 232.802C303.168 233.422 303.551 233.606 304.123 233.646C307.409 233.872 310.95 233.47 314.263 233.646C314.796 233.604 315.2 233.383 315.251 232.81C315.31 232.142 315.331 230.468 315.244 229.827C315.18 229.356 314.719 229.065 314.263 229.086H314.261Z" fill="#C1C0D8"/>
<path d="M290.289 227.469C291.132 227.541 292.85 227.55 293.685 227.466C294.119 227.422 294.48 227.194 294.524 226.736C294.592 226.037 294.606 224.277 294.523 223.594C294.467 223.135 294.047 222.95 293.634 222.913C292.828 222.837 290.993 222.827 290.204 222.927C289.749 222.983 289.418 223.229 289.359 223.703C289.277 224.342 289.289 225.978 289.353 226.632C289.407 227.172 289.765 227.425 290.289 227.47V227.469Z" fill="#C1C0D8"/>
<path d="M310.027 226.785C310.082 227.24 310.509 227.434 310.913 227.469C311.756 227.541 313.475 227.55 314.309 227.466C314.846 227.412 315.152 227.12 315.197 226.583C315.258 225.877 315.265 224.445 315.195 223.747C315.139 223.203 314.774 222.96 314.257 222.911C313.452 222.835 311.616 222.826 310.827 222.925C310.436 222.974 310.134 223.146 310.031 223.546C310.115 224.564 309.906 225.793 310.027 226.784V226.785Z" fill="#C1C0D8"/>
<path d="M293.685 235.264C292.561 235.151 291.246 235.336 290.101 235.276C289.67 235.34 289.396 235.67 289.353 236.099C289.284 236.787 289.284 238.297 289.353 238.984C289.413 239.566 289.803 239.773 290.342 239.819C290.935 239.868 293.569 239.899 294.017 239.746C294.302 239.648 294.491 239.378 294.523 239.086C294.599 238.372 294.595 236.715 294.525 235.996C294.481 235.536 294.12 235.308 293.686 235.265L293.685 235.264Z" fill="#C1C0D8"/>
<path d="M314.36 235.264C313.594 235.187 311.514 235.17 310.776 235.276C310.418 235.327 310.116 235.54 310.031 235.899C310.104 236.914 309.92 238.091 310.028 239.085C310.06 239.378 310.249 239.647 310.534 239.745C310.982 239.899 313.616 239.87 314.209 239.819C314.788 239.769 315.148 239.549 315.2 238.935C315.261 238.225 315.268 236.8 315.197 236.099C315.149 235.621 314.841 235.312 314.361 235.264H314.36Z" fill="#C1C0D8"/>
<rect x="296.358" y="222.349" width="11.8867" height="11.8867" rx="2.21147" fill="url(#paint3_linear_483_850)"/>
<path d="M300.495 228.401L301.626 229.533L304.107 227.052" stroke="#E8E7FE" stroke-width="1.24395" stroke-linecap="round"/>
</g>
<rect x="171" y="55.4131" width="58" height="17" rx="3.5" fill="#EFEFF5"/>
<rect x="171" y="55.4131" width="58" height="17" rx="3.5" stroke="#C1C0D8"/>
<path d="M176.365 66.9131L174.774 61.0949H175.49L176.706 65.8335H176.763L178.001 61.0949H178.797L180.035 65.8335H180.092L181.308 61.0949H182.024L180.433 66.9131H179.706L178.422 62.2767H178.376L177.092 66.9131H176.365ZM183.369 67.0154C183.092 67.0154 182.841 66.9633 182.616 66.8591C182.39 66.753 182.211 66.6006 182.079 66.4017C181.946 66.201 181.88 65.9585 181.88 65.6744C181.88 65.4244 181.929 65.2218 182.028 65.0665C182.126 64.9093 182.258 64.7862 182.423 64.6972C182.587 64.6082 182.769 64.5419 182.968 64.4983C183.169 64.4529 183.371 64.4169 183.573 64.3904C183.838 64.3563 184.053 64.3307 184.218 64.3137C184.385 64.2947 184.506 64.2635 184.582 64.2199C184.659 64.1763 184.698 64.1006 184.698 63.9926V63.9699C184.698 63.6896 184.622 63.4718 184.468 63.3165C184.317 63.1612 184.086 63.0835 183.778 63.0835C183.458 63.0835 183.207 63.1536 183.025 63.2938C182.843 63.4339 182.715 63.5835 182.641 63.7426L182.005 63.5154C182.119 63.2502 182.27 63.0438 182.46 62.896C182.651 62.7464 182.859 62.6423 183.085 62.5835C183.312 62.5229 183.535 62.4926 183.755 62.4926C183.895 62.4926 184.056 62.5097 184.238 62.5438C184.422 62.576 184.599 62.6432 184.769 62.7455C184.942 62.8477 185.085 63.0021 185.198 63.2085C185.312 63.415 185.369 63.6915 185.369 64.0381V66.9131H184.698V66.3222H184.664C184.619 66.4169 184.543 66.5182 184.437 66.6262C184.331 66.7341 184.19 66.826 184.014 66.9017C183.837 66.9775 183.622 67.0154 183.369 67.0154ZM183.471 66.4131C183.736 66.4131 183.96 66.361 184.141 66.2568C184.325 66.1527 184.463 66.0182 184.556 65.8534C184.651 65.6887 184.698 65.5154 184.698 65.3335V64.7199C184.67 64.754 184.607 64.7852 184.511 64.8137C184.416 64.8402 184.306 64.8638 184.181 64.8847C184.058 64.9036 183.938 64.9207 183.82 64.9358C183.705 64.9491 183.611 64.9604 183.539 64.9699C183.365 64.9926 183.202 65.0296 183.05 65.0807C182.901 65.1299 182.78 65.2048 182.687 65.3051C182.596 65.4036 182.55 65.5381 182.55 65.7085C182.55 65.9415 182.637 66.1176 182.809 66.2369C182.983 66.3544 183.204 66.4131 183.471 66.4131ZM186.943 61.0949V66.9131H186.272V61.0949H186.943ZM188.521 61.0949V66.9131H187.851V61.0949H188.521ZM191.259 67.004C190.838 67.004 190.476 66.9112 190.171 66.7256C189.868 66.5381 189.634 66.2767 189.469 65.9415C189.306 65.6044 189.225 65.2123 189.225 64.7654C189.225 64.3184 189.306 63.9244 189.469 63.5835C189.634 63.2407 189.863 62.9737 190.157 62.7824C190.452 62.5892 190.797 62.4926 191.191 62.4926C191.418 62.4926 191.642 62.5305 191.864 62.6063C192.086 62.682 192.287 62.8051 192.469 62.9756C192.651 63.1441 192.796 63.3676 192.904 63.646C193.012 63.9244 193.066 64.2673 193.066 64.6744V64.9585H189.702V64.379H192.384C192.384 64.1328 192.335 63.9131 192.236 63.7199C192.139 63.5267 192.001 63.3743 191.821 63.2625C191.643 63.1508 191.433 63.0949 191.191 63.0949C190.924 63.0949 190.693 63.1612 190.497 63.2938C190.304 63.4244 190.156 63.5949 190.051 63.8051C189.947 64.0154 189.895 64.2407 189.895 64.4813V64.8676C189.895 65.1972 189.952 65.4765 190.066 65.7057C190.181 65.933 190.341 66.1063 190.546 66.2256C190.75 66.343 190.988 66.4017 191.259 66.4017C191.435 66.4017 191.594 66.3771 191.736 66.3279C191.88 66.2767 192.004 66.201 192.108 66.1006C192.212 65.9983 192.293 65.8714 192.35 65.7199L192.997 65.9017C192.929 66.1214 192.815 66.3146 192.654 66.4813C192.493 66.646 192.294 66.7748 192.057 66.8676C191.82 66.9585 191.554 67.004 191.259 67.004ZM195.413 67.004C195.05 67.004 194.729 66.9121 194.45 66.7284C194.172 66.5428 193.954 66.2815 193.797 65.9443C193.64 65.6053 193.561 65.2048 193.561 64.7426C193.561 64.2843 193.64 63.8866 193.797 63.5494C193.954 63.2123 194.173 62.9519 194.453 62.7682C194.733 62.5845 195.057 62.4926 195.425 62.4926C195.709 62.4926 195.933 62.54 196.098 62.6347C196.265 62.7275 196.391 62.8335 196.479 62.9529C196.568 63.0703 196.637 63.1669 196.686 63.2426H196.743V61.0949H197.413V66.9131H196.766V66.2426H196.686C196.637 66.3222 196.567 66.4226 196.476 66.5438C196.385 66.6631 196.255 66.7701 196.087 66.8648C195.918 66.9576 195.694 67.004 195.413 67.004ZM195.504 66.4017C195.773 66.4017 196 66.3316 196.186 66.1915C196.372 66.0494 196.513 65.8534 196.609 65.6034C196.706 65.3515 196.754 65.0608 196.754 64.7313C196.754 64.4055 196.707 64.1205 196.612 63.8762C196.517 63.6299 196.377 63.4387 196.192 63.3023C196.006 63.164 195.777 63.0949 195.504 63.0949C195.22 63.0949 194.983 63.1678 194.794 63.3137C194.606 63.4576 194.465 63.6536 194.371 63.9017C194.278 64.1479 194.231 64.4244 194.231 64.7313C194.231 65.0419 194.279 65.3241 194.373 65.5779C194.47 65.8298 194.612 66.0305 194.8 66.1801C194.989 66.3279 195.224 66.4017 195.504 66.4017ZM200.435 66.9131V61.0949H202.401C202.858 61.0949 203.231 61.1773 203.52 61.3421C203.812 61.5049 204.028 61.7256 204.168 62.004C204.308 62.2824 204.378 62.593 204.378 62.9358C204.378 63.2786 204.308 63.5902 204.168 63.8705C204.03 64.1508 203.816 64.3743 203.526 64.5409C203.236 64.7057 202.865 64.7881 202.412 64.7881H201.003V64.1631H202.39C202.702 64.1631 202.953 64.1091 203.143 64.0012C203.332 63.8932 203.469 63.7474 203.554 63.5637C203.642 63.378 203.685 63.1688 203.685 62.9358C203.685 62.7029 203.642 62.4945 203.554 62.3108C203.469 62.1271 203.331 61.9832 203.14 61.879C202.948 61.7729 202.695 61.7199 202.378 61.7199H201.14V66.9131H200.435ZM205.102 66.9131V62.5494H205.75V63.2085H205.796C205.875 62.9926 206.019 62.8174 206.227 62.683C206.436 62.5485 206.671 62.4813 206.932 62.4813C206.981 62.4813 207.043 62.4822 207.117 62.4841C207.19 62.486 207.246 62.4888 207.284 62.4926V63.1744C207.261 63.1688 207.209 63.1602 207.128 63.1489C207.048 63.1356 206.964 63.129 206.875 63.129C206.663 63.129 206.474 63.1735 206.307 63.2625C206.142 63.3496 206.011 63.4709 205.915 63.6262C205.82 63.7796 205.773 63.9548 205.773 64.1517V66.9131H205.102ZM209.399 67.004C209.005 67.004 208.659 66.9102 208.362 66.7227C208.066 66.5352 207.835 66.2729 207.669 65.9358C207.504 65.5987 207.422 65.2048 207.422 64.754C207.422 64.2994 207.504 63.9027 207.669 63.5637C207.835 63.2246 208.066 62.9614 208.362 62.7739C208.659 62.5864 209.005 62.4926 209.399 62.4926C209.793 62.4926 210.137 62.5864 210.433 62.7739C210.73 62.9614 210.961 63.2246 211.126 63.5637C211.293 63.9027 211.376 64.2994 211.376 64.754C211.376 65.2048 211.293 65.5987 211.126 65.9358C210.961 66.2729 210.73 66.5352 210.433 66.7227C210.137 66.9102 209.793 67.004 209.399 67.004ZM209.399 66.4017C209.698 66.4017 209.944 66.325 210.137 66.1716C210.331 66.0182 210.474 65.8165 210.566 65.5665C210.659 65.3165 210.706 65.0457 210.706 64.754C210.706 64.4623 210.659 64.1905 210.566 63.9387C210.474 63.6868 210.331 63.4832 210.137 63.3279C209.944 63.1726 209.698 63.0949 209.399 63.0949C209.1 63.0949 208.853 63.1726 208.66 63.3279C208.467 63.4832 208.324 63.6868 208.231 63.9387C208.138 64.1905 208.092 64.4623 208.092 64.754C208.092 65.0457 208.138 65.3165 208.231 65.5665C208.324 65.8165 208.467 66.0182 208.66 66.1716C208.853 66.325 209.1 66.4017 209.399 66.4017ZM213.977 62.5494V63.1176H211.716V62.5494H213.977ZM212.375 61.504H213.045V65.6631C213.045 65.8525 213.073 65.9945 213.128 66.0892C213.185 66.182 213.257 66.2445 213.344 66.2767C213.433 66.307 213.527 66.3222 213.625 66.3222C213.699 66.3222 213.759 66.3184 213.807 66.3108C213.854 66.3013 213.892 66.2938 213.92 66.2881L214.057 66.8904C214.011 66.9074 213.948 66.9244 213.867 66.9415C213.785 66.9604 213.682 66.9699 213.557 66.9699C213.367 66.9699 213.182 66.9292 213 66.8477C212.82 66.7663 212.67 66.6423 212.551 66.4756C212.434 66.3089 212.375 66.0987 212.375 65.8449V61.504ZM216.448 67.004C216.028 67.004 215.665 66.9112 215.36 66.7256C215.057 66.5381 214.823 66.2767 214.659 65.9415C214.496 65.6044 214.414 65.2123 214.414 64.7654C214.414 64.3184 214.496 63.9244 214.659 63.5835C214.823 63.2407 215.053 62.9737 215.346 62.7824C215.642 62.5892 215.986 62.4926 216.38 62.4926C216.608 62.4926 216.832 62.5305 217.054 62.6063C217.275 62.682 217.477 62.8051 217.659 62.9756C217.841 63.1441 217.985 63.3676 218.093 63.646C218.201 63.9244 218.255 64.2673 218.255 64.6744V64.9585H214.892V64.379H217.573C217.573 64.1328 217.524 63.9131 217.426 63.7199C217.329 63.5267 217.191 63.3743 217.011 63.2625C216.833 63.1508 216.623 63.0949 216.38 63.0949C216.113 63.0949 215.882 63.1612 215.687 63.2938C215.494 63.4244 215.345 63.5949 215.241 63.8051C215.137 64.0154 215.085 64.2407 215.085 64.4813V64.8676C215.085 65.1972 215.142 65.4765 215.255 65.7057C215.371 65.933 215.531 66.1063 215.735 66.2256C215.94 66.343 216.178 66.4017 216.448 66.4017C216.625 66.4017 216.784 66.3771 216.926 66.3279C217.07 66.2767 217.194 66.201 217.298 66.1006C217.402 65.9983 217.483 65.8714 217.539 65.7199L218.187 65.9017C218.119 66.1214 218.004 66.3146 217.843 66.4813C217.682 66.646 217.484 66.7748 217.247 66.8676C217.01 66.9585 216.744 67.004 216.448 67.004ZM220.728 67.004C220.319 67.004 219.967 66.9074 219.671 66.7142C219.376 66.521 219.148 66.2549 218.989 65.9159C218.83 65.5769 218.751 65.1896 218.751 64.754C218.751 64.3108 218.832 63.9197 218.995 63.5807C219.16 63.2398 219.389 62.9737 219.682 62.7824C219.978 62.5892 220.323 62.4926 220.717 62.4926C221.023 62.4926 221.3 62.5494 221.546 62.6631C221.792 62.7767 221.994 62.9358 222.151 63.1404C222.308 63.3449 222.406 63.5835 222.444 63.8563H221.773C221.722 63.6574 221.609 63.4813 221.432 63.3279C221.258 63.1726 221.023 63.0949 220.728 63.0949C220.467 63.0949 220.237 63.1631 220.04 63.2994C219.845 63.4339 219.693 63.6243 219.583 63.8705C219.475 64.1148 219.421 64.4017 219.421 64.7313C219.421 65.0684 219.474 65.3619 219.58 65.6119C219.688 65.8619 219.84 66.0561 220.035 66.1943C220.232 66.3326 220.463 66.4017 220.728 66.4017C220.902 66.4017 221.06 66.3714 221.202 66.3108C221.344 66.2502 221.465 66.1631 221.563 66.0494C221.662 65.9358 221.732 65.7994 221.773 65.6404H222.444C222.406 65.8979 222.312 66.1299 222.163 66.3364C222.015 66.5409 221.819 66.7038 221.575 66.825C221.332 66.9443 221.05 67.004 220.728 67.004ZM225.002 62.5494V63.1176H222.74V62.5494H225.002ZM223.399 61.504H224.07V65.6631C224.07 65.8525 224.097 65.9945 224.152 66.0892C224.209 66.182 224.281 66.2445 224.368 66.2767C224.457 66.307 224.551 66.3222 224.649 66.3222C224.723 66.3222 224.784 66.3184 224.831 66.3108C224.879 66.3013 224.916 66.2938 224.945 66.2881L225.081 66.8904C225.036 66.9074 224.972 66.9244 224.891 66.9415C224.809 66.9604 224.706 66.9699 224.581 66.9699C224.392 66.9699 224.206 66.9292 224.024 66.8477C223.844 66.7663 223.695 66.6423 223.576 66.4756C223.458 66.3089 223.399 66.0987 223.399 65.8449V61.504Z" fill="#323150"/>
<rect x="35.1665" y="300.592" width="58" height="17" rx="3.5" fill="#EFEFF5"/>
<rect x="35.1665" y="300.592" width="58" height="17" rx="3.5" stroke="#C1C0D8"/>
<path d="M40.8752 312.092L39.2843 306.274H40.0002L41.2161 311.013H41.2729L42.5116 306.274H43.307L44.5457 311.013H44.6025L45.8184 306.274H46.5343L44.9434 312.092H44.2161L42.932 307.456H42.8866L41.6025 312.092H40.8752ZM47.8791 312.195C47.6026 312.195 47.3516 312.142 47.1262 312.038C46.9009 311.932 46.7219 311.78 46.5893 311.581C46.4567 311.38 46.3904 311.138 46.3904 310.854C46.3904 310.604 46.4397 310.401 46.5382 310.246C46.6367 310.088 46.7683 309.965 46.9331 309.876C47.0978 309.787 47.2796 309.721 47.4785 309.678C47.6793 309.632 47.881 309.596 48.0836 309.57C48.3488 309.535 48.5637 309.51 48.7285 309.493C48.8952 309.474 49.0164 309.443 49.0921 309.399C49.1698 309.356 49.2086 309.28 49.2086 309.172V309.149C49.2086 308.869 49.1319 308.651 48.9785 308.496C48.827 308.34 48.5969 308.263 48.2882 308.263C47.9681 308.263 47.7171 308.333 47.5353 308.473C47.3535 308.613 47.2257 308.763 47.1518 308.922L46.5154 308.695C46.6291 308.429 46.7806 308.223 46.97 308.075C47.1613 307.926 47.3696 307.821 47.595 307.763C47.8223 307.702 48.0457 307.672 48.2654 307.672C48.4056 307.672 48.5666 307.689 48.7484 307.723C48.9321 307.755 49.1092 307.822 49.2796 307.925C49.452 308.027 49.595 308.181 49.7086 308.388C49.8223 308.594 49.8791 308.871 49.8791 309.217V312.092H49.2086V311.501H49.1745C49.1291 311.596 49.0533 311.697 48.9473 311.805C48.8412 311.913 48.7001 312.005 48.524 312.081C48.3478 312.157 48.1329 312.195 47.8791 312.195ZM47.9813 311.592C48.2465 311.592 48.47 311.54 48.6518 311.436C48.8355 311.332 48.9738 311.197 49.0666 311.033C49.1613 310.868 49.2086 310.695 49.2086 310.513V309.899C49.1802 309.933 49.1177 309.964 49.0211 309.993C48.9264 310.019 48.8166 310.043 48.6916 310.064C48.5685 310.083 48.4482 310.1 48.3308 310.115C48.2152 310.128 48.1215 310.14 48.0495 310.149C47.8753 310.172 47.7124 310.209 47.5609 310.26C47.4113 310.309 47.2901 310.384 47.1973 310.484C47.1063 310.583 47.0609 310.717 47.0609 310.888C47.0609 311.121 47.1471 311.297 47.3194 311.416C47.4937 311.534 47.7143 311.592 47.9813 311.592ZM51.4533 306.274V312.092H50.7828V306.274H51.4533ZM53.0317 306.274V312.092H52.3612V306.274H53.0317ZM55.7692 312.183C55.3488 312.183 54.9861 312.09 54.6811 311.905C54.3781 311.717 54.1442 311.456 53.9794 311.121C53.8166 310.784 53.7351 310.392 53.7351 309.945C53.7351 309.498 53.8166 309.104 53.9794 308.763C54.1442 308.42 54.3734 308.153 54.6669 307.962C54.9624 307.768 55.3071 307.672 55.701 307.672C55.9283 307.672 56.1527 307.71 56.3743 307.785C56.5959 307.861 56.7976 307.984 56.9794 308.155C57.1613 308.323 57.3061 308.547 57.4141 308.825C57.5221 309.104 57.576 309.446 57.576 309.854V310.138H54.2124V309.558H56.8942C56.8942 309.312 56.845 309.092 56.7465 308.899C56.6499 308.706 56.5116 308.553 56.3317 308.442C56.1537 308.33 55.9435 308.274 55.701 308.274C55.434 308.274 55.2029 308.34 55.0079 308.473C54.8147 308.604 54.666 308.774 54.5618 308.984C54.4577 309.195 54.4056 309.42 54.4056 309.66V310.047C54.4056 310.376 54.4624 310.656 54.576 310.885C54.6916 311.112 54.8516 311.285 55.0561 311.405C55.2607 311.522 55.4984 311.581 55.7692 311.581C55.9454 311.581 56.1044 311.556 56.2465 311.507C56.3904 311.456 56.5145 311.38 56.6186 311.28C56.7228 311.178 56.8033 311.051 56.8601 310.899L57.5079 311.081C57.4397 311.301 57.3251 311.494 57.1641 311.66C57.0031 311.825 56.8043 311.954 56.5675 312.047C56.3308 312.138 56.0647 312.183 55.7692 312.183ZM59.9236 312.183C59.56 312.183 59.239 312.091 58.9606 311.908C58.6822 311.722 58.4644 311.461 58.3072 311.124C58.15 310.785 58.0714 310.384 58.0714 309.922C58.0714 309.463 58.15 309.066 58.3072 308.729C58.4644 308.392 58.6831 308.131 58.9634 307.947C59.2437 307.764 59.5676 307.672 59.935 307.672C60.2191 307.672 60.4435 307.719 60.6083 307.814C60.775 307.907 60.9019 308.013 60.989 308.132C61.078 308.249 61.1471 308.346 61.1964 308.422H61.2532V306.274H61.9236V312.092H61.2759V311.422H61.1964C61.1471 311.501 61.0771 311.602 60.9861 311.723C60.8952 311.842 60.7655 311.949 60.5969 312.044C60.4284 312.137 60.204 312.183 59.9236 312.183ZM60.0146 311.581C60.2835 311.581 60.5108 311.511 60.6964 311.371C60.882 311.229 61.0231 311.033 61.1197 310.783C61.2163 310.531 61.2646 310.24 61.2646 309.91C61.2646 309.585 61.2172 309.3 61.1225 309.055C61.0278 308.809 60.8877 308.618 60.7021 308.481C60.5165 308.343 60.2873 308.274 60.0146 308.274C59.7305 308.274 59.4937 308.347 59.3043 308.493C59.1168 308.637 58.9757 308.833 58.881 309.081C58.7882 309.327 58.7418 309.604 58.7418 309.91C58.7418 310.221 58.7892 310.503 58.8839 310.757C58.9805 311.009 59.1225 311.21 59.31 311.359C59.4994 311.507 59.7343 311.581 60.0146 311.581ZM64.9456 312.092V306.274H66.9115C67.366 306.274 67.7391 306.352 68.0308 306.507C68.3225 306.66 68.5384 306.872 68.6785 307.141C68.8187 307.41 68.8888 307.715 68.8888 308.058C68.8888 308.401 68.8187 308.705 68.6785 308.97C68.5384 309.235 68.3234 309.444 68.0336 309.595C67.7439 309.745 67.3736 309.82 66.9229 309.82H65.3319V309.183H66.9001C67.2107 309.183 67.4607 309.138 67.6501 309.047C67.8414 308.956 67.9797 308.827 68.0649 308.66C68.152 308.492 68.1956 308.291 68.1956 308.058C68.1956 307.825 68.152 307.622 68.0649 307.447C67.9778 307.273 67.8386 307.139 67.6473 307.044C67.456 306.947 67.2032 306.899 66.8888 306.899H65.6501V312.092H64.9456ZM67.6842 309.479L69.116 312.092H68.2979L66.8888 309.479H67.6842ZM71.4345 312.183C71.0141 312.183 70.6514 312.09 70.3465 311.905C70.0434 311.717 69.8095 311.456 69.6448 311.121C69.4819 310.784 69.4004 310.392 69.4004 309.945C69.4004 309.498 69.4819 309.104 69.6448 308.763C69.8095 308.42 70.0387 308.153 70.3323 307.962C70.6277 307.768 70.9724 307.672 71.3663 307.672C71.5936 307.672 71.8181 307.71 72.0396 307.785C72.2612 307.861 72.4629 307.984 72.6448 308.155C72.8266 308.323 72.9715 308.547 73.0794 308.825C73.1874 309.104 73.2413 309.446 73.2413 309.854V310.138H69.8777V309.558H72.5595C72.5595 309.312 72.5103 309.092 72.4118 308.899C72.3152 308.706 72.177 308.553 71.997 308.442C71.819 308.33 71.6088 308.274 71.3663 308.274C71.0993 308.274 70.8682 308.34 70.6732 308.473C70.48 308.604 70.3313 308.774 70.2271 308.984C70.123 309.195 70.0709 309.42 70.0709 309.66V310.047C70.0709 310.376 70.1277 310.656 70.2413 310.885C70.3569 311.112 70.5169 311.285 70.7215 311.405C70.926 311.522 71.1637 311.581 71.4345 311.581C71.6107 311.581 71.7698 311.556 71.9118 311.507C72.0557 311.456 72.1798 311.38 72.284 311.28C72.3881 311.178 72.4686 311.051 72.5254 310.899L73.1732 311.081C73.105 311.301 72.9904 311.494 72.8294 311.66C72.6684 311.825 72.4696 311.954 72.2328 312.047C71.9961 312.138 71.73 312.183 71.4345 312.183ZM75.589 312.183C75.2253 312.183 74.9043 312.091 74.6259 311.908C74.3475 311.722 74.1297 311.461 73.9725 311.124C73.8153 310.785 73.7367 310.384 73.7367 309.922C73.7367 309.463 73.8153 309.066 73.9725 308.729C74.1297 308.392 74.3484 308.131 74.6287 307.947C74.909 307.764 75.2329 307.672 75.6003 307.672C75.8844 307.672 76.1088 307.719 76.2736 307.814C76.4403 307.907 76.5672 308.013 76.6543 308.132C76.7433 308.249 76.8124 308.346 76.8617 308.422H76.9185V306.274H77.589V312.092H76.9412V311.422H76.8617C76.8124 311.501 76.7424 311.602 76.6515 311.723C76.5606 311.842 76.4308 311.949 76.2623 312.044C76.0937 312.137 75.8693 312.183 75.589 312.183ZM75.6799 311.581C75.9488 311.581 76.1761 311.511 76.3617 311.371C76.5473 311.229 76.6884 311.033 76.785 310.783C76.8816 310.531 76.9299 310.24 76.9299 309.91C76.9299 309.585 76.8825 309.3 76.7878 309.055C76.6931 308.809 76.553 308.618 76.3674 308.481C76.1818 308.343 75.9526 308.274 75.6799 308.274C75.3958 308.274 75.159 308.347 74.9696 308.493C74.7821 308.637 74.641 308.833 74.5463 309.081C74.4535 309.327 74.4071 309.604 74.4071 309.91C74.4071 310.221 74.4545 310.503 74.5492 310.757C74.6458 311.009 74.7878 311.21 74.9753 311.359C75.1647 311.507 75.3996 311.581 75.6799 311.581ZM79.8741 312.195C79.5976 312.195 79.3466 312.142 79.1212 312.038C78.8959 311.932 78.7169 311.78 78.5843 311.581C78.4517 311.38 78.3854 311.138 78.3854 310.854C78.3854 310.604 78.4347 310.401 78.5332 310.246C78.6317 310.088 78.7633 309.965 78.9281 309.876C79.0928 309.787 79.2746 309.721 79.4735 309.678C79.6743 309.632 79.876 309.596 80.0786 309.57C80.3438 309.535 80.5587 309.51 80.7235 309.493C80.8902 309.474 81.0114 309.443 81.0871 309.399C81.1648 309.356 81.2036 309.28 81.2036 309.172V309.149C81.2036 308.869 81.1269 308.651 80.9735 308.496C80.822 308.34 80.5919 308.263 80.2832 308.263C79.9631 308.263 79.7121 308.333 79.5303 308.473C79.3485 308.613 79.2207 308.763 79.1468 308.922L78.5104 308.695C78.6241 308.429 78.7756 308.223 78.965 308.075C79.1563 307.926 79.3646 307.821 79.59 307.763C79.8173 307.702 80.0407 307.672 80.2604 307.672C80.4006 307.672 80.5616 307.689 80.7434 307.723C80.9271 307.755 81.1042 307.822 81.2746 307.925C81.447 308.027 81.59 308.181 81.7036 308.388C81.8173 308.594 81.8741 308.871 81.8741 309.217V312.092H81.2036V311.501H81.1695C81.1241 311.596 81.0483 311.697 80.9423 311.805C80.8362 311.913 80.6951 312.005 80.519 312.081C80.3428 312.157 80.1279 312.195 79.8741 312.195ZM79.9763 311.592C80.2415 311.592 80.465 311.54 80.6468 311.436C80.8305 311.332 80.9688 311.197 81.0616 311.033C81.1563 310.868 81.2036 310.695 81.2036 310.513V309.899C81.1752 309.933 81.1127 309.964 81.0161 309.993C80.9214 310.019 80.8116 310.043 80.6866 310.064C80.5635 310.083 80.4432 310.1 80.3258 310.115C80.2103 310.128 80.1165 310.14 80.0445 310.149C79.8703 310.172 79.7074 310.209 79.5559 310.26C79.4063 310.309 79.2851 310.384 79.1923 310.484C79.1013 310.583 79.0559 310.717 79.0559 310.888C79.0559 311.121 79.1421 311.297 79.3144 311.416C79.4887 311.534 79.7093 311.592 79.9763 311.592ZM84.5505 312.183C84.1414 312.183 83.7892 312.087 83.4937 311.893C83.1983 311.7 82.971 311.434 82.8119 311.095C82.6528 310.756 82.5733 310.369 82.5733 309.933C82.5733 309.49 82.6547 309.099 82.8176 308.76C82.9823 308.419 83.2115 308.153 83.5051 307.962C83.8005 307.768 84.1452 307.672 84.5392 307.672C84.846 307.672 85.1225 307.729 85.3687 307.842C85.6149 307.956 85.8166 308.115 85.9738 308.32C86.131 308.524 86.2286 308.763 86.2664 309.035H85.596C85.5448 308.837 85.4312 308.66 85.2551 308.507C85.0808 308.352 84.846 308.274 84.5505 308.274C84.2892 308.274 84.06 308.342 83.863 308.479C83.6679 308.613 83.5155 308.803 83.4056 309.05C83.2977 309.294 83.2437 309.581 83.2437 309.91C83.2437 310.248 83.2967 310.541 83.4028 310.791C83.5108 311.041 83.6623 311.235 83.8573 311.374C84.0543 311.512 84.2854 311.581 84.5505 311.581C84.7248 311.581 84.8829 311.551 85.025 311.49C85.167 311.429 85.2873 311.342 85.3858 311.229C85.4842 311.115 85.5543 310.979 85.596 310.82H86.2664C86.2286 311.077 86.1348 311.309 85.9852 311.516C85.8375 311.72 85.6414 311.883 85.3971 312.004C85.1547 312.124 84.8725 312.183 84.5505 312.183ZM88.8243 307.729V308.297H86.5629V307.729H88.8243ZM87.222 306.683H87.8925V310.842C87.8925 311.032 87.9199 311.174 87.9748 311.268C88.0317 311.361 88.1036 311.424 88.1908 311.456C88.2798 311.486 88.3735 311.501 88.472 311.501C88.5459 311.501 88.6065 311.498 88.6538 311.49C88.7012 311.481 88.739 311.473 88.7675 311.467L88.9038 312.07C88.8584 312.087 88.7949 312.104 88.7135 312.121C88.632 312.14 88.5288 312.149 88.4038 312.149C88.2144 312.149 88.0288 312.108 87.847 312.027C87.6671 311.946 87.5175 311.821 87.3981 311.655C87.2807 311.488 87.222 311.278 87.222 311.024V306.683Z" fill="#323150"/>
<rect x="272.801" y="257.901" width="59" height="17" rx="3.5" fill="#EFEFF5"/>
<rect x="272.801" y="257.901" width="59" height="17" rx="3.5" stroke="#C1C0D8"/>
<path d="M278.236 269.401L276.645 263.583H277.361L278.577 268.322H278.634L279.873 263.583H280.668L281.907 268.322H281.963L283.179 263.583H283.895L282.304 269.401H281.577L280.293 264.765H280.248L278.963 269.401H278.236ZM285.24 269.504C284.963 269.504 284.713 269.452 284.487 269.347C284.262 269.241 284.083 269.089 283.95 268.89C283.818 268.689 283.751 268.447 283.751 268.163C283.751 267.913 283.801 267.71 283.899 267.555C283.998 267.398 284.129 267.274 284.294 267.185C284.459 267.096 284.641 267.03 284.839 266.987C285.04 266.941 285.242 266.905 285.445 266.879C285.71 266.845 285.925 266.819 286.089 266.802C286.256 266.783 286.377 266.752 286.453 266.708C286.531 266.665 286.57 266.589 286.57 266.481V266.458C286.57 266.178 286.493 265.96 286.339 265.805C286.188 265.649 285.958 265.572 285.649 265.572C285.329 265.572 285.078 265.642 284.896 265.782C284.714 265.922 284.587 266.072 284.513 266.231L283.876 266.004C283.99 265.738 284.142 265.532 284.331 265.384C284.522 265.235 284.731 265.131 284.956 265.072C285.183 265.011 285.407 264.981 285.626 264.981C285.767 264.981 285.928 264.998 286.109 265.032C286.293 265.064 286.47 265.131 286.641 265.234C286.813 265.336 286.956 265.49 287.07 265.697C287.183 265.903 287.24 266.18 287.24 266.526V269.401H286.57V268.81H286.535C286.49 268.905 286.414 269.006 286.308 269.114C286.202 269.222 286.061 269.314 285.885 269.39C285.709 269.466 285.494 269.504 285.24 269.504ZM285.342 268.901C285.607 268.901 285.831 268.849 286.013 268.745C286.196 268.641 286.335 268.506 286.428 268.342C286.522 268.177 286.57 268.004 286.57 267.822V267.208C286.541 267.242 286.479 267.274 286.382 267.302C286.287 267.328 286.178 267.352 286.053 267.373C285.929 267.392 285.809 267.409 285.692 267.424C285.576 267.437 285.482 267.449 285.41 267.458C285.236 267.481 285.073 267.518 284.922 267.569C284.772 267.618 284.651 267.693 284.558 267.793C284.467 267.892 284.422 268.026 284.422 268.197C284.422 268.43 284.508 268.606 284.68 268.725C284.855 268.843 285.075 268.901 285.342 268.901ZM288.814 263.583V269.401H288.144V263.583H288.814ZM290.393 263.583V269.401H289.722V263.583H290.393ZM293.13 269.492C292.71 269.492 292.347 269.399 292.042 269.214C291.739 269.026 291.505 268.765 291.34 268.43C291.177 268.093 291.096 267.701 291.096 267.254C291.096 266.807 291.177 266.413 291.34 266.072C291.505 265.729 291.734 265.462 292.028 265.271C292.323 265.078 292.668 264.981 293.062 264.981C293.289 264.981 293.514 265.019 293.735 265.095C293.957 265.17 294.159 265.293 294.34 265.464C294.522 265.632 294.667 265.856 294.775 266.134C294.883 266.413 294.937 266.756 294.937 267.163V267.447H291.573V266.867H294.255C294.255 266.621 294.206 266.401 294.107 266.208C294.011 266.015 293.873 265.863 293.693 265.751C293.515 265.639 293.304 265.583 293.062 265.583C292.795 265.583 292.564 265.649 292.369 265.782C292.176 265.913 292.027 266.083 291.923 266.293C291.819 266.504 291.767 266.729 291.767 266.97V267.356C291.767 267.685 291.823 267.965 291.937 268.194C292.052 268.421 292.213 268.595 292.417 268.714C292.622 268.831 292.859 268.89 293.13 268.89C293.306 268.89 293.465 268.865 293.607 268.816C293.751 268.765 293.875 268.689 293.98 268.589C294.084 268.487 294.164 268.36 294.221 268.208L294.869 268.39C294.801 268.61 294.686 268.803 294.525 268.97C294.364 269.134 294.165 269.263 293.928 269.356C293.692 269.447 293.426 269.492 293.13 269.492ZM297.285 269.492C296.921 269.492 296.6 269.4 296.322 269.217C296.043 269.031 295.825 268.77 295.668 268.433C295.511 268.094 295.432 267.693 295.432 267.231C295.432 266.773 295.511 266.375 295.668 266.038C295.825 265.701 296.044 265.44 296.324 265.256C296.605 265.073 296.929 264.981 297.296 264.981C297.58 264.981 297.804 265.028 297.969 265.123C298.136 265.216 298.263 265.322 298.35 265.441C298.439 265.559 298.508 265.655 298.557 265.731H298.614V263.583H299.285V269.401H298.637V268.731H298.557C298.508 268.81 298.438 268.911 298.347 269.032C298.256 269.151 298.126 269.258 297.958 269.353C297.789 269.446 297.565 269.492 297.285 269.492ZM297.375 268.89C297.644 268.89 297.872 268.82 298.057 268.68C298.243 268.538 298.384 268.342 298.481 268.092C298.577 267.84 298.625 267.549 298.625 267.22C298.625 266.894 298.578 266.609 298.483 266.364C298.389 266.118 298.249 265.927 298.063 265.791C297.877 265.652 297.648 265.583 297.375 265.583C297.091 265.583 296.855 265.656 296.665 265.802C296.478 265.946 296.337 266.142 296.242 266.39C296.149 266.636 296.103 266.913 296.103 267.22C296.103 267.53 296.15 267.812 296.245 268.066C296.341 268.318 296.483 268.519 296.671 268.668C296.86 268.816 297.095 268.89 297.375 268.89ZM306.988 265.401H306.284C306.242 265.199 306.169 265.021 306.065 264.867C305.963 264.714 305.838 264.585 305.69 264.481C305.544 264.375 305.382 264.295 305.204 264.242C305.026 264.189 304.841 264.163 304.647 264.163C304.295 264.163 303.976 264.252 303.69 264.43C303.406 264.608 303.18 264.87 303.011 265.217C302.844 265.563 302.761 265.988 302.761 266.492C302.761 266.996 302.844 267.421 303.011 267.768C303.18 268.114 303.406 268.377 303.69 268.555C303.976 268.733 304.295 268.822 304.647 268.822C304.841 268.822 305.026 268.795 305.204 268.742C305.382 268.689 305.544 268.611 305.69 268.506C305.838 268.4 305.963 268.271 306.065 268.117C306.169 267.962 306.242 267.784 306.284 267.583H306.988C306.935 267.881 306.839 268.147 306.699 268.381C306.558 268.616 306.384 268.816 306.176 268.981C305.967 269.144 305.734 269.268 305.474 269.353C305.217 269.438 304.941 269.481 304.647 269.481C304.151 269.481 303.71 269.36 303.324 269.117C302.937 268.875 302.633 268.53 302.412 268.083C302.19 267.636 302.079 267.106 302.079 266.492C302.079 265.879 302.19 265.348 302.412 264.901C302.633 264.454 302.937 264.11 303.324 263.867C303.71 263.625 304.151 263.504 304.647 263.504C304.941 263.504 305.217 263.546 305.474 263.631C305.734 263.717 305.967 263.842 306.176 264.006C306.384 264.169 306.558 264.368 306.699 264.603C306.839 264.836 306.935 265.102 306.988 265.401ZM309.489 269.492C309.095 269.492 308.749 269.399 308.452 269.211C308.156 269.024 307.925 268.761 307.759 268.424C307.594 268.087 307.511 267.693 307.511 267.242C307.511 266.788 307.594 266.391 307.759 266.052C307.925 265.713 308.156 265.45 308.452 265.262C308.749 265.075 309.095 264.981 309.489 264.981C309.883 264.981 310.227 265.075 310.523 265.262C310.82 265.45 311.051 265.713 311.216 266.052C311.383 266.391 311.466 266.788 311.466 267.242C311.466 267.693 311.383 268.087 311.216 268.424C311.051 268.761 310.82 269.024 310.523 269.211C310.227 269.399 309.883 269.492 309.489 269.492ZM309.489 268.89C309.788 268.89 310.034 268.813 310.227 268.66C310.42 268.506 310.563 268.305 310.656 268.055C310.749 267.805 310.795 267.534 310.795 267.242C310.795 266.951 310.749 266.679 310.656 266.427C310.563 266.175 310.42 265.971 310.227 265.816C310.034 265.661 309.788 265.583 309.489 265.583C309.189 265.583 308.943 265.661 308.75 265.816C308.557 265.971 308.414 266.175 308.321 266.427C308.228 266.679 308.182 266.951 308.182 267.242C308.182 267.534 308.228 267.805 308.321 268.055C308.414 268.305 308.557 268.506 308.75 268.66C308.943 268.813 309.189 268.89 309.489 268.89ZM312.169 269.401V265.038H312.817V265.697H312.863C312.942 265.481 313.086 265.306 313.294 265.171C313.503 265.037 313.738 264.97 313.999 264.97C314.048 264.97 314.11 264.97 314.184 264.972C314.257 264.974 314.313 264.977 314.351 264.981V265.663C314.328 265.657 314.276 265.649 314.195 265.637C314.115 265.624 314.031 265.617 313.942 265.617C313.73 265.617 313.541 265.662 313.374 265.751C313.209 265.838 313.078 265.959 312.982 266.114C312.887 266.268 312.84 266.443 312.84 266.64V269.401H312.169ZM314.826 269.401V265.038H315.474V265.697H315.519C315.599 265.481 315.743 265.306 315.951 265.171C316.159 265.037 316.394 264.97 316.655 264.97C316.705 264.97 316.766 264.97 316.84 264.972C316.914 264.974 316.97 264.977 317.008 264.981V265.663C316.985 265.657 316.933 265.649 316.851 265.637C316.772 265.624 316.688 265.617 316.599 265.617C316.387 265.617 316.197 265.662 316.03 265.751C315.866 265.838 315.735 265.959 315.638 266.114C315.544 266.268 315.496 266.443 315.496 266.64V269.401H314.826ZM319.179 269.492C318.759 269.492 318.396 269.399 318.091 269.214C317.788 269.026 317.554 268.765 317.389 268.43C317.227 268.093 317.145 267.701 317.145 267.254C317.145 266.807 317.227 266.413 317.389 266.072C317.554 265.729 317.783 265.462 318.077 265.271C318.372 265.078 318.717 264.981 319.111 264.981C319.338 264.981 319.563 265.019 319.784 265.095C320.006 265.17 320.208 265.293 320.389 265.464C320.571 265.632 320.716 265.856 320.824 266.134C320.932 266.413 320.986 266.756 320.986 267.163V267.447H317.622V266.867H320.304C320.304 266.621 320.255 266.401 320.156 266.208C320.06 266.015 319.922 265.863 319.742 265.751C319.564 265.639 319.353 265.583 319.111 265.583C318.844 265.583 318.613 265.649 318.418 265.782C318.225 265.913 318.076 266.083 317.972 266.293C317.868 266.504 317.816 266.729 317.816 266.97V267.356C317.816 267.685 317.872 267.965 317.986 268.194C318.102 268.421 318.262 268.595 318.466 268.714C318.671 268.831 318.908 268.89 319.179 268.89C319.355 268.89 319.514 268.865 319.656 268.816C319.8 268.765 319.924 268.689 320.029 268.589C320.133 268.487 320.213 268.36 320.27 268.208L320.918 268.39C320.85 268.61 320.735 268.803 320.574 268.97C320.413 269.134 320.214 269.263 319.978 269.356C319.741 269.447 319.475 269.492 319.179 269.492ZM323.459 269.492C323.05 269.492 322.697 269.396 322.402 269.203C322.106 269.009 321.879 268.743 321.72 268.404C321.561 268.065 321.481 267.678 321.481 267.242C321.481 266.799 321.563 266.408 321.726 266.069C321.89 265.728 322.12 265.462 322.413 265.271C322.709 265.078 323.053 264.981 323.447 264.981C323.754 264.981 324.031 265.038 324.277 265.151C324.523 265.265 324.725 265.424 324.882 265.629C325.039 265.833 325.137 266.072 325.175 266.345H324.504C324.453 266.146 324.339 265.97 324.163 265.816C323.989 265.661 323.754 265.583 323.459 265.583C323.197 265.583 322.968 265.651 322.771 265.788C322.576 265.922 322.424 266.113 322.314 266.359C322.206 266.603 322.152 266.89 322.152 267.22C322.152 267.557 322.205 267.85 322.311 268.1C322.419 268.35 322.57 268.544 322.765 268.683C322.962 268.821 323.193 268.89 323.459 268.89C323.633 268.89 323.791 268.86 323.933 268.799C324.075 268.738 324.195 268.651 324.294 268.538C324.392 268.424 324.462 268.288 324.504 268.129H325.175C325.137 268.386 325.043 268.618 324.893 268.825C324.746 269.029 324.55 269.192 324.305 269.313C324.063 269.433 323.781 269.492 323.459 269.492ZM327.732 265.038V265.606H325.471V265.038H327.732ZM326.13 263.992H326.801V268.151C326.801 268.341 326.828 268.483 326.883 268.578C326.94 268.67 327.012 268.733 327.099 268.765C327.188 268.795 327.282 268.81 327.38 268.81C327.454 268.81 327.515 268.807 327.562 268.799C327.609 268.79 327.647 268.782 327.676 268.776L327.812 269.379C327.766 269.396 327.703 269.413 327.622 269.43C327.54 269.449 327.437 269.458 327.312 269.458C327.123 269.458 326.937 269.417 326.755 269.336C326.575 269.255 326.426 269.131 326.306 268.964C326.189 268.797 326.13 268.587 326.13 268.333V263.992Z" fill="#323150"/>
<g clip-path="url(#clip2_483_850)">
<path d="M52.0041 263.192L62.5722 263.17C62.9951 263.098 63.2563 262.818 63.3158 262.395C63.407 261.763 63.3807 260.287 63.331 259.622C63.3006 259.213 63.1817 258.869 62.7726 258.712C59.2328 258.539 55.6586 258.684 52.1064 258.637C51.642 258.681 51.3476 258.861 51.1665 259.294V262.533C51.3365 262.937 51.5549 263.145 52.0027 263.191L52.0041 263.192Z" fill="#C1C0D8"/>
<path d="M62.5723 271.01L52.1037 270.985C51.6089 271.024 51.3711 271.197 51.168 271.645V274.884C51.2868 275.144 51.4458 275.363 51.7264 275.466C55.2468 275.644 58.8086 275.49 62.3442 275.544C63.0063 275.492 63.2827 275.221 63.3324 274.557C63.3822 273.893 63.4085 272.417 63.3172 271.785C63.2564 271.362 62.9966 271.082 62.5736 271.01H62.5723Z" fill="#C1C0D8"/>
<path d="M69.287 277.161L58.8088 277.176C58.4218 277.226 58.1025 277.56 58.061 277.948C57.9919 278.591 57.9864 280.295 58.0666 280.929C58.1412 281.513 58.6084 281.713 59.1474 281.721C62.4135 281.532 65.9505 281.964 69.1847 281.721C69.7818 281.676 70.1688 281.48 70.2227 280.835C70.2794 280.168 70.3029 278.54 70.2172 277.903C70.1578 277.468 69.721 277.139 69.287 277.163V277.161Z" fill="#C1C0D8"/>
<path d="M65.9379 263.194H76.2281C76.7382 263.168 77.0699 262.873 77.1155 262.359C77.1749 261.692 77.1957 260.015 77.1086 259.376C77.0353 258.837 76.553 258.667 76.0761 258.634C72.7686 258.406 69.1874 258.797 65.8522 258.652C65.3104 258.68 65.0049 258.986 64.951 259.523C64.8861 260.168 64.8791 261.719 64.9565 262.352C65.0229 262.9 65.3961 263.186 65.9365 263.196L65.9379 263.194Z" fill="#C1C0D8"/>
<path d="M70.2238 268.484C70.2819 267.807 70.2998 266.258 70.2169 265.603C70.1478 265.054 69.7055 264.816 69.1858 264.81L58.9108 264.827C58.4339 264.871 58.1105 265.168 58.0607 265.648C57.993 266.318 57.9875 267.917 58.0663 268.578C58.1284 269.102 58.5431 269.357 59.0462 269.37H69.2867C69.8479 269.322 70.1754 269.054 70.2238 268.484Z" fill="#C1C0D8"/>
<path d="M76.1271 270.985L65.7497 271.001C65.2605 271.074 65.0006 271.39 64.9522 271.873C64.8873 272.517 64.8804 274.068 64.9578 274.702C65.0338 275.322 65.4166 275.506 65.9889 275.546C69.2743 275.772 72.8154 275.37 76.1285 275.546C76.662 275.504 77.0656 275.283 77.1167 274.71C77.1761 274.042 77.1969 272.367 77.1098 271.727C77.0462 271.256 76.5846 270.965 76.1285 270.985H76.1271Z" fill="#C1C0D8"/>
<path d="M52.1549 269.369C52.998 269.441 54.7161 269.45 55.5509 269.366C55.9849 269.322 56.3457 269.094 56.3899 268.636C56.4576 267.937 56.4714 266.177 56.3885 265.493C56.3332 265.035 55.913 264.85 55.4998 264.813C54.694 264.737 52.8584 264.727 52.0692 264.827C51.6145 264.883 51.2842 265.129 51.2247 265.602C51.1432 266.242 51.1542 267.878 51.2192 268.532C51.2731 269.072 51.6311 269.325 52.1549 269.37V269.369Z" fill="#C1C0D8"/>
<path d="M71.8921 268.685C71.9474 269.14 72.3745 269.334 72.7781 269.369C73.6212 269.441 75.3406 269.45 76.1741 269.366C76.7117 269.312 77.0172 269.02 77.0628 268.482C77.1236 267.777 77.1305 266.345 77.06 265.647C77.0048 265.103 76.6399 264.86 76.1229 264.811C75.3171 264.735 73.4816 264.726 72.6924 264.825C72.3012 264.873 71.9999 265.046 71.8963 265.446C71.9806 266.464 71.7719 267.693 71.8921 268.684V268.685Z" fill="#C1C0D8"/>
<path d="M55.5508 277.164C54.4271 277.051 53.1113 277.236 51.9668 277.176C51.5356 277.24 51.2619 277.57 51.2191 277.999C51.15 278.687 51.15 280.197 51.2191 280.883C51.2785 281.466 51.6683 281.673 52.2073 281.719C52.8003 281.768 55.4347 281.799 55.8825 281.646C56.1672 281.547 56.3566 281.278 56.3884 280.986C56.4644 280.272 56.4603 278.615 56.3911 277.896C56.3469 277.436 55.9862 277.208 55.5522 277.165L55.5508 277.164Z" fill="#C1C0D8"/>
<path d="M76.2254 277.164C75.4597 277.086 73.3795 277.07 72.6415 277.176C72.2835 277.227 71.9822 277.44 71.8965 277.799C71.9697 278.814 71.7859 279.991 71.8937 280.985C71.9255 281.278 72.1148 281.547 72.3996 281.645C72.8474 281.799 75.4818 281.77 76.0748 281.718C76.6539 281.669 77.0133 281.449 77.0658 280.835C77.1266 280.125 77.1335 278.7 77.063 277.999C77.0146 277.521 76.7064 277.212 76.2268 277.164H76.2254Z" fill="#C1C0D8"/>
<path d="M67.7629 269.041C68.2887 269.051 68.6873 269.44 68.7409 269.959V275.266C68.6873 275.727 68.3457 276.095 67.8734 276.135H60.4598C59.9808 276.093 59.6325 275.713 59.5923 275.243L59.599 269.867C59.6827 269.366 60.1114 269.02 60.6205 269.041C60.6205 268.119 60.5401 267.275 60.9102 266.407C61.9519 263.966 65.1689 263.497 66.9055 265.508C67.7947 266.536 67.8031 267.742 67.7629 269.041ZM66.1971 269.041V267.561C66.1971 267.365 66.0179 266.943 65.9141 266.767C65.1655 265.516 63.3301 265.458 62.5179 266.67C62.0306 267.397 62.183 268.211 62.1612 269.04H66.1971V269.041ZM63.6952 272.595C63.8107 272.737 63.727 273.692 63.7504 273.946C63.799 274.466 64.5375 274.466 64.6045 273.968C64.6414 273.697 64.5409 272.756 64.6548 272.6C64.6916 272.55 64.7854 272.503 64.839 272.443C65.2124 272.027 65.1253 271.378 64.6313 271.108C63.7705 270.639 62.8612 271.671 63.5043 272.431C63.5545 272.49 63.6617 272.557 63.6935 272.597L63.6952 272.595Z" fill="url(#paint4_linear_483_850)"/>
</g>
<defs>
<filter id="filter0_dddd_483_850" x="160.252" y="219.039" width="36.3133" height="73.2815" filterUnits="userSpaceOnUse" color-interpolation-filters="sRGB">
<feFlood flood-opacity="0" result="BackgroundImageFix"/>
<feColorMatrix in="SourceAlpha" type="matrix" values="0 0 0 0 0 0 0 0 0 0 0 0 0 0 0 0 0 0 127 0" result="hardAlpha"/>
<feOffset dy="2.69524"/>
<feGaussianBlur stdDeviation="2.69524"/>
<feColorMatrix type="matrix" values="0 0 0 0 0.639216 0 0 0 0 0.639216 0 0 0 0 0.639216 0 0 0 0.1 0"/>
<feBlend mode="normal" in2="BackgroundImageFix" result="effect1_dropShadow_483_850"/>
<feColorMatrix in="SourceAlpha" type="matrix" values="0 0 0 0 0 0 0 0 0 0 0 0 0 0 0 0 0 0 127 0" result="hardAlpha"/>
<feOffset dx="0.898413" dy="9.88254"/>
<feGaussianBlur stdDeviation="4.94127"/>
<feColorMatrix type="matrix" values="0 0 0 0 0.639216 0 0 0 0 0.639216 0 0 0 0 0.639216 0 0 0 0.09 0"/>
<feBlend mode="normal" in2="effect1_dropShadow_483_850" result="effect2_dropShadow_483_850"/>
<feColorMatrix in="SourceAlpha" type="matrix" values="0 0 0 0 0 0 0 0 0 0 0 0 0 0 0 0 0 0 127 0" result="hardAlpha"/>
<feOffset dx="1.79683" dy="23.3587"/>
<feGaussianBlur stdDeviation="6.7381"/>
<feColorMatrix type="matrix" values="0 0 0 0 0.639216 0 0 0 0 0.639216 0 0 0 0 0.639216 0 0 0 0.05 0"/>
<feBlend mode="normal" in2="effect2_dropShadow_483_850" result="effect3_dropShadow_483_850"/>
<feColorMatrix in="SourceAlpha" type="matrix" values="0 0 0 0 0 0 0 0 0 0 0 0 0 0 0 0 0 0 127 0" result="hardAlpha"/>
<feOffset dx="2.69524" dy="41.327"/>
<feGaussianBlur stdDeviation="8.08571"/>
<feColorMatrix type="matrix" values="0 0 0 0 0.639216 0 0 0 0 0.639216 0 0 0 0 0.639216 0 0 0 0.01 0"/>
<feBlend mode="normal" in2="effect3_dropShadow_483_850" result="effect4_dropShadow_483_850"/>
<feBlend mode="normal" in="SourceGraphic" in2="effect4_dropShadow_483_850" result="shape"/>
</filter>
<filter id="filter1_dddd_483_850" x="208.825" y="219.039" width="36.3133" height="73.2815" filterUnits="userSpaceOnUse" color-interpolation-filters="sRGB">
<feFlood flood-opacity="0" result="BackgroundImageFix"/>
<feColorMatrix in="SourceAlpha" type="matrix" values="0 0 0 0 0 0 0 0 0 0 0 0 0 0 0 0 0 0 127 0" result="hardAlpha"/>
<feOffset dy="2.69524"/>
<feGaussianBlur stdDeviation="2.69524"/>
<feColorMatrix type="matrix" values="0 0 0 0 0.639216 0 0 0 0 0.639216 0 0 0 0 0.639216 0 0 0 0.1 0"/>
<feBlend mode="normal" in2="BackgroundImageFix" result="effect1_dropShadow_483_850"/>
<feColorMatrix in="SourceAlpha" type="matrix" values="0 0 0 0 0 0 0 0 0 0 0 0 0 0 0 0 0 0 127 0" result="hardAlpha"/>
<feOffset dx="0.898413" dy="9.88254"/>
<feGaussianBlur stdDeviation="4.94127"/>
<feColorMatrix type="matrix" values="0 0 0 0 0.639216 0 0 0 0 0.639216 0 0 0 0 0.639216 0 0 0 0.09 0"/>
<feBlend mode="normal" in2="effect1_dropShadow_483_850" result="effect2_dropShadow_483_850"/>
<feColorMatrix in="SourceAlpha" type="matrix" values="0 0 0 0 0 0 0 0 0 0 0 0 0 0 0 0 0 0 127 0" result="hardAlpha"/>
<feOffset dx="1.79683" dy="23.3587"/>
<feGaussianBlur stdDeviation="6.7381"/>
<feColorMatrix type="matrix" values="0 0 0 0 0.639216 0 0 0 0 0.639216 0 0 0 0 0.639216 0 0 0 0.05 0"/>
<feBlend mode="normal" in2="effect2_dropShadow_483_850" result="effect3_dropShadow_483_850"/>
<feColorMatrix in="SourceAlpha" type="matrix" values="0 0 0 0 0 0 0 0 0 0 0 0 0 0 0 0 0 0 127 0" result="hardAlpha"/>
<feOffset dx="2.69524" dy="41.327"/>
<feGaussianBlur stdDeviation="8.08571"/>
<feColorMatrix type="matrix" values="0 0 0 0 0.639216 0 0 0 0 0.639216 0 0 0 0 0.639216 0 0 0 0.01 0"/>
<feBlend mode="normal" in2="effect3_dropShadow_483_850" result="effect4_dropShadow_483_850"/>
<feBlend mode="normal" in="SourceGraphic" in2="effect4_dropShadow_483_850" result="shape"/>
</filter>
<linearGradient id="paint0_linear_483_850" x1="2069.2" y1="1061.21" x2="-255.716" y2="-238.179" gradientUnits="userSpaceOnUse">
<stop stop-color="#473EF4"/>
<stop offset="1" stop-color="#EFEFF5"/>
</linearGradient>
<radialGradient id="paint1_radial_483_850" cx="0" cy="0" r="1" gradientUnits="userSpaceOnUse" gradientTransform="translate(200 225) rotate(-135) scale(72.4015)">
<stop stop-color="#473EF4"/>
<stop offset="0.678177" stop-color="#C0BEEE"/>
<stop offset="1" stop-color="#E0DFEC" stop-opacity="0"/>
</radialGradient>
<linearGradient id="paint2_linear_483_850" x1="190.29" y1="-24.5454" x2="211.041" y2="-23.6291" gradientUnits="userSpaceOnUse">
<stop stop-color="#F93C52"/>
<stop offset="1" stop-color="#2B21F3"/>
</linearGradient>
<linearGradient id="paint3_linear_483_850" x1="291.471" y1="178.951" x2="314.731" y2="180.098" gradientUnits="userSpaceOnUse">
<stop stop-color="#F93C52"/>
<stop offset="1" stop-color="#2B21F3"/>
</linearGradient>
<linearGradient id="paint4_linear_483_850" x1="55.8312" y1="220.851" x2="73.751" y2="221.531" gradientUnits="userSpaceOnUse">
<stop stop-color="#F93C52"/>
<stop offset="1" stop-color="#2B21F3"/>
</linearGradient>
<clipPath id="clip0_483_850">
<rect width="26" height="22.6521" fill="white" transform="translate(187 13.6738)"/>
</clipPath>
<clipPath id="clip1_483_850">
<rect width="26" height="23.2362" fill="white" transform="translate(289.301 216.661)"/>
</clipPath>
<clipPath id="clip2_483_850">
<rect width="26" height="23.2362" fill="white" transform="translate(51.1665 258.561)"/>
</clipPath>
</defs>
</svg>
