<svg width="400" height="425" viewBox="0 0 400 425" fill="none" xmlns="http://www.w3.org/2000/svg">
<circle cx="200" cy="225" r="199.5" fill="#EFEFF5" stroke="url(#paint0_linear_483_699)"/>
<circle cx="200" cy="225" r="133" fill="#EFEFF5" stroke="#C1C0D8"/>
<circle cx="200" cy="225" r="102.234" fill="url(#paint1_radial_483_699)"/>
<circle cx="200" cy="225" r="49.5" fill="#EFEFF5" stroke="#473EF4"/>
<circle cx="200" cy="25" r="24.5" fill="#EFEFF5" stroke="#C1C0D8"/>
<circle cx="66.5" cy="228.279" r="24.5" fill="#EFEFF5" stroke="#C1C0D8"/>
<path d="M200 200.719L200 245.179" stroke="#473EF4" stroke-width="0.898413" stroke-linecap="round"/>
<path d="M193.965 175.29V197.371L186.074 204.558V215.763" stroke="#473EF4" stroke-width="0.898413" stroke-linecap="round"/>
<path d="M206.033 175.316V197.294L213.925 204.482V215.687" stroke="#473EF4" stroke-width="0.898413" stroke-linecap="round"/>
<rect x="181.712" y="210.055" width="36.5742" height="36.4492" rx="8.98413" fill="#473EF4"/>
<rect x="183.041" y="211.378" width="33.9169" height="33.801" rx="8.08571" fill="#E0DFEC"/>
<g filter="url(#filter0_dddd_483_699)">
<rect x="173.729" y="221.734" width="3.97048" height="13.0881" rx="1.98524" fill="#473EF4"/>
</g>
<g filter="url(#filter1_dddd_483_699)">
<rect x="222.301" y="221.734" width="3.97048" height="13.0881" rx="1.98524" fill="#473EF4"/>
</g>
<path d="M193.722 236.163H191.642L196.594 220.396H199.837L204.801 236.163H202.722L198.377 221.777H198.067L193.722 236.163ZM201.818 231.512H194.613V229.809H201.818V231.512Z" fill="#323150"/>
<path d="M208.356 220.396V236.163H206.301V220.396H208.356Z" fill="#323150"/>
<path d="M186.507 261.134H185.512L188.391 253.293H189.371L192.25 261.134H191.254L188.911 254.534H188.85L186.507 261.134ZM186.874 258.071H190.887V258.913H186.874V258.071ZM195.291 263.461C194.854 263.461 194.479 263.405 194.165 263.293C193.851 263.183 193.59 263.038 193.38 262.857C193.174 262.678 193.009 262.487 192.887 262.282L193.606 261.777C193.688 261.884 193.791 262.007 193.916 262.145C194.041 262.285 194.212 262.406 194.429 262.508C194.649 262.613 194.936 262.665 195.291 262.665C195.766 262.665 196.157 262.55 196.466 262.321C196.775 262.091 196.929 261.731 196.929 261.241V260.047H196.853C196.786 260.154 196.692 260.286 196.569 260.445C196.45 260.6 196.276 260.739 196.049 260.862C195.824 260.982 195.52 261.042 195.138 261.042C194.663 261.042 194.237 260.93 193.859 260.705C193.484 260.48 193.186 260.154 192.967 259.725C192.75 259.296 192.641 258.775 192.641 258.163C192.641 257.561 192.747 257.036 192.959 256.589C193.171 256.14 193.466 255.793 193.844 255.548C194.221 255.3 194.658 255.177 195.153 255.177C195.536 255.177 195.84 255.241 196.064 255.368C196.291 255.493 196.465 255.636 196.585 255.797C196.707 255.955 196.802 256.085 196.868 256.187H196.96V255.253H197.833V261.302C197.833 261.808 197.718 262.219 197.488 262.535C197.261 262.854 196.955 263.088 196.569 263.236C196.187 263.386 195.76 263.461 195.291 263.461ZM195.26 260.23C195.623 260.23 195.929 260.147 196.179 259.981C196.429 259.816 196.619 259.577 196.749 259.265C196.88 258.954 196.945 258.581 196.945 258.148C196.945 257.724 196.881 257.35 196.753 257.026C196.626 256.702 196.437 256.448 196.187 256.264C195.937 256.08 195.628 255.988 195.26 255.988C194.877 255.988 194.558 256.085 194.303 256.279C194.05 256.473 193.86 256.734 193.733 257.06C193.608 257.387 193.545 257.749 193.545 258.148C193.545 258.556 193.609 258.917 193.736 259.231C193.867 259.542 194.058 259.787 194.311 259.966C194.566 260.142 194.882 260.23 195.26 260.23ZM201.521 261.256C200.954 261.256 200.466 261.131 200.055 260.881C199.646 260.628 199.331 260.276 199.109 259.824C198.89 259.37 198.78 258.842 198.78 258.239C198.78 257.637 198.89 257.106 199.109 256.647C199.331 256.185 199.64 255.825 200.036 255.567C200.434 255.307 200.898 255.177 201.429 255.177C201.735 255.177 202.038 255.228 202.337 255.33C202.635 255.432 202.907 255.598 203.152 255.828C203.397 256.055 203.592 256.356 203.738 256.731C203.883 257.106 203.956 257.568 203.956 258.117V258.5H199.423V257.719H203.037C203.037 257.387 202.971 257.091 202.838 256.831C202.708 256.57 202.522 256.365 202.279 256.214C202.039 256.064 201.756 255.988 201.429 255.988C201.069 255.988 200.758 256.078 200.495 256.256C200.235 256.432 200.034 256.662 199.894 256.945C199.754 257.229 199.683 257.532 199.683 257.857V258.377C199.683 258.821 199.76 259.198 199.913 259.507C200.069 259.813 200.284 260.047 200.56 260.207C200.836 260.366 201.156 260.445 201.521 260.445C201.758 260.445 201.973 260.411 202.164 260.345C202.358 260.276 202.525 260.174 202.666 260.039C202.806 259.901 202.915 259.73 202.991 259.526L203.864 259.771C203.772 260.067 203.618 260.327 203.401 260.552C203.184 260.774 202.916 260.947 202.597 261.073C202.278 261.195 201.919 261.256 201.521 261.256ZM205.803 257.596V261.134H204.899V255.253H205.772V256.172H205.849C205.986 255.873 206.196 255.634 206.476 255.452C206.757 255.269 207.12 255.177 207.564 255.177C207.962 255.177 208.31 255.258 208.609 255.422C208.908 255.583 209.14 255.828 209.306 256.157C209.472 256.483 209.555 256.897 209.555 257.397V261.134H208.651V257.458C208.651 256.996 208.531 256.637 208.291 256.379C208.051 256.119 207.722 255.988 207.303 255.988C207.015 255.988 206.757 256.051 206.53 256.176C206.305 256.301 206.128 256.483 205.998 256.723C205.868 256.963 205.803 257.254 205.803 257.596ZM213.332 255.253V256.019H210.284V255.253H213.332ZM211.173 253.844H212.076V259.449C212.076 259.704 212.113 259.896 212.187 260.024C212.264 260.149 212.361 260.233 212.478 260.276C212.598 260.317 212.724 260.337 212.857 260.337C212.957 260.337 213.038 260.332 213.102 260.322C213.166 260.309 213.217 260.299 213.255 260.292L213.439 261.103C213.378 261.126 213.292 261.149 213.182 261.172C213.073 261.198 212.934 261.21 212.765 261.21C212.51 261.21 212.26 261.155 212.015 261.046C211.772 260.936 211.571 260.769 211.41 260.544C211.252 260.32 211.173 260.036 211.173 259.694V253.844Z" fill="#323150"/>
<g clip-path="url(#clip0_483_699)">
<path d="M187.838 18.1881L198.406 18.1666C198.829 18.0966 199.09 17.8234 199.149 17.4115C199.24 16.795 199.214 15.3562 199.164 14.7074C199.134 14.309 199.015 13.9739 198.606 13.8204C195.066 13.6522 191.492 13.7935 187.94 13.7478C187.475 13.7908 187.181 13.9658 187 14.3884V17.5461C187.17 17.9391 187.388 18.1424 187.836 18.1868L187.838 18.1881Z" fill="#C1C0D8"/>
<path d="M198.406 25.8099L187.937 25.7856C187.442 25.8233 187.205 25.9916 187.001 26.429V29.5867C187.12 29.8397 187.279 30.0537 187.56 30.1533C191.08 30.327 194.642 30.1776 198.178 30.2301C198.84 30.1789 199.116 29.9151 199.166 29.2677C199.216 28.6203 199.242 27.1814 199.151 26.565C199.09 26.1531 198.83 25.8799 198.407 25.8099H198.406Z" fill="#C1C0D8"/>
<path d="M205.12 31.8057L194.642 31.8205C194.255 31.8689 193.936 32.1947 193.894 32.5729C193.825 33.2001 193.82 34.861 193.9 35.4788C193.974 36.0482 194.442 36.2434 194.981 36.2514C198.247 36.067 201.784 36.4883 205.018 36.2514C205.615 36.207 206.002 36.0159 206.056 35.3873C206.113 34.7372 206.136 33.1503 206.05 32.5285C205.991 32.1045 205.554 31.7841 205.12 31.807V31.8057Z" fill="#C1C0D8"/>
<path d="M201.771 18.1909H212.062C212.572 18.1653 212.903 17.8773 212.949 17.3765C213.008 16.7264 213.029 15.0911 212.942 14.4679C212.869 13.943 212.386 13.7774 211.91 13.7451C208.602 13.523 205.021 13.9039 201.686 13.7626C201.144 13.7895 200.838 14.0883 200.785 14.6119C200.72 15.2405 200.713 16.752 200.79 17.3698C200.856 17.9042 201.23 18.1828 201.77 18.1922L201.771 18.1909Z" fill="#C1C0D8"/>
<path d="M206.058 23.3468C206.116 22.6873 206.134 21.1771 206.051 20.5377C205.982 20.0034 205.539 19.7705 205.02 19.7651L194.744 19.7813C194.268 19.8244 193.944 20.1137 193.894 20.5821C193.827 21.2349 193.821 22.7936 193.9 23.4383C193.962 23.9498 194.377 24.1974 194.88 24.2109H205.12C205.682 24.1638 206.009 23.9027 206.058 23.3468Z" fill="#C1C0D8"/>
<path d="M211.961 25.7857L201.583 25.8005C201.094 25.8718 200.834 26.18 200.786 26.6511C200.721 27.2784 200.714 28.7912 200.791 29.409C200.867 30.0134 201.25 30.1924 201.822 30.2314C205.108 30.4522 208.649 30.0605 211.962 30.2314C212.495 30.1911 212.899 29.9757 212.95 29.4171C213.01 28.7657 213.03 27.133 212.943 26.5085C212.88 26.0495 212.418 25.7655 211.962 25.7857H211.961Z" fill="#C1C0D8"/>
<path d="M187.988 24.2096C188.832 24.2795 190.55 24.289 191.384 24.2069C191.818 24.1638 192.179 23.9417 192.223 23.4948C192.291 22.8138 192.305 21.0977 192.222 20.4314C192.167 19.9845 191.747 19.8042 191.333 19.7678C190.527 19.6938 188.692 19.6844 187.903 19.7813C187.448 19.8365 187.118 20.0761 187.058 20.5377C186.977 21.1609 186.988 22.7559 187.053 23.3939C187.107 23.9202 187.465 24.1665 187.988 24.2109V24.2096Z" fill="#C1C0D8"/>
<path d="M207.726 23.5427C207.781 23.9855 208.208 24.1753 208.612 24.2089C209.455 24.2789 211.174 24.2884 212.008 24.2063C212.545 24.1538 212.851 23.8684 212.896 23.3448C212.957 22.657 212.964 21.2613 212.894 20.5802C212.838 20.0499 212.473 19.813 211.956 19.7659C211.151 19.6918 209.315 19.6824 208.526 19.7793C208.135 19.8264 207.833 19.9947 207.73 20.385C207.814 21.377 207.605 22.5749 207.726 23.5413V23.5427Z" fill="#C1C0D8"/>
<path d="M191.384 31.8085C190.261 31.6982 188.945 31.8785 187.8 31.8206C187.369 31.8825 187.095 32.2042 187.053 32.6228C186.983 33.2931 186.983 34.7656 187.053 35.4346C187.112 36.0026 187.502 36.2045 188.041 36.2489C188.634 36.2974 191.268 36.327 191.716 36.1776C192.001 36.082 192.19 35.8195 192.222 35.5342C192.298 34.8383 192.294 33.2231 192.225 32.5219C192.18 32.0737 191.82 31.8516 191.386 31.8099L191.384 31.8085Z" fill="#C1C0D8"/>
<path d="M212.059 31.8086C211.293 31.7333 209.213 31.7171 208.475 31.8208C208.117 31.8706 207.816 32.0778 207.73 32.4278C207.803 33.4171 207.619 34.5652 207.727 35.5343C207.759 35.8197 207.948 36.0821 208.233 36.1777C208.681 36.3271 211.315 36.2988 211.908 36.249C212.487 36.2006 212.847 35.9866 212.899 35.3876C212.96 34.6958 212.967 33.3067 212.897 32.623C212.848 32.1572 212.54 31.8558 212.06 31.8086H212.059Z" fill="#C1C0D8"/>
<path d="M205.111 19.7797C205.091 19.6536 204.988 19.5534 204.856 19.5304L200.005 18.6846C199.967 18.6781 199.928 18.6781 199.89 18.6846L195.039 19.5304C194.907 19.5534 194.804 19.6536 194.784 19.7797C194.764 19.9094 194.289 22.9862 195.243 25.6479C196.208 28.3415 199.635 30.388 199.78 30.4738C199.831 30.504 199.889 30.5191 199.947 30.5191C200.005 30.5191 200.064 30.504 200.115 30.4738C200.26 30.388 203.687 28.3415 204.652 25.6479C205.606 22.9862 205.132 19.9094 205.111 19.7797Z" fill="url(#paint2_linear_483_699)"/>
</g>
<g clip-path="url(#clip1_483_699)">
<path d="M54.3374 221.292L64.9054 221.27C65.3284 221.198 65.5896 220.918 65.649 220.495C65.7403 219.863 65.714 218.387 65.6642 217.722C65.6338 217.313 65.515 216.969 65.1058 216.812C61.5661 216.639 57.9918 216.784 54.4396 216.737C53.9752 216.782 53.6808 216.961 53.4998 217.395V220.634C53.6698 221.037 53.8881 221.245 54.336 221.291L54.3374 221.292Z" fill="#C1C0D8"/>
<path d="M64.9055 229.11L54.4369 229.085C53.9421 229.124 53.7044 229.297 53.5012 229.745V232.984C53.6201 233.244 53.779 233.463 54.0596 233.566C57.58 233.744 61.1419 233.59 64.6774 233.644C65.3395 233.592 65.6159 233.321 65.6657 232.657C65.7155 231.993 65.7417 230.517 65.6505 229.885C65.5897 229.462 65.3298 229.182 64.9069 229.11H64.9055Z" fill="#C1C0D8"/>
<path d="M71.6203 235.261L61.142 235.276C60.755 235.326 60.4357 235.66 60.3943 236.048C60.3252 236.692 60.3196 238.395 60.3998 239.029C60.4744 239.613 60.9416 239.813 61.4807 239.821C64.7467 239.632 68.2837 240.064 71.518 239.821C72.1151 239.776 72.5021 239.58 72.556 238.935C72.6127 238.268 72.6362 236.64 72.5505 236.003C72.491 235.568 72.0543 235.239 71.6203 235.263V235.261Z" fill="#C1C0D8"/>
<path d="M68.2711 221.295H78.5614C79.0714 221.268 79.4031 220.973 79.4487 220.459C79.5082 219.792 79.5289 218.115 79.4418 217.476C79.3686 216.937 78.8862 216.767 78.4094 216.734C75.1018 216.506 71.5206 216.897 68.1854 216.752C67.6436 216.78 67.3382 217.086 67.2843 217.623C67.2193 218.268 67.2124 219.819 67.2898 220.452C67.3561 221 67.7293 221.286 68.2698 221.296L68.2711 221.295Z" fill="#C1C0D8"/>
<path d="M72.5571 226.584C72.6151 225.908 72.6331 224.358 72.5502 223.703C72.4811 223.155 72.0388 222.916 71.5191 222.91L61.244 222.927C60.7672 222.971 60.4437 223.268 60.394 223.748C60.3262 224.418 60.3207 226.017 60.3995 226.678C60.4617 227.203 60.8764 227.457 61.3795 227.47H71.62C72.1811 227.422 72.5087 227.154 72.5571 226.584Z" fill="#C1C0D8"/>
<path d="M78.4603 229.086L68.083 229.101C67.5937 229.174 67.3339 229.49 67.2855 229.973C67.2205 230.617 67.2136 232.168 67.291 232.802C67.367 233.422 67.7499 233.606 68.3221 233.646C71.6075 233.872 75.1487 233.47 78.4617 233.646C78.9952 233.604 79.3988 233.383 79.45 232.81C79.5094 232.142 79.5301 230.468 79.4431 229.827C79.3795 229.356 78.9178 229.065 78.4617 229.086H78.4603Z" fill="#C1C0D8"/>
<path d="M54.4882 227.469C55.3313 227.541 57.0493 227.55 57.8842 227.466C58.3182 227.422 58.6789 227.194 58.7231 226.736C58.7909 226.037 58.8047 224.277 58.7218 223.594C58.6665 223.135 58.2463 222.95 57.833 222.913C57.0272 222.837 55.1917 222.827 54.4025 222.927C53.9477 222.983 53.6174 223.229 53.558 223.703C53.4764 224.342 53.4875 225.978 53.5524 226.632C53.6063 227.172 53.9643 227.425 54.4882 227.47V227.469Z" fill="#C1C0D8"/>
<path d="M74.2256 226.785C74.2809 227.24 74.708 227.434 75.1116 227.469C75.9547 227.541 77.6741 227.55 78.5076 227.466C79.0452 227.412 79.3507 227.12 79.3963 226.583C79.4571 225.877 79.464 224.445 79.3935 223.747C79.3383 223.203 78.9734 222.96 78.4564 222.911C77.6506 222.835 75.8151 222.826 75.0259 222.925C74.6347 222.974 74.3334 223.146 74.2297 223.546C74.3141 224.564 74.1054 225.793 74.2256 226.784V226.785Z" fill="#C1C0D8"/>
<path d="M57.884 235.264C56.7603 235.151 55.4445 235.336 54.3001 235.276C53.8688 235.34 53.5952 235.67 53.5523 236.099C53.4832 236.787 53.4832 238.297 53.5523 238.984C53.6118 239.566 54.0015 239.773 54.5406 239.819C55.1335 239.868 57.7679 239.899 58.2158 239.746C58.5005 239.648 58.6898 239.378 58.7216 239.086C58.7977 238.372 58.7935 236.715 58.7244 235.996C58.6802 235.536 58.3194 235.308 57.8854 235.265L57.884 235.264Z" fill="#C1C0D8"/>
<path d="M78.5587 235.264C77.793 235.187 75.7128 235.17 74.9747 235.276C74.6167 235.327 74.3154 235.54 74.2297 235.899C74.303 236.914 74.1191 238.091 74.227 239.085C74.2587 239.378 74.4481 239.647 74.7328 239.745C75.1806 239.899 77.8151 239.87 78.408 239.819C78.9871 239.769 79.3465 239.549 79.399 238.935C79.4598 238.225 79.4668 236.8 79.3963 236.099C79.3479 235.621 79.0397 235.312 78.5601 235.264H78.5587Z" fill="#C1C0D8"/>
<rect x="60.5566" y="222.349" width="11.8867" height="11.8867" rx="2.21147" fill="url(#paint3_linear_483_699)"/>
<path d="M64.6938 228.401L65.8254 229.533L68.3059 227.052" stroke="#E8E7FE" stroke-width="1.24395" stroke-linecap="round"/>
</g>
<rect x="171" y="55.4131" width="58" height="17" rx="3.5" fill="#EFEFF5"/>
<rect x="171" y="55.4131" width="58" height="17" rx="3.5" stroke="#C1C0D8"/>
<path d="M176.365 66.9131L174.774 61.0949H175.49L176.706 65.8335H176.763L178.001 61.0949H178.797L180.035 65.8335H180.092L181.308 61.0949H182.024L180.433 66.9131H179.706L178.422 62.2767H178.376L177.092 66.9131H176.365ZM183.369 67.0154C183.092 67.0154 182.841 66.9633 182.616 66.8591C182.39 66.753 182.211 66.6006 182.079 66.4017C181.946 66.201 181.88 65.9585 181.88 65.6744C181.88 65.4244 181.929 65.2218 182.028 65.0665C182.126 64.9093 182.258 64.7862 182.423 64.6972C182.587 64.6082 182.769 64.5419 182.968 64.4983C183.169 64.4529 183.371 64.4169 183.573 64.3904C183.838 64.3563 184.053 64.3307 184.218 64.3137C184.385 64.2947 184.506 64.2635 184.582 64.2199C184.659 64.1763 184.698 64.1006 184.698 63.9926V63.9699C184.698 63.6896 184.622 63.4718 184.468 63.3165C184.317 63.1612 184.086 63.0835 183.778 63.0835C183.458 63.0835 183.207 63.1536 183.025 63.2938C182.843 63.4339 182.715 63.5835 182.641 63.7426L182.005 63.5154C182.119 63.2502 182.27 63.0438 182.46 62.896C182.651 62.7464 182.859 62.6423 183.085 62.5835C183.312 62.5229 183.535 62.4926 183.755 62.4926C183.895 62.4926 184.056 62.5097 184.238 62.5438C184.422 62.576 184.599 62.6432 184.769 62.7455C184.942 62.8477 185.085 63.0021 185.198 63.2085C185.312 63.415 185.369 63.6915 185.369 64.0381V66.9131H184.698V66.3222H184.664C184.619 66.4169 184.543 66.5182 184.437 66.6262C184.331 66.7341 184.19 66.826 184.014 66.9017C183.837 66.9775 183.622 67.0154 183.369 67.0154ZM183.471 66.4131C183.736 66.4131 183.96 66.361 184.141 66.2568C184.325 66.1527 184.463 66.0182 184.556 65.8534C184.651 65.6887 184.698 65.5154 184.698 65.3335V64.7199C184.67 64.754 184.607 64.7852 184.511 64.8137C184.416 64.8402 184.306 64.8638 184.181 64.8847C184.058 64.9036 183.938 64.9207 183.82 64.9358C183.705 64.9491 183.611 64.9604 183.539 64.9699C183.365 64.9926 183.202 65.0296 183.05 65.0807C182.901 65.1299 182.78 65.2048 182.687 65.3051C182.596 65.4036 182.55 65.5381 182.55 65.7085C182.55 65.9415 182.637 66.1176 182.809 66.2369C182.983 66.3544 183.204 66.4131 183.471 66.4131ZM186.943 61.0949V66.9131H186.272V61.0949H186.943ZM188.521 61.0949V66.9131H187.851V61.0949H188.521ZM191.259 67.004C190.838 67.004 190.476 66.9112 190.171 66.7256C189.868 66.5381 189.634 66.2767 189.469 65.9415C189.306 65.6044 189.225 65.2123 189.225 64.7654C189.225 64.3184 189.306 63.9244 189.469 63.5835C189.634 63.2407 189.863 62.9737 190.157 62.7824C190.452 62.5892 190.797 62.4926 191.191 62.4926C191.418 62.4926 191.642 62.5305 191.864 62.6063C192.086 62.682 192.287 62.8051 192.469 62.9756C192.651 63.1441 192.796 63.3676 192.904 63.646C193.012 63.9244 193.066 64.2673 193.066 64.6744V64.9585H189.702V64.379H192.384C192.384 64.1328 192.335 63.9131 192.236 63.7199C192.139 63.5267 192.001 63.3743 191.821 63.2625C191.643 63.1508 191.433 63.0949 191.191 63.0949C190.924 63.0949 190.693 63.1612 190.497 63.2938C190.304 63.4244 190.156 63.5949 190.051 63.8051C189.947 64.0154 189.895 64.2407 189.895 64.4813V64.8676C189.895 65.1972 189.952 65.4765 190.066 65.7057C190.181 65.933 190.341 66.1063 190.546 66.2256C190.75 66.343 190.988 66.4017 191.259 66.4017C191.435 66.4017 191.594 66.3771 191.736 66.3279C191.88 66.2767 192.004 66.201 192.108 66.1006C192.212 65.9983 192.293 65.8714 192.35 65.7199L192.997 65.9017C192.929 66.1214 192.815 66.3146 192.654 66.4813C192.493 66.646 192.294 66.7748 192.057 66.8676C191.82 66.9585 191.554 67.004 191.259 67.004ZM195.413 67.004C195.05 67.004 194.729 66.9121 194.45 66.7284C194.172 66.5428 193.954 66.2815 193.797 65.9443C193.64 65.6053 193.561 65.2048 193.561 64.7426C193.561 64.2843 193.64 63.8866 193.797 63.5494C193.954 63.2123 194.173 62.9519 194.453 62.7682C194.733 62.5845 195.057 62.4926 195.425 62.4926C195.709 62.4926 195.933 62.54 196.098 62.6347C196.265 62.7275 196.391 62.8335 196.479 62.9529C196.568 63.0703 196.637 63.1669 196.686 63.2426H196.743V61.0949H197.413V66.9131H196.766V66.2426H196.686C196.637 66.3222 196.567 66.4226 196.476 66.5438C196.385 66.6631 196.255 66.7701 196.087 66.8648C195.918 66.9576 195.694 67.004 195.413 67.004ZM195.504 66.4017C195.773 66.4017 196 66.3316 196.186 66.1915C196.372 66.0494 196.513 65.8534 196.609 65.6034C196.706 65.3515 196.754 65.0608 196.754 64.7313C196.754 64.4055 196.707 64.1205 196.612 63.8762C196.517 63.6299 196.377 63.4387 196.192 63.3023C196.006 63.164 195.777 63.0949 195.504 63.0949C195.22 63.0949 194.983 63.1678 194.794 63.3137C194.606 63.4576 194.465 63.6536 194.371 63.9017C194.278 64.1479 194.231 64.4244 194.231 64.7313C194.231 65.0419 194.279 65.3241 194.373 65.5779C194.47 65.8298 194.612 66.0305 194.8 66.1801C194.989 66.3279 195.224 66.4017 195.504 66.4017ZM200.435 66.9131V61.0949H202.401C202.858 61.0949 203.231 61.1773 203.52 61.3421C203.812 61.5049 204.028 61.7256 204.168 62.004C204.308 62.2824 204.378 62.593 204.378 62.9358C204.378 63.2786 204.308 63.5902 204.168 63.8705C204.03 64.1508 203.816 64.3743 203.526 64.5409C203.236 64.7057 202.865 64.7881 202.412 64.7881H201.003V64.1631H202.39C202.702 64.1631 202.953 64.1091 203.143 64.0012C203.332 63.8932 203.469 63.7474 203.554 63.5637C203.642 63.378 203.685 63.1688 203.685 62.9358C203.685 62.7029 203.642 62.4945 203.554 62.3108C203.469 62.1271 203.331 61.9832 203.14 61.879C202.948 61.7729 202.695 61.7199 202.378 61.7199H201.14V66.9131H200.435ZM205.102 66.9131V62.5494H205.75V63.2085H205.796C205.875 62.9926 206.019 62.8174 206.227 62.683C206.436 62.5485 206.671 62.4813 206.932 62.4813C206.981 62.4813 207.043 62.4822 207.117 62.4841C207.19 62.486 207.246 62.4888 207.284 62.4926V63.1744C207.261 63.1688 207.209 63.1602 207.128 63.1489C207.048 63.1356 206.964 63.129 206.875 63.129C206.663 63.129 206.474 63.1735 206.307 63.2625C206.142 63.3496 206.011 63.4709 205.915 63.6262C205.82 63.7796 205.773 63.9548 205.773 64.1517V66.9131H205.102ZM209.399 67.004C209.005 67.004 208.659 66.9102 208.362 66.7227C208.066 66.5352 207.835 66.2729 207.669 65.9358C207.504 65.5987 207.422 65.2048 207.422 64.754C207.422 64.2994 207.504 63.9027 207.669 63.5637C207.835 63.2246 208.066 62.9614 208.362 62.7739C208.659 62.5864 209.005 62.4926 209.399 62.4926C209.793 62.4926 210.137 62.5864 210.433 62.7739C210.73 62.9614 210.961 63.2246 211.126 63.5637C211.293 63.9027 211.376 64.2994 211.376 64.754C211.376 65.2048 211.293 65.5987 211.126 65.9358C210.961 66.2729 210.73 66.5352 210.433 66.7227C210.137 66.9102 209.793 67.004 209.399 67.004ZM209.399 66.4017C209.698 66.4017 209.944 66.325 210.137 66.1716C210.331 66.0182 210.474 65.8165 210.566 65.5665C210.659 65.3165 210.706 65.0457 210.706 64.754C210.706 64.4623 210.659 64.1905 210.566 63.9387C210.474 63.6868 210.331 63.4832 210.137 63.3279C209.944 63.1726 209.698 63.0949 209.399 63.0949C209.1 63.0949 208.853 63.1726 208.66 63.3279C208.467 63.4832 208.324 63.6868 208.231 63.9387C208.138 64.1905 208.092 64.4623 208.092 64.754C208.092 65.0457 208.138 65.3165 208.231 65.5665C208.324 65.8165 208.467 66.0182 208.66 66.1716C208.853 66.325 209.1 66.4017 209.399 66.4017ZM213.977 62.5494V63.1176H211.716V62.5494H213.977ZM212.375 61.504H213.045V65.6631C213.045 65.8525 213.073 65.9945 213.128 66.0892C213.185 66.182 213.257 66.2445 213.344 66.2767C213.433 66.307 213.527 66.3222 213.625 66.3222C213.699 66.3222 213.759 66.3184 213.807 66.3108C213.854 66.3013 213.892 66.2938 213.92 66.2881L214.057 66.8904C214.011 66.9074 213.948 66.9244 213.867 66.9415C213.785 66.9604 213.682 66.9699 213.557 66.9699C213.367 66.9699 213.182 66.9292 213 66.8477C212.82 66.7663 212.67 66.6423 212.551 66.4756C212.434 66.3089 212.375 66.0987 212.375 65.8449V61.504ZM216.448 67.004C216.028 67.004 215.665 66.9112 215.36 66.7256C215.057 66.5381 214.823 66.2767 214.659 65.9415C214.496 65.6044 214.414 65.2123 214.414 64.7654C214.414 64.3184 214.496 63.9244 214.659 63.5835C214.823 63.2407 215.053 62.9737 215.346 62.7824C215.642 62.5892 215.986 62.4926 216.38 62.4926C216.608 62.4926 216.832 62.5305 217.054 62.6063C217.275 62.682 217.477 62.8051 217.659 62.9756C217.841 63.1441 217.985 63.3676 218.093 63.646C218.201 63.9244 218.255 64.2673 218.255 64.6744V64.9585H214.892V64.379H217.573C217.573 64.1328 217.524 63.9131 217.426 63.7199C217.329 63.5267 217.191 63.3743 217.011 63.2625C216.833 63.1508 216.623 63.0949 216.38 63.0949C216.113 63.0949 215.882 63.1612 215.687 63.2938C215.494 63.4244 215.345 63.5949 215.241 63.8051C215.137 64.0154 215.085 64.2407 215.085 64.4813V64.8676C215.085 65.1972 215.142 65.4765 215.255 65.7057C215.371 65.933 215.531 66.1063 215.735 66.2256C215.94 66.343 216.178 66.4017 216.448 66.4017C216.625 66.4017 216.784 66.3771 216.926 66.3279C217.07 66.2767 217.194 66.201 217.298 66.1006C217.402 65.9983 217.483 65.8714 217.539 65.7199L218.187 65.9017C218.119 66.1214 218.004 66.3146 217.843 66.4813C217.682 66.646 217.484 66.7748 217.247 66.8676C217.01 66.9585 216.744 67.004 216.448 67.004ZM220.728 67.004C220.319 67.004 219.967 66.9074 219.671 66.7142C219.376 66.521 219.148 66.2549 218.989 65.9159C218.83 65.5769 218.751 65.1896 218.751 64.754C218.751 64.3108 218.832 63.9197 218.995 63.5807C219.16 63.2398 219.389 62.9737 219.682 62.7824C219.978 62.5892 220.323 62.4926 220.717 62.4926C221.023 62.4926 221.3 62.5494 221.546 62.6631C221.792 62.7767 221.994 62.9358 222.151 63.1404C222.308 63.3449 222.406 63.5835 222.444 63.8563H221.773C221.722 63.6574 221.609 63.4813 221.432 63.3279C221.258 63.1726 221.023 63.0949 220.728 63.0949C220.467 63.0949 220.237 63.1631 220.04 63.2994C219.845 63.4339 219.693 63.6243 219.583 63.8705C219.475 64.1148 219.421 64.4017 219.421 64.7313C219.421 65.0684 219.474 65.3619 219.58 65.6119C219.688 65.8619 219.84 66.0561 220.035 66.1943C220.232 66.3326 220.463 66.4017 220.728 66.4017C220.902 66.4017 221.06 66.3714 221.202 66.3108C221.344 66.2502 221.465 66.1631 221.563 66.0494C221.662 65.9358 221.732 65.7994 221.773 65.6404H222.444C222.406 65.8979 222.312 66.1299 222.163 66.3364C222.015 66.5409 221.819 66.7038 221.575 66.825C221.332 66.9443 221.05 67.004 220.728 67.004ZM225.002 62.5494V63.1176H222.74V62.5494H225.002ZM223.399 61.504H224.07V65.6631C224.07 65.8525 224.097 65.9945 224.152 66.0892C224.209 66.182 224.281 66.2445 224.368 66.2767C224.457 66.307 224.551 66.3222 224.649 66.3222C224.723 66.3222 224.784 66.3184 224.831 66.3108C224.879 66.3013 224.916 66.2938 224.945 66.2881L225.081 66.8904C225.036 66.9074 224.972 66.9244 224.891 66.9415C224.809 66.9604 224.706 66.9699 224.581 66.9699C224.392 66.9699 224.206 66.9292 224.024 66.8477C223.844 66.7663 223.695 66.6423 223.576 66.4756C223.458 66.3089 223.399 66.0987 223.399 65.8449V61.504Z" fill="#323150"/>
<rect x="37" y="257.901" width="59" height="17" rx="3.5" fill="#EFEFF5"/>
<rect x="37" y="257.901" width="59" height="17" rx="3.5" stroke="#C1C0D8"/>
<path d="M42.4351 269.401L40.8442 263.583H41.5601L42.776 268.322H42.8328L44.0715 263.583H44.8669L46.1056 268.322H46.1624L47.3783 263.583H48.0942L46.5033 269.401H45.776L44.4919 264.765H44.4465L43.1624 269.401H42.4351ZM49.439 269.504C49.1625 269.504 48.9115 269.452 48.6861 269.347C48.4608 269.241 48.2818 269.089 48.1492 268.89C48.0166 268.689 47.9503 268.447 47.9503 268.163C47.9503 267.913 47.9996 267.71 48.0981 267.555C48.1966 267.398 48.3282 267.274 48.493 267.185C48.6577 267.096 48.8395 267.03 49.0384 266.987C49.2392 266.941 49.4409 266.905 49.6435 266.879C49.9087 266.845 50.1236 266.819 50.2884 266.802C50.4551 266.783 50.5763 266.752 50.652 266.708C50.7297 266.665 50.7685 266.589 50.7685 266.481V266.458C50.7685 266.178 50.6918 265.96 50.5384 265.805C50.3869 265.649 50.1568 265.572 49.8481 265.572C49.528 265.572 49.277 265.642 49.0952 265.782C48.9134 265.922 48.7856 266.072 48.7117 266.231L48.0753 266.004C48.189 265.738 48.3405 265.532 48.5299 265.384C48.7212 265.235 48.9295 265.131 49.1549 265.072C49.3822 265.011 49.6056 264.981 49.8253 264.981C49.9655 264.981 50.1265 264.998 50.3083 265.032C50.492 265.064 50.6691 265.131 50.8395 265.234C51.0119 265.336 51.1549 265.49 51.2685 265.697C51.3822 265.903 51.439 266.18 51.439 266.526V269.401H50.7685V268.81H50.7344C50.689 268.905 50.6132 269.006 50.5072 269.114C50.4011 269.222 50.26 269.314 50.0839 269.39C49.9077 269.466 49.6928 269.504 49.439 269.504ZM49.5412 268.901C49.8064 268.901 50.0299 268.849 50.2117 268.745C50.3954 268.641 50.5337 268.506 50.6265 268.342C50.7212 268.177 50.7685 268.004 50.7685 267.822V267.208C50.7401 267.242 50.6776 267.274 50.581 267.302C50.4863 267.328 50.3765 267.352 50.2515 267.373C50.1284 267.392 50.0081 267.409 49.8907 267.424C49.7752 267.437 49.6814 267.449 49.6094 267.458C49.4352 267.481 49.2723 267.518 49.1208 267.569C48.9712 267.618 48.85 267.693 48.7572 267.793C48.6662 267.892 48.6208 268.026 48.6208 268.197C48.6208 268.43 48.707 268.606 48.8793 268.725C49.0536 268.843 49.2742 268.901 49.5412 268.901ZM53.0132 263.583V269.401H52.3427V263.583H53.0132ZM54.5916 263.583V269.401H53.9211V263.583H54.5916ZM57.3291 269.492C56.9087 269.492 56.546 269.399 56.2411 269.214C55.938 269.026 55.7041 268.765 55.5393 268.43C55.3765 268.093 55.295 267.701 55.295 267.254C55.295 266.807 55.3765 266.413 55.5393 266.072C55.7041 265.729 55.9333 265.462 56.2268 265.271C56.5223 265.078 56.867 264.981 57.2609 264.981C57.4882 264.981 57.7126 265.019 57.9342 265.095C58.1558 265.17 58.3575 265.293 58.5393 265.464C58.7212 265.632 58.8661 265.856 58.974 266.134C59.082 266.413 59.1359 266.756 59.1359 267.163V267.447H55.7723V266.867H58.4541C58.4541 266.621 58.4049 266.401 58.3064 266.208C58.2098 266.015 58.0715 265.863 57.8916 265.751C57.7136 265.639 57.5034 265.583 57.2609 265.583C56.9939 265.583 56.7628 265.649 56.5678 265.782C56.3746 265.913 56.2259 266.083 56.1217 266.293C56.0176 266.504 55.9655 266.729 55.9655 266.97V267.356C55.9655 267.685 56.0223 267.965 56.1359 268.194C56.2515 268.421 56.4115 268.595 56.6161 268.714C56.8206 268.831 57.0583 268.89 57.3291 268.89C57.5053 268.89 57.6643 268.865 57.8064 268.816C57.9503 268.765 58.0744 268.689 58.1786 268.589C58.2827 268.487 58.3632 268.36 58.42 268.208L59.0678 268.39C58.9996 268.61 58.885 268.803 58.724 268.97C58.563 269.134 58.3642 269.263 58.1274 269.356C57.8907 269.447 57.6246 269.492 57.3291 269.492ZM61.4836 269.492C61.1199 269.492 60.7989 269.4 60.5205 269.217C60.2421 269.031 60.0243 268.77 59.8671 268.433C59.7099 268.094 59.6313 267.693 59.6313 267.231C59.6313 266.773 59.7099 266.375 59.8671 266.038C60.0243 265.701 60.243 265.44 60.5233 265.256C60.8036 265.073 61.1275 264.981 61.4949 264.981C61.779 264.981 62.0034 265.028 62.1682 265.123C62.3349 265.216 62.4618 265.322 62.5489 265.441C62.6379 265.559 62.707 265.655 62.7563 265.731H62.8131V263.583H63.4836V269.401H62.8358V268.731H62.7563C62.707 268.81 62.637 268.911 62.5461 269.032C62.4551 269.151 62.3254 269.258 62.1568 269.353C61.9883 269.446 61.7639 269.492 61.4836 269.492ZM61.5745 268.89C61.8434 268.89 62.0707 268.82 62.2563 268.68C62.4419 268.538 62.583 268.342 62.6796 268.092C62.7762 267.84 62.8245 267.549 62.8245 267.22C62.8245 266.894 62.7771 266.609 62.6824 266.364C62.5877 266.118 62.4476 265.927 62.262 265.791C62.0764 265.652 61.8472 265.583 61.5745 265.583C61.2904 265.583 61.0536 265.656 60.8642 265.802C60.6767 265.946 60.5356 266.142 60.4409 266.39C60.3481 266.636 60.3017 266.913 60.3017 267.22C60.3017 267.53 60.3491 267.812 60.4438 268.066C60.5404 268.318 60.6824 268.519 60.8699 268.668C61.0593 268.816 61.2942 268.89 61.5745 268.89ZM71.1873 265.401H70.4828C70.4411 265.199 70.3682 265.021 70.264 264.867C70.1617 264.714 70.0367 264.585 69.889 264.481C69.7432 264.375 69.5812 264.295 69.4032 264.242C69.2252 264.189 69.0396 264.163 68.8464 264.163C68.4941 264.163 68.175 264.252 67.889 264.43C67.6049 264.608 67.3786 264.87 67.21 265.217C67.0434 265.563 66.96 265.988 66.96 266.492C66.96 266.996 67.0434 267.421 67.21 267.768C67.3786 268.114 67.6049 268.377 67.889 268.555C68.175 268.733 68.4941 268.822 68.8464 268.822C69.0396 268.822 69.2252 268.795 69.4032 268.742C69.5812 268.689 69.7432 268.611 69.889 268.506C70.0367 268.4 70.1617 268.271 70.264 268.117C70.3682 267.962 70.4411 267.784 70.4828 267.583H71.1873C71.1343 267.881 71.0377 268.147 70.8975 268.381C70.7574 268.616 70.5831 268.816 70.3748 268.981C70.1665 269.144 69.9326 269.268 69.6731 269.353C69.4155 269.438 69.14 269.481 68.8464 269.481C68.3502 269.481 67.9089 269.36 67.5225 269.117C67.1362 268.875 66.8322 268.53 66.6106 268.083C66.389 267.636 66.2782 267.106 66.2782 266.492C66.2782 265.879 66.389 265.348 66.6106 264.901C66.8322 264.454 67.1362 264.11 67.5225 263.867C67.9089 263.625 68.3502 263.504 68.8464 263.504C69.14 263.504 69.4155 263.546 69.6731 263.631C69.9326 263.717 70.1665 263.842 70.3748 264.006C70.5831 264.169 70.7574 264.368 70.8975 264.603C71.0377 264.836 71.1343 265.102 71.1873 265.401ZM73.6876 269.492C73.2937 269.492 72.948 269.399 72.6507 269.211C72.3552 269.024 72.1242 268.761 71.9575 268.424C71.7927 268.087 71.7103 267.693 71.7103 267.242C71.7103 266.788 71.7927 266.391 71.9575 266.052C72.1242 265.713 72.3552 265.45 72.6507 265.262C72.948 265.075 73.2937 264.981 73.6876 264.981C74.0816 264.981 74.4263 265.075 74.7217 265.262C75.0191 265.45 75.2501 265.713 75.4149 266.052C75.5816 266.391 75.6649 266.788 75.6649 267.242C75.6649 267.693 75.5816 268.087 75.4149 268.424C75.2501 268.761 75.0191 269.024 74.7217 269.211C74.4263 269.399 74.0816 269.492 73.6876 269.492ZM73.6876 268.89C73.9869 268.89 74.2331 268.813 74.4263 268.66C74.6194 268.506 74.7624 268.305 74.8552 268.055C74.948 267.805 74.9944 267.534 74.9944 267.242C74.9944 266.951 74.948 266.679 74.8552 266.427C74.7624 266.175 74.6194 265.971 74.4263 265.816C74.2331 265.661 73.9869 265.583 73.6876 265.583C73.3884 265.583 73.1422 265.661 72.949 265.816C72.7558 265.971 72.6128 266.175 72.52 266.427C72.4272 266.679 72.3808 266.951 72.3808 267.242C72.3808 267.534 72.4272 267.805 72.52 268.055C72.6128 268.305 72.7558 268.506 72.949 268.66C73.1422 268.813 73.3884 268.89 73.6876 268.89ZM76.3683 269.401V265.038H77.016V265.697H77.0615C77.141 265.481 77.285 265.306 77.4933 265.171C77.7017 265.037 77.9365 264.97 78.1979 264.97C78.2471 264.97 78.3087 264.97 78.3825 264.972C78.4564 264.974 78.5123 264.977 78.5501 264.981V265.663C78.5274 265.657 78.4753 265.649 78.3939 265.637C78.3143 265.624 78.2301 265.617 78.141 265.617C77.9289 265.617 77.7395 265.662 77.5729 265.751C77.4081 265.838 77.2774 265.959 77.1808 266.114C77.0861 266.268 77.0388 266.443 77.0388 266.64V269.401H76.3683ZM79.0249 269.401V265.038H79.6726V265.697H79.7181C79.7976 265.481 79.9416 265.306 80.1499 265.171C80.3582 265.037 80.5931 264.97 80.8544 264.97C80.9037 264.97 80.9652 264.97 81.0391 264.972C81.113 264.974 81.1688 264.977 81.2067 264.981V265.663C81.184 265.657 81.1319 265.649 81.0505 265.637C80.9709 265.624 80.8866 265.617 80.7976 265.617C80.5855 265.617 80.3961 265.662 80.2294 265.751C80.0647 265.838 79.934 265.959 79.8374 266.114C79.7427 266.268 79.6953 266.443 79.6953 266.64V269.401H79.0249ZM83.3782 269.492C82.9577 269.492 82.595 269.399 82.2901 269.214C81.9871 269.026 81.7532 268.765 81.5884 268.43C81.4255 268.093 81.3441 267.701 81.3441 267.254C81.3441 266.807 81.4255 266.413 81.5884 266.072C81.7532 265.729 81.9823 265.462 82.2759 265.271C82.5714 265.078 82.9161 264.981 83.31 264.981C83.5373 264.981 83.7617 265.019 83.9833 265.095C84.2049 265.17 84.4066 265.293 84.5884 265.464C84.7702 265.632 84.9151 265.856 85.0231 266.134C85.131 266.413 85.185 266.756 85.185 267.163V267.447H81.8214V266.867H84.5032C84.5032 266.621 84.4539 266.401 84.3555 266.208C84.2589 266.015 84.1206 265.863 83.9407 265.751C83.7626 265.639 83.5524 265.583 83.31 265.583C83.043 265.583 82.8119 265.649 82.6168 265.782C82.4236 265.913 82.275 266.083 82.1708 266.293C82.0666 266.504 82.0145 266.729 82.0145 266.97V267.356C82.0145 267.685 82.0714 267.965 82.185 268.194C82.3005 268.421 82.4606 268.595 82.6651 268.714C82.8697 268.831 83.1073 268.89 83.3782 268.89C83.5543 268.89 83.7134 268.865 83.8555 268.816C83.9994 268.765 84.1234 268.689 84.2276 268.589C84.3318 268.487 84.4123 268.36 84.4691 268.208L85.1168 268.39C85.0486 268.61 84.9341 268.803 84.7731 268.97C84.6121 269.134 84.4132 269.263 84.1765 269.356C83.9397 269.447 83.6736 269.492 83.3782 269.492ZM87.6576 269.492C87.2485 269.492 86.8962 269.396 86.6008 269.203C86.3053 269.009 86.0781 268.743 85.919 268.404C85.7599 268.065 85.6803 267.678 85.6803 267.242C85.6803 266.799 85.7618 266.408 85.9247 266.069C86.0894 265.728 86.3186 265.462 86.6122 265.271C86.9076 265.078 87.2523 264.981 87.6462 264.981C87.9531 264.981 88.2296 265.038 88.4758 265.151C88.722 265.265 88.9237 265.424 89.0809 265.629C89.2381 265.833 89.3356 266.072 89.3735 266.345H88.7031C88.6519 266.146 88.5383 265.97 88.3622 265.816C88.1879 265.661 87.9531 265.583 87.6576 265.583C87.3962 265.583 87.1671 265.651 86.9701 265.788C86.775 265.922 86.6226 266.113 86.5127 266.359C86.4048 266.603 86.3508 266.89 86.3508 267.22C86.3508 267.557 86.4038 267.85 86.5099 268.1C86.6178 268.35 86.7694 268.544 86.9644 268.683C87.1614 268.821 87.3925 268.89 87.6576 268.89C87.8319 268.89 87.99 268.86 88.132 268.799C88.2741 268.738 88.3944 268.651 88.4928 268.538C88.5913 268.424 88.6614 268.288 88.7031 268.129H89.3735C89.3356 268.386 89.2419 268.618 89.0923 268.825C88.9445 269.029 88.7485 269.192 88.5042 269.313C88.2618 269.433 87.9796 269.492 87.6576 269.492ZM91.9314 265.038V265.606H89.67V265.038H91.9314ZM90.3291 263.992H90.9995V268.151C90.9995 268.341 91.027 268.483 91.0819 268.578C91.1387 268.67 91.2107 268.733 91.2978 268.765C91.3869 268.795 91.4806 268.81 91.5791 268.81C91.653 268.81 91.7136 268.807 91.7609 268.799C91.8083 268.79 91.8461 268.782 91.8745 268.776L92.0109 269.379C91.9655 269.396 91.902 269.413 91.8206 269.43C91.7391 269.449 91.6359 269.458 91.5109 269.458C91.3215 269.458 91.1359 269.417 90.9541 269.336C90.7742 269.255 90.6245 269.131 90.5052 268.964C90.3878 268.797 90.3291 268.587 90.3291 268.333V263.992Z" fill="#323150"/>
<defs>
<filter id="filter0_dddd_483_699" x="160.252" y="219.039" width="36.3133" height="73.2815" filterUnits="userSpaceOnUse" color-interpolation-filters="sRGB">
<feFlood flood-opacity="0" result="BackgroundImageFix"/>
<feColorMatrix in="SourceAlpha" type="matrix" values="0 0 0 0 0 0 0 0 0 0 0 0 0 0 0 0 0 0 127 0" result="hardAlpha"/>
<feOffset dy="2.69524"/>
<feGaussianBlur stdDeviation="2.69524"/>
<feColorMatrix type="matrix" values="0 0 0 0 0.639216 0 0 0 0 0.639216 0 0 0 0 0.639216 0 0 0 0.1 0"/>
<feBlend mode="normal" in2="BackgroundImageFix" result="effect1_dropShadow_483_699"/>
<feColorMatrix in="SourceAlpha" type="matrix" values="0 0 0 0 0 0 0 0 0 0 0 0 0 0 0 0 0 0 127 0" result="hardAlpha"/>
<feOffset dx="0.898413" dy="9.88254"/>
<feGaussianBlur stdDeviation="4.94127"/>
<feColorMatrix type="matrix" values="0 0 0 0 0.639216 0 0 0 0 0.639216 0 0 0 0 0.639216 0 0 0 0.09 0"/>
<feBlend mode="normal" in2="effect1_dropShadow_483_699" result="effect2_dropShadow_483_699"/>
<feColorMatrix in="SourceAlpha" type="matrix" values="0 0 0 0 0 0 0 0 0 0 0 0 0 0 0 0 0 0 127 0" result="hardAlpha"/>
<feOffset dx="1.79683" dy="23.3587"/>
<feGaussianBlur stdDeviation="6.7381"/>
<feColorMatrix type="matrix" values="0 0 0 0 0.639216 0 0 0 0 0.639216 0 0 0 0 0.639216 0 0 0 0.05 0"/>
<feBlend mode="normal" in2="effect2_dropShadow_483_699" result="effect3_dropShadow_483_699"/>
<feColorMatrix in="SourceAlpha" type="matrix" values="0 0 0 0 0 0 0 0 0 0 0 0 0 0 0 0 0 0 127 0" result="hardAlpha"/>
<feOffset dx="2.69524" dy="41.327"/>
<feGaussianBlur stdDeviation="8.08571"/>
<feColorMatrix type="matrix" values="0 0 0 0 0.639216 0 0 0 0 0.639216 0 0 0 0 0.639216 0 0 0 0.01 0"/>
<feBlend mode="normal" in2="effect3_dropShadow_483_699" result="effect4_dropShadow_483_699"/>
<feBlend mode="normal" in="SourceGraphic" in2="effect4_dropShadow_483_699" result="shape"/>
</filter>
<filter id="filter1_dddd_483_699" x="208.825" y="219.039" width="36.3133" height="73.2815" filterUnits="userSpaceOnUse" color-interpolation-filters="sRGB">
<feFlood flood-opacity="0" result="BackgroundImageFix"/>
<feColorMatrix in="SourceAlpha" type="matrix" values="0 0 0 0 0 0 0 0 0 0 0 0 0 0 0 0 0 0 127 0" result="hardAlpha"/>
<feOffset dy="2.69524"/>
<feGaussianBlur stdDeviation="2.69524"/>
<feColorMatrix type="matrix" values="0 0 0 0 0.639216 0 0 0 0 0.639216 0 0 0 0 0.639216 0 0 0 0.1 0"/>
<feBlend mode="normal" in2="BackgroundImageFix" result="effect1_dropShadow_483_699"/>
<feColorMatrix in="SourceAlpha" type="matrix" values="0 0 0 0 0 0 0 0 0 0 0 0 0 0 0 0 0 0 127 0" result="hardAlpha"/>
<feOffset dx="0.898413" dy="9.88254"/>
<feGaussianBlur stdDeviation="4.94127"/>
<feColorMatrix type="matrix" values="0 0 0 0 0.639216 0 0 0 0 0.639216 0 0 0 0 0.639216 0 0 0 0.09 0"/>
<feBlend mode="normal" in2="effect1_dropShadow_483_699" result="effect2_dropShadow_483_699"/>
<feColorMatrix in="SourceAlpha" type="matrix" values="0 0 0 0 0 0 0 0 0 0 0 0 0 0 0 0 0 0 127 0" result="hardAlpha"/>
<feOffset dx="1.79683" dy="23.3587"/>
<feGaussianBlur stdDeviation="6.7381"/>
<feColorMatrix type="matrix" values="0 0 0 0 0.639216 0 0 0 0 0.639216 0 0 0 0 0.639216 0 0 0 0.05 0"/>
<feBlend mode="normal" in2="effect2_dropShadow_483_699" result="effect3_dropShadow_483_699"/>
<feColorMatrix in="SourceAlpha" type="matrix" values="0 0 0 0 0 0 0 0 0 0 0 0 0 0 0 0 0 0 127 0" result="hardAlpha"/>
<feOffset dx="2.69524" dy="41.327"/>
<feGaussianBlur stdDeviation="8.08571"/>
<feColorMatrix type="matrix" values="0 0 0 0 0.639216 0 0 0 0 0.639216 0 0 0 0 0.639216 0 0 0 0.01 0"/>
<feBlend mode="normal" in2="effect3_dropShadow_483_699" result="effect4_dropShadow_483_699"/>
<feBlend mode="normal" in="SourceGraphic" in2="effect4_dropShadow_483_699" result="shape"/>
</filter>
<linearGradient id="paint0_linear_483_699" x1="2069.2" y1="1061.21" x2="-255.716" y2="-238.179" gradientUnits="userSpaceOnUse">
<stop stop-color="#473EF4"/>
<stop offset="1" stop-color="#EFEFF5"/>
</linearGradient>
<radialGradient id="paint1_radial_483_699" cx="0" cy="0" r="1" gradientUnits="userSpaceOnUse" gradientTransform="translate(200 225) rotate(-135) scale(93.6568)">
<stop stop-color="#473EF4"/>
<stop offset="0.510303" stop-color="#C0BEEE"/>
<stop offset="1" stop-color="#E0DFEC" stop-opacity="0"/>
</radialGradient>
<linearGradient id="paint2_linear_483_699" x1="190.29" y1="-24.5454" x2="211.041" y2="-23.6291" gradientUnits="userSpaceOnUse">
<stop stop-color="#F93C52"/>
<stop offset="1" stop-color="#2B21F3"/>
</linearGradient>
<linearGradient id="paint3_linear_483_699" x1="55.6699" y1="178.951" x2="78.9298" y2="180.098" gradientUnits="userSpaceOnUse">
<stop stop-color="#F93C52"/>
<stop offset="1" stop-color="#2B21F3"/>
</linearGradient>
<clipPath id="clip0_483_699">
<rect width="26" height="22.6521" fill="white" transform="translate(187 13.6738)"/>
</clipPath>
<clipPath id="clip1_483_699">
<rect width="26" height="23.2362" fill="white" transform="translate(53.5 216.661)"/>
</clipPath>
</defs>
</svg>
