<svg width="400" height="425" viewBox="0 0 400 425" fill="none" xmlns="http://www.w3.org/2000/svg">
<circle cx="200" cy="225" r="199.5" fill="#EFEFF5" stroke="url(#paint0_linear_483_851)"/>
<circle cx="200" cy="225" r="115" fill="url(#paint1_radial_483_851)"/>
<circle cx="200" cy="225" r="49.5" fill="#EFEFF5" stroke="#473EF4"/>
<circle cx="200" cy="25" r="24.5" fill="#EFEFF5" stroke="#C1C0D8"/>
<path d="M200 200.719L200 245.179" stroke="#473EF4" stroke-width="0.898413" stroke-linecap="round"/>
<path d="M193.965 175.29V197.371L186.074 204.558V215.763" stroke="#473EF4" stroke-width="0.898413" stroke-linecap="round"/>
<path d="M206.033 175.316V197.294L213.925 204.482V215.687" stroke="#473EF4" stroke-width="0.898413" stroke-linecap="round"/>
<rect x="181.712" y="210.055" width="36.5742" height="36.4492" rx="8.98413" fill="#473EF4"/>
<rect x="183.041" y="211.378" width="33.9169" height="33.801" rx="8.08571" fill="#E0DFEC"/>
<g filter="url(#filter0_dddd_483_851)">
<rect x="173.729" y="221.734" width="3.97048" height="13.0881" rx="1.98524" fill="#473EF4"/>
</g>
<g filter="url(#filter1_dddd_483_851)">
<rect x="222.301" y="221.734" width="3.97048" height="13.0881" rx="1.98524" fill="#473EF4"/>
</g>
<path d="M193.722 236.163H191.642L196.594 220.396H199.837L204.801 236.163H202.722L198.377 221.777H198.067L193.722 236.163ZM201.818 231.512H194.613V229.809H201.818V231.512Z" fill="#323150"/>
<path d="M208.356 220.396V236.163H206.301V220.396H208.356Z" fill="#323150"/>
<path d="M186.507 261.134H185.512L188.391 253.293H189.371L192.25 261.134H191.254L188.911 254.534H188.85L186.507 261.134ZM186.874 258.071H190.887V258.913H186.874V258.071ZM195.291 263.461C194.854 263.461 194.479 263.405 194.165 263.293C193.851 263.183 193.59 263.038 193.38 262.857C193.174 262.678 193.009 262.487 192.887 262.282L193.606 261.777C193.688 261.884 193.791 262.007 193.916 262.145C194.041 262.285 194.212 262.406 194.429 262.508C194.649 262.613 194.936 262.665 195.291 262.665C195.766 262.665 196.157 262.55 196.466 262.321C196.775 262.091 196.929 261.731 196.929 261.241V260.047H196.853C196.786 260.154 196.692 260.286 196.569 260.445C196.45 260.6 196.276 260.739 196.049 260.862C195.824 260.982 195.52 261.042 195.138 261.042C194.663 261.042 194.237 260.93 193.859 260.705C193.484 260.48 193.186 260.154 192.967 259.725C192.75 259.296 192.641 258.775 192.641 258.163C192.641 257.561 192.747 257.036 192.959 256.589C193.171 256.14 193.466 255.793 193.844 255.548C194.221 255.3 194.658 255.177 195.153 255.177C195.536 255.177 195.84 255.241 196.064 255.368C196.291 255.493 196.465 255.636 196.585 255.797C196.707 255.955 196.802 256.085 196.868 256.187H196.96V255.253H197.833V261.302C197.833 261.808 197.718 262.219 197.488 262.535C197.261 262.854 196.955 263.088 196.569 263.236C196.187 263.386 195.76 263.461 195.291 263.461ZM195.26 260.23C195.623 260.23 195.929 260.147 196.179 259.981C196.429 259.816 196.619 259.577 196.749 259.265C196.88 258.954 196.945 258.581 196.945 258.148C196.945 257.724 196.881 257.35 196.753 257.026C196.626 256.702 196.437 256.448 196.187 256.264C195.937 256.08 195.628 255.988 195.26 255.988C194.877 255.988 194.558 256.085 194.303 256.279C194.05 256.473 193.86 256.734 193.733 257.06C193.608 257.387 193.545 257.749 193.545 258.148C193.545 258.556 193.609 258.917 193.736 259.231C193.867 259.542 194.058 259.787 194.311 259.966C194.566 260.142 194.882 260.23 195.26 260.23ZM201.521 261.256C200.954 261.256 200.466 261.131 200.055 260.881C199.646 260.628 199.331 260.276 199.109 259.824C198.89 259.37 198.78 258.842 198.78 258.239C198.78 257.637 198.89 257.106 199.109 256.647C199.331 256.185 199.64 255.825 200.036 255.567C200.434 255.307 200.898 255.177 201.429 255.177C201.735 255.177 202.038 255.228 202.337 255.33C202.635 255.432 202.907 255.598 203.152 255.828C203.397 256.055 203.592 256.356 203.738 256.731C203.883 257.106 203.956 257.568 203.956 258.117V258.5H199.423V257.719H203.037C203.037 257.387 202.971 257.091 202.838 256.831C202.708 256.57 202.522 256.365 202.279 256.214C202.039 256.064 201.756 255.988 201.429 255.988C201.069 255.988 200.758 256.078 200.495 256.256C200.235 256.432 200.034 256.662 199.894 256.945C199.754 257.229 199.683 257.532 199.683 257.857V258.377C199.683 258.821 199.76 259.198 199.913 259.507C200.069 259.813 200.284 260.047 200.56 260.207C200.836 260.366 201.156 260.445 201.521 260.445C201.758 260.445 201.973 260.411 202.164 260.345C202.358 260.276 202.525 260.174 202.666 260.039C202.806 259.901 202.915 259.73 202.991 259.526L203.864 259.771C203.772 260.067 203.618 260.327 203.401 260.552C203.184 260.774 202.916 260.947 202.597 261.073C202.278 261.195 201.919 261.256 201.521 261.256ZM205.803 257.596V261.134H204.899V255.253H205.772V256.172H205.849C205.986 255.873 206.196 255.634 206.476 255.452C206.757 255.269 207.12 255.177 207.564 255.177C207.962 255.177 208.31 255.258 208.609 255.422C208.908 255.583 209.14 255.828 209.306 256.157C209.472 256.483 209.555 256.897 209.555 257.397V261.134H208.651V257.458C208.651 256.996 208.531 256.637 208.291 256.379C208.051 256.119 207.722 255.988 207.303 255.988C207.015 255.988 206.757 256.051 206.53 256.176C206.305 256.301 206.128 256.483 205.998 256.723C205.868 256.963 205.803 257.254 205.803 257.596ZM213.332 255.253V256.019H210.284V255.253H213.332ZM211.173 253.844H212.076V259.449C212.076 259.704 212.113 259.896 212.187 260.024C212.264 260.149 212.361 260.233 212.478 260.276C212.598 260.317 212.724 260.337 212.857 260.337C212.957 260.337 213.038 260.332 213.102 260.322C213.166 260.309 213.217 260.299 213.255 260.292L213.439 261.103C213.378 261.126 213.292 261.149 213.182 261.172C213.073 261.198 212.934 261.21 212.765 261.21C212.51 261.21 212.26 261.155 212.015 261.046C211.772 260.936 211.571 260.769 211.41 260.544C211.252 260.32 211.173 260.036 211.173 259.694V253.844Z" fill="#323150"/>
<rect x="171" y="55.4131" width="58" height="17" rx="3.5" fill="#EFEFF5"/>
<rect x="171" y="55.4131" width="58" height="17" rx="3.5" stroke="#C1C0D8"/>
<path d="M176.709 66.9131L175.118 61.0949H175.834L177.05 65.8335H177.106L178.345 61.0949H179.141L180.379 65.8335H180.436L181.652 61.0949H182.368L180.777 66.9131H180.05L178.766 62.2767H178.72L177.436 66.9131H176.709ZM183.713 67.0154C183.436 67.0154 183.185 66.9633 182.96 66.8591C182.734 66.753 182.555 66.6006 182.423 66.4017C182.29 66.201 182.224 65.9585 182.224 65.6744C182.224 65.4244 182.273 65.2218 182.372 65.0665C182.47 64.9093 182.602 64.7862 182.767 64.6972C182.931 64.6082 183.113 64.5419 183.312 64.4983C183.513 64.4529 183.714 64.4169 183.917 64.3904C184.182 64.3563 184.397 64.3307 184.562 64.3137C184.729 64.2947 184.85 64.2635 184.926 64.2199C185.003 64.1763 185.042 64.1006 185.042 63.9926V63.9699C185.042 63.6896 184.965 63.4718 184.812 63.3165C184.66 63.1612 184.43 63.0835 184.122 63.0835C183.802 63.0835 183.551 63.1536 183.369 63.2938C183.187 63.4339 183.059 63.5835 182.985 63.7426L182.349 63.5154C182.463 63.2502 182.614 63.0438 182.803 62.896C182.995 62.7464 183.203 62.6423 183.428 62.5835C183.656 62.5229 183.879 62.4926 184.099 62.4926C184.239 62.4926 184.4 62.5097 184.582 62.5438C184.766 62.576 184.943 62.6432 185.113 62.7455C185.285 62.8477 185.428 63.0021 185.542 63.2085C185.656 63.415 185.713 63.6915 185.713 64.0381V66.9131H185.042V66.3222H185.008C184.963 66.4169 184.887 66.5182 184.781 66.6262C184.675 66.7341 184.534 66.826 184.357 66.9017C184.181 66.9775 183.966 67.0154 183.713 67.0154ZM183.815 66.4131C184.08 66.4131 184.303 66.361 184.485 66.2568C184.669 66.1527 184.807 66.0182 184.9 65.8534C184.995 65.6887 185.042 65.5154 185.042 65.3335V64.7199C185.014 64.754 184.951 64.7852 184.855 64.8137C184.76 64.8402 184.65 64.8638 184.525 64.8847C184.402 64.9036 184.282 64.9207 184.164 64.9358C184.049 64.9491 183.955 64.9604 183.883 64.9699C183.709 64.9926 183.546 65.0296 183.394 65.0807C183.245 65.1299 183.124 65.2048 183.031 65.3051C182.94 65.4036 182.894 65.5381 182.894 65.7085C182.894 65.9415 182.981 66.1176 183.153 66.2369C183.327 66.3544 183.548 66.4131 183.815 66.4131ZM187.287 61.0949V66.9131H186.616V61.0949H187.287ZM188.865 61.0949V66.9131H188.195V61.0949H188.865ZM191.603 67.004C191.182 67.004 190.82 66.9112 190.515 66.7256C190.212 66.5381 189.978 66.2767 189.813 65.9415C189.65 65.6044 189.569 65.2123 189.569 64.7654C189.569 64.3184 189.65 63.9244 189.813 63.5835C189.978 63.2407 190.207 62.9737 190.5 62.7824C190.796 62.5892 191.141 62.4926 191.535 62.4926C191.762 62.4926 191.986 62.5305 192.208 62.6063C192.429 62.682 192.631 62.8051 192.813 62.9756C192.995 63.1441 193.14 63.3676 193.248 63.646C193.356 63.9244 193.41 64.2673 193.41 64.6744V64.9585H190.046V64.379H192.728C192.728 64.1328 192.678 63.9131 192.58 63.7199C192.483 63.5267 192.345 63.3743 192.165 63.2625C191.987 63.1508 191.777 63.0949 191.535 63.0949C191.267 63.0949 191.036 63.1612 190.841 63.2938C190.648 63.4244 190.499 63.5949 190.395 63.8051C190.291 64.0154 190.239 64.2407 190.239 64.4813V64.8676C190.239 65.1972 190.296 65.4765 190.41 65.7057C190.525 65.933 190.685 66.1063 190.89 66.2256C191.094 66.343 191.332 66.4017 191.603 66.4017C191.779 66.4017 191.938 66.3771 192.08 66.3279C192.224 66.2767 192.348 66.201 192.452 66.1006C192.556 65.9983 192.637 65.8714 192.694 65.7199L193.341 65.9017C193.273 66.1214 193.159 66.3146 192.998 66.4813C192.837 66.646 192.638 66.7748 192.401 66.8676C192.164 66.9585 191.898 67.004 191.603 67.004ZM195.757 67.004C195.394 67.004 195.072 66.9121 194.794 66.7284C194.516 66.5428 194.298 66.2815 194.141 65.9443C193.983 65.6053 193.905 65.2048 193.905 64.7426C193.905 64.2843 193.983 63.8866 194.141 63.5494C194.298 63.2123 194.517 62.9519 194.797 62.7682C195.077 62.5845 195.401 62.4926 195.769 62.4926C196.053 62.4926 196.277 62.54 196.442 62.6347C196.608 62.7275 196.735 62.8335 196.822 62.9529C196.912 63.0703 196.981 63.1669 197.03 63.2426H197.087V61.0949H197.757V66.9131H197.109V66.2426H197.03C196.981 66.3222 196.911 66.4226 196.82 66.5438C196.729 66.6631 196.599 66.7701 196.43 66.8648C196.262 66.9576 196.037 67.004 195.757 67.004ZM195.848 66.4017C196.117 66.4017 196.344 66.3316 196.53 66.1915C196.715 66.0494 196.857 65.8534 196.953 65.6034C197.05 65.3515 197.098 65.0608 197.098 64.7313C197.098 64.4055 197.051 64.1205 196.956 63.8762C196.861 63.6299 196.721 63.4387 196.536 63.3023C196.35 63.164 196.121 63.0949 195.848 63.0949C195.564 63.0949 195.327 63.1678 195.138 63.3137C194.95 63.4576 194.809 63.6536 194.715 63.9017C194.622 64.1479 194.575 64.4244 194.575 64.7313C194.575 65.0419 194.623 65.3241 194.717 65.5779C194.814 65.8298 194.956 66.0305 195.144 66.1801C195.333 66.3279 195.568 66.4017 195.848 66.4017ZM200.779 66.9131V61.0949H202.745C203.2 61.0949 203.573 61.1726 203.864 61.3279C204.156 61.4813 204.372 61.6924 204.512 61.9614C204.652 62.2303 204.722 62.5362 204.722 62.879C204.722 63.2218 204.652 63.5258 204.512 63.7909C204.372 64.0561 204.157 64.2644 203.867 64.4159C203.577 64.5655 203.207 64.6404 202.756 64.6404H201.165V64.004H202.734C203.044 64.004 203.294 63.9585 203.484 63.8676C203.675 63.7767 203.813 63.6479 203.898 63.4813C203.986 63.3127 204.029 63.1119 204.029 62.879C204.029 62.646 203.986 62.4424 203.898 62.2682C203.811 62.094 203.672 61.9595 203.481 61.8648C203.289 61.7682 203.037 61.7199 202.722 61.7199H201.484V66.9131H200.779ZM203.518 64.2994L204.95 66.9131H204.131L202.722 64.2994H203.518ZM207.268 67.004C206.848 67.004 206.485 66.9112 206.18 66.7256C205.877 66.5381 205.643 66.2767 205.478 65.9415C205.315 65.6044 205.234 65.2123 205.234 64.7654C205.234 64.3184 205.315 63.9244 205.478 63.5835C205.643 63.2407 205.872 62.9737 206.166 62.7824C206.461 62.5892 206.806 62.4926 207.2 62.4926C207.427 62.4926 207.652 62.5305 207.873 62.6063C208.095 62.682 208.296 62.8051 208.478 62.9756C208.66 63.1441 208.805 63.3676 208.913 63.646C209.021 63.9244 209.075 64.2673 209.075 64.6744V64.9585H205.711V64.379H208.393C208.393 64.1328 208.344 63.9131 208.245 63.7199C208.149 63.5267 208.01 63.3743 207.831 63.2625C207.652 63.1508 207.442 63.0949 207.2 63.0949C206.933 63.0949 206.702 63.1612 206.507 63.2938C206.313 63.4244 206.165 63.5949 206.061 63.8051C205.956 64.0154 205.904 64.2407 205.904 64.4813V64.8676C205.904 65.1972 205.961 65.4765 206.075 65.7057C206.19 65.933 206.35 66.1063 206.555 66.2256C206.76 66.343 206.997 66.4017 207.268 66.4017C207.444 66.4017 207.603 66.3771 207.745 66.3279C207.889 66.2767 208.013 66.201 208.117 66.1006C208.222 65.9983 208.302 65.8714 208.359 65.7199L209.007 65.9017C208.938 66.1214 208.824 66.3146 208.663 66.4813C208.502 66.646 208.303 66.7748 208.066 66.8676C207.83 66.9585 207.563 67.004 207.268 67.004ZM211.422 67.004C211.059 67.004 210.738 66.9121 210.459 66.7284C210.181 66.5428 209.963 66.2815 209.806 65.9443C209.649 65.6053 209.57 65.2048 209.57 64.7426C209.57 64.2843 209.649 63.8866 209.806 63.5494C209.963 63.2123 210.182 62.9519 210.462 62.7682C210.743 62.5845 211.066 62.4926 211.434 62.4926C211.718 62.4926 211.942 62.54 212.107 62.6347C212.274 62.7275 212.401 62.8335 212.488 62.9529C212.577 63.0703 212.646 63.1669 212.695 63.2426H212.752V61.0949H213.422V66.9131H212.775V66.2426H212.695C212.646 66.3222 212.576 66.4226 212.485 66.5438C212.394 66.6631 212.264 66.7701 212.096 66.8648C211.927 66.9576 211.703 67.004 211.422 67.004ZM211.513 66.4017C211.782 66.4017 212.01 66.3316 212.195 66.1915C212.381 66.0494 212.522 65.8534 212.618 65.6034C212.715 65.3515 212.763 65.0608 212.763 64.7313C212.763 64.4055 212.716 64.1205 212.621 63.8762C212.527 63.6299 212.386 63.4387 212.201 63.3023C212.015 63.164 211.786 63.0949 211.513 63.0949C211.229 63.0949 210.993 63.1678 210.803 63.3137C210.616 63.4576 210.475 63.6536 210.38 63.9017C210.287 64.1479 210.241 64.4244 210.241 64.7313C210.241 65.0419 210.288 65.3241 210.383 65.5779C210.479 65.8298 210.621 66.0305 210.809 66.1801C210.998 66.3279 211.233 66.4017 211.513 66.4017ZM215.708 67.0154C215.431 67.0154 215.18 66.9633 214.955 66.8591C214.729 66.753 214.55 66.6006 214.418 66.4017C214.285 66.201 214.219 65.9585 214.219 65.6744C214.219 65.4244 214.268 65.2218 214.367 65.0665C214.465 64.9093 214.597 64.7862 214.762 64.6972C214.926 64.6082 215.108 64.5419 215.307 64.4983C215.508 64.4529 215.709 64.4169 215.912 64.3904C216.177 64.3563 216.392 64.3307 216.557 64.3137C216.724 64.2947 216.845 64.2635 216.921 64.2199C216.998 64.1763 217.037 64.1006 217.037 63.9926V63.9699C217.037 63.6896 216.96 63.4718 216.807 63.3165C216.655 63.1612 216.425 63.0835 216.117 63.0835C215.797 63.0835 215.546 63.1536 215.364 63.2938C215.182 63.4339 215.054 63.5835 214.98 63.7426L214.344 63.5154C214.458 63.2502 214.609 63.0438 214.798 62.896C214.99 62.7464 215.198 62.6423 215.423 62.5835C215.651 62.5229 215.874 62.4926 216.094 62.4926C216.234 62.4926 216.395 62.5097 216.577 62.5438C216.761 62.576 216.938 62.6432 217.108 62.7455C217.28 62.8477 217.423 63.0021 217.537 63.2085C217.651 63.415 217.708 63.6915 217.708 64.0381V66.9131H217.037V66.3222H217.003C216.958 66.4169 216.882 66.5182 216.776 66.6262C216.67 66.7341 216.529 66.826 216.352 66.9017C216.176 66.9775 215.961 67.0154 215.708 67.0154ZM215.81 66.4131C216.075 66.4131 216.298 66.361 216.48 66.2568C216.664 66.1527 216.802 66.0182 216.895 65.8534C216.99 65.6887 217.037 65.5154 217.037 65.3335V64.7199C217.009 64.754 216.946 64.7852 216.85 64.8137C216.755 64.8402 216.645 64.8638 216.52 64.8847C216.397 64.9036 216.277 64.9207 216.159 64.9358C216.044 64.9491 215.95 64.9604 215.878 64.9699C215.704 64.9926 215.541 65.0296 215.389 65.0807C215.24 65.1299 215.119 65.2048 215.026 65.3051C214.935 65.4036 214.889 65.5381 214.889 65.7085C214.889 65.9415 214.976 66.1176 215.148 66.2369C215.322 66.3544 215.543 66.4131 215.81 66.4131ZM220.384 67.004C219.975 67.004 219.623 66.9074 219.327 66.7142C219.032 66.521 218.804 66.2549 218.645 65.9159C218.486 65.5769 218.407 65.1896 218.407 64.754C218.407 64.3108 218.488 63.9197 218.651 63.5807C218.816 63.2398 219.045 62.9737 219.339 62.7824C219.634 62.5892 219.979 62.4926 220.373 62.4926C220.679 62.4926 220.956 62.5494 221.202 62.6631C221.448 62.7767 221.65 62.9358 221.807 63.1404C221.965 63.3449 222.062 63.5835 222.1 63.8563H221.429C221.378 63.6574 221.265 63.4813 221.089 63.3279C220.914 63.1726 220.679 63.0949 220.384 63.0949C220.123 63.0949 219.893 63.1631 219.697 63.2994C219.501 63.4339 219.349 63.6243 219.239 63.8705C219.131 64.1148 219.077 64.4017 219.077 64.7313C219.077 65.0684 219.13 65.3619 219.236 65.6119C219.344 65.8619 219.496 66.0561 219.691 66.1943C219.888 66.3326 220.119 66.4017 220.384 66.4017C220.558 66.4017 220.716 66.3714 220.858 66.3108C221 66.2502 221.121 66.1631 221.219 66.0494C221.318 65.9358 221.388 65.7994 221.429 65.6404H222.1C222.062 65.8979 221.968 66.1299 221.819 66.3364C221.671 66.5409 221.475 66.7038 221.231 66.825C220.988 66.9443 220.706 67.004 220.384 67.004ZM224.658 62.5494V63.1176H222.396V62.5494H224.658ZM223.055 61.504H223.726V65.6631C223.726 65.8525 223.753 65.9945 223.808 66.0892C223.865 66.182 223.937 66.2445 224.024 66.2767C224.113 66.307 224.207 66.3222 224.305 66.3222C224.379 66.3222 224.44 66.3184 224.487 66.3108C224.535 66.3013 224.573 66.2938 224.601 66.2881L224.737 66.8904C224.692 66.9074 224.628 66.9244 224.547 66.9415C224.466 66.9604 224.362 66.9699 224.237 66.9699C224.048 66.9699 223.862 66.9292 223.68 66.8477C223.501 66.7663 223.351 66.6423 223.232 66.4756C223.114 66.3089 223.055 66.0987 223.055 65.8449V61.504Z" fill="#323150"/>
<g clip-path="url(#clip0_483_851)">
<path d="M187.838 18.0128L198.406 17.9907C198.829 17.9189 199.09 17.6386 199.149 17.2161C199.24 16.5838 199.214 15.1079 199.164 14.4424C199.134 14.0338 199.015 13.69 198.606 13.5326C195.066 13.36 191.492 13.505 187.94 13.458C187.475 13.5022 187.181 13.6817 187 14.1152V17.3542C187.17 17.7574 187.388 17.9658 187.836 18.0114L187.838 18.0128Z" fill="#C1C0D8"/>
<path d="M198.406 25.831L187.937 25.8062C187.442 25.8448 187.205 26.0174 187.001 26.4661V29.7051C187.12 29.9646 187.279 30.1842 187.56 30.2863C191.08 30.4644 194.642 30.3112 198.178 30.365C198.84 30.3126 199.116 30.042 199.166 29.3779C199.216 28.7138 199.242 27.2379 199.151 26.6055C199.09 26.1831 198.83 25.9028 198.407 25.831H198.406Z" fill="#C1C0D8"/>
<path d="M205.121 31.9819L194.642 31.9971C194.255 32.0468 193.936 32.3809 193.895 32.7689C193.825 33.4123 193.82 35.116 193.9 35.7497C193.975 36.3337 194.442 36.5339 194.981 36.5422C198.247 36.353 201.784 36.7852 205.018 36.5422C205.615 36.4966 206.002 36.3006 206.056 35.6558C206.113 34.989 206.136 33.3612 206.051 32.7233C205.991 32.2884 205.555 31.9598 205.121 31.9833V31.9819Z" fill="#C1C0D8"/>
<path d="M201.771 18.0152H212.062C212.572 17.989 212.903 17.6935 212.949 17.1799C213.008 16.5131 213.029 14.8356 212.942 14.1964C212.869 13.6579 212.386 13.4881 211.91 13.4549C208.602 13.2271 205.021 13.6179 201.686 13.4729C201.144 13.5005 200.838 13.807 200.785 14.3441C200.72 14.9888 200.713 16.5393 200.79 17.173C200.856 17.7211 201.23 18.0069 201.77 18.0166L201.771 18.0152Z" fill="#C1C0D8"/>
<path d="M206.057 23.3048C206.115 22.6282 206.133 21.0792 206.05 20.4233C205.981 19.8752 205.539 19.6364 205.019 19.6309L194.744 19.6474C194.267 19.6916 193.944 19.9884 193.894 20.4689C193.826 21.1385 193.821 22.7373 193.9 23.3986C193.962 23.9233 194.377 24.1773 194.88 24.1911H205.12C205.681 24.1428 206.009 23.875 206.057 23.3048Z" fill="#C1C0D8"/>
<path d="M211.961 25.8062L201.583 25.8214C201.094 25.8946 200.834 26.2107 200.786 26.694C200.721 27.3373 200.714 28.8892 200.791 29.5229C200.867 30.1428 201.25 30.3264 201.822 30.3665C205.108 30.5929 208.649 30.1911 211.962 30.3665C212.495 30.3251 212.899 30.1042 212.95 29.5312C213.01 28.863 213.03 27.1882 212.943 26.5476C212.88 26.0768 212.418 25.7855 211.962 25.8062H211.961Z" fill="#C1C0D8"/>
<path d="M187.988 24.1897C188.832 24.2615 190.55 24.2711 191.384 24.1869C191.818 24.1427 192.179 23.9149 192.223 23.4566C192.291 22.758 192.305 20.9976 192.222 20.3142C192.167 19.8558 191.747 19.6708 191.333 19.6336C190.527 19.5576 188.692 19.548 187.903 19.6474C187.448 19.704 187.118 19.9497 187.058 20.4233C186.977 21.0625 186.988 22.6986 187.053 23.353C187.107 23.8928 187.465 24.1455 187.988 24.1911V24.1897Z" fill="#C1C0D8"/>
<path d="M207.726 23.5062C207.781 23.9604 208.208 24.1551 208.612 24.1896C209.455 24.2614 211.174 24.2711 212.008 24.1868C212.545 24.133 212.851 23.8403 212.896 23.3032C212.957 22.5977 212.964 21.166 212.894 20.4674C212.838 19.9234 212.473 19.6804 211.956 19.6321C211.151 19.5562 209.315 19.5465 208.526 19.6459C208.135 19.6942 207.833 19.8668 207.73 20.2672C207.814 21.2847 207.605 22.5135 207.726 23.5048V23.5062Z" fill="#C1C0D8"/>
<path d="M191.384 31.9848C190.261 31.8715 188.945 32.0565 187.8 31.9972C187.369 32.0607 187.095 32.3907 187.053 32.82C186.983 33.5076 186.983 35.018 187.053 35.7042C187.112 36.2868 187.502 36.4939 188.041 36.5395C188.634 36.5892 191.268 36.6196 191.716 36.4663C192.001 36.3683 192.19 36.0991 192.222 35.8064C192.298 35.0926 192.294 33.4358 192.225 32.7165C192.18 32.2567 191.82 32.0289 191.386 31.9861L191.384 31.9848Z" fill="#C1C0D8"/>
<path d="M212.059 31.9845C211.293 31.9072 209.213 31.8906 208.475 31.997C208.117 32.048 207.816 32.2607 207.73 32.6196C207.803 33.6344 207.619 34.8121 207.727 35.8061C207.759 36.0988 207.948 36.3681 208.233 36.4661C208.681 36.6193 211.315 36.5904 211.908 36.5393C212.487 36.4896 212.847 36.27 212.899 35.6557C212.96 34.946 212.967 33.5212 212.897 32.8198C212.848 32.3421 212.54 32.0329 212.06 31.9845H212.059Z" fill="#C1C0D8"/>
<path d="M203.596 23.8622C204.122 23.8723 204.521 24.2608 204.574 24.7799V30.0869C204.521 30.5474 204.179 30.9158 203.707 30.956H196.293C195.814 30.9142 195.466 30.534 195.426 30.0635L195.432 24.6878C195.516 24.1871 195.945 23.8405 196.454 23.8622C196.454 22.9395 196.374 22.0955 196.744 21.228C197.785 18.7864 201.002 18.3175 202.739 20.3287C203.628 21.3569 203.637 22.5627 203.596 23.8622ZM202.031 23.8622V22.3818C202.031 22.1859 201.851 21.7639 201.748 21.588C200.999 20.3371 199.164 20.2785 198.351 21.4909C197.864 22.2177 198.016 23.0316 197.995 23.8605H202.031V23.8622ZM199.529 27.4158C199.644 27.5582 199.56 28.5127 199.584 28.7673C199.633 29.2864 200.371 29.2864 200.438 28.789C200.475 28.5177 200.374 27.5766 200.488 27.4209C200.525 27.3706 200.619 27.3237 200.672 27.2634C201.046 26.8481 200.959 26.1984 200.465 25.9287C199.604 25.4598 198.695 26.4914 199.338 27.2517C199.388 27.3103 199.495 27.3773 199.527 27.4175L199.529 27.4158Z" fill="url(#paint2_linear_483_851)"/>
</g>
<defs>
<filter id="filter0_dddd_483_851" x="160.252" y="219.039" width="36.3133" height="73.2815" filterUnits="userSpaceOnUse" color-interpolation-filters="sRGB">
<feFlood flood-opacity="0" result="BackgroundImageFix"/>
<feColorMatrix in="SourceAlpha" type="matrix" values="0 0 0 0 0 0 0 0 0 0 0 0 0 0 0 0 0 0 127 0" result="hardAlpha"/>
<feOffset dy="2.69524"/>
<feGaussianBlur stdDeviation="2.69524"/>
<feColorMatrix type="matrix" values="0 0 0 0 0.639216 0 0 0 0 0.639216 0 0 0 0 0.639216 0 0 0 0.1 0"/>
<feBlend mode="normal" in2="BackgroundImageFix" result="effect1_dropShadow_483_851"/>
<feColorMatrix in="SourceAlpha" type="matrix" values="0 0 0 0 0 0 0 0 0 0 0 0 0 0 0 0 0 0 127 0" result="hardAlpha"/>
<feOffset dx="0.898413" dy="9.88254"/>
<feGaussianBlur stdDeviation="4.94127"/>
<feColorMatrix type="matrix" values="0 0 0 0 0.639216 0 0 0 0 0.639216 0 0 0 0 0.639216 0 0 0 0.09 0"/>
<feBlend mode="normal" in2="effect1_dropShadow_483_851" result="effect2_dropShadow_483_851"/>
<feColorMatrix in="SourceAlpha" type="matrix" values="0 0 0 0 0 0 0 0 0 0 0 0 0 0 0 0 0 0 127 0" result="hardAlpha"/>
<feOffset dx="1.79683" dy="23.3587"/>
<feGaussianBlur stdDeviation="6.7381"/>
<feColorMatrix type="matrix" values="0 0 0 0 0.639216 0 0 0 0 0.639216 0 0 0 0 0.639216 0 0 0 0.05 0"/>
<feBlend mode="normal" in2="effect2_dropShadow_483_851" result="effect3_dropShadow_483_851"/>
<feColorMatrix in="SourceAlpha" type="matrix" values="0 0 0 0 0 0 0 0 0 0 0 0 0 0 0 0 0 0 127 0" result="hardAlpha"/>
<feOffset dx="2.69524" dy="41.327"/>
<feGaussianBlur stdDeviation="8.08571"/>
<feColorMatrix type="matrix" values="0 0 0 0 0.639216 0 0 0 0 0.639216 0 0 0 0 0.639216 0 0 0 0.01 0"/>
<feBlend mode="normal" in2="effect3_dropShadow_483_851" result="effect4_dropShadow_483_851"/>
<feBlend mode="normal" in="SourceGraphic" in2="effect4_dropShadow_483_851" result="shape"/>
</filter>
<filter id="filter1_dddd_483_851" x="208.825" y="219.039" width="36.3133" height="73.2815" filterUnits="userSpaceOnUse" color-interpolation-filters="sRGB">
<feFlood flood-opacity="0" result="BackgroundImageFix"/>
<feColorMatrix in="SourceAlpha" type="matrix" values="0 0 0 0 0 0 0 0 0 0 0 0 0 0 0 0 0 0 127 0" result="hardAlpha"/>
<feOffset dy="2.69524"/>
<feGaussianBlur stdDeviation="2.69524"/>
<feColorMatrix type="matrix" values="0 0 0 0 0.639216 0 0 0 0 0.639216 0 0 0 0 0.639216 0 0 0 0.1 0"/>
<feBlend mode="normal" in2="BackgroundImageFix" result="effect1_dropShadow_483_851"/>
<feColorMatrix in="SourceAlpha" type="matrix" values="0 0 0 0 0 0 0 0 0 0 0 0 0 0 0 0 0 0 127 0" result="hardAlpha"/>
<feOffset dx="0.898413" dy="9.88254"/>
<feGaussianBlur stdDeviation="4.94127"/>
<feColorMatrix type="matrix" values="0 0 0 0 0.639216 0 0 0 0 0.639216 0 0 0 0 0.639216 0 0 0 0.09 0"/>
<feBlend mode="normal" in2="effect1_dropShadow_483_851" result="effect2_dropShadow_483_851"/>
<feColorMatrix in="SourceAlpha" type="matrix" values="0 0 0 0 0 0 0 0 0 0 0 0 0 0 0 0 0 0 127 0" result="hardAlpha"/>
<feOffset dx="1.79683" dy="23.3587"/>
<feGaussianBlur stdDeviation="6.7381"/>
<feColorMatrix type="matrix" values="0 0 0 0 0.639216 0 0 0 0 0.639216 0 0 0 0 0.639216 0 0 0 0.05 0"/>
<feBlend mode="normal" in2="effect2_dropShadow_483_851" result="effect3_dropShadow_483_851"/>
<feColorMatrix in="SourceAlpha" type="matrix" values="0 0 0 0 0 0 0 0 0 0 0 0 0 0 0 0 0 0 127 0" result="hardAlpha"/>
<feOffset dx="2.69524" dy="41.327"/>
<feGaussianBlur stdDeviation="8.08571"/>
<feColorMatrix type="matrix" values="0 0 0 0 0.639216 0 0 0 0 0.639216 0 0 0 0 0.639216 0 0 0 0.01 0"/>
<feBlend mode="normal" in2="effect3_dropShadow_483_851" result="effect4_dropShadow_483_851"/>
<feBlend mode="normal" in="SourceGraphic" in2="effect4_dropShadow_483_851" result="shape"/>
</filter>
<linearGradient id="paint0_linear_483_851" x1="2069.2" y1="1061.21" x2="-255.716" y2="-238.179" gradientUnits="userSpaceOnUse">
<stop stop-color="#473EF4"/>
<stop offset="1" stop-color="#EFEFF5"/>
</linearGradient>
<radialGradient id="paint1_radial_483_851" cx="0" cy="0" r="1" gradientUnits="userSpaceOnUse" gradientTransform="translate(200 225) rotate(-135) scale(91.3176)">
<stop stop-color="#473EF4"/>
<stop offset="0.485986" stop-color="#C0BEEE"/>
<stop offset="1" stop-color="#E0DFEC" stop-opacity="0"/>
</radialGradient>
<linearGradient id="paint2_linear_483_851" x1="191.665" y1="-24.3283" x2="209.584" y2="-23.6481" gradientUnits="userSpaceOnUse">
<stop stop-color="#F93C52"/>
<stop offset="1" stop-color="#2B21F3"/>
</linearGradient>
<clipPath id="clip0_483_851">
<rect width="26" height="23.2362" fill="white" transform="translate(187 13.3818)"/>
</clipPath>
</defs>
</svg>
