<svg width="390" height="285" viewBox="0 0 390 285" fill="none" xmlns="http://www.w3.org/2000/svg">
<g clip-path="url(#clip0_920_15)">
<path d="M326.088 87.6178L326.088 419.691L156.726 419.691L156.726 723.77L326.088 723.77L326.089 1136.76" stroke="#28273F" stroke-width="3.61555"/>
<rect x="282.429" y="121.034" width="87.3197" height="89.3347" rx="14.0103" fill="#28273F" stroke="url(#paint0_linear_920_15)" stroke-width="0.903888"/>
<rect x="281.977" y="120.582" width="88.2236" height="90.2386" rx="14.4622" fill="url(#paint1_linear_920_15)"/>
<rect x="284.993" y="123.86" width="81.8138" height="83.6824" rx="14.4622" fill="#141320"/>
<path d="M280.944 165.324H58.1024" stroke="#28273F" stroke-width="0.903888" stroke-linecap="round"/>
<path d="M325.769 303.69C325.946 303.866 326.232 303.866 326.408 303.69L329.284 300.813C329.461 300.637 329.461 300.351 329.284 300.174C329.108 299.998 328.822 299.998 328.645 300.174L326.089 302.731L323.532 300.174C323.356 299.998 323.069 299.998 322.893 300.174C322.716 300.351 322.716 300.637 322.893 300.813L325.769 303.69ZM326.541 303.37L326.541 209.789L325.637 209.789L325.637 303.37L326.541 303.37Z" fill="url(#paint2_linear_920_15)"/>
<rect x="303.491" y="244.507" width="47.0022" height="20.7534" rx="3.16361" fill="#28273F"/>
<rect x="303.491" y="244.507" width="47.0022" height="20.7534" rx="3.16361" stroke="#859900" stroke-width="0.903888"/>
<path d="M322.339 253.453C322.3 253.128 322.144 252.875 321.87 252.696C321.596 252.516 321.26 252.426 320.862 252.426C320.571 252.426 320.317 252.473 320.098 252.567C319.882 252.661 319.713 252.791 319.591 252.956C319.471 253.12 319.411 253.308 319.411 253.517C319.411 253.693 319.453 253.844 319.537 253.97C319.622 254.094 319.731 254.198 319.864 254.281C319.997 254.363 320.136 254.43 320.281 254.484C320.427 254.535 320.561 254.577 320.683 254.609L321.35 254.789C321.521 254.833 321.712 254.896 321.922 254.975C322.133 255.054 322.336 255.162 322.528 255.299C322.723 255.434 322.883 255.607 323.01 255.819C323.136 256.031 323.199 256.291 323.199 256.599C323.199 256.954 323.106 257.275 322.92 257.562C322.736 257.849 322.466 258.076 322.111 258.246C321.758 258.415 321.329 258.499 320.824 258.499C320.353 258.499 319.945 258.423 319.601 258.271C319.258 258.119 318.989 257.907 318.792 257.636C318.597 257.364 318.487 257.048 318.461 256.689L319.283 256.689C319.304 256.937 319.388 257.142 319.533 257.305C319.681 257.466 319.867 257.585 320.092 257.665C320.319 257.742 320.563 257.78 320.824 257.78C321.128 257.78 321.401 257.731 321.642 257.632C321.884 257.532 322.076 257.393 322.217 257.215C322.358 257.035 322.429 256.826 322.429 256.586C322.429 256.368 322.368 256.19 322.246 256.053C322.124 255.916 321.963 255.805 321.764 255.719C321.565 255.634 321.35 255.559 321.119 255.495L320.31 255.264C319.797 255.116 319.39 254.905 319.091 254.631C318.791 254.357 318.641 253.999 318.641 253.556C318.641 253.188 318.741 252.867 318.94 252.593C319.141 252.317 319.41 252.103 319.749 251.951C320.089 251.797 320.469 251.72 320.888 251.72C321.312 251.72 321.688 251.796 322.018 251.948C322.347 252.098 322.608 252.303 322.801 252.564C322.996 252.825 323.099 253.122 323.109 253.453L322.339 253.453ZM325.494 258.499C325.182 258.499 324.899 258.44 324.644 258.323C324.389 258.203 324.187 258.03 324.037 257.806C323.887 257.579 323.813 257.305 323.813 256.984C323.813 256.702 323.868 256.473 323.979 256.297C324.091 256.12 324.239 255.98 324.426 255.88C324.612 255.779 324.817 255.704 325.042 255.655C325.269 255.604 325.497 255.563 325.726 255.533C326.025 255.495 326.268 255.466 326.454 255.447C326.643 255.425 326.779 255.39 326.865 255.341C326.953 255.291 326.997 255.206 326.997 255.084L326.997 255.058C326.997 254.741 326.91 254.495 326.737 254.32C326.565 254.144 326.305 254.057 325.957 254.057C325.595 254.057 325.312 254.136 325.106 254.294C324.901 254.453 324.756 254.622 324.673 254.801L323.954 254.545C324.082 254.245 324.253 254.012 324.467 253.845C324.683 253.676 324.919 253.558 325.173 253.492C325.43 253.423 325.683 253.389 325.931 253.389C326.089 253.389 326.271 253.408 326.477 253.447C326.684 253.483 326.884 253.559 327.077 253.675C327.272 253.79 327.433 253.965 327.562 254.198C327.69 254.431 327.754 254.744 327.754 255.135L327.754 258.384L326.997 258.384L326.997 257.716L326.958 257.716C326.907 257.823 326.821 257.937 326.701 258.059C326.582 258.181 326.422 258.285 326.223 258.371C326.024 258.456 325.781 258.499 325.494 258.499ZM325.61 257.819C325.91 257.819 326.162 257.76 326.368 257.642C326.575 257.524 326.731 257.372 326.836 257.186C326.943 257 326.997 256.804 326.997 256.599L326.997 255.906C326.965 255.944 326.894 255.979 326.785 256.011C326.678 256.041 326.554 256.068 326.412 256.092C326.273 256.113 326.138 256.132 326.005 256.15C325.874 256.164 325.768 256.177 325.687 256.188C325.49 256.214 325.306 256.255 325.135 256.313C324.966 256.369 324.829 256.453 324.724 256.567C324.621 256.678 324.57 256.83 324.57 257.023C324.57 257.286 324.667 257.485 324.862 257.62C325.059 257.752 325.308 257.819 325.61 257.819ZM330.971 253.453L330.971 254.095L328.313 254.095L328.313 253.453L330.971 253.453ZM329.109 258.384L329.109 252.773C329.109 252.49 329.175 252.255 329.308 252.067C329.441 251.878 329.613 251.737 329.825 251.643C330.037 251.549 330.26 251.502 330.496 251.502C330.682 251.502 330.834 251.517 330.952 251.547C331.069 251.577 331.157 251.604 331.215 251.63L330.996 252.285C330.958 252.272 330.904 252.256 330.836 252.237C330.77 252.217 330.682 252.208 330.573 252.208C330.322 252.208 330.142 252.271 330.03 252.397C329.921 252.523 329.867 252.709 329.867 252.953L329.867 258.384L329.109 258.384ZM333.535 258.486C333.06 258.486 332.65 258.381 332.306 258.172C331.963 257.96 331.699 257.665 331.513 257.286C331.329 256.905 331.237 256.462 331.237 255.957C331.237 255.452 331.329 255.007 331.513 254.622C331.699 254.234 331.958 253.933 332.29 253.716C332.623 253.498 333.013 253.389 333.458 253.389C333.715 253.389 333.968 253.432 334.219 253.517C334.469 253.603 334.697 253.742 334.902 253.935C335.108 254.125 335.272 254.378 335.393 254.692C335.515 255.007 335.576 255.394 335.576 255.854L335.576 256.175L331.776 256.175L331.776 255.52L334.806 255.52C334.806 255.242 334.75 254.994 334.639 254.776C334.53 254.557 334.374 254.385 334.171 254.259C333.969 254.133 333.732 254.07 333.458 254.07C333.156 254.07 332.895 254.144 332.675 254.294C332.457 254.442 332.289 254.634 332.171 254.872C332.053 255.11 331.994 255.364 331.994 255.636L331.994 256.072C331.994 256.445 332.058 256.76 332.187 257.019C332.317 257.276 332.498 257.472 332.729 257.607C332.96 257.739 333.229 257.806 333.535 257.806C333.734 257.806 333.914 257.778 334.074 257.722C334.237 257.665 334.377 257.579 334.495 257.466C334.612 257.35 334.703 257.207 334.768 257.035L335.499 257.241C335.422 257.489 335.293 257.707 335.111 257.896C334.929 258.082 334.704 258.227 334.437 258.332C334.169 258.435 333.869 258.486 333.535 258.486Z" fill="#EFEFF5"/>
<g clip-path="url(#clip1_920_15)">
<path d="M309.45 148.243L323.908 148.213C324.486 148.115 324.844 147.732 324.925 147.154C325.05 146.29 325.014 144.272 324.946 143.362C324.904 142.803 324.741 142.333 324.182 142.118C319.339 141.882 314.449 142.08 309.59 142.016C308.954 142.076 308.551 142.322 308.304 142.914V147.343C308.536 147.894 308.835 148.179 309.448 148.242L309.45 148.243Z" fill="#4F4E7E"/>
<path d="M323.908 158.934L309.586 158.9C308.909 158.953 308.584 159.188 308.306 159.802V164.231C308.468 164.586 308.686 164.886 309.07 165.025C313.886 165.269 318.759 165.059 323.596 165.133C324.501 165.061 324.879 164.691 324.948 163.783C325.016 162.875 325.052 160.857 324.927 159.993C324.844 159.415 324.488 159.032 323.909 158.934H323.908Z" fill="#4F4E7E"/>
<path d="M333.094 167.344L318.759 167.364C318.229 167.432 317.792 167.889 317.736 168.42C317.641 169.299 317.634 171.629 317.743 172.495C317.845 173.294 318.484 173.568 319.222 173.579C323.69 173.32 328.529 173.911 332.954 173.579C333.771 173.517 334.3 173.249 334.374 172.367C334.451 171.455 334.483 169.23 334.366 168.357C334.285 167.763 333.687 167.313 333.094 167.346V167.344Z" fill="#4F4E7E"/>
<path d="M328.512 148.247L342.59 148.247C343.287 148.211 343.741 147.807 343.804 147.105C343.885 146.193 343.913 143.9 343.794 143.026C343.694 142.289 343.034 142.057 342.382 142.012C337.857 141.7 332.957 142.235 328.395 142.036C327.653 142.074 327.236 142.493 327.162 143.228C327.073 144.109 327.063 146.229 327.169 147.096C327.26 147.845 327.771 148.236 328.51 148.249L328.512 148.247Z" fill="#4F4E7E"/>
<path d="M334.375 155.479C334.455 154.554 334.479 152.436 334.366 151.539C334.271 150.79 333.666 150.463 332.955 150.456L318.898 150.478C318.246 150.539 317.804 150.945 317.736 151.602C317.643 152.517 317.635 154.703 317.743 155.608C317.828 156.325 318.395 156.672 319.084 156.691L333.093 156.691C333.861 156.625 334.309 156.259 334.375 155.479Z" fill="#4F4E7E"/>
<path d="M342.452 158.9L328.255 158.92C327.585 159.021 327.23 159.453 327.164 160.114C327.075 160.993 327.065 163.115 327.171 163.982C327.275 164.829 327.799 165.08 328.582 165.135C333.077 165.445 337.921 164.895 342.454 165.135C343.183 165.078 343.736 164.776 343.806 163.993C343.887 163.079 343.915 160.789 343.796 159.913C343.709 159.27 343.078 158.871 342.454 158.9H342.452Z" fill="#4F4E7E"/>
<path d="M309.656 156.689C310.809 156.787 313.16 156.8 314.302 156.685C314.896 156.625 315.389 156.313 315.45 155.687C315.542 154.732 315.561 152.325 315.448 151.39C315.372 150.763 314.797 150.51 314.232 150.46C313.129 150.356 310.618 150.342 309.539 150.478C308.916 150.556 308.465 150.892 308.383 151.539C308.272 152.413 308.287 154.65 308.376 155.545C308.449 156.283 308.939 156.629 309.656 156.691V156.689Z" fill="#4F4E7E"/>
<path d="M336.658 155.755C336.733 156.376 337.318 156.642 337.87 156.689C339.023 156.787 341.376 156.8 342.516 156.685C343.251 156.612 343.669 156.211 343.732 155.477C343.815 154.512 343.824 152.555 343.728 151.6C343.652 150.856 343.153 150.524 342.446 150.458C341.343 150.354 338.832 150.341 337.753 150.476C337.218 150.543 336.805 150.778 336.663 151.326C336.779 152.717 336.493 154.397 336.658 155.753V155.755Z" fill="#4F4E7E"/>
<path d="M314.302 167.347C312.764 167.193 310.964 167.446 309.399 167.364C308.809 167.451 308.434 167.902 308.376 168.489C308.281 169.43 308.281 171.495 308.376 172.433C308.457 173.23 308.99 173.513 309.728 173.575C310.539 173.643 314.143 173.685 314.756 173.475C315.145 173.341 315.404 172.973 315.448 172.573C315.552 171.597 315.546 169.331 315.451 168.348C315.391 167.719 314.897 167.408 314.304 167.349L314.302 167.347Z" fill="#4F4E7E"/>
<path d="M342.586 167.347C341.538 167.242 338.693 167.219 337.683 167.364C337.193 167.434 336.781 167.725 336.664 168.216C336.764 169.603 336.512 171.214 336.66 172.573C336.703 172.973 336.962 173.341 337.352 173.475C337.965 173.685 341.569 173.645 342.38 173.575C343.172 173.507 343.664 173.207 343.736 172.367C343.819 171.397 343.828 169.448 343.732 168.489C343.666 167.836 343.244 167.413 342.588 167.347H342.586Z" fill="#4F4E7E"/>
<path d="M333.181 151.203C333.154 151.03 333.013 150.893 332.831 150.861L326.167 149.699C326.115 149.69 326.062 149.69 326.01 149.699L319.347 150.861C319.164 150.893 319.024 151.03 318.996 151.203C318.968 151.381 318.316 155.608 319.626 159.264C320.952 162.964 325.659 165.775 325.859 165.893C325.929 165.934 326.009 165.955 326.088 165.955C326.168 165.955 326.248 165.934 326.318 165.893C326.518 165.775 331.225 162.964 332.551 159.264C333.862 155.608 333.21 151.381 333.181 151.203Z" fill="#EFEFF5"/>
</g>
<path d="M299.384 187.286L297.587 180.712H298.396L299.769 186.066H299.834L301.233 180.712H302.132L303.531 186.066H303.596L304.969 180.712L305.778 180.712L303.981 187.286H303.159L301.708 182.047H301.657L300.206 187.286H299.384ZM307.298 187.401C306.985 187.401 306.702 187.342 306.447 187.225C306.192 187.105 305.99 186.933 305.84 186.708C305.691 186.481 305.616 186.207 305.616 185.886C305.616 185.604 305.671 185.375 305.783 185.199C305.894 185.022 306.043 184.883 306.229 184.782C306.415 184.682 306.62 184.607 306.845 184.557C307.072 184.506 307.3 184.465 307.529 184.435C307.828 184.397 308.071 184.368 308.257 184.349C308.446 184.327 308.583 184.292 308.668 184.243C308.756 184.194 308.8 184.108 308.8 183.986V183.96C308.8 183.644 308.713 183.398 308.54 183.222C308.369 183.047 308.109 182.959 307.76 182.959C307.398 182.959 307.115 183.038 306.909 183.196C306.704 183.355 306.559 183.524 306.476 183.704L305.757 183.447C305.885 183.147 306.056 182.914 306.27 182.747C306.487 182.578 306.722 182.46 306.977 182.394C307.233 182.326 307.486 182.291 307.734 182.291C307.893 182.291 308.074 182.311 308.28 182.349C308.487 182.385 308.687 182.461 308.88 182.577C309.075 182.692 309.236 182.867 309.365 183.1C309.493 183.333 309.557 183.646 309.557 184.037V187.286H308.8V186.618H308.761C308.71 186.725 308.624 186.84 308.505 186.962C308.385 187.084 308.225 187.187 308.026 187.273C307.827 187.359 307.584 187.401 307.298 187.401ZM307.413 186.721C307.713 186.721 307.965 186.662 308.171 186.544C308.378 186.427 308.534 186.275 308.639 186.088C308.746 185.902 308.8 185.707 308.8 185.501V184.808C308.768 184.846 308.697 184.882 308.588 184.914C308.481 184.944 308.357 184.97 308.216 184.994C308.077 185.015 307.941 185.035 307.808 185.052C307.677 185.067 307.572 185.08 307.49 185.09C307.293 185.116 307.109 185.158 306.938 185.215C306.769 185.271 306.632 185.356 306.527 185.469C306.425 185.58 306.373 185.732 306.373 185.925C306.373 186.188 306.471 186.387 306.665 186.522C306.862 186.654 307.111 186.721 307.413 186.721ZM311.336 180.712V187.286H310.578V180.712H311.336ZM313.119 180.712V187.286H312.362V180.712H313.119ZM316.212 187.388C315.737 187.388 315.328 187.284 314.983 187.074C314.641 186.862 314.376 186.567 314.19 186.188C314.006 185.807 313.914 185.364 313.914 184.859C313.914 184.354 314.006 183.909 314.19 183.524C314.376 183.137 314.635 182.835 314.967 182.619C315.301 182.4 315.69 182.291 316.135 182.291C316.392 182.291 316.646 182.334 316.896 182.42C317.146 182.505 317.374 182.644 317.58 182.837C317.785 183.027 317.949 183.28 318.071 183.594C318.193 183.909 318.254 184.296 318.254 184.756V185.077H314.453V184.423H317.483C317.483 184.144 317.428 183.896 317.317 183.678C317.207 183.46 317.051 183.287 316.848 183.161C316.647 183.035 316.409 182.972 316.135 182.972C315.834 182.972 315.573 183.047 315.352 183.196C315.134 183.344 314.966 183.537 314.848 183.774C314.731 184.012 314.672 184.266 314.672 184.538V184.975C314.672 185.347 314.736 185.663 314.864 185.922C314.995 186.178 315.176 186.374 315.407 186.509C315.638 186.642 315.906 186.708 316.212 186.708C316.411 186.708 316.591 186.68 316.752 186.625C316.914 186.567 317.054 186.481 317.172 186.368C317.29 186.252 317.381 186.109 317.445 185.938L318.177 186.143C318.1 186.391 317.97 186.61 317.788 186.798C317.607 186.984 317.382 187.13 317.114 187.234C316.847 187.337 316.546 187.388 316.212 187.388ZM320.906 187.388C320.495 187.388 320.133 187.285 319.818 187.077C319.504 186.867 319.258 186.572 319.08 186.191C318.902 185.808 318.813 185.356 318.813 184.833C318.813 184.316 318.902 183.866 319.08 183.485C319.258 183.104 319.505 182.81 319.821 182.603C320.138 182.395 320.504 182.291 320.919 182.291C321.24 182.291 321.494 182.345 321.68 182.452C321.868 182.557 322.012 182.676 322.11 182.811C322.211 182.944 322.289 183.053 322.344 183.139H322.409V180.712H323.166V187.286H322.434V186.528H322.344C322.289 186.618 322.209 186.732 322.107 186.868C322.004 187.003 321.857 187.124 321.667 187.231C321.477 187.336 321.223 187.388 320.906 187.388ZM321.009 186.708C321.313 186.708 321.57 186.629 321.779 186.47C321.989 186.31 322.149 186.088 322.258 185.806C322.367 185.521 322.421 185.193 322.421 184.821C322.421 184.453 322.368 184.131 322.261 183.854C322.154 183.576 321.996 183.36 321.786 183.206C321.576 183.05 321.317 182.972 321.009 182.972C320.688 182.972 320.421 183.054 320.207 183.219C319.995 183.382 319.835 183.603 319.728 183.883C319.623 184.162 319.571 184.474 319.571 184.821C319.571 185.172 319.625 185.49 319.732 185.777C319.841 186.062 320.001 186.289 320.213 186.458C320.427 186.625 320.692 186.708 321.009 186.708ZM326.58 187.286V180.712H328.802C329.317 180.712 329.739 180.805 330.066 180.991C330.396 181.175 330.64 181.425 330.798 181.739C330.956 182.054 331.036 182.405 331.036 182.792C331.036 183.179 330.956 183.531 330.798 183.848C330.642 184.165 330.4 184.417 330.073 184.606C329.745 184.792 329.326 184.885 328.814 184.885H327.222V184.179H328.789C329.142 184.179 329.425 184.118 329.639 183.996C329.853 183.874 330.008 183.709 330.105 183.501C330.203 183.292 330.252 183.055 330.252 182.792C330.252 182.529 330.203 182.293 330.105 182.086C330.008 181.878 329.852 181.716 329.636 181.598C329.42 181.478 329.133 181.418 328.776 181.418H327.376V187.286H326.58ZM331.854 187.286V182.355H332.586V183.1H332.637C332.727 182.856 332.889 182.658 333.125 182.506C333.36 182.354 333.626 182.278 333.921 182.278C333.976 182.278 334.046 182.279 334.129 182.282C334.213 182.284 334.276 182.287 334.319 182.291V183.062C334.293 183.055 334.234 183.046 334.142 183.033C334.052 183.018 333.957 183.01 333.857 183.01C333.617 183.01 333.403 183.061 333.215 183.161C333.028 183.26 332.881 183.397 332.772 183.572C332.665 183.745 332.611 183.943 332.611 184.166V187.286H331.854ZM336.708 187.388C336.263 187.388 335.872 187.283 335.537 187.071C335.203 186.859 334.942 186.562 334.753 186.182C334.567 185.801 334.474 185.356 334.474 184.846C334.474 184.333 334.567 183.884 334.753 183.501C334.942 183.118 335.203 182.821 335.537 182.609C335.872 182.397 336.263 182.291 336.708 182.291C337.153 182.291 337.543 182.397 337.876 182.609C338.212 182.821 338.474 183.118 338.66 183.501C338.848 183.884 338.942 184.333 338.942 184.846C338.942 185.356 338.848 185.801 338.66 186.182C338.474 186.562 338.212 186.859 337.876 187.071C337.543 187.283 337.153 187.388 336.708 187.388ZM336.708 186.708C337.046 186.708 337.324 186.621 337.543 186.448C337.761 186.275 337.923 186.047 338.027 185.764C338.132 185.482 338.185 185.176 338.185 184.846C338.185 184.517 338.132 184.21 338.027 183.925C337.923 183.64 337.761 183.41 337.543 183.235C337.324 183.059 337.046 182.972 336.708 182.972C336.37 182.972 336.092 183.059 335.874 183.235C335.655 183.41 335.494 183.64 335.389 183.925C335.284 184.21 335.232 184.517 335.232 184.846C335.232 185.176 335.284 185.482 335.389 185.764C335.494 186.047 335.655 186.275 335.874 186.448C336.092 186.621 336.37 186.708 336.708 186.708ZM341.881 182.355V182.997H339.326V182.355H341.881ZM340.071 181.174H340.828V185.873C340.828 186.087 340.859 186.248 340.921 186.355C340.986 186.46 341.067 186.53 341.165 186.567C341.266 186.601 341.372 186.618 341.483 186.618C341.567 186.618 341.635 186.614 341.689 186.605C341.742 186.595 341.785 186.586 341.817 186.58L341.971 187.26C341.92 187.279 341.848 187.299 341.756 187.318C341.664 187.339 341.547 187.35 341.406 187.35C341.192 187.35 340.982 187.304 340.777 187.212C340.574 187.12 340.405 186.98 340.27 186.791C340.137 186.603 340.071 186.366 340.071 186.079V181.174ZM344.673 187.388C344.198 187.388 343.788 187.284 343.444 187.074C343.101 186.862 342.837 186.567 342.651 186.188C342.467 185.807 342.375 185.364 342.375 184.859C342.375 184.354 342.467 183.909 342.651 183.524C342.837 183.137 343.096 182.835 343.428 182.619C343.762 182.4 344.151 182.291 344.596 182.291C344.853 182.291 345.107 182.334 345.357 182.42C345.607 182.505 345.835 182.644 346.041 182.837C346.246 183.027 346.41 183.28 346.532 183.594C346.654 183.909 346.715 184.296 346.715 184.756V185.077H342.914V184.423H345.944C345.944 184.144 345.889 183.896 345.777 183.678C345.668 183.46 345.512 183.287 345.309 183.161C345.108 183.035 344.87 182.972 344.596 182.972C344.294 182.972 344.033 183.047 343.813 183.196C343.595 183.344 343.427 183.537 343.309 183.774C343.191 184.012 343.132 184.266 343.132 184.538V184.975C343.132 185.347 343.197 185.663 343.325 185.922C343.456 186.178 343.636 186.374 343.868 186.509C344.099 186.642 344.367 186.708 344.673 186.708C344.872 186.708 345.052 186.68 345.212 186.625C345.375 186.567 345.515 186.481 345.633 186.368C345.751 186.252 345.842 186.109 345.906 185.938L346.638 186.143C346.561 186.391 346.431 186.61 346.249 186.798C346.067 186.984 345.843 187.13 345.575 187.234C345.308 187.337 345.007 187.388 344.673 187.388ZM349.508 187.388C349.046 187.388 348.648 187.279 348.314 187.061C347.98 186.843 347.724 186.542 347.544 186.159C347.364 185.776 347.274 185.338 347.274 184.846C347.274 184.346 347.366 183.904 347.55 183.521C347.737 183.135 347.995 182.835 348.327 182.619C348.661 182.4 349.05 182.291 349.496 182.291C349.842 182.291 350.155 182.355 350.433 182.484C350.711 182.612 350.939 182.792 351.116 183.023C351.294 183.254 351.404 183.524 351.447 183.832H350.69C350.632 183.607 350.503 183.408 350.304 183.235C350.108 183.059 349.842 182.972 349.508 182.972C349.213 182.972 348.954 183.049 348.732 183.203C348.511 183.355 348.339 183.57 348.215 183.848C348.093 184.124 348.032 184.448 348.032 184.821C348.032 185.202 348.092 185.533 348.212 185.816C348.334 186.098 348.505 186.317 348.725 186.474C348.948 186.63 349.209 186.708 349.508 186.708C349.705 186.708 349.884 186.674 350.044 186.605C350.205 186.537 350.341 186.438 350.452 186.31C350.563 186.182 350.643 186.028 350.69 185.848H351.447C351.404 186.139 351.298 186.401 351.129 186.634C350.962 186.865 350.741 187.049 350.465 187.186C350.191 187.321 349.872 187.388 349.508 187.388ZM354.337 182.355V182.997H351.782V182.355H354.337ZM352.527 181.174H353.284V185.873C353.284 186.087 353.315 186.248 353.377 186.355C353.442 186.46 353.523 186.53 353.621 186.567C353.722 186.601 353.828 186.618 353.939 186.618C354.023 186.618 354.091 186.614 354.145 186.605C354.198 186.595 354.241 186.586 354.273 186.58L354.427 187.26C354.376 187.279 354.304 187.299 354.212 187.318C354.12 187.339 354.003 187.35 353.862 187.35C353.648 187.35 353.438 187.304 353.233 187.212C353.03 187.12 352.861 186.98 352.726 186.791C352.593 186.603 352.527 186.366 352.527 186.079V181.174Z" fill="#E0DFEC"/>
<path opacity="0.3" d="M325.769 121.934C325.946 122.111 326.232 122.111 326.408 121.934L329.284 119.058C329.461 118.881 329.461 118.595 329.284 118.419C329.108 118.242 328.822 118.242 328.645 118.419L326.089 120.975L323.532 118.419C323.356 118.242 323.069 118.242 322.893 118.419C322.716 118.595 322.716 118.881 322.893 119.058L325.769 121.934ZM326.541 121.615L326.541 86.9888L325.637 86.9888L325.637 121.615L326.541 121.615Z" fill="url(#paint3_linear_920_15)"/>
<path d="M68.6175 165.005C68.441 165.181 68.441 165.468 68.6175 165.644L71.4937 168.52C71.6702 168.697 71.9563 168.697 72.1328 168.52C72.3093 168.344 72.3093 168.058 72.1328 167.881L69.5762 165.324L72.1328 162.768C72.3093 162.591 72.3093 162.305 72.1328 162.129C71.9563 161.952 71.6702 161.952 71.4937 162.129L68.6175 165.005ZM68.9371 165.776H280.944V164.873H68.9371V165.776Z" fill="url(#paint4_linear_920_15)"/>
<rect x="147.546" y="118.028" width="56.945" height="20.7534" rx="3.16361" fill="#28273F"/>
<rect x="147.546" y="118.028" width="56.945" height="20.7534" rx="3.16361" stroke="#CC9900" stroke-width="0.903888"/>
<path d="M166.973 125.33H167.769V129.683C167.769 130.132 167.664 130.534 167.452 130.887C167.242 131.238 166.946 131.515 166.563 131.718C166.18 131.919 165.73 132.02 165.214 132.02C164.699 132.02 164.249 131.919 163.866 131.718C163.483 131.515 163.186 131.238 162.974 130.887C162.764 130.534 162.659 130.132 162.659 129.683V125.33H163.455V129.619C163.455 129.94 163.526 130.225 163.667 130.476C163.809 130.724 164.01 130.92 164.271 131.063C164.534 131.204 164.848 131.275 165.214 131.275C165.58 131.275 165.895 131.204 166.158 131.063C166.421 130.92 166.622 130.724 166.762 130.476C166.903 130.225 166.973 129.94 166.973 129.619V125.33ZM169.652 128.938L169.652 131.904H168.895V126.974H169.627V127.744H169.691C169.806 127.494 169.982 127.293 170.217 127.141C170.453 126.987 170.757 126.91 171.129 126.91C171.463 126.91 171.755 126.978 172.005 127.115C172.256 127.25 172.45 127.455 172.589 127.731C172.728 128.005 172.798 128.352 172.798 128.771L172.798 131.904H172.04L172.04 128.823C172.04 128.435 171.94 128.134 171.739 127.918C171.538 127.699 171.262 127.59 170.911 127.59C170.669 127.59 170.453 127.643 170.262 127.747C170.074 127.852 169.925 128.005 169.816 128.206C169.707 128.408 169.652 128.652 169.652 128.938ZM177.313 128.078L176.632 128.271C176.59 128.157 176.527 128.047 176.443 127.94C176.362 127.831 176.251 127.741 176.109 127.67C175.968 127.6 175.787 127.564 175.567 127.564C175.265 127.564 175.014 127.634 174.813 127.773C174.614 127.91 174.514 128.084 174.514 128.296C174.514 128.485 174.582 128.633 174.719 128.742C174.856 128.852 175.07 128.943 175.361 129.015L176.093 129.195C176.534 129.302 176.863 129.466 177.079 129.686C177.295 129.904 177.403 130.186 177.403 130.53C177.403 130.813 177.322 131.065 177.159 131.288C176.998 131.51 176.774 131.686 176.485 131.814C176.196 131.943 175.86 132.007 175.477 132.007C174.974 132.007 174.558 131.898 174.228 131.679C173.899 131.461 173.69 131.142 173.602 130.723L174.321 130.543C174.39 130.809 174.519 131.008 174.71 131.14C174.902 131.273 175.154 131.339 175.464 131.339C175.817 131.339 176.098 131.264 176.305 131.115C176.515 130.963 176.62 130.781 176.62 130.569C176.62 130.398 176.56 130.254 176.44 130.139C176.32 130.021 176.136 129.933 175.888 129.876L175.066 129.683C174.615 129.576 174.283 129.41 174.071 129.185C173.861 128.959 173.756 128.675 173.756 128.335C173.756 128.057 173.835 127.811 173.991 127.597C174.149 127.383 174.364 127.215 174.636 127.093C174.91 126.971 175.22 126.91 175.567 126.91C176.055 126.91 176.438 127.017 176.716 127.231C176.996 127.445 177.195 127.727 177.313 128.078ZM179.632 132.02C179.32 132.02 179.036 131.961 178.782 131.843C178.527 131.723 178.325 131.551 178.175 131.326C178.025 131.1 177.95 130.826 177.95 130.505C177.95 130.222 178.006 129.993 178.117 129.818C178.229 129.64 178.377 129.501 178.564 129.401C178.75 129.3 178.955 129.225 179.18 129.176C179.407 129.124 179.635 129.084 179.864 129.054C180.163 129.015 180.406 128.986 180.592 128.967C180.78 128.946 180.917 128.91 181.003 128.861C181.091 128.812 181.135 128.726 181.135 128.604V128.579C181.135 128.262 181.048 128.016 180.875 127.841C180.703 127.665 180.443 127.577 180.095 127.577C179.733 127.577 179.449 127.656 179.244 127.815C179.039 127.973 178.894 128.142 178.811 128.322L178.092 128.065C178.22 127.766 178.391 127.532 178.605 127.365C178.821 127.196 179.057 127.079 179.311 127.012C179.568 126.944 179.821 126.91 180.069 126.91C180.227 126.91 180.409 126.929 180.615 126.967C180.822 127.004 181.022 127.08 181.215 127.195C181.41 127.311 181.571 127.485 181.7 127.719C181.828 127.952 181.892 128.264 181.892 128.656V131.904H181.135V131.237H181.096C181.045 131.344 180.959 131.458 180.839 131.58C180.719 131.702 180.56 131.806 180.361 131.891C180.162 131.977 179.919 132.02 179.632 132.02ZM179.748 131.339C180.048 131.339 180.3 131.28 180.506 131.163C180.713 131.045 180.869 130.893 180.974 130.707C181.081 130.521 181.135 130.325 181.135 130.12V129.426C181.103 129.465 181.032 129.5 180.923 129.532C180.816 129.562 180.692 129.589 180.55 129.612C180.411 129.634 180.275 129.653 180.143 129.67C180.012 129.685 179.906 129.698 179.825 129.709C179.628 129.734 179.444 129.776 179.273 129.834C179.104 129.889 178.967 129.974 178.862 130.087C178.759 130.199 178.708 130.351 178.708 130.543C178.708 130.806 178.805 131.005 179 131.14C179.197 131.273 179.446 131.339 179.748 131.339ZM185.109 126.974V127.616L182.451 127.616V126.974L185.109 126.974ZM183.247 131.904V126.293C183.247 126.011 183.313 125.776 183.446 125.587C183.579 125.399 183.751 125.258 183.963 125.164C184.175 125.069 184.398 125.022 184.634 125.022C184.82 125.022 184.972 125.037 185.089 125.067C185.207 125.097 185.295 125.125 185.353 125.151L185.134 125.805C185.096 125.793 185.042 125.777 184.974 125.757C184.908 125.738 184.82 125.728 184.711 125.728C184.46 125.728 184.28 125.792 184.168 125.918C184.059 126.044 184.005 126.229 184.005 126.473V131.904H183.247ZM187.673 132.007C187.198 132.007 186.788 131.902 186.444 131.692C186.101 131.48 185.837 131.185 185.651 130.806C185.467 130.426 185.375 129.983 185.375 129.478C185.375 128.973 185.467 128.527 185.651 128.142C185.837 127.755 186.096 127.453 186.428 127.237C186.761 127.019 187.151 126.91 187.596 126.91C187.853 126.91 188.106 126.952 188.357 127.038C188.607 127.124 188.835 127.263 189.04 127.455C189.246 127.646 189.409 127.898 189.531 128.213C189.653 128.527 189.714 128.915 189.714 129.375V129.696L185.914 129.696V129.041L188.944 129.041C188.944 128.763 188.888 128.515 188.777 128.296C188.668 128.078 188.512 127.906 188.309 127.78C188.107 127.653 187.87 127.59 187.596 127.59C187.294 127.59 187.033 127.665 186.813 127.815C186.594 127.963 186.426 128.155 186.309 128.393C186.191 128.63 186.132 128.885 186.132 129.157V129.593C186.132 129.965 186.196 130.281 186.325 130.54C186.455 130.797 186.636 130.993 186.867 131.127C187.098 131.26 187.367 131.326 187.673 131.326C187.872 131.326 188.052 131.299 188.212 131.243C188.375 131.185 188.515 131.1 188.633 130.986C188.75 130.871 188.841 130.727 188.906 130.556L189.637 130.761C189.56 131.01 189.431 131.228 189.249 131.416C189.067 131.602 188.842 131.748 188.575 131.853C188.307 131.956 188.007 132.007 187.673 132.007Z" fill="#EFEFF5"/>
<rect x="111.842" y="147.51" width="128.352" height="34.2907" rx="3.61555" fill="#28273F"/>
<path d="M127.995 169.757L127.995 159.897H130.276V160.652H128.858L128.858 169.002H130.276V169.757H127.995ZM135.235 163.564L134.419 163.795C134.367 163.659 134.292 163.526 134.192 163.398C134.094 163.267 133.96 163.159 133.791 163.074C133.621 162.99 133.404 162.947 133.14 162.947C132.778 162.947 132.476 163.031 132.235 163.198C131.996 163.362 131.877 163.571 131.877 163.825C131.877 164.051 131.959 164.23 132.123 164.361C132.287 164.492 132.544 164.601 132.893 164.688L133.772 164.904C134.301 165.032 134.695 165.229 134.954 165.493C135.214 165.755 135.343 166.093 135.343 166.506C135.343 166.845 135.246 167.148 135.05 167.415C134.858 167.682 134.588 167.893 134.242 168.047C133.895 168.201 133.492 168.278 133.032 168.278C132.429 168.278 131.929 168.147 131.534 167.885C131.138 167.623 130.888 167.241 130.783 166.737L131.645 166.522C131.728 166.84 131.883 167.079 132.112 167.238C132.343 167.397 132.644 167.477 133.017 167.477C133.44 167.477 133.777 167.387 134.026 167.207C134.278 167.025 134.403 166.807 134.403 166.553C134.403 166.347 134.331 166.175 134.188 166.036C134.044 165.895 133.823 165.79 133.525 165.721L132.539 165.489C131.997 165.361 131.599 165.162 131.345 164.892C131.093 164.62 130.968 164.28 130.968 163.872C130.968 163.538 131.061 163.243 131.249 162.986C131.439 162.729 131.697 162.527 132.023 162.381C132.352 162.235 132.724 162.162 133.14 162.162C133.725 162.162 134.185 162.29 134.519 162.547C134.855 162.803 135.094 163.142 135.235 163.564ZM138.681 168.278C138.147 168.278 137.678 168.151 137.275 167.897C136.875 167.643 136.561 167.287 136.335 166.83C136.112 166.373 136 165.839 136 165.228C136 164.611 136.112 164.073 136.335 163.614C136.561 163.154 136.875 162.797 137.275 162.543C137.678 162.289 138.147 162.162 138.681 162.162C139.215 162.162 139.683 162.289 140.083 162.543C140.486 162.797 140.8 163.154 141.023 163.614C141.249 164.073 141.362 164.611 141.362 165.228C141.362 165.839 141.249 166.373 141.023 166.83C140.8 167.287 140.486 167.643 140.083 167.897C139.683 168.151 139.215 168.278 138.681 168.278ZM138.681 167.462C139.087 167.462 139.421 167.358 139.683 167.15C139.945 166.942 140.138 166.668 140.264 166.329C140.39 165.99 140.453 165.623 140.453 165.228C140.453 164.832 140.39 164.464 140.264 164.122C140.138 163.781 139.945 163.505 139.683 163.294C139.421 163.083 139.087 162.978 138.681 162.978C138.275 162.978 137.942 163.083 137.68 163.294C137.418 163.505 137.224 163.781 137.098 164.122C136.972 164.464 136.909 164.832 136.909 165.228C136.909 165.623 136.972 165.99 137.098 166.329C137.224 166.668 137.418 166.942 137.68 167.15C137.942 167.358 138.275 167.462 138.681 167.462ZM142.316 168.155L142.316 162.239H143.194V163.132H143.256C143.363 162.839 143.559 162.602 143.841 162.42C144.124 162.237 144.442 162.146 144.796 162.146C144.863 162.146 144.947 162.147 145.047 162.15C145.147 162.153 145.223 162.156 145.274 162.162V163.086C145.243 163.078 145.173 163.067 145.062 163.051C144.954 163.033 144.84 163.024 144.719 163.024C144.432 163.024 144.175 163.085 143.949 163.205C143.726 163.323 143.548 163.488 143.417 163.698C143.289 163.906 143.225 164.144 143.225 164.411L143.225 168.155H142.316ZM145.918 168.155L145.918 162.239H146.796V163.132H146.857C146.965 162.839 147.16 162.602 147.443 162.42C147.725 162.237 148.044 162.146 148.398 162.146C148.465 162.146 148.548 162.147 148.649 162.15C148.749 162.153 148.824 162.156 148.876 162.162V163.086C148.845 163.078 148.774 163.067 148.664 163.051C148.556 163.033 148.442 163.024 148.321 163.024C148.034 163.024 147.777 163.085 147.551 163.205C147.327 163.323 147.15 163.488 147.019 163.698C146.891 163.906 146.827 164.144 146.827 164.411L146.827 168.155H145.918ZM150.285 170.374C150.131 170.374 149.994 170.361 149.873 170.335C149.752 170.312 149.669 170.289 149.623 170.266L149.854 169.465C150.074 169.521 150.27 169.542 150.439 169.526C150.609 169.511 150.759 169.435 150.89 169.299C151.023 169.165 151.145 168.948 151.256 168.648L151.425 168.186L149.237 162.239H150.223L151.857 166.953L151.918 166.953L153.551 162.239H154.537L152.026 169.018C151.913 169.323 151.773 169.576 151.606 169.777C151.439 169.979 151.245 170.13 151.025 170.227C150.806 170.325 150.56 170.374 150.285 170.374ZM157.92 168.155L157.92 162.239H158.829V168.155H157.92ZM158.382 161.252C158.205 161.252 158.052 161.192 157.924 161.071C157.798 160.951 157.735 160.806 157.735 160.636C157.735 160.467 157.798 160.322 157.924 160.201C158.052 160.08 158.205 160.02 158.382 160.02C158.56 160.02 158.711 160.08 158.837 160.201C158.965 160.322 159.029 160.467 159.029 160.636C159.029 160.806 158.965 160.951 158.837 161.071C158.711 161.192 158.56 161.252 158.382 161.252ZM165.081 168.278C164.526 168.278 164.048 168.147 163.648 167.885C163.247 167.623 162.939 167.263 162.723 166.803C162.508 166.343 162.4 165.818 162.4 165.228C162.4 164.627 162.51 164.096 162.731 163.637C162.954 163.175 163.265 162.814 163.663 162.554C164.064 162.292 164.531 162.162 165.065 162.162C165.481 162.162 165.856 162.239 166.19 162.393C166.524 162.547 166.797 162.762 167.01 163.04C167.223 163.317 167.356 163.641 167.407 164.01H166.498C166.429 163.741 166.275 163.502 166.036 163.294C165.8 163.083 165.481 162.978 165.081 162.978C164.726 162.978 164.415 163.071 164.148 163.255C163.884 163.438 163.677 163.696 163.528 164.03C163.382 164.361 163.309 164.75 163.309 165.197C163.309 165.654 163.381 166.052 163.524 166.391C163.671 166.73 163.876 166.993 164.141 167.18C164.408 167.368 164.721 167.462 165.081 167.462C165.317 167.462 165.531 167.42 165.724 167.338C165.916 167.256 166.079 167.138 166.213 166.984C166.346 166.83 166.441 166.645 166.498 166.429H167.407C167.356 166.779 167.229 167.093 167.026 167.373C166.825 167.65 166.56 167.871 166.228 168.036C165.9 168.197 165.517 168.278 165.081 168.278ZM170.043 168.294C169.668 168.294 169.328 168.223 169.022 168.082C168.717 167.938 168.474 167.731 168.294 167.462C168.115 167.189 168.025 166.861 168.025 166.476C168.025 166.137 168.091 165.862 168.225 165.651C168.359 165.438 168.537 165.271 168.76 165.151C168.984 165.03 169.23 164.94 169.5 164.881C169.772 164.819 170.046 164.77 170.32 164.735C170.68 164.688 170.971 164.654 171.195 164.631C171.421 164.605 171.585 164.562 171.688 164.503C171.793 164.444 171.846 164.342 171.846 164.195V164.164C171.846 163.784 171.742 163.489 171.534 163.279C171.328 163.068 171.016 162.963 170.598 162.963C170.164 162.963 169.823 163.058 169.577 163.248C169.33 163.438 169.157 163.641 169.057 163.856L168.194 163.548C168.348 163.189 168.554 162.909 168.81 162.708C169.07 162.506 169.352 162.364 169.658 162.285C169.966 162.203 170.269 162.162 170.567 162.162C170.757 162.162 170.975 162.185 171.222 162.231C171.471 162.274 171.711 162.366 171.942 162.504C172.176 162.643 172.37 162.852 172.524 163.132C172.678 163.412 172.755 163.787 172.755 164.257V168.155H171.846V167.354H171.799C171.738 167.482 171.635 167.62 171.491 167.766C171.348 167.912 171.156 168.037 170.917 168.14C170.679 168.242 170.387 168.294 170.043 168.294ZM170.182 167.477C170.541 167.477 170.844 167.406 171.091 167.265C171.34 167.124 171.527 166.942 171.653 166.718C171.781 166.495 171.846 166.26 171.846 166.013V165.181C171.807 165.228 171.722 165.27 171.591 165.308C171.463 165.344 171.314 165.376 171.145 165.405C170.978 165.43 170.815 165.454 170.655 165.474C170.499 165.492 170.372 165.507 170.274 165.52C170.038 165.551 169.817 165.601 169.612 165.67C169.409 165.737 169.244 165.839 169.119 165.975C168.995 166.108 168.934 166.291 168.934 166.522C168.934 166.838 169.051 167.076 169.284 167.238C169.52 167.397 169.82 167.477 170.182 167.477ZM174.889 164.596V168.155H173.98V162.239H174.858V163.163H174.935C175.074 162.863 175.284 162.621 175.567 162.439C175.849 162.254 176.214 162.162 176.661 162.162C177.061 162.162 177.412 162.244 177.712 162.408C178.013 162.57 178.246 162.816 178.413 163.148C178.58 163.476 178.664 163.892 178.664 164.396V168.155H177.755V164.457C177.755 163.992 177.634 163.63 177.393 163.371C177.151 163.109 176.82 162.978 176.399 162.978C176.109 162.978 175.849 163.041 175.621 163.167C175.395 163.293 175.216 163.476 175.085 163.718C174.954 163.959 174.889 164.252 174.889 164.596ZM180.692 160.266V160.96C180.692 161.17 180.654 161.395 180.577 161.634C180.502 161.87 180.392 162.1 180.245 162.323C180.102 162.544 179.927 162.737 179.722 162.901L179.228 162.5C179.39 162.269 179.53 162.029 179.648 161.78C179.769 161.529 179.829 161.26 179.829 160.975V160.266H180.692ZM184.191 162.239V163.009H181.125V162.239H184.191ZM182.019 160.821H182.928V166.46C182.928 166.717 182.965 166.909 183.039 167.038C183.116 167.164 183.214 167.248 183.332 167.292C183.453 167.333 183.58 167.354 183.713 167.354C183.814 167.354 183.896 167.349 183.96 167.338C184.024 167.325 184.075 167.315 184.114 167.308L184.299 168.124C184.237 168.147 184.151 168.17 184.041 168.193C183.93 168.219 183.79 168.232 183.621 168.232C183.364 168.232 183.112 168.177 182.866 168.066C182.622 167.956 182.419 167.788 182.257 167.562C182.098 167.336 182.019 167.051 182.019 166.707L182.019 160.821ZM189.482 168.294C189.107 168.294 188.767 168.223 188.462 168.082C188.156 167.938 187.913 167.731 187.734 167.462C187.554 167.189 187.464 166.861 187.464 166.476C187.464 166.137 187.531 165.862 187.664 165.651C187.798 165.438 187.976 165.271 188.2 165.151C188.423 165.03 188.67 164.94 188.939 164.881C189.211 164.819 189.485 164.77 189.76 164.735C190.119 164.688 190.411 164.654 190.634 164.631C190.86 164.605 191.024 164.562 191.127 164.503C191.232 164.444 191.285 164.342 191.285 164.195V164.164C191.285 163.784 191.181 163.489 190.973 163.279C190.767 163.068 190.456 162.963 190.037 162.963C189.603 162.963 189.263 163.058 189.016 163.248C188.77 163.438 188.596 163.641 188.496 163.856L187.633 163.548C187.787 163.189 187.993 162.909 188.25 162.708C188.509 162.506 188.792 162.364 189.097 162.285C189.405 162.203 189.708 162.162 190.006 162.162C190.196 162.162 190.414 162.185 190.661 162.231C190.91 162.274 191.15 162.366 191.381 162.504C191.615 162.643 191.809 162.852 191.963 163.132C192.117 163.412 192.194 163.787 192.194 164.257V168.155H191.285V167.354H191.239C191.177 167.482 191.074 167.62 190.931 167.766C190.787 167.912 190.595 168.037 190.357 168.14C190.118 168.242 189.826 168.294 189.482 168.294ZM189.621 167.477C189.98 167.477 190.283 167.406 190.53 167.265C190.779 167.124 190.967 166.942 191.092 166.718C191.221 166.495 191.285 166.26 191.285 166.013V165.181C191.246 165.228 191.162 165.27 191.031 165.308C190.902 165.344 190.753 165.376 190.584 165.405C190.417 165.43 190.254 165.454 190.095 165.474C189.938 165.492 189.811 165.507 189.713 165.52C189.477 165.551 189.256 165.601 189.051 165.67C188.848 165.737 188.684 165.839 188.558 165.975C188.435 166.108 188.373 166.291 188.373 166.522C188.373 166.838 188.49 167.076 188.723 167.238C188.96 167.397 189.259 167.477 189.621 167.477ZM194.328 164.596V168.155H193.419V162.239H194.297V163.163H194.374C194.513 162.863 194.724 162.621 195.006 162.439C195.289 162.254 195.653 162.162 196.1 162.162C196.501 162.162 196.851 162.244 197.152 162.408C197.452 162.57 197.686 162.816 197.853 163.148C198.02 163.476 198.103 163.892 198.103 164.396V168.155H197.194V164.457C197.194 163.992 197.073 163.63 196.832 163.371C196.591 163.109 196.259 162.978 195.838 162.978C195.548 162.978 195.289 163.041 195.06 163.167C194.834 163.293 194.656 163.476 194.525 163.718C194.394 163.959 194.328 164.252 194.328 164.596ZM203.521 163.564L202.704 163.795C202.653 163.659 202.577 163.526 202.477 163.398C202.38 163.267 202.246 163.159 202.077 163.074C201.907 162.99 201.69 162.947 201.426 162.947C201.064 162.947 200.762 163.031 200.52 163.198C200.282 163.362 200.162 163.571 200.162 163.825C200.162 164.051 200.244 164.23 200.409 164.361C200.573 164.492 200.83 164.601 201.179 164.688L202.057 164.904C202.586 165.032 202.98 165.229 203.24 165.493C203.499 165.755 203.629 166.093 203.629 166.506C203.629 166.845 203.531 167.148 203.336 167.415C203.144 167.682 202.874 167.893 202.527 168.047C202.181 168.201 201.777 168.278 201.318 168.278C200.714 168.278 200.215 168.147 199.819 167.885C199.424 167.623 199.174 167.241 199.068 166.737L199.931 166.522C200.013 166.84 200.169 167.079 200.397 167.238C200.628 167.397 200.93 167.477 201.302 167.477C201.726 167.477 202.062 167.387 202.312 167.207C202.563 167.025 202.689 166.807 202.689 166.553C202.689 166.347 202.617 166.175 202.473 166.036C202.33 165.895 202.109 165.79 201.811 165.721L200.825 165.489C200.283 165.361 199.885 165.162 199.631 164.892C199.379 164.62 199.253 164.28 199.253 163.872C199.253 163.538 199.347 163.243 199.534 162.986C199.724 162.729 199.982 162.527 200.309 162.381C200.637 162.235 201.01 162.162 201.426 162.162C202.011 162.162 202.471 162.29 202.805 162.547C203.141 162.803 203.38 163.142 203.521 163.564ZM205.904 168.155L204.101 162.239H205.056L206.335 166.768H206.397L207.66 162.239H208.631L209.879 166.753H209.94L211.219 162.239H212.174L210.372 168.155H209.478L208.184 163.61H208.092L206.797 168.155H205.904ZM215.222 168.278C214.652 168.278 214.16 168.152 213.746 167.901C213.336 167.646 213.018 167.292 212.795 166.838C212.574 166.381 212.464 165.849 212.464 165.243C212.464 164.637 212.574 164.103 212.795 163.641C213.018 163.176 213.329 162.814 213.727 162.554C214.128 162.292 214.595 162.162 215.129 162.162C215.437 162.162 215.742 162.213 216.042 162.316C216.343 162.418 216.616 162.585 216.863 162.816C217.109 163.045 217.306 163.348 217.452 163.725C217.598 164.103 217.671 164.568 217.671 165.12V165.505L213.111 165.505V164.719H216.747C216.747 164.385 216.68 164.087 216.547 163.825C216.416 163.564 216.228 163.357 215.984 163.205C215.743 163.054 215.458 162.978 215.129 162.978C214.767 162.978 214.454 163.068 214.189 163.248C213.927 163.425 213.726 163.656 213.585 163.941C213.443 164.226 213.373 164.532 213.373 164.858V165.382C213.373 165.828 213.45 166.207 213.604 166.518C213.761 166.826 213.978 167.061 214.255 167.223C214.532 167.382 214.854 167.462 215.222 167.462C215.46 167.462 215.676 167.428 215.869 167.361C216.064 167.292 216.232 167.189 216.373 167.053C216.515 166.915 216.624 166.743 216.701 166.537L217.579 166.784C217.487 167.082 217.331 167.343 217.113 167.569C216.895 167.793 216.625 167.967 216.304 168.093C215.983 168.217 215.622 168.278 215.222 168.278ZM218.62 168.155V162.239H219.499V163.132H219.56C219.668 162.839 219.863 162.602 220.146 162.42C220.428 162.237 220.747 162.146 221.101 162.146C221.168 162.146 221.251 162.147 221.351 162.15C221.451 162.153 221.527 162.156 221.579 162.162V163.086C221.548 163.078 221.477 163.067 221.367 163.051C221.259 163.033 221.145 163.024 221.024 163.024C220.736 163.024 220.479 163.085 220.254 163.205C220.03 163.323 219.853 163.488 219.722 163.698C219.594 163.906 219.529 164.144 219.529 164.411V168.155H218.62ZM224.04 159.897V169.757H221.76V169.002H223.177V160.652H221.76V159.897H224.04Z" fill="#E0DFEC"/>
<path opacity="0.3" d="M58.1024 86.9888L58.1024 1136.76" stroke="#28273F" stroke-width="3.61555"/>
<path opacity="0.3" d="M326.089 -50.0692L326.089 38.3936" stroke="#28273F" stroke-width="3.61555"/>
<path opacity="0.3" d="M58.0575 -50.0692L58.0575 38.3936" stroke="#28273F" stroke-width="3.61555"/>
<rect opacity="0.3" x="-0.451944" y="0.451944" width="64.8233" height="47.825" rx="6.77916" transform="matrix(-1 0 0 1 94.0882 38.2599)" fill="#141320" stroke="#EFEFF5" stroke-width="0.903888"/>
<path opacity="0.3" d="M83.2851 92.9775C82.9372 93.5801 82.0674 93.5801 81.7195 92.9775L78.5923 87.561C78.2444 86.9584 78.6792 86.2051 79.3751 86.2051L85.6296 86.2051C86.3254 86.2051 86.7603 86.9584 86.4124 87.561L83.2851 92.9775Z" fill="#EFEFF5"/>
<g opacity="0.3">
<path d="M62.1286 63.5267C62.6278 63.5267 63.0325 63.1227 63.0325 62.6243C63.0325 62.1259 62.6278 61.7219 62.1286 61.7219C61.6294 61.7219 61.2247 62.1259 61.2247 62.6243C61.2247 63.1227 61.6294 63.5267 62.1286 63.5267Z" stroke="#EFEFF5" stroke-width="1.80778" stroke-linecap="round" stroke-linejoin="round"/>
<path d="M68.4558 63.5267C68.955 63.5267 69.3597 63.1227 69.3597 62.6243C69.3597 62.1259 68.955 61.7219 68.4558 61.7219C67.9566 61.7219 67.552 62.1259 67.552 62.6243C67.552 63.1227 67.9566 63.5267 68.4558 63.5267Z" stroke="#EFEFF5" stroke-width="1.80778" stroke-linecap="round" stroke-linejoin="round"/>
<path d="M55.8014 63.5267C56.3006 63.5267 56.7053 63.1227 56.7053 62.6243C56.7053 62.1259 56.3006 61.7219 55.8014 61.7219C55.3022 61.7219 54.8975 62.1259 54.8975 62.6243C54.8975 63.1227 55.3022 63.5267 55.8014 63.5267Z" stroke="#EFEFF5" stroke-width="1.80778" stroke-linecap="round" stroke-linejoin="round"/>
</g>
<path opacity="0.3" d="M19.6792 30.3826L19.6792 23.8088L21.9004 23.8088C22.414 23.8088 22.8355 23.8966 23.1651 24.072C23.4946 24.2454 23.7386 24.484 23.8969 24.7878C24.0553 25.0917 24.1345 25.4373 24.1345 25.8246C24.1345 26.2119 24.0553 26.5554 23.8969 26.855C23.7386 27.1545 23.4957 27.3899 23.1683 27.5611C22.8409 27.7302 22.4225 27.8147 21.9133 27.8147L20.1157 27.8147V27.0957L21.8876 27.0957C22.2385 27.0957 22.521 27.0443 22.735 26.9416C22.9511 26.8389 23.1073 26.6934 23.2036 26.5051C23.302 26.3146 23.3513 26.0878 23.3513 25.8246C23.3513 25.5614 23.302 25.3314 23.2036 25.1345C23.1052 24.9376 22.9479 24.7857 22.7318 24.6787C22.5156 24.5696 22.23 24.515 21.8747 24.515L20.4752 24.515L20.4752 30.3826L19.6792 30.3826ZM22.7735 27.4295L24.3912 30.3826H23.4668L21.8747 27.4295H22.7735ZM27.0108 30.4853C26.5358 30.4853 26.126 30.3804 25.7815 30.1707C25.4391 29.9589 25.1748 29.6636 24.9886 29.2848C24.8046 28.9039 24.7126 28.4609 24.7126 27.9559C24.7126 27.4509 24.8046 27.0058 24.9886 26.6206C25.1748 26.2333 25.4337 25.9316 25.7654 25.7155C26.0992 25.4972 26.4887 25.3881 26.9338 25.3881C27.1906 25.3881 27.4441 25.4309 27.6945 25.5165C27.9449 25.6021 28.1728 25.7412 28.3782 25.9337C28.5836 26.1242 28.7473 26.3767 28.8693 26.6913C28.9913 27.0058 29.0523 27.3931 29.0523 27.8532L29.0523 28.1742L25.2518 28.1742V27.5194L28.2819 27.5194C28.2819 27.2412 28.2263 26.993 28.115 26.7747C28.0059 26.5564 27.8497 26.3842 27.6464 26.2579C27.4452 26.1317 27.2077 26.0686 26.9338 26.0686C26.6321 26.0686 26.371 26.1435 26.1506 26.2932C25.9323 26.4409 25.7643 26.6335 25.6466 26.871C25.5289 27.1085 25.4701 27.3632 25.4701 27.635V28.0715C25.4701 28.4438 25.5343 28.7595 25.6627 29.0184C25.7932 29.2752 25.974 29.471 26.2051 29.6058C26.4363 29.7385 26.7048 29.8048 27.0108 29.8048C27.2098 29.8048 27.3896 29.777 27.5501 29.7213C27.7127 29.6636 27.8529 29.578 27.9706 29.4646C28.0882 29.349 28.1792 29.2056 28.2434 29.0344L28.9752 29.2399C28.8982 29.4881 28.7687 29.7064 28.5868 29.8947C28.405 30.0808 28.1803 30.2264 27.9128 30.3312C27.6453 30.4339 27.3446 30.4853 27.0108 30.4853ZM33.3353 26.5564L32.6549 26.749C32.6121 26.6356 32.5489 26.5254 32.4655 26.4184C32.3842 26.3093 32.2729 26.2194 32.1317 26.1488C31.9904 26.0782 31.8096 26.0429 31.5892 26.0429C31.2875 26.0429 31.036 26.1124 30.8349 26.2515C30.6359 26.3885 30.5364 26.5629 30.5364 26.7747C30.5364 26.963 30.6048 27.1118 30.7418 27.2209C30.8787 27.33 31.0927 27.421 31.3838 27.4937L32.1156 27.6735C32.5564 27.7805 32.8849 27.9442 33.101 28.1646C33.3171 28.3828 33.4252 28.6642 33.4252 29.0088C33.4252 29.2912 33.3439 29.5437 33.1813 29.7663C33.0208 29.9888 32.7961 30.1643 32.5072 30.2927C32.2183 30.4211 31.8824 30.4853 31.4993 30.4853C30.9964 30.4853 30.5802 30.3761 30.2507 30.1579C29.9211 29.9396 29.7125 29.6208 29.6248 29.2014L30.3438 29.0216C30.4123 29.2869 30.5417 29.486 30.7322 29.6186C30.9248 29.7513 31.1762 29.8176 31.4865 29.8176C31.8396 29.8176 32.1199 29.7427 32.3275 29.5929C32.5372 29.441 32.642 29.2591 32.642 29.0473C32.642 28.8761 32.5821 28.7327 32.4623 28.6172C32.3424 28.4995 32.1584 28.4117 31.9102 28.354L31.0885 28.1614C30.6369 28.0544 30.3053 27.8885 30.0934 27.6638C29.8837 27.437 29.7788 27.1535 29.7788 26.8132C29.7788 26.5351 29.857 26.289 30.0132 26.075C30.1715 25.861 30.3866 25.693 30.6583 25.571C30.9322 25.4491 31.2425 25.3881 31.5892 25.3881C32.0771 25.3881 32.4601 25.4951 32.7383 25.7091C33.0186 25.923 33.2176 26.2055 33.3353 26.5564ZM34.204 32.2314L34.204 25.4523H34.9358V26.2355H35.0257C35.0813 26.1499 35.1583 26.0407 35.2568 25.9081C35.3574 25.7733 35.5007 25.6534 35.6869 25.5486C35.8752 25.4416 36.1298 25.3881 36.4508 25.3881C36.866 25.3881 37.2319 25.4919 37.5486 25.6994C37.8653 25.907 38.1125 26.2012 38.2901 26.5821C38.4677 26.963 38.5565 27.4124 38.5565 27.9303C38.5565 28.4524 38.4677 28.905 38.2901 29.288C38.1125 29.6689 37.8664 29.9642 37.5518 30.1739C37.2372 30.3815 36.8745 30.4853 36.4637 30.4853C36.147 30.4853 35.8934 30.4329 35.7029 30.328C35.5125 30.221 35.3659 30.1001 35.2632 29.9653C35.1605 29.8283 35.0813 29.7149 35.0257 29.625H34.9615V32.2314H34.204ZM34.9486 27.9174C34.9486 28.2898 35.0032 28.6182 35.1123 28.9028C35.2215 29.1853 35.3809 29.4068 35.5906 29.5673C35.8003 29.7256 36.0571 29.8048 36.361 29.8048C36.6777 29.8048 36.9419 29.7213 37.1538 29.5544C37.3678 29.3854 37.5283 29.1586 37.6353 28.8739C37.7444 28.5872 37.799 28.2684 37.799 27.9174C37.799 27.5708 37.7455 27.2583 37.6385 26.9801C37.5336 26.6998 37.3742 26.4783 37.1602 26.3157C36.9484 26.1509 36.6819 26.0686 36.361 26.0686C36.0528 26.0686 35.7939 26.1467 35.5842 26.3029C35.3745 26.4569 35.2161 26.6731 35.1091 26.9513C35.0021 27.2273 34.9486 27.5494 34.9486 27.9174ZM41.3534 30.4853C40.9083 30.4853 40.5178 30.3794 40.1818 30.1675C39.848 29.9557 39.5869 29.6593 39.3986 29.2784C39.2124 28.8975 39.1194 28.4524 39.1194 27.9431C39.1194 27.4295 39.2124 26.9812 39.3986 26.5982C39.5869 26.2151 39.848 25.9177 40.1818 25.7058C40.5178 25.494 40.9083 25.3881 41.3534 25.3881C41.7985 25.3881 42.188 25.494 42.5218 25.7058C42.8577 25.9177 43.1188 26.2151 43.305 26.5982C43.4933 26.9812 43.5874 27.4295 43.5874 27.9431C43.5874 28.4524 43.4933 28.8975 43.305 29.2784C43.1188 29.6593 42.8577 29.9557 42.5218 30.1675C42.188 30.3794 41.7985 30.4853 41.3534 30.4853ZM41.3534 29.8048C41.6915 29.8048 41.9697 29.7181 42.188 29.5448C42.4062 29.3715 42.5678 29.1436 42.6726 28.8611C42.7775 28.5786 42.8299 28.2726 42.8299 27.9431C42.8299 27.6136 42.7775 27.3065 42.6726 27.0219C42.5678 26.7373 42.4062 26.5072 42.188 26.3318C41.9697 26.1563 41.6915 26.0686 41.3534 26.0686C41.0153 26.0686 40.7371 26.1563 40.5188 26.3318C40.3006 26.5072 40.139 26.7373 40.0342 27.0219C39.9293 27.3065 39.8769 27.6136 39.8769 27.9431C39.8769 28.2726 39.9293 28.5786 40.0342 28.8611C40.139 29.1436 40.3006 29.3715 40.5188 29.5448C40.7371 29.7181 41.0153 29.8048 41.3534 29.8048ZM45.1397 27.4167V30.3826H44.3822L44.3822 25.4523L45.1141 25.4523V26.2226H45.1783C45.2938 25.9723 45.4693 25.7711 45.7047 25.6192C45.9401 25.4651 46.2439 25.3881 46.6163 25.3881C46.9501 25.3881 47.2422 25.4565 47.4926 25.5935C47.7429 25.7283 47.9377 25.9337 48.0767 26.2098C48.2158 26.4837 48.2854 26.8304 48.2854 27.2498V30.3826H47.5279V27.3011C47.5279 26.9138 47.4273 26.6121 47.2261 26.396C47.025 26.1777 46.7489 26.0686 46.398 26.0686C46.1562 26.0686 45.9401 26.121 45.7496 26.2258C45.5613 26.3307 45.4126 26.4837 45.3035 26.6848C45.1943 26.886 45.1397 27.1299 45.1397 27.4167ZM52.8004 26.5564L52.1199 26.749C52.0771 26.6356 52.014 26.5254 51.9305 26.4184C51.8492 26.3093 51.7379 26.2194 51.5967 26.1488C51.4554 26.0782 51.2746 26.0429 51.0542 26.0429C50.7525 26.0429 50.5011 26.1124 50.2999 26.2515C50.1009 26.3885 50.0014 26.5629 50.0014 26.7747C50.0014 26.963 50.0699 27.1118 50.2068 27.2209C50.3438 27.33 50.5578 27.421 50.8488 27.4937L51.5806 27.6735C52.0214 27.7805 52.3499 27.9442 52.566 28.1646C52.7822 28.3828 52.8902 28.6642 52.8902 29.0088C52.8902 29.2912 52.8089 29.5437 52.6463 29.7663C52.4858 29.9888 52.2611 30.1643 51.9722 30.2927C51.6833 30.4211 51.3474 30.4853 50.9643 30.4853C50.4615 30.4853 50.0453 30.3761 49.7157 30.1579C49.3862 29.9396 49.1775 29.6208 49.0898 29.2014L49.8088 29.0216C49.8773 29.2869 50.0067 29.486 50.1972 29.6186C50.3898 29.7513 50.6412 29.8176 50.9515 29.8176C51.3046 29.8176 51.5849 29.7427 51.7925 29.5929C52.0022 29.441 52.107 29.2591 52.107 29.0473C52.107 28.8761 52.0471 28.7327 51.9273 28.6172C51.8075 28.4995 51.6234 28.4117 51.3752 28.354L50.5535 28.1614C50.102 28.0544 49.7703 27.8885 49.5584 27.6638C49.3487 27.437 49.2439 27.1535 49.2439 26.8132C49.2439 26.5351 49.322 26.289 49.4782 26.075C49.6365 25.861 49.8516 25.693 50.1234 25.571C50.3973 25.4491 50.7076 25.3881 51.0542 25.3881C51.5421 25.3881 51.9252 25.4951 52.2033 25.7091C52.4837 25.923 52.6827 26.2055 52.8004 26.5564ZM55.7361 30.4853C55.2611 30.4853 54.8513 30.3804 54.5067 30.1707C54.1644 29.9589 53.9001 29.6636 53.7139 29.2848C53.5299 28.9039 53.4379 28.4609 53.4379 27.9559C53.4379 27.4509 53.5299 27.0058 53.7139 26.6206C53.9001 26.2333 54.159 25.9316 54.4907 25.7155C54.8245 25.4972 55.214 25.3881 55.6591 25.3881C55.9159 25.3881 56.1694 25.4309 56.4198 25.5165C56.6702 25.6021 56.8981 25.7412 57.1035 25.9337C57.3089 26.1242 57.4726 26.3767 57.5946 26.6913C57.7166 27.0058 57.7776 27.3931 57.7776 27.8532V28.1742L53.9771 28.1742L53.9771 27.5194L57.0072 27.5194C57.0072 27.2412 56.9516 26.993 56.8403 26.7747C56.7312 26.5564 56.5749 26.3842 56.3717 26.2579C56.1705 26.1317 55.933 26.0686 55.6591 26.0686C55.3573 26.0686 55.0963 26.1435 54.8759 26.2932C54.6576 26.4409 54.4896 26.6335 54.3719 26.871C54.2542 27.1085 54.1954 27.3632 54.1954 27.635V28.0715C54.1954 28.4438 54.2596 28.7595 54.388 29.0184C54.5185 29.2752 54.6993 29.471 54.9304 29.6058C55.1615 29.7385 55.4301 29.8048 55.7361 29.8048C55.9351 29.8048 56.1149 29.777 56.2754 29.7213C56.438 29.6636 56.5782 29.578 56.6958 29.4646C56.8135 29.349 56.9045 29.2056 56.9687 29.0344L57.7005 29.2399C57.6235 29.4881 57.494 29.7064 57.3121 29.8947C57.1302 30.0808 56.9056 30.2264 56.6381 30.3312C56.3706 30.4339 56.0699 30.4853 55.7361 30.4853ZM61.1213 31.2043L61.1213 22.9871L63.0215 22.9871L63.0215 23.6162H61.8403L61.8403 30.5752H63.0215V31.2043L61.1213 31.2043ZM69.0548 25.8631H68.2587C68.2116 25.6342 68.1293 25.433 68.0116 25.2597C67.896 25.0863 67.7548 24.9408 67.5879 24.8231C67.4231 24.7033 67.2401 24.6134 67.039 24.5535C66.8378 24.4936 66.6281 24.4636 66.4099 24.4636C66.0118 24.4636 65.6513 24.5642 65.3281 24.7654C65.0072 24.9665 64.7514 25.2629 64.561 25.6545C64.3727 26.0461 64.2785 26.5265 64.2785 27.0957C64.2785 27.6649 64.3727 28.1453 64.561 28.5369C64.7514 28.9285 65.0072 29.2249 65.3281 29.426C65.6513 29.6272 66.0118 29.7278 66.4099 29.7278C66.6281 29.7278 66.8378 29.6978 67.039 29.6379C67.2401 29.578 67.4231 29.4892 67.5879 29.3715C67.7548 29.2516 67.896 29.1051 68.0116 28.9317C68.1293 28.7563 68.2116 28.5551 68.2587 28.3283H69.0548C68.9948 28.6642 68.8857 28.9649 68.7274 29.2302C68.569 29.4956 68.3721 29.7213 68.1367 29.9075C67.9014 30.0915 67.6371 30.2317 67.3439 30.328C67.0529 30.4243 66.7415 30.4724 66.4099 30.4724C65.8492 30.4724 65.3506 30.3355 64.9141 30.0616C64.4775 29.7877 64.1341 29.3982 63.8837 28.8932C63.6334 28.3882 63.5082 27.789 63.5082 27.0957C63.5082 26.4024 63.6334 25.8032 63.8837 25.2982C64.1341 24.7932 64.4775 24.4037 64.9141 24.1298C65.3506 23.8559 65.8492 23.719 66.4099 23.719C66.7415 23.719 67.0529 23.7671 67.3439 23.8634C67.6371 23.9597 67.9014 24.1009 68.1367 24.2871C68.3721 24.4711 68.569 24.6958 68.7274 24.9612C68.8857 25.2244 68.9948 25.525 69.0548 25.8631ZM71.8798 30.4853C71.4347 30.4853 71.0441 30.3794 70.7082 30.1675C70.3743 29.9557 70.1133 29.6593 69.925 29.2784C69.7388 28.8975 69.6457 28.4524 69.6457 27.9431C69.6457 27.4295 69.7388 26.9812 69.925 26.5982C70.1133 26.2151 70.3743 25.9177 70.7082 25.7058C71.0441 25.494 71.4347 25.3881 71.8798 25.3881C72.3249 25.3881 72.7143 25.494 73.0481 25.7058C73.3841 25.9177 73.6452 26.2151 73.8313 26.5982C74.0196 26.9812 74.1138 27.4295 74.1138 27.9431C74.1138 28.4524 74.0196 28.8975 73.8313 29.2784C73.6452 29.6593 73.3841 29.9557 73.0481 30.1675C72.7143 30.3794 72.3249 30.4853 71.8798 30.4853ZM71.8798 29.8048C72.2179 29.8048 72.496 29.7181 72.7143 29.5448C72.9326 29.3715 73.0941 29.1436 73.199 28.8611C73.3039 28.5786 73.3563 28.2726 73.3563 27.9431C73.3563 27.6136 73.3039 27.3065 73.199 27.0219C73.0941 26.7373 72.9326 26.5072 72.7143 26.3318C72.496 26.1563 72.2179 26.0686 71.8798 26.0686C71.5417 26.0686 71.2635 26.1563 71.0452 26.3318C70.8269 26.5072 70.6654 26.7373 70.5605 27.0219C70.4557 27.3065 70.4032 27.6136 70.4032 27.9431C70.4032 28.2726 70.4557 28.5786 70.5605 28.8611C70.6654 29.1436 70.8269 29.3715 71.0452 29.5448C71.2635 29.7181 71.5417 29.8048 71.8798 29.8048ZM74.9086 30.3826V25.4523L75.6404 25.4523V26.2226H75.7046C75.8073 25.9594 75.9732 25.7551 76.2022 25.6095C76.4311 25.4619 76.7061 25.3881 77.0271 25.3881C77.3523 25.3881 77.623 25.4619 77.8392 25.6095C78.0574 25.7551 78.2276 25.9594 78.3495 26.2226H78.4009C78.5271 25.968 78.7165 25.7658 78.969 25.616C79.2215 25.464 79.5243 25.3881 79.8774 25.3881C80.3182 25.3881 80.6788 25.5261 80.9591 25.8021C81.2394 26.076 81.3796 26.503 81.3796 27.0829L81.3796 30.3826H80.6221L80.6221 27.0829C80.6221 26.7191 80.5226 26.4591 80.3236 26.3029C80.1246 26.1467 79.8902 26.0686 79.6206 26.0686C79.274 26.0686 79.0054 26.1734 78.815 26.3831C78.6245 26.5907 78.5293 26.8539 78.5293 27.1727L78.5293 30.3826L77.7589 30.3826L77.7589 27.0058C77.7589 26.7255 77.668 26.4997 77.4861 26.3286C77.3042 26.1552 77.0699 26.0686 76.7831 26.0686C76.5863 26.0686 76.4022 26.121 76.231 26.2258C76.062 26.3307 75.925 26.4762 75.8202 26.6624C75.7175 26.8464 75.6661 27.0593 75.6661 27.3011L75.6661 30.3826L74.9086 30.3826ZM82.4031 32.2314V25.4523H83.1349L83.1349 26.2355H83.2248C83.2804 26.1499 83.3575 26.0407 83.4559 25.9081C83.5565 25.7733 83.6999 25.6534 83.886 25.5486C84.0743 25.4416 84.329 25.3881 84.65 25.3881C85.0651 25.3881 85.431 25.4919 85.7477 25.6994C86.0644 25.907 86.3116 26.2012 86.4892 26.5821C86.6668 26.963 86.7556 27.4124 86.7556 27.9303C86.7556 28.4524 86.6668 28.905 86.4892 29.288C86.3116 29.6689 86.0655 29.9642 85.7509 30.1739C85.4364 30.3815 85.0737 30.4853 84.6628 30.4853C84.3461 30.4853 84.0925 30.4329 83.9021 30.328C83.7116 30.221 83.5651 30.1001 83.4623 29.9653C83.3596 29.8283 83.2804 29.7149 83.2248 29.625H83.1606V32.2314L82.4031 32.2314ZM83.1478 27.9174C83.1478 28.2898 83.2023 28.6182 83.3115 28.9028C83.4206 29.1853 83.58 29.4068 83.7897 29.5673C83.9994 29.7256 84.2562 29.8048 84.5601 29.8048C84.8768 29.8048 85.1411 29.7213 85.3529 29.5544C85.5669 29.3854 85.7274 29.1586 85.8344 28.8739C85.9435 28.5872 85.9981 28.2684 85.9981 27.9174C85.9981 27.5708 85.9446 27.2583 85.8376 26.9801C85.7328 26.6998 85.5733 26.4783 85.3593 26.3157C85.1475 26.1509 84.8811 26.0686 84.5601 26.0686C84.252 26.0686 83.993 26.1467 83.7833 26.3029C83.5736 26.4569 83.4153 26.6731 83.3083 26.9513C83.2013 27.2273 83.1478 27.5494 83.1478 27.9174ZM88.3071 23.8088L88.3071 30.3826L87.5496 30.3826L87.5496 23.8088L88.3071 23.8088ZM89.333 30.3826L89.333 25.4523H90.0905L90.0905 30.3826H89.333ZM89.7182 24.6306C89.5706 24.6306 89.4432 24.5803 89.3362 24.4797C89.2314 24.3791 89.179 24.2582 89.179 24.117C89.179 23.9757 89.2314 23.8548 89.3362 23.7543C89.4432 23.6537 89.5706 23.6034 89.7182 23.6034C89.8659 23.6034 89.9921 23.6537 90.097 23.7543C90.204 23.8548 90.2575 23.9757 90.2575 24.117C90.2575 24.2582 90.204 24.3791 90.097 24.4797C89.9921 24.5803 89.8659 24.6306 89.7182 24.6306ZM92.5673 30.4981C92.2549 30.4981 91.9713 30.4393 91.7167 30.3216C91.462 30.2017 91.2598 30.0295 91.11 29.8048C90.9602 29.578 90.8853 29.3041 90.8853 28.9831C90.8853 28.7006 90.941 28.4716 91.0522 28.2962C91.1635 28.1186 91.3122 27.9795 91.4984 27.8789C91.6846 27.7783 91.89 27.7034 92.1147 27.6542C92.3415 27.6029 92.5694 27.5622 92.7984 27.5322C93.098 27.4937 93.3408 27.4648 93.527 27.4456C93.7153 27.4242 93.8523 27.3889 93.9379 27.3396C94.0256 27.2904 94.0695 27.2048 94.0695 27.0829V27.0572C94.0695 26.7405 93.9828 26.4944 93.8095 26.3189C93.6383 26.1435 93.3783 26.0557 93.0295 26.0557C92.6679 26.0557 92.3843 26.1349 92.1789 26.2932C91.9735 26.4516 91.829 26.6206 91.7456 26.8004L91.0266 26.5436C91.155 26.244 91.3261 26.0108 91.5401 25.8439C91.7563 25.6748 91.9916 25.5571 92.2463 25.4908C92.5031 25.4223 92.7556 25.3881 93.0038 25.3881C93.1622 25.3881 93.3441 25.4073 93.5495 25.4458C93.7571 25.4822 93.9571 25.5582 94.1497 25.6737C94.3445 25.7893 94.506 25.9637 94.6344 26.1969C94.7628 26.4302 94.827 26.7426 94.827 27.1342V30.3826H94.0695V29.7149H94.031C93.9796 29.8219 93.894 29.9364 93.7742 30.0584C93.6543 30.1803 93.4949 30.2841 93.2959 30.3697C93.0969 30.4553 92.854 30.4981 92.5673 30.4981ZM92.6828 29.8176C92.9824 29.8176 93.2349 29.7588 93.4404 29.6411C93.6479 29.5234 93.8041 29.3715 93.909 29.1853C94.016 28.9991 94.0695 28.8033 94.0695 28.5979V27.9046C94.0374 27.9431 93.9668 27.9784 93.8576 28.0105C93.7506 28.0405 93.6265 28.0672 93.4853 28.0907C93.3462 28.1121 93.2103 28.1314 93.0776 28.1485C92.9471 28.1635 92.8412 28.1763 92.7599 28.187C92.563 28.2127 92.379 28.2545 92.2078 28.3122C92.0387 28.3679 91.9018 28.4524 91.7969 28.5658C91.6942 28.6771 91.6428 28.829 91.6428 29.0216C91.6428 29.2848 91.7402 29.4838 91.9349 29.6186C92.1318 29.7513 92.3811 29.8176 92.6828 29.8176ZM96.6056 27.4167V30.3826L95.8481 30.3826L95.8481 25.4523L96.5799 25.4523L96.5799 26.2226H96.6441C96.7597 25.9723 96.9351 25.7711 97.1705 25.6192C97.4059 25.4651 97.7098 25.3881 98.0821 25.3881C98.4159 25.3881 98.708 25.4565 98.9584 25.5935C99.2088 25.7283 99.4035 25.9337 99.5426 26.2098C99.6817 26.4837 99.7512 26.8304 99.7512 27.2498V30.3826L98.9937 30.3826V27.3011C98.9937 26.9138 98.8931 26.6121 98.692 26.396C98.4908 26.1777 98.2148 26.0686 97.8639 26.0686C97.622 26.0686 97.4059 26.121 97.2155 26.2258C97.0272 26.3307 96.8784 26.4837 96.7693 26.6848C96.6602 26.886 96.6056 27.1299 96.6056 27.4167ZM102.918 25.4523L102.918 26.0942H100.363L100.363 25.4523H102.918ZM101.108 24.271H101.865L101.865 28.9702C101.865 29.1842 101.896 29.3447 101.958 29.4517C102.023 29.5566 102.104 29.6272 102.202 29.6636C102.303 29.6978 102.409 29.7149 102.52 29.7149C102.604 29.7149 102.672 29.7106 102.725 29.7021C102.779 29.6914 102.822 29.6828 102.854 29.6764L103.008 30.3569C102.957 30.3761 102.885 30.3954 102.793 30.4147C102.701 30.4361 102.584 30.4468 102.443 30.4468C102.229 30.4468 102.019 30.4008 101.814 30.3087C101.611 30.2167 101.442 30.0766 101.307 29.8883C101.174 29.6999 101.108 29.4624 101.108 29.1757L101.108 24.271ZM105.211 23.5007L105.211 31.7179L103.311 31.7179V31.0887L104.492 31.0887L104.492 24.1298H103.311V23.5007L105.211 23.5007Z" fill="#E0DFEC"/>
<path opacity="0.3" d="M58.4221 119.711C58.2456 119.535 57.9595 119.535 57.783 119.711L54.9068 122.588C54.7303 122.764 54.7303 123.05 54.9068 123.227C55.0833 123.403 55.3695 123.403 55.546 123.227L58.1026 120.67L60.6591 123.227C60.8356 123.403 61.1218 123.403 61.2983 123.227C61.4748 123.05 61.4748 122.764 61.2983 122.588L58.4221 119.711ZM57.6506 120.031L57.6506 246.545L58.5545 246.545L58.5545 120.031L57.6506 120.031Z" fill="url(#paint5_linear_920_15)"/>
<rect opacity="0.3" x="-0.451944" y="0.451944" width="64.8233" height="47.825" rx="6.77916" transform="matrix(-1 0 0 1 363.404 38.3936)" fill="#141320" stroke="#8281B1" stroke-width="0.903888"/>
<path opacity="0.3" d="M311.22 93.1112C310.872 93.7138 310.002 93.7138 309.654 93.1112L306.527 87.6946C306.179 87.092 306.614 86.3388 307.31 86.3388L313.564 86.3388C314.26 86.3388 314.695 87.092 314.347 87.6946L311.22 93.1112Z" fill="#8281B1"/>
<g opacity="0.3">
<path d="M331.444 63.6602C331.943 63.6602 332.348 63.2562 332.348 62.7579C332.348 62.2595 331.943 61.8555 331.444 61.8555C330.945 61.8555 330.54 62.2595 330.54 62.7579C330.54 63.2562 330.945 63.6602 331.444 63.6602Z" stroke="#8281B1" stroke-width="1.80778" stroke-linecap="round" stroke-linejoin="round"/>
<path d="M337.771 63.6602C338.271 63.6602 338.675 63.2562 338.675 62.7579C338.675 62.2595 338.271 61.8555 337.771 61.8555C337.272 61.8555 336.867 62.2595 336.867 62.7579C336.867 63.2562 337.272 63.6602 337.771 63.6602Z" stroke="#8281B1" stroke-width="1.80778" stroke-linecap="round" stroke-linejoin="round"/>
<path d="M325.117 63.6602C325.616 63.6602 326.021 63.2562 326.021 62.7579C326.021 62.2595 325.616 61.8555 325.117 61.8555C324.618 61.8555 324.213 62.2595 324.213 62.7579C324.213 63.2562 324.618 63.6602 325.117 63.6602Z" stroke="#8281B1" stroke-width="1.80778" stroke-linecap="round" stroke-linejoin="round"/>
</g>
<path opacity="0.3" d="M311.572 22.7721H312.368V27.1246C312.368 27.574 312.262 27.9752 312.05 28.3283C311.84 28.6793 311.544 28.9564 311.161 29.1597C310.778 29.3608 310.328 29.4614 309.813 29.4614C309.297 29.4614 308.848 29.3608 308.465 29.1597C308.082 28.9564 307.784 28.6793 307.572 28.3283C307.363 27.9752 307.258 27.574 307.258 27.1246V22.7721L308.054 22.7721V27.0604C308.054 27.3814 308.124 27.6671 308.266 27.9175C308.407 28.1657 308.608 28.3615 308.869 28.5048C309.132 28.6461 309.447 28.7167 309.813 28.7167C310.179 28.7167 310.493 28.6461 310.756 28.5048C311.02 28.3615 311.221 28.1657 311.36 27.9175C311.501 27.6671 311.572 27.3814 311.572 27.0604V22.7721ZM316.985 25.5197L316.305 25.7123C316.262 25.5989 316.199 25.4887 316.116 25.3817C316.034 25.2725 315.923 25.1827 315.782 25.1121C315.641 25.0414 315.46 25.0061 315.239 25.0061C314.938 25.0061 314.686 25.0757 314.485 25.2148C314.286 25.3517 314.186 25.5261 314.186 25.738C314.186 25.9263 314.255 26.075 314.392 26.1841C314.529 26.2933 314.743 26.3842 315.034 26.457L315.766 26.6367C316.207 26.7437 316.535 26.9074 316.751 27.1278C316.967 27.3461 317.075 27.6275 317.075 27.972C317.075 28.2545 316.994 28.507 316.831 28.7295C316.671 28.9521 316.446 29.1276 316.157 29.2559C315.868 29.3843 315.532 29.4485 315.149 29.4485C314.647 29.4485 314.23 29.3394 313.901 29.1211C313.571 28.9029 313.363 28.584 313.275 28.1646L313.994 27.9849C314.062 28.2502 314.192 28.4492 314.382 28.5819C314.575 28.7146 314.826 28.7809 315.137 28.7809C315.49 28.7809 315.77 28.706 315.978 28.5562C316.187 28.4043 316.292 28.2224 316.292 28.0105C316.292 27.8393 316.232 27.696 316.112 27.5804C315.993 27.4627 315.809 27.375 315.56 27.3172L314.739 27.1246C314.287 27.0176 313.955 26.8518 313.744 26.6271C313.534 26.4003 313.429 26.1167 313.429 25.7765C313.429 25.4983 313.507 25.2522 313.663 25.0382C313.822 24.8242 314.037 24.6563 314.308 24.5343C314.582 24.4123 314.893 24.3513 315.239 24.3513C315.727 24.3513 316.11 24.4583 316.388 24.6723C316.669 24.8863 316.868 25.1688 316.985 25.5197ZM319.921 29.4485C319.446 29.4485 319.036 29.3437 318.692 29.134C318.349 28.9221 318.085 28.6268 317.899 28.2481C317.715 27.8672 317.623 27.4242 317.623 26.9192C317.623 26.4142 317.715 25.9691 317.899 25.5839C318.085 25.1966 318.344 24.8949 318.676 24.6787C319.01 24.4605 319.399 24.3513 319.844 24.3513C320.101 24.3513 320.355 24.3941 320.605 24.4797C320.855 24.5653 321.083 24.7044 321.289 24.897C321.494 25.0874 321.658 25.34 321.78 25.6545C321.902 25.9691 321.963 26.3564 321.963 26.8165V27.1375L318.162 27.1375V26.4827L321.192 26.4827C321.192 26.2045 321.137 25.9562 321.025 25.738C320.916 25.5197 320.76 25.3474 320.557 25.2212C320.356 25.0949 320.118 25.0318 319.844 25.0318C319.542 25.0318 319.281 25.1067 319.061 25.2565C318.843 25.4042 318.675 25.5967 318.557 25.8343C318.439 26.0718 318.38 26.3264 318.38 26.5982V27.0347C318.38 27.4071 318.445 27.7227 318.573 27.9816C318.704 28.2384 318.884 28.4342 319.116 28.569C319.347 28.7017 319.615 28.7681 319.921 28.7681C320.12 28.7681 320.3 28.7402 320.46 28.6846C320.623 28.6268 320.763 28.5412 320.881 28.4278C320.999 28.3123 321.09 28.1689 321.154 27.9977L321.886 28.2031C321.809 28.4514 321.679 28.6696 321.497 28.8579C321.315 29.0441 321.091 29.1896 320.823 29.2945C320.556 29.3972 320.255 29.4485 319.921 29.4485ZM322.753 29.3458V24.4155H323.485V25.1602H323.537C323.627 24.9163 323.789 24.7183 324.025 24.5664C324.26 24.4145 324.525 24.3385 324.821 24.3385C324.876 24.3385 324.946 24.3396 325.029 24.3417C325.113 24.3438 325.176 24.347 325.219 24.3513V25.1217C325.193 25.1153 325.134 25.1056 325.042 25.0928C324.952 25.0778 324.857 25.0703 324.756 25.0703C324.517 25.0703 324.303 25.1206 324.114 25.2212C323.928 25.3196 323.781 25.4566 323.671 25.6321C323.564 25.8054 323.511 26.0033 323.511 26.2259V29.3458H322.753ZM328.038 29.3458V22.7721L330.26 22.7721C330.775 22.7721 331.197 22.8652 331.524 23.0513C331.854 23.2354 332.098 23.4847 332.256 23.7992C332.414 24.1138 332.494 24.4647 332.494 24.8521C332.494 25.2394 332.414 25.5914 332.256 25.9081C332.1 26.2248 331.858 26.4773 331.531 26.6656C331.203 26.8518 330.784 26.9449 330.272 26.9449L328.68 26.9449V26.2387L330.247 26.2387C330.6 26.2387 330.883 26.1777 331.097 26.0557C331.311 25.9338 331.466 25.769 331.563 25.5614C331.661 25.3517 331.71 25.1153 331.71 24.8521C331.71 24.5889 331.661 24.3535 331.563 24.1459C331.466 23.9383 331.31 23.7757 331.094 23.658C330.878 23.5382 330.591 23.4783 330.234 23.4783L328.834 23.4783V29.3458L328.038 29.3458ZM333.312 29.3458V24.4155L334.043 24.4155V25.1602H334.095C334.185 24.9163 334.347 24.7183 334.583 24.5664C334.818 24.4145 335.083 24.3385 335.379 24.3385C335.434 24.3385 335.504 24.3396 335.587 24.3417C335.671 24.3438 335.734 24.347 335.777 24.3513V25.1217C335.751 25.1153 335.692 25.1056 335.6 25.0928C335.51 25.0778 335.415 25.0703 335.315 25.0703C335.075 25.0703 334.861 25.1206 334.673 25.2212C334.486 25.3196 334.339 25.4566 334.23 25.6321C334.123 25.8054 334.069 26.0033 334.069 26.2259V29.3458L333.312 29.3458ZM338.166 29.4485C337.721 29.4485 337.33 29.3426 336.994 29.1308C336.661 28.9189 336.4 28.6225 336.211 28.2416C336.025 27.8607 335.932 27.4156 335.932 26.9064C335.932 26.3928 336.025 25.9445 336.211 25.5614C336.4 25.1784 336.661 24.881 336.994 24.6691C337.33 24.4573 337.721 24.3513 338.166 24.3513C338.611 24.3513 339.001 24.4573 339.334 24.6691C339.67 24.881 339.931 25.1784 340.118 25.5614C340.306 25.9445 340.4 26.3928 340.4 26.9064C340.4 27.4156 340.306 27.8607 340.118 28.2416C339.931 28.6225 339.67 28.9189 339.334 29.1308C339.001 29.3426 338.611 29.4485 338.166 29.4485ZM338.166 28.7681C338.504 28.7681 338.782 28.6814 339.001 28.5081C339.219 28.3347 339.38 28.1068 339.485 27.8244C339.59 27.5419 339.643 27.2359 339.643 26.9064C339.643 26.5768 339.59 26.2697 339.485 25.9851C339.38 25.7005 339.219 25.4705 339.001 25.295C338.782 25.1195 338.504 25.0318 338.166 25.0318C337.828 25.0318 337.55 25.1195 337.331 25.295C337.113 25.4705 336.952 25.7005 336.847 25.9851C336.742 26.2697 336.69 26.5768 336.69 26.9064C336.69 27.2359 336.742 27.5419 336.847 27.8244C336.952 28.1068 337.113 28.3347 337.331 28.5081C337.55 28.6814 337.828 28.7681 338.166 28.7681ZM341.195 29.3458V24.4155H341.927V25.1859H341.991C342.094 24.9227 342.259 24.7183 342.488 24.5728C342.717 24.4252 342.992 24.3513 343.313 24.3513C343.639 24.3513 343.909 24.4252 344.125 24.5728C344.344 24.7183 344.514 24.9227 344.636 25.1859H344.687C344.813 24.9312 345.003 24.729 345.255 24.5792C345.508 24.4273 345.811 24.3513 346.164 24.3513C346.605 24.3513 346.965 24.4894 347.245 24.7654C347.526 25.0393 347.666 25.4662 347.666 26.0461V29.3458H346.908V26.0461C346.908 25.6823 346.809 25.4223 346.61 25.2661C346.411 25.1099 346.177 25.0318 345.907 25.0318C345.56 25.0318 345.292 25.1367 345.101 25.3464C344.911 25.5539 344.816 25.8172 344.816 26.136V29.3458H344.045V25.9691C344.045 25.6888 343.954 25.463 343.772 25.2918C343.59 25.1185 343.356 25.0318 343.069 25.0318C342.873 25.0318 342.689 25.0842 342.517 25.1891C342.348 25.2939 342.211 25.4395 342.106 25.6256C342.004 25.8097 341.952 26.0226 341.952 26.2644V29.3458L341.195 29.3458ZM348.689 31.1947V24.4155L349.421 24.4155V25.1987H349.511C349.567 25.1131 349.644 25.004 349.742 24.8713C349.843 24.7365 349.986 24.6167 350.172 24.5118C350.361 24.4048 350.615 24.3513 350.936 24.3513C351.351 24.3513 351.717 24.4551 352.034 24.6627C352.351 24.8703 352.598 25.1645 352.775 25.5454C352.953 25.9263 353.042 26.3757 353.042 26.8935C353.042 27.4156 352.953 27.8682 352.775 28.2513C352.598 28.6322 352.352 28.9275 352.037 29.1372C351.723 29.3448 351.36 29.4485 350.949 29.4485C350.632 29.4485 350.379 29.3961 350.188 29.2913C349.998 29.1843 349.851 29.0634 349.749 28.9285C349.646 28.7916 349.567 28.6782 349.511 28.5883H349.447V31.1947L348.689 31.1947ZM349.434 26.8807C349.434 27.253 349.489 27.5815 349.598 27.8661C349.707 28.1486 349.866 28.37 350.076 28.5305C350.286 28.6889 350.543 28.7681 350.846 28.7681C351.163 28.7681 351.427 28.6846 351.639 28.5177C351.853 28.3486 352.014 28.1218 352.121 27.8372C352.23 27.5505 352.284 27.2316 352.284 26.8807C352.284 26.534 352.231 26.2216 352.124 25.9434C352.019 25.6631 351.86 25.4416 351.646 25.279C351.434 25.1142 351.167 25.0318 350.846 25.0318C350.538 25.0318 350.279 25.1099 350.07 25.2661C349.86 25.4202 349.702 25.6363 349.595 25.9145C349.488 26.1906 349.434 26.5126 349.434 26.8807ZM355.98 24.4155V25.0575L353.425 25.0575V24.4155L355.98 24.4155ZM354.17 23.2343L354.927 23.2343V27.9335C354.927 28.1475 354.958 28.308 355.02 28.415C355.085 28.5198 355.166 28.5904 355.264 28.6268C355.365 28.6611 355.471 28.6782 355.582 28.6782C355.665 28.6782 355.734 28.6739 355.787 28.6653C355.841 28.6546 355.884 28.6461 355.916 28.6397L356.07 29.3201C356.019 29.3394 355.947 29.3587 355.855 29.3779C355.763 29.3993 355.646 29.41 355.505 29.41C355.291 29.41 355.081 29.364 354.876 29.272C354.673 29.18 354.504 29.0398 354.369 28.8515C354.236 28.6632 354.17 28.4257 354.17 28.1389V23.2343Z" fill="#E0DFEC"/>
</g>
<rect x="0.5" y="0.5" width="389" height="284" rx="7.5" stroke="#323150"/>
<defs>
<linearGradient id="paint0_linear_920_15" x1="272.556" y1="228.697" x2="328.384" y2="136.5" gradientUnits="userSpaceOnUse">
<stop stop-color="#3B3A5F"/>
<stop offset="1" stop-color="#7A78C5" stop-opacity="0"/>
</linearGradient>
<linearGradient id="paint1_linear_920_15" x1="359.769" y1="109.826" x2="329.851" y2="164.002" gradientUnits="userSpaceOnUse">
<stop stop-color="#F93C52"/>
<stop offset="0.30858" stop-color="#DB3869" stop-opacity="0.927816"/>
<stop offset="0.703319" stop-color="#2B21F3" stop-opacity="0.5"/>
<stop offset="1" stop-color="#141320" stop-opacity="0"/>
</linearGradient>
<linearGradient id="paint2_linear_920_15" x1="344.993" y1="209.789" x2="343.34" y2="260.736" gradientUnits="userSpaceOnUse">
<stop stop-color="#8281B1" stop-opacity="0"/>
<stop offset="1" stop-color="#859900"/>
</linearGradient>
<linearGradient id="paint3_linear_920_15" x1="377.096" y1="85.3359" x2="373.626" y2="125.7" gradientUnits="userSpaceOnUse">
<stop stop-color="#8281B1" stop-opacity="0"/>
<stop offset="1" stop-color="#C3C2E0"/>
</linearGradient>
<linearGradient id="paint4_linear_920_15" x1="291.065" y1="216.331" x2="96.0907" y2="113.726" gradientUnits="userSpaceOnUse">
<stop stop-color="#8281B1" stop-opacity="0"/>
<stop offset="1" stop-color="#CC9900"/>
</linearGradient>
<linearGradient id="paint5_linear_920_15" x1="7.09572" y1="252.585" x2="49.5646" y2="117.35" gradientUnits="userSpaceOnUse">
<stop stop-color="#8281B1" stop-opacity="0"/>
<stop offset="1" stop-color="white"/>
</linearGradient>
<clipPath id="clip0_920_15">
<rect width="390" height="285" rx="8" fill="white"/>
</clipPath>
<clipPath id="clip1_920_15">
<rect width="35.5698" height="31.771" fill="white" transform="translate(308.304 141.912)"/>
</clipPath>
</defs>
</svg>
