<svg width="390" height="285" viewBox="0 0 390 285" fill="none" xmlns="http://www.w3.org/2000/svg">
<g clip-path="url(#clip0_930_731)">
<path opacity="0.3" d="M58.1024 -794.666L58.1024 255.107" stroke="#28273F" stroke-width="3.61555"/>
<path opacity="0.3" d="M325.925 10.3071L325.925 90.6797" stroke="#28273F" stroke-width="3.61555"/>
<path d="M325.925 180.918L325.925 255.107" stroke="#28273F" stroke-width="3.61555"/>
<path d="M326.114 254.621L58.1025 254.621" stroke="#28273F" stroke-width="3.61555"/>
<path d="M280.969 135.61L58.1025 135.61" stroke="#28273F" stroke-width="0.903888" stroke-linecap="round"/>
<path d="M325.794 211.719C325.971 211.896 326.257 211.896 326.433 211.719L329.309 208.843C329.486 208.667 329.486 208.381 329.309 208.204C329.133 208.028 328.847 208.028 328.67 208.204L326.114 210.761L323.557 208.204C323.381 208.028 323.094 208.028 322.918 208.204C322.741 208.381 322.741 208.667 322.918 208.843L325.794 211.719ZM326.566 211.4L326.566 180.918L325.662 180.918L325.662 211.4L326.566 211.4Z" fill="url(#paint0_linear_930_731)"/>
<path opacity="0.3" d="M325.794 90.9993C325.971 91.1758 326.257 91.1758 326.433 90.9993L329.309 88.1231C329.486 87.9466 329.486 87.6605 329.309 87.484C329.133 87.3075 328.847 87.3075 328.67 87.484L326.114 90.0405L323.557 87.484C323.381 87.3075 323.094 87.3075 322.918 87.484C322.741 87.6605 322.741 87.9466 322.918 88.1231L325.794 90.9993ZM326.566 90.6797L326.566 60.5063L325.662 60.5063L325.662 90.6797L326.566 90.6797Z" fill="url(#paint1_linear_930_731)"/>
<path d="M170.199 254.301C170.022 254.478 170.022 254.764 170.199 254.94L173.075 257.816C173.251 257.993 173.537 257.993 173.714 257.816C173.89 257.64 173.89 257.354 173.714 257.177L171.157 254.621L173.714 252.064C173.89 251.888 173.89 251.601 173.714 251.425C173.537 251.248 173.251 251.248 173.075 251.425L170.199 254.301ZM170.518 255.073L266.352 255.073L266.352 254.169L170.518 254.169L170.518 255.073Z" fill="url(#paint2_linear_930_731)"/>
<path d="M58.422 23.28C58.2455 23.1035 57.9593 23.1035 57.7828 23.28L54.9067 26.1562C54.7302 26.3327 54.7302 26.6188 54.9067 26.7953C55.0832 26.9718 55.3693 26.9718 55.5458 26.7953L58.1024 24.2388L60.659 26.7953C60.8355 26.9718 61.1216 26.9718 61.2981 26.7953C61.4746 26.6188 61.4746 26.3327 61.2981 26.1562L58.422 23.28ZM57.6504 23.5996L57.6505 174.894L58.5543 174.894L58.5543 23.5996L57.6504 23.5996Z" fill="url(#paint3_linear_930_731)"/>
<path opacity="0.3" d="M58.4221 -462.283C58.2456 -462.46 57.9594 -462.46 57.7829 -462.283L54.9067 -459.407C54.7303 -459.231 54.7303 -458.945 54.9067 -458.768C55.0832 -458.592 55.3694 -458.592 55.5459 -458.768L58.1025 -461.325L60.6591 -458.768C60.8356 -458.592 61.1217 -458.592 61.2982 -458.768C61.4747 -458.945 61.4747 -459.231 61.2982 -459.407L58.4221 -462.283ZM57.6505 -461.964L57.6505 99.0277L58.5543 99.0277L58.5544 -461.964L57.6505 -461.964Z" fill="url(#paint4_linear_930_731)"/>
<rect x="282.454" y="91.1316" width="87.3197" height="89.3347" rx="14.0103" fill="#28273F" stroke="url(#paint5_linear_930_731)" stroke-width="0.903888"/>
<rect x="282.002" y="90.6797" width="88.2236" height="90.2386" rx="14.4622" fill="url(#paint6_linear_930_731)"/>
<rect x="285.018" y="93.9575" width="81.8138" height="83.6824" rx="14.4622" fill="#141320"/>
<rect x="282.454" y="-79.4795" width="87.3197" height="89.3347" rx="14.0103" fill="#28273F" stroke="url(#paint7_linear_930_731)" stroke-width="0.903888"/>
<rect opacity="0.3" x="282.002" y="-79.9314" width="88.2236" height="90.2386" rx="14.4622" fill="url(#paint8_linear_930_731)"/>
<rect opacity="0.3" x="285.018" y="-76.6533" width="81.8138" height="83.6824" rx="14.4622" fill="#141320"/>
<rect x="303.515" y="213.065" width="47.0022" height="20.7534" rx="3.16361" fill="#28273F"/>
<rect x="303.515" y="213.065" width="47.0022" height="20.7534" rx="3.16361" stroke="#859900" stroke-width="0.903888"/>
<path d="M318.414 221.074V220.368H323.344V221.074H321.277V226.942H320.481V221.074H318.414ZM323.596 226.942V222.011H324.328V222.756H324.38C324.469 222.512 324.632 222.314 324.867 222.162C325.103 222.01 325.368 221.934 325.663 221.934C325.719 221.934 325.789 221.935 325.872 221.938C325.956 221.94 326.019 221.943 326.061 221.947V222.718C326.036 222.711 325.977 222.701 325.885 222.689C325.795 222.674 325.7 222.666 325.599 222.666C325.36 222.666 325.146 222.716 324.957 222.817C324.771 222.915 324.623 223.052 324.514 223.228C324.407 223.401 324.354 223.599 324.354 223.822V226.942H323.596ZM329.705 224.926V222.011H330.463V226.942H329.705V226.107H329.654C329.538 226.357 329.358 226.57 329.114 226.746C328.87 226.919 328.562 227.006 328.19 227.006C327.882 227.006 327.608 226.938 327.368 226.804C327.129 226.667 326.94 226.461 326.803 226.187C326.666 225.911 326.598 225.564 326.598 225.144V222.011H327.355V225.093C327.355 225.452 327.456 225.739 327.657 225.953C327.86 226.167 328.119 226.274 328.434 226.274C328.622 226.274 328.814 226.226 329.008 226.13C329.205 226.033 329.37 225.886 329.503 225.687C329.638 225.488 329.705 225.234 329.705 224.926ZM333.556 227.044C333.08 227.044 332.671 226.94 332.326 226.73C331.984 226.518 331.72 226.223 331.533 225.844C331.349 225.463 331.257 225.02 331.257 224.515C331.257 224.01 331.349 223.565 331.533 223.18C331.72 222.792 331.978 222.491 332.31 222.275C332.644 222.056 333.033 221.947 333.478 221.947C333.735 221.947 333.989 221.99 334.239 222.076C334.49 222.161 334.717 222.3 334.923 222.493C335.128 222.683 335.292 222.936 335.414 223.25C335.536 223.565 335.597 223.952 335.597 224.412V224.733H331.797V224.078H334.827C334.827 223.8 334.771 223.552 334.66 223.334C334.551 223.116 334.394 222.943 334.191 222.817C333.99 222.691 333.752 222.628 333.478 222.628C333.177 222.628 332.916 222.703 332.695 222.852C332.477 223 332.309 223.193 332.191 223.43C332.074 223.668 332.015 223.922 332.015 224.194V224.631C332.015 225.003 332.079 225.319 332.207 225.577C332.338 225.834 332.519 226.03 332.75 226.165C332.981 226.298 333.25 226.364 333.556 226.364C333.755 226.364 333.934 226.336 334.095 226.28C334.257 226.223 334.398 226.137 334.515 226.024C334.633 225.908 334.724 225.765 334.788 225.594L335.52 225.799C335.443 226.047 335.313 226.265 335.132 226.454C334.95 226.64 334.725 226.785 334.457 226.89C334.19 226.993 333.889 227.044 333.556 227.044Z" fill="#EFEFF5"/>
<g opacity="0.3">
<rect x="303.516" y="39.3008" width="47.0022" height="20.7534" rx="3.16361" fill="#28273F"/>
<rect x="303.516" y="39.3008" width="47.0022" height="20.7534" rx="3.16361" stroke="#859900" stroke-width="0.903888"/>
<path d="M322.364 48.2472C322.325 47.9219 322.169 47.6694 321.895 47.4897C321.621 47.3099 321.285 47.22 320.887 47.22C320.596 47.22 320.342 47.2671 320.123 47.3613C319.907 47.4554 319.738 47.5849 319.616 47.7497C319.496 47.9144 319.436 48.1017 319.436 48.3114C319.436 48.4869 319.478 48.6377 319.562 48.764C319.647 48.8881 319.756 48.9919 319.889 49.0753C320.022 49.1566 320.161 49.224 320.306 49.2775C320.452 49.3289 320.586 49.3706 320.708 49.4027L321.375 49.5825C321.546 49.6274 321.737 49.6895 321.947 49.7686C322.158 49.8478 322.361 49.9559 322.553 50.0928C322.748 50.2277 322.908 50.401 323.035 50.6128C323.161 50.8247 323.224 51.0847 323.224 51.3928C323.224 51.748 323.131 52.069 322.945 52.3558C322.761 52.6425 322.491 52.8704 322.136 53.0395C321.783 53.2085 321.354 53.293 320.849 53.293C320.378 53.293 319.97 53.2171 319.626 53.0651C319.283 52.9132 319.014 52.7014 318.817 52.4296C318.622 52.1578 318.512 51.8422 318.486 51.4827H319.308C319.329 51.7309 319.413 51.9364 319.558 52.099C319.706 52.2595 319.892 52.3793 320.117 52.4585C320.344 52.5355 320.588 52.574 320.849 52.574C321.153 52.574 321.426 52.5248 321.667 52.4264C321.909 52.3258 322.101 52.1867 322.242 52.0091C322.383 51.8294 322.454 51.6197 322.454 51.38C322.454 51.1617 322.393 50.9841 322.271 50.8472C322.149 50.7102 321.988 50.5989 321.789 50.5133C321.59 50.4277 321.375 50.3528 321.144 50.2886L320.335 50.0575C319.822 49.9099 319.415 49.6991 319.116 49.4252C318.816 49.1513 318.666 48.7929 318.666 48.3499C318.666 47.9818 318.766 47.6609 318.965 47.387C319.166 47.1109 319.435 46.8969 319.774 46.745C320.114 46.5909 320.494 46.5139 320.913 46.5139C321.337 46.5139 321.713 46.5898 322.043 46.7418C322.372 46.8916 322.633 47.097 322.826 47.3581C323.021 47.6191 323.124 47.9155 323.134 48.2472H322.364ZM325.519 53.293C325.207 53.293 324.924 53.2342 324.669 53.1165C324.414 52.9967 324.212 52.8244 324.062 52.5997C323.912 52.3729 323.838 52.099 323.838 51.778C323.838 51.4955 323.893 51.2666 324.004 51.0911C324.116 50.9135 324.264 50.7744 324.451 50.6738C324.637 50.5732 324.842 50.4984 325.067 50.4491C325.294 50.3978 325.522 50.3571 325.751 50.3272C326.05 50.2886 326.293 50.2598 326.479 50.2405C326.668 50.2191 326.804 50.1838 326.89 50.1346C326.978 50.0854 327.022 49.9998 327.022 49.8778V49.8521C327.022 49.5354 326.935 49.2893 326.762 49.1138C326.59 48.9384 326.33 48.8506 325.982 48.8506C325.62 48.8506 325.337 48.9298 325.131 49.0882C324.926 49.2465 324.781 49.4156 324.698 49.5953L323.979 49.3385C324.107 49.0389 324.278 48.8057 324.492 48.6388C324.708 48.4697 324.944 48.352 325.198 48.2857C325.455 48.2172 325.708 48.183 325.956 48.183C326.114 48.183 326.296 48.2023 326.502 48.2408C326.709 48.2771 326.909 48.3531 327.102 48.4687C327.297 48.5842 327.458 48.7586 327.587 48.9919C327.715 49.2251 327.779 49.5375 327.779 49.9291V53.1775H327.022V52.5098H326.983C326.932 52.6168 326.846 52.7313 326.726 52.8533C326.607 52.9753 326.447 53.0791 326.248 53.1647C326.049 53.2502 325.806 53.293 325.519 53.293ZM325.635 52.6126C325.935 52.6126 326.187 52.5537 326.393 52.436C326.6 52.3183 326.756 52.1664 326.861 51.9802C326.968 51.7941 327.022 51.5983 327.022 51.3928V50.6995C326.99 50.738 326.919 50.7733 326.81 50.8054C326.703 50.8354 326.579 50.8621 326.437 50.8857C326.298 50.9071 326.163 50.9263 326.03 50.9434C325.899 50.9584 325.793 50.9713 325.712 50.982C325.515 51.0076 325.331 51.0494 325.16 51.1071C324.991 51.1628 324.854 51.2473 324.749 51.3607C324.646 51.472 324.595 51.6239 324.595 51.8165C324.595 52.0797 324.692 52.2787 324.887 52.4136C325.084 52.5462 325.333 52.6126 325.635 52.6126ZM330.996 48.2472V48.8892H328.338V48.2472H330.996ZM329.134 53.1775V47.5667C329.134 47.2842 329.2 47.0489 329.333 46.8605C329.466 46.6722 329.638 46.531 329.85 46.4368C330.062 46.3427 330.285 46.2956 330.521 46.2956C330.707 46.2956 330.859 46.3106 330.977 46.3406C331.094 46.3705 331.182 46.3983 331.24 46.424L331.021 47.0788C330.983 47.066 330.929 47.0499 330.861 47.0307C330.795 47.0114 330.707 47.0018 330.598 47.0018C330.347 47.0018 330.167 47.0649 330.055 47.1912C329.946 47.3174 329.892 47.5025 329.892 47.7465V53.1775H329.134ZM333.56 53.2802C333.085 53.2802 332.675 53.1754 332.331 52.9656C331.988 52.7538 331.724 52.4585 331.538 52.0797C331.354 51.6988 331.262 51.2559 331.262 50.7509C331.262 50.2458 331.354 49.8007 331.538 49.4156C331.724 49.0282 331.983 48.7265 332.315 48.5104C332.648 48.2921 333.038 48.183 333.483 48.183C333.74 48.183 333.993 48.2258 334.244 48.3114C334.494 48.397 334.722 48.5361 334.927 48.7287C335.133 48.9191 335.297 49.1716 335.418 49.4862C335.54 49.8007 335.601 50.1881 335.601 50.6481V50.9691H331.801V50.3143H334.831C334.831 50.0361 334.775 49.7879 334.664 49.5696C334.555 49.3514 334.399 49.1791 334.196 49.0529C333.994 48.9266 333.757 48.8635 333.483 48.8635C333.181 48.8635 332.92 48.9384 332.7 49.0882C332.481 49.2358 332.314 49.4284 332.196 49.6659C332.078 49.9035 332.019 50.1581 332.019 50.4299V50.8664C332.019 51.2388 332.083 51.5544 332.212 51.8133C332.342 52.0701 332.523 52.2659 332.754 52.4007C332.985 52.5334 333.254 52.5997 333.56 52.5997C333.759 52.5997 333.939 52.5719 334.099 52.5163C334.262 52.4585 334.402 52.3729 334.52 52.2595C334.637 52.1439 334.728 52.0006 334.793 51.8294L335.524 52.0348C335.447 52.283 335.318 52.5013 335.136 52.6896C334.954 52.8758 334.729 53.0213 334.462 53.1261C334.194 53.2288 333.894 53.2802 333.56 53.2802Z" fill="#EFEFF5"/>
</g>
<g clip-path="url(#clip1_930_731)">
<path d="M308.646 118.53L323.103 118.5C323.682 118.402 324.039 118.018 324.12 117.441C324.245 116.576 324.209 114.558 324.141 113.648C324.1 113.09 323.937 112.62 323.377 112.404C318.535 112.169 313.645 112.367 308.786 112.303C308.151 112.363 307.748 112.608 307.5 113.201V117.63C307.733 118.181 308.032 118.466 308.644 118.528L308.646 118.53Z" fill="#4F4E7E"/>
<path d="M323.103 129.22L308.782 129.186C308.105 129.239 307.78 129.475 307.502 130.088V134.517C307.665 134.872 307.882 135.172 308.266 135.312C313.082 135.555 317.955 135.345 322.791 135.419C323.697 135.347 324.075 134.977 324.143 134.069C324.211 133.161 324.247 131.144 324.122 130.279C324.039 129.701 323.684 129.318 323.105 129.22H323.103Z" fill="#4F4E7E"/>
<path d="M332.289 137.629L317.955 137.65C317.425 137.718 316.988 138.175 316.932 138.705C316.837 139.585 316.83 141.914 316.939 142.781C317.041 143.579 317.68 143.853 318.418 143.864C322.886 143.606 327.724 144.197 332.149 143.864C332.966 143.802 333.495 143.534 333.569 142.652C333.646 141.741 333.679 139.515 333.561 138.643C333.48 138.048 332.883 137.599 332.289 137.631V137.629Z" fill="#4F4E7E"/>
<path d="M327.707 118.534L341.784 118.534C342.482 118.498 342.936 118.094 342.998 117.392C343.08 116.48 343.108 114.186 342.989 113.312C342.889 112.576 342.229 112.344 341.576 112.299C337.052 111.987 332.153 112.521 327.59 112.323C326.849 112.361 326.431 112.78 326.357 113.514C326.268 114.396 326.259 116.516 326.365 117.382C326.456 118.132 326.966 118.522 327.705 118.536L327.707 118.534Z" fill="#4F4E7E"/>
<path d="M333.571 125.765C333.65 124.84 333.675 122.722 333.561 121.826C333.467 121.076 332.862 120.75 332.151 120.742L318.094 120.765C317.442 120.825 317 121.231 316.932 121.888C316.839 122.804 316.831 124.989 316.939 125.894C317.024 126.611 317.591 126.958 318.28 126.977L332.289 126.977C333.056 126.911 333.504 126.545 333.571 125.765Z" fill="#4F4E7E"/>
<path d="M341.646 129.186L327.45 129.207C326.781 129.307 326.425 129.739 326.359 130.4C326.27 131.279 326.261 133.401 326.367 134.267C326.471 135.115 326.994 135.366 327.777 135.421C332.272 135.73 337.116 135.181 341.648 135.421C342.378 135.364 342.93 135.062 343 134.279C343.081 133.365 343.11 131.075 342.991 130.199C342.904 129.556 342.272 129.157 341.648 129.186H341.646Z" fill="#4F4E7E"/>
<path d="M308.852 126.975C310.006 127.073 312.356 127.087 313.498 126.972C314.092 126.911 314.585 126.6 314.646 125.973C314.738 125.018 314.757 122.611 314.644 121.677C314.568 121.05 313.993 120.797 313.428 120.746C312.326 120.642 309.815 120.629 308.735 120.765C308.113 120.842 307.661 121.178 307.58 121.826C307.468 122.7 307.483 124.937 307.572 125.831C307.646 126.569 308.136 126.915 308.852 126.977V126.975Z" fill="#4F4E7E"/>
<path d="M335.853 126.041C335.928 126.662 336.513 126.928 337.065 126.975C338.218 127.073 340.57 127.087 341.711 126.971C342.446 126.898 342.864 126.498 342.926 125.763C343.01 124.799 343.019 122.841 342.923 121.886C342.847 121.142 342.348 120.81 341.641 120.744C340.538 120.64 338.027 120.627 336.948 120.763C336.413 120.829 336 121.065 335.859 121.612C335.974 123.004 335.688 124.684 335.853 126.039V126.041Z" fill="#4F4E7E"/>
<path d="M313.498 137.633C311.961 137.478 310.161 137.731 308.595 137.65C308.005 137.737 307.631 138.188 307.572 138.775C307.478 139.715 307.478 141.78 307.572 142.719C307.653 143.515 308.187 143.798 308.924 143.861C309.735 143.929 313.339 143.97 313.952 143.761C314.341 143.627 314.6 143.259 314.644 142.858C314.748 141.882 314.742 139.617 314.647 138.634C314.587 138.005 314.093 137.694 313.5 137.635L313.498 137.633Z" fill="#4F4E7E"/>
<path d="M341.781 137.633C340.733 137.528 337.887 137.505 336.878 137.65C336.388 137.72 335.976 138.011 335.859 138.502C335.959 139.889 335.707 141.499 335.855 142.858C335.898 143.259 336.157 143.627 336.547 143.761C337.16 143.97 340.763 143.931 341.575 143.861C342.367 143.793 342.858 143.493 342.93 142.653C343.013 141.682 343.023 139.734 342.927 138.775C342.86 138.122 342.439 137.699 341.783 137.633H341.781Z" fill="#4F4E7E"/>
<rect x="317.154" y="119.979" width="16.261" height="16.261" rx="3.02529" fill="#EFEFF5"/>
<path d="M322.814 128.259L324.362 129.807L327.755 126.413" stroke="#141320" stroke-width="1.70173" stroke-linecap="round"/>
</g>
<path d="M298.735 157.57L296.938 150.996H297.746L299.12 156.35H299.184L300.584 150.996H301.483L302.882 156.35H302.946L304.32 150.996L305.129 150.996L303.332 157.57H302.51L301.059 152.332H301.008L299.557 157.57H298.735ZM306.648 157.686C306.336 157.686 306.052 157.627 305.798 157.509C305.543 157.389 305.341 157.217 305.191 156.992C305.041 156.765 304.966 156.492 304.966 156.171C304.966 155.888 305.022 155.659 305.133 155.484C305.245 155.306 305.393 155.167 305.58 155.066C305.766 154.966 305.971 154.891 306.196 154.842C306.423 154.79 306.651 154.75 306.88 154.72C307.179 154.681 307.422 154.652 307.608 154.633C307.796 154.612 307.933 154.576 308.019 154.527C308.107 154.478 308.151 154.392 308.151 154.27V154.245C308.151 153.928 308.064 153.682 307.891 153.506C307.719 153.331 307.459 153.243 307.111 153.243C306.749 153.243 306.465 153.322 306.26 153.481C306.055 153.639 305.91 153.808 305.827 153.988L305.108 153.731C305.236 153.432 305.407 153.198 305.621 153.031C305.837 152.862 306.073 152.745 306.327 152.678C306.584 152.61 306.837 152.576 307.085 152.576C307.243 152.576 307.425 152.595 307.631 152.633C307.838 152.67 308.038 152.746 308.231 152.861C308.426 152.977 308.587 153.151 308.716 153.384C308.844 153.618 308.908 153.93 308.908 154.322V157.57H308.151V156.902H308.112C308.061 157.009 307.975 157.124 307.855 157.246C307.736 157.368 307.576 157.472 307.377 157.557C307.178 157.643 306.935 157.686 306.648 157.686ZM306.764 157.005C307.064 157.005 307.316 156.946 307.522 156.829C307.729 156.711 307.885 156.559 307.99 156.373C308.097 156.187 308.151 155.991 308.151 155.785V155.092C308.119 155.131 308.048 155.166 307.939 155.198C307.832 155.228 307.708 155.255 307.566 155.278C307.427 155.3 307.291 155.319 307.159 155.336C307.028 155.351 306.922 155.364 306.841 155.375C306.644 155.4 306.46 155.442 306.289 155.5C306.12 155.555 305.983 155.64 305.878 155.753C305.775 155.865 305.724 156.017 305.724 156.209C305.724 156.472 305.821 156.671 306.016 156.806C306.213 156.939 306.462 157.005 306.764 157.005ZM310.687 150.996V157.57H309.929V150.996H310.687ZM312.47 150.996V157.57H311.713V150.996H312.47ZM315.563 157.673C315.088 157.673 314.678 157.568 314.334 157.358C313.991 157.146 313.727 156.851 313.541 156.472C313.357 156.091 313.265 155.648 313.265 155.143C313.265 154.638 313.357 154.193 313.541 153.808C313.727 153.421 313.986 153.119 314.318 152.903C314.652 152.685 315.041 152.576 315.486 152.576C315.743 152.576 315.997 152.618 316.247 152.704C316.497 152.79 316.725 152.929 316.931 153.121C317.136 153.312 317.3 153.564 317.422 153.879C317.544 154.193 317.605 154.581 317.605 155.041V155.362H313.804V154.707H316.834C316.834 154.429 316.779 154.18 316.667 153.962C316.558 153.744 316.402 153.572 316.199 153.445C315.998 153.319 315.76 153.256 315.486 153.256C315.184 153.256 314.923 153.331 314.703 153.481C314.485 153.628 314.317 153.821 314.199 154.059C314.081 154.296 314.022 154.551 314.022 154.822V155.259C314.022 155.631 314.087 155.947 314.215 156.206C314.346 156.463 314.526 156.658 314.758 156.793C314.989 156.926 315.257 156.992 315.563 156.992C315.762 156.992 315.942 156.964 316.102 156.909C316.265 156.851 316.405 156.765 316.523 156.652C316.641 156.537 316.732 156.393 316.796 156.222L317.528 156.427C317.451 156.676 317.321 156.894 317.139 157.082C316.957 157.268 316.733 157.414 316.465 157.519C316.198 157.621 315.897 157.673 315.563 157.673ZM320.257 157.673C319.846 157.673 319.484 157.569 319.169 157.361C318.854 157.152 318.608 156.856 318.431 156.476C318.253 156.092 318.164 155.64 318.164 155.118C318.164 154.6 318.253 154.151 318.431 153.77C318.608 153.389 318.856 153.094 319.172 152.887C319.489 152.679 319.855 152.576 320.27 152.576C320.591 152.576 320.845 152.629 321.031 152.736C321.219 152.841 321.362 152.961 321.461 153.096C321.561 153.228 321.639 153.337 321.695 153.423H321.759V150.996H322.517V157.57H321.785V156.813H321.695C321.639 156.902 321.56 157.016 321.458 157.153C321.355 157.288 321.208 157.409 321.018 157.516C320.827 157.62 320.574 157.673 320.257 157.673ZM320.36 156.992C320.664 156.992 320.92 156.913 321.13 156.755C321.34 156.594 321.499 156.373 321.608 156.09C321.718 155.806 321.772 155.477 321.772 155.105C321.772 154.737 321.719 154.415 321.612 154.139C321.505 153.861 321.346 153.644 321.137 153.49C320.927 153.334 320.668 153.256 320.36 153.256C320.039 153.256 319.771 153.338 319.557 153.503C319.346 153.666 319.186 153.887 319.079 154.168C318.974 154.446 318.922 154.758 318.922 155.105C318.922 155.456 318.975 155.775 319.082 156.061C319.191 156.346 319.352 156.573 319.564 156.742C319.778 156.909 320.043 156.992 320.36 156.992ZM331.221 153.051H330.425C330.378 152.822 330.296 152.621 330.178 152.447C330.062 152.274 329.921 152.128 329.754 152.011C329.589 151.891 329.406 151.801 329.205 151.741C329.004 151.681 328.794 151.651 328.576 151.651C328.178 151.651 327.818 151.752 327.494 151.953C327.173 152.154 326.918 152.45 326.727 152.842C326.539 153.234 326.445 153.714 326.445 154.283C326.445 154.852 326.539 155.333 326.727 155.724C326.918 156.116 327.173 156.412 327.494 156.614C327.818 156.815 328.178 156.915 328.576 156.915C328.794 156.915 329.004 156.885 329.205 156.825C329.406 156.765 329.589 156.677 329.754 156.559C329.921 156.439 330.062 156.293 330.178 156.119C330.296 155.944 330.378 155.743 330.425 155.516H331.221C331.161 155.852 331.052 156.152 330.894 156.418C330.735 156.683 330.538 156.909 330.303 157.095C330.068 157.279 329.803 157.419 329.51 157.516C329.219 157.612 328.908 157.66 328.576 157.66C328.015 157.66 327.517 157.523 327.08 157.249C326.644 156.975 326.3 156.586 326.05 156.081C325.8 155.576 325.674 154.977 325.674 154.283C325.674 153.59 325.8 152.991 326.05 152.486C326.3 151.981 326.644 151.591 327.08 151.317C327.517 151.043 328.015 150.906 328.576 150.906C328.908 150.906 329.219 150.955 329.51 151.051C329.803 151.147 330.068 151.288 330.303 151.475C330.538 151.659 330.735 151.883 330.894 152.149C331.052 152.412 331.161 152.713 331.221 153.051ZM334.046 157.673C333.601 157.673 333.21 157.567 332.874 157.355C332.541 157.143 332.28 156.847 332.091 156.466C331.905 156.085 331.812 155.64 331.812 155.131C331.812 154.617 331.905 154.169 332.091 153.786C332.28 153.403 332.541 153.105 332.874 152.893C333.21 152.681 333.601 152.576 334.046 152.576C334.491 152.576 334.881 152.681 335.214 152.893C335.55 153.105 335.811 153.403 335.998 153.786C336.186 154.169 336.28 154.617 336.28 155.131C336.28 155.64 336.186 156.085 335.998 156.466C335.811 156.847 335.55 157.143 335.214 157.355C334.881 157.567 334.491 157.673 334.046 157.673ZM334.046 156.992C334.384 156.992 334.662 156.906 334.881 156.732C335.099 156.559 335.26 156.331 335.365 156.049C335.47 155.766 335.523 155.46 335.523 155.131C335.523 154.801 335.47 154.494 335.365 154.209C335.26 153.925 335.099 153.695 334.881 153.519C334.662 153.344 334.384 153.256 334.046 153.256C333.708 153.256 333.43 153.344 333.211 153.519C332.993 153.695 332.832 153.925 332.727 154.209C332.622 154.494 332.569 154.801 332.569 155.131C332.569 155.46 332.622 155.766 332.727 156.049C332.832 156.331 332.993 156.559 333.211 156.732C333.43 156.906 333.708 156.992 334.046 156.992ZM337.075 157.57V152.64H337.807V153.384H337.858C337.948 153.141 338.111 152.943 338.346 152.791C338.581 152.639 338.847 152.563 339.142 152.563C339.198 152.563 339.267 152.564 339.351 152.566C339.434 152.568 339.497 152.571 339.54 152.576V153.346C339.514 153.34 339.455 153.33 339.363 153.317C339.274 153.302 339.178 153.295 339.078 153.295C338.838 153.295 338.624 153.345 338.436 153.445C338.25 153.544 338.102 153.681 337.993 153.856C337.886 154.03 337.832 154.228 337.832 154.45V157.57H337.075ZM340.076 157.57V152.64H340.808V153.384H340.86C340.949 153.141 341.112 152.943 341.347 152.791C341.583 152.639 341.848 152.563 342.144 152.563C342.199 152.563 342.269 152.564 342.352 152.566C342.436 152.568 342.499 152.571 342.542 152.576V153.346C342.516 153.34 342.457 153.33 342.365 153.317C342.275 153.302 342.18 153.295 342.079 153.295C341.84 153.295 341.626 153.345 341.437 153.445C341.251 153.544 341.104 153.681 340.994 153.856C340.887 154.03 340.834 154.228 340.834 154.45V157.57H340.076ZM344.995 157.673C344.52 157.673 344.11 157.568 343.766 157.358C343.423 157.146 343.159 156.851 342.973 156.472C342.789 156.091 342.697 155.648 342.697 155.143C342.697 154.638 342.789 154.193 342.973 153.808C343.159 153.421 343.418 153.119 343.75 152.903C344.083 152.685 344.473 152.576 344.918 152.576C345.175 152.576 345.428 152.618 345.679 152.704C345.929 152.79 346.157 152.929 346.362 153.121C346.568 153.312 346.732 153.564 346.854 153.879C346.975 154.193 347.036 154.581 347.036 155.041V155.362H343.236V154.707H346.266C346.266 154.429 346.21 154.18 346.099 153.962C345.99 153.744 345.834 153.572 345.631 153.445C345.429 153.319 345.192 153.256 344.918 153.256C344.616 153.256 344.355 153.331 344.135 153.481C343.917 153.628 343.749 153.821 343.631 154.059C343.513 154.296 343.454 154.551 343.454 154.822V155.259C343.454 155.631 343.518 155.947 343.647 156.206C343.777 156.463 343.958 156.658 344.189 156.793C344.42 156.926 344.689 156.992 344.995 156.992C345.194 156.992 345.374 156.964 345.534 156.909C345.697 156.851 345.837 156.765 345.955 156.652C346.072 156.537 346.163 156.393 346.228 156.222L346.959 156.427C346.882 156.676 346.753 156.894 346.571 157.082C346.389 157.268 346.164 157.414 345.897 157.519C345.629 157.621 345.329 157.673 344.995 157.673ZM349.83 157.673C349.368 157.673 348.97 157.564 348.636 157.345C348.302 157.127 348.046 156.826 347.866 156.443C347.686 156.06 347.596 155.623 347.596 155.131C347.596 154.63 347.688 154.188 347.872 153.805C348.058 153.42 348.317 153.119 348.649 152.903C348.983 152.685 349.372 152.576 349.817 152.576C350.164 152.576 350.476 152.64 350.755 152.768C351.033 152.897 351.261 153.076 351.438 153.307C351.616 153.539 351.726 153.808 351.769 154.116H351.011C350.954 153.892 350.825 153.693 350.626 153.519C350.429 153.344 350.164 153.256 349.83 153.256C349.535 153.256 349.276 153.333 349.053 153.487C348.833 153.639 348.661 153.854 348.537 154.132C348.415 154.408 348.354 154.733 348.354 155.105C348.354 155.486 348.414 155.818 348.533 156.1C348.655 156.382 348.827 156.602 349.047 156.758C349.27 156.914 349.531 156.992 349.83 156.992C350.027 156.992 350.206 156.958 350.366 156.89C350.527 156.821 350.663 156.723 350.774 156.594C350.885 156.466 350.964 156.312 351.011 156.132H351.769C351.726 156.423 351.62 156.685 351.451 156.918C351.284 157.15 351.063 157.334 350.787 157.471C350.513 157.605 350.194 157.673 349.83 157.673ZM354.659 152.64V153.282H352.104V152.64L354.659 152.64ZM352.849 151.459H353.606V156.158C353.606 156.372 353.637 156.532 353.699 156.639C353.763 156.744 353.845 156.815 353.943 156.851C354.044 156.885 354.15 156.902 354.261 156.902C354.344 156.902 354.413 156.898 354.466 156.89C354.52 156.879 354.563 156.87 354.595 156.864L354.749 157.544C354.697 157.564 354.626 157.583 354.534 157.602C354.442 157.624 354.325 157.634 354.184 157.634C353.97 157.634 353.76 157.588 353.555 157.496C353.351 157.404 353.182 157.264 353.048 157.076C352.915 156.887 352.849 156.65 352.849 156.363V151.459Z" fill="#E0DFEC"/>
<path d="M57.783 135.29C57.6065 135.467 57.6065 135.753 57.783 135.929L60.6591 138.806C60.8356 138.982 61.1218 138.982 61.2983 138.806C61.4748 138.629 61.4748 138.343 61.2983 138.166L58.7417 135.61L61.2983 133.053C61.4748 132.877 61.4748 132.591 61.2983 132.414C61.1218 132.238 60.8356 132.238 60.6591 132.414L57.783 135.29ZM58.1025 136.062L280.969 136.062L280.969 135.158L58.1025 135.158L58.1025 136.062Z" fill="url(#paint9_linear_930_731)"/>
<rect x="100.544" y="116.352" width="114.794" height="34.2907" rx="3.61555" fill="#28273F"/>
<path d="M116.406 136.997L116.406 129.108H121.136V129.956H117.361L117.361 132.621H120.782V133.469H117.361V136.997H116.406ZM122.215 136.997L122.215 131.08H123.124L123.124 136.997H122.215ZM122.677 130.094C122.5 130.094 122.347 130.034 122.219 129.913C122.093 129.793 122.03 129.648 122.03 129.478C122.03 129.309 122.093 129.164 122.219 129.043C122.347 128.922 122.5 128.862 122.677 128.862C122.855 128.862 123.006 128.922 123.132 129.043C123.26 129.164 123.324 129.309 123.324 129.478C123.324 129.648 123.26 129.793 123.132 129.913C123.006 130.034 122.855 130.094 122.677 130.094ZM125.264 129.108L125.264 136.997H124.355L124.355 129.108H125.264ZM129.068 131.08V131.851H126.002L126.002 131.08H129.068ZM126.896 129.663H127.805L127.805 135.302C127.805 135.559 127.842 135.751 127.917 135.88C127.994 136.006 128.091 136.09 128.209 136.134C128.33 136.175 128.457 136.196 128.591 136.196C128.691 136.196 128.773 136.191 128.837 136.18C128.901 136.167 128.953 136.157 128.991 136.149L129.176 136.966C129.115 136.989 129.029 137.012 128.918 137.035C128.808 137.061 128.668 137.074 128.498 137.074C128.241 137.074 127.99 137.019 127.743 136.908C127.499 136.798 127.296 136.63 127.135 136.404C126.976 136.178 126.896 135.893 126.896 135.549L126.896 129.663ZM132.419 137.12C131.849 137.12 131.357 136.994 130.944 136.743C130.533 136.488 130.216 136.134 129.992 135.68C129.771 135.222 129.661 134.691 129.661 134.085C129.661 133.479 129.771 132.945 129.992 132.483C130.216 132.018 130.526 131.656 130.924 131.396C131.325 131.134 131.792 131.003 132.326 131.003C132.635 131.003 132.939 131.055 133.239 131.158C133.54 131.26 133.813 131.427 134.06 131.658C134.306 131.887 134.503 132.19 134.649 132.567C134.795 132.945 134.869 133.41 134.869 133.962V134.347H130.308V133.561H133.944C133.944 133.227 133.877 132.929 133.744 132.667C133.613 132.405 133.425 132.199 133.181 132.047C132.94 131.896 132.655 131.82 132.326 131.82C131.964 131.82 131.651 131.91 131.387 132.09C131.125 132.267 130.923 132.498 130.782 132.783C130.641 133.068 130.57 133.374 130.57 133.7V134.224C130.57 134.67 130.647 135.049 130.801 135.36C130.958 135.668 131.175 135.903 131.452 136.065C131.729 136.224 132.052 136.304 132.419 136.304C132.658 136.304 132.873 136.27 133.066 136.203C133.261 136.134 133.429 136.031 133.571 135.895C133.712 135.757 133.821 135.585 133.898 135.379L134.776 135.626C134.684 135.923 134.528 136.185 134.31 136.411C134.092 136.635 133.822 136.809 133.501 136.935C133.18 137.058 132.819 137.12 132.419 137.12ZM135.818 136.997L135.818 131.08H136.696V131.974H136.757C136.865 131.681 137.06 131.444 137.343 131.261C137.625 131.079 137.944 130.988 138.298 130.988C138.365 130.988 138.448 130.989 138.548 130.992C138.649 130.994 138.724 130.998 138.776 131.003V131.928C138.745 131.92 138.674 131.909 138.564 131.893C138.456 131.875 138.342 131.866 138.221 131.866C137.933 131.866 137.677 131.927 137.451 132.047C137.227 132.165 137.05 132.33 136.919 132.54C136.791 132.748 136.727 132.986 136.727 133.253L136.727 136.997H135.818ZM141.72 137.12C141.15 137.12 140.658 136.994 140.245 136.743C139.834 136.488 139.517 136.134 139.293 135.68C139.072 135.222 138.962 134.691 138.962 134.085C138.962 133.479 139.072 132.945 139.293 132.483C139.517 132.018 139.827 131.656 140.225 131.396C140.626 131.134 141.093 131.003 141.627 131.003C141.936 131.003 142.24 131.055 142.54 131.158C142.841 131.26 143.114 131.427 143.361 131.658C143.607 131.887 143.804 132.19 143.95 132.567C144.096 132.945 144.17 133.41 144.17 133.962V134.347L139.609 134.347L139.609 133.561L143.245 133.561C143.245 133.227 143.178 132.929 143.045 132.667C142.914 132.405 142.726 132.199 142.483 132.047C142.241 131.896 141.956 131.82 141.627 131.82C141.265 131.82 140.952 131.91 140.688 132.09C140.426 132.267 140.224 132.498 140.083 132.783C139.942 133.068 139.871 133.374 139.871 133.7V134.224C139.871 134.67 139.948 135.049 140.102 135.36C140.259 135.668 140.476 135.903 140.753 136.065C141.03 136.224 141.353 136.304 141.72 136.304C141.959 136.304 142.174 136.27 142.367 136.203C142.562 136.134 142.73 136.031 142.872 135.895C143.013 135.757 143.122 135.585 143.199 135.379L144.077 135.626C143.985 135.923 143.829 136.185 143.611 136.411C143.393 136.635 143.123 136.809 142.802 136.935C142.481 137.058 142.12 137.12 141.72 137.12ZM147.353 137.12C146.86 137.12 146.424 136.996 146.047 136.746C145.669 136.495 145.374 136.14 145.161 135.683C144.948 135.224 144.841 134.681 144.841 134.054C144.841 133.433 144.948 132.893 145.161 132.436C145.374 131.979 145.671 131.626 146.051 131.377C146.431 131.128 146.87 131.003 147.368 131.003C147.753 131.003 148.057 131.068 148.281 131.196C148.507 131.322 148.679 131.466 148.797 131.627C148.918 131.787 149.011 131.918 149.078 132.02H149.155V129.108H150.064V136.997H149.186V136.088H149.078C149.011 136.196 148.916 136.332 148.793 136.496C148.67 136.658 148.494 136.803 148.265 136.931C148.037 137.057 147.733 137.12 147.353 137.12ZM147.476 136.304C147.84 136.304 148.149 136.208 148.4 136.018C148.652 135.826 148.843 135.56 148.974 135.221C149.105 134.88 149.171 134.485 149.171 134.039C149.171 133.597 149.106 133.211 148.978 132.879C148.85 132.545 148.66 132.286 148.408 132.101C148.156 131.914 147.846 131.82 147.476 131.82C147.091 131.82 146.77 131.919 146.513 132.117C146.259 132.312 146.067 132.578 145.939 132.914C145.813 133.248 145.75 133.623 145.75 134.039C145.75 134.46 145.814 134.842 145.943 135.186C146.074 135.528 146.266 135.8 146.521 136.003C146.777 136.203 147.096 136.304 147.476 136.304ZM154.161 136.997V129.108H156.827C157.443 129.108 157.949 129.214 158.345 129.424C158.74 129.632 159.033 129.919 159.223 130.283C159.413 130.648 159.508 131.062 159.508 131.527C159.508 131.992 159.413 132.404 159.223 132.764C159.033 133.123 158.741 133.406 158.348 133.611C157.955 133.814 157.453 133.915 156.842 133.915H154.685V133.053H156.811C157.233 133.053 157.572 132.991 157.828 132.868C158.088 132.744 158.275 132.57 158.391 132.344C158.509 132.115 158.568 131.843 158.568 131.527C158.568 131.211 158.509 130.935 158.391 130.699C158.273 130.463 158.084 130.281 157.825 130.152C157.565 130.021 157.222 129.956 156.796 129.956H155.117V136.997H154.161ZM157.875 133.453L159.816 136.997H158.707L156.796 133.453L157.875 133.453ZM162.959 137.12C162.389 137.12 161.898 136.994 161.484 136.743C161.073 136.488 160.756 136.134 160.533 135.68C160.312 135.222 160.202 134.691 160.202 134.085C160.202 133.479 160.312 132.945 160.533 132.483C160.756 132.018 161.067 131.656 161.465 131.396C161.865 131.134 162.333 131.003 162.867 131.003C163.175 131.003 163.479 131.055 163.78 131.158C164.08 131.26 164.354 131.427 164.6 131.658C164.847 131.887 165.043 132.19 165.19 132.567C165.336 132.945 165.409 133.41 165.409 133.962V134.347H160.849V133.561H164.485C164.485 133.227 164.418 132.929 164.284 132.667C164.153 132.405 163.966 132.199 163.722 132.047C163.481 131.896 163.196 131.82 162.867 131.82C162.505 131.82 162.192 131.91 161.927 132.09C161.665 132.267 161.464 132.498 161.322 132.783C161.181 133.068 161.111 133.374 161.111 133.7V134.224C161.111 134.67 161.188 135.049 161.342 135.36C161.498 135.668 161.715 135.903 161.993 136.065C162.27 136.224 162.592 136.304 162.959 136.304C163.198 136.304 163.414 136.27 163.606 136.203C163.802 136.134 163.97 136.031 164.111 135.895C164.252 135.757 164.361 135.585 164.438 135.379L165.317 135.626C165.224 135.923 165.069 136.185 164.851 136.411C164.632 136.635 164.363 136.809 164.042 136.935C163.721 137.058 163.36 137.12 162.959 137.12ZM170.549 132.405L169.732 132.637C169.681 132.5 169.605 132.368 169.505 132.24C169.407 132.109 169.274 132.001 169.104 131.916C168.935 131.832 168.718 131.789 168.453 131.789C168.091 131.789 167.79 131.873 167.548 132.04C167.309 132.204 167.19 132.413 167.19 132.667C167.19 132.893 167.272 133.072 167.437 133.203C167.601 133.334 167.858 133.443 168.207 133.53L169.085 133.746C169.614 133.874 170.008 134.071 170.268 134.335C170.527 134.597 170.657 134.935 170.657 135.348C170.657 135.687 170.559 135.99 170.364 136.257C170.171 136.524 169.902 136.735 169.555 136.889C169.208 137.043 168.805 137.12 168.346 137.12C167.742 137.12 167.243 136.989 166.847 136.727C166.452 136.465 166.201 136.083 166.096 135.579L166.959 135.364C167.041 135.682 167.196 135.921 167.425 136.08C167.656 136.239 167.958 136.319 168.33 136.319C168.754 136.319 169.09 136.229 169.339 136.049C169.591 135.867 169.717 135.649 169.717 135.394C169.717 135.189 169.645 135.017 169.501 134.878C169.357 134.737 169.136 134.632 168.839 134.562L167.853 134.331C167.311 134.203 166.913 134.004 166.659 133.734C166.407 133.462 166.281 133.122 166.281 132.714C166.281 132.38 166.375 132.085 166.562 131.828C166.752 131.571 167.01 131.369 167.336 131.223C167.665 131.077 168.037 131.003 168.453 131.003C169.039 131.003 169.499 131.132 169.832 131.389C170.169 131.645 170.408 131.984 170.549 132.405ZM171.591 139.215L171.591 131.08H172.469V132.02H172.577C172.644 131.918 172.736 131.787 172.855 131.627C172.975 131.466 173.147 131.322 173.371 131.196C173.597 131.068 173.902 131.003 174.287 131.003C174.786 131.003 175.225 131.128 175.605 131.377C175.985 131.626 176.281 131.979 176.494 132.436C176.708 132.893 176.814 133.433 176.814 134.054C176.814 134.681 176.708 135.224 176.494 135.683C176.281 136.14 175.986 136.495 175.609 136.746C175.231 136.996 174.796 137.12 174.303 137.12C173.923 137.12 173.618 137.057 173.39 136.931C173.161 136.803 172.986 136.658 172.862 136.496C172.739 136.332 172.644 136.196 172.577 136.088H172.5L172.5 139.215H171.591ZM172.485 134.039C172.485 134.485 172.55 134.88 172.681 135.221C172.812 135.56 173.003 135.826 173.255 136.018C173.507 136.208 173.815 136.304 174.18 136.304C174.56 136.304 174.877 136.203 175.131 136.003C175.388 135.8 175.58 135.528 175.709 135.186C175.84 134.842 175.905 134.46 175.905 134.039C175.905 133.623 175.841 133.248 175.713 132.914C175.587 132.578 175.395 132.312 175.139 132.117C174.884 131.919 174.565 131.82 174.18 131.82C173.81 131.82 173.499 131.914 173.247 132.101C172.996 132.286 172.806 132.545 172.677 132.879C172.549 133.211 172.485 133.597 172.485 134.039ZM180.17 137.12C179.636 137.12 179.168 136.993 178.765 136.739C178.364 136.485 178.051 136.129 177.825 135.672C177.601 135.215 177.49 134.681 177.49 134.069C177.49 133.453 177.601 132.915 177.825 132.456C178.051 131.996 178.364 131.639 178.765 131.385C179.168 131.131 179.636 131.003 180.17 131.003C180.705 131.003 181.172 131.131 181.573 131.385C181.976 131.639 182.289 131.996 182.512 132.456C182.738 132.915 182.851 133.453 182.851 134.069C182.851 134.681 182.738 135.215 182.512 135.672C182.289 136.129 181.976 136.485 181.573 136.739C181.172 136.993 180.705 137.12 180.17 137.12ZM180.17 136.304C180.576 136.304 180.91 136.2 181.172 135.992C181.434 135.784 181.628 135.51 181.754 135.171C181.879 134.832 181.942 134.465 181.942 134.069C181.942 133.674 181.879 133.306 181.754 132.964C181.628 132.622 181.434 132.346 181.172 132.136C180.91 131.925 180.576 131.82 180.17 131.82C179.765 131.82 179.431 131.925 179.169 132.136C178.907 132.346 178.713 132.622 178.587 132.964C178.462 133.306 178.399 133.674 178.399 134.069C178.399 134.465 178.462 134.832 178.587 135.171C178.713 135.51 178.907 135.784 179.169 135.992C179.431 136.2 179.765 136.304 180.17 136.304ZM184.714 133.438V136.997H183.805V131.08H184.683V132.005H184.76C184.899 131.704 185.11 131.463 185.392 131.281C185.674 131.096 186.039 131.003 186.486 131.003C186.887 131.003 187.237 131.086 187.537 131.25C187.838 131.412 188.072 131.658 188.239 131.989C188.405 132.318 188.489 132.734 188.489 133.237V136.997H187.58V133.299C187.58 132.834 187.459 132.472 187.218 132.213C186.976 131.951 186.645 131.82 186.224 131.82C185.934 131.82 185.674 131.883 185.446 132.009C185.22 132.135 185.042 132.318 184.911 132.56C184.78 132.801 184.714 133.094 184.714 133.438ZM193.907 132.405L193.09 132.637C193.039 132.5 192.963 132.368 192.863 132.24C192.765 132.109 192.632 132.001 192.462 131.916C192.293 131.832 192.076 131.789 191.811 131.789C191.449 131.789 191.148 131.873 190.906 132.04C190.667 132.204 190.548 132.413 190.548 132.667C190.548 132.893 190.63 133.072 190.795 133.203C190.959 133.334 191.216 133.443 191.565 133.53L192.443 133.746C192.972 133.874 193.366 134.071 193.626 134.335C193.885 134.597 194.015 134.935 194.015 135.348C194.015 135.687 193.917 135.99 193.722 136.257C193.529 136.524 193.26 136.735 192.913 136.889C192.566 137.043 192.163 137.12 191.704 137.12C191.1 137.12 190.601 136.989 190.205 136.727C189.81 136.465 189.559 136.083 189.454 135.579L190.317 135.364C190.399 135.682 190.555 135.921 190.783 136.08C191.014 136.239 191.316 136.319 191.688 136.319C192.112 136.319 192.448 136.229 192.697 136.049C192.949 135.867 193.075 135.649 193.075 135.394C193.075 135.189 193.003 135.017 192.859 134.878C192.715 134.737 192.495 134.632 192.197 134.562L191.211 134.331C190.669 134.203 190.271 134.004 190.017 133.734C189.765 133.462 189.639 133.122 189.639 132.714C189.639 132.38 189.733 132.085 189.92 131.828C190.11 131.571 190.368 131.369 190.694 131.223C191.023 131.077 191.395 131.003 191.811 131.003C192.397 131.003 192.857 131.132 193.19 131.389C193.527 131.645 193.766 131.984 193.907 132.405ZM197.43 137.12C196.86 137.12 196.368 136.994 195.954 136.743C195.544 136.488 195.227 136.134 195.003 135.68C194.782 135.222 194.672 134.691 194.672 134.085C194.672 133.479 194.782 132.945 195.003 132.483C195.227 132.018 195.537 131.656 195.935 131.396C196.336 131.134 196.803 131.003 197.337 131.003C197.645 131.003 197.95 131.055 198.25 131.158C198.551 131.26 198.824 131.427 199.071 131.658C199.317 131.887 199.514 132.19 199.66 132.567C199.806 132.945 199.879 133.41 199.879 133.962V134.347H195.319V133.561H198.955C198.955 133.227 198.888 132.929 198.755 132.667C198.624 132.405 198.436 132.199 198.192 132.047C197.951 131.896 197.666 131.82 197.337 131.82C196.975 131.82 196.662 131.91 196.397 132.09C196.136 132.267 195.934 132.498 195.793 132.783C195.651 133.068 195.581 133.374 195.581 133.7V134.224C195.581 134.67 195.658 135.049 195.812 135.36C195.969 135.668 196.186 135.903 196.463 136.065C196.74 136.224 197.063 136.304 197.43 136.304C197.669 136.304 197.884 136.27 198.077 136.203C198.272 136.134 198.44 136.031 198.581 135.895C198.723 135.757 198.832 135.585 198.909 135.379L199.787 135.626C199.695 135.923 199.539 136.185 199.321 136.411C199.103 136.635 198.833 136.809 198.512 136.935C198.191 137.058 197.83 137.12 197.43 137.12Z" fill="#E0DFEC"/>
<rect x="133.084" y="86.8699" width="49.7139" height="20.7534" rx="3.16361" fill="#28273F"/>
<rect x="133.084" y="86.8699" width="49.7139" height="20.7534" rx="3.16361" stroke="#F46E56" stroke-width="0.903888"/>
<path d="M148.196 100.747L148.196 94.1728L152.138 94.1728V94.879L148.993 94.879V97.1002L151.843 97.1002V97.8064L148.993 97.8064L148.993 100.747H148.196ZM154.488 100.862C154.176 100.862 153.892 100.803 153.637 100.686C153.383 100.566 153.181 100.394 153.031 100.169C152.881 99.942 152.806 99.6681 152.806 99.3471C152.806 99.0646 152.862 98.8357 152.973 98.6602C153.084 98.4826 153.233 98.3435 153.419 98.2429C153.605 98.1423 153.811 98.0674 154.036 98.0182C154.262 97.9669 154.49 97.9262 154.719 97.8963C155.019 97.8577 155.262 97.8288 155.448 97.8096C155.636 97.7882 155.773 97.7529 155.859 97.7037C155.946 97.6544 155.99 97.5688 155.99 97.4469V97.4212C155.99 97.1045 155.904 96.8584 155.73 96.6829C155.559 96.5075 155.299 96.4197 154.95 96.4197C154.589 96.4197 154.305 96.4989 154.1 96.6573C153.894 96.8156 153.75 96.9847 153.666 97.1644L152.947 96.9076C153.076 96.608 153.247 96.3748 153.461 96.2079C153.677 96.0388 153.912 95.9211 154.167 95.8548C154.424 95.7863 154.676 95.7521 154.925 95.7521C155.083 95.7521 155.265 95.7713 155.47 95.8099C155.678 95.8462 155.878 95.9222 156.071 96.0378C156.265 96.1533 156.427 96.3277 156.555 96.561C156.684 96.7942 156.748 97.1066 156.748 97.4982L156.748 100.747H155.99V100.079H155.952C155.9 100.186 155.815 100.3 155.695 100.422C155.575 100.544 155.416 100.648 155.217 100.734C155.018 100.819 154.775 100.862 154.488 100.862ZM154.604 100.182C154.903 100.182 155.156 100.123 155.361 100.005C155.569 99.8874 155.725 99.7355 155.83 99.5493C155.937 99.3631 155.99 99.1673 155.99 98.9619V98.2686C155.958 98.3071 155.888 98.3424 155.778 98.3745C155.671 98.4045 155.547 98.4312 155.406 98.4548C155.267 98.4762 155.131 98.4954 154.998 98.5125C154.868 98.5275 154.762 98.5404 154.681 98.5511C154.484 98.5767 154.3 98.6185 154.129 98.6762C153.96 98.7319 153.823 98.8164 153.718 98.9298C153.615 99.0411 153.564 99.193 153.564 99.3856C153.564 99.6488 153.661 99.8478 153.856 99.9826C154.053 100.115 154.302 100.182 154.604 100.182ZM158.526 94.1728L158.526 100.747H157.769V94.1728H158.526ZM163.045 96.9205L162.364 97.1131C162.321 96.9996 162.258 96.8894 162.175 96.7824C162.093 96.6733 161.982 96.5834 161.841 96.5128C161.7 96.4422 161.519 96.4069 161.298 96.4069C160.997 96.4069 160.745 96.4764 160.544 96.6155C160.345 96.7525 160.246 96.9269 160.246 97.1387C160.246 97.327 160.314 97.4758 160.451 97.5849C160.588 97.694 160.802 97.785 161.093 97.8577L161.825 98.0375C162.266 98.1445 162.594 98.3082 162.81 98.5286C163.026 98.7469 163.134 99.0283 163.134 99.3728C163.134 99.6552 163.053 99.9077 162.891 100.13C162.73 100.353 162.505 100.528 162.216 100.657C161.928 100.785 161.592 100.849 161.209 100.849C160.706 100.849 160.289 100.74 159.96 100.522C159.63 100.304 159.422 99.9848 159.334 99.5654L160.053 99.3856C160.122 99.651 160.251 99.85 160.441 99.9826C160.634 100.115 160.885 100.182 161.196 100.182C161.549 100.182 161.829 100.107 162.037 99.957C162.246 99.805 162.351 99.6231 162.351 99.4113C162.351 99.2401 162.291 99.0967 162.172 98.9812C162.052 98.8635 161.868 98.7757 161.619 98.718L160.798 98.5254C160.346 98.4184 160.015 98.2525 159.803 98.0279C159.593 97.801 159.488 97.5175 159.488 97.1772C159.488 96.8991 159.566 96.653 159.722 96.439C159.881 96.225 160.096 96.057 160.368 95.935C160.642 95.8131 160.952 95.7521 161.298 95.7521C161.786 95.7521 162.169 95.8591 162.448 96.0731C162.728 96.2871 162.927 96.5695 163.045 96.9205ZM165.98 100.849C165.505 100.849 165.095 100.744 164.751 100.535C164.409 100.323 164.144 100.028 163.958 99.6488C163.774 99.2679 163.682 98.825 163.682 98.3199C163.682 97.8149 163.774 97.3698 163.958 96.9847C164.144 96.5973 164.403 96.2956 164.735 96.0795C165.069 95.8612 165.458 95.7521 165.903 95.7521C166.16 95.7521 166.414 95.7949 166.664 95.8805C166.914 95.9661 167.142 96.1052 167.348 96.2978C167.553 96.4882 167.717 96.7407 167.839 97.0553C167.961 97.3698 168.022 97.7572 168.022 98.2172V98.5382L164.221 98.5382V97.8834H167.251C167.251 97.6052 167.196 97.357 167.085 97.1387C166.975 96.9205 166.819 96.7482 166.616 96.6219C166.415 96.4957 166.177 96.4326 165.903 96.4326C165.602 96.4326 165.341 96.5075 165.12 96.6573C164.902 96.8049 164.734 96.9975 164.616 97.235C164.498 97.4726 164.44 97.7272 164.44 97.999V98.4355C164.44 98.8078 164.504 99.1235 164.632 99.3824C164.763 99.6392 164.944 99.835 165.175 99.9698C165.406 100.102 165.674 100.169 165.98 100.169C166.179 100.169 166.359 100.141 166.52 100.085C166.682 100.028 166.822 99.942 166.94 99.8286C167.058 99.713 167.149 99.5696 167.213 99.3985L167.945 99.6039C167.868 99.8521 167.738 100.07 167.556 100.259C167.374 100.445 167.15 100.59 166.882 100.695C166.615 100.798 166.314 100.849 165.98 100.849Z" fill="#EFEFF5"/>
</g>
<rect x="0.5" y="0.5" width="389" height="284" rx="7.5" stroke="#323150"/>
<defs>
<linearGradient id="paint0_linear_930_731" x1="345.018" y1="180.918" x2="344.842" y2="197.528" gradientUnits="userSpaceOnUse">
<stop stop-color="#8281B1" stop-opacity="0"/>
<stop offset="1" stop-color="#859900"/>
</linearGradient>
<linearGradient id="paint1_linear_930_731" x1="345.018" y1="60.5063" x2="344.846" y2="76.9486" gradientUnits="userSpaceOnUse">
<stop stop-color="#8281B1" stop-opacity="0"/>
<stop offset="1" stop-color="#859900"/>
</linearGradient>
<linearGradient id="paint2_linear_930_731" x1="266.352" y1="273.525" x2="214.182" y2="271.791" gradientUnits="userSpaceOnUse">
<stop stop-color="#8281B1" stop-opacity="0"/>
<stop offset="1" stop-color="#859900"/>
</linearGradient>
<linearGradient id="paint3_linear_930_731" x1="39.1983" y1="174.894" x2="43.5116" y2="92.6669" gradientUnits="userSpaceOnUse">
<stop stop-color="#8281B1" stop-opacity="0"/>
<stop offset="1" stop-color="#859900"/>
</linearGradient>
<linearGradient id="paint4_linear_930_731" x1="39.1983" y1="99.0277" x2="96.4961" y2="-195.56" gradientUnits="userSpaceOnUse">
<stop stop-color="#8281B1" stop-opacity="0"/>
<stop offset="1" stop-color="#859900"/>
</linearGradient>
<linearGradient id="paint5_linear_930_731" x1="272.581" y1="198.795" x2="328.409" y2="106.598" gradientUnits="userSpaceOnUse">
<stop stop-color="#3B3A5F"/>
<stop offset="1" stop-color="#7A78C5" stop-opacity="0"/>
</linearGradient>
<linearGradient id="paint6_linear_930_731" x1="359.794" y1="79.9233" x2="329.876" y2="134.099" gradientUnits="userSpaceOnUse">
<stop stop-color="#F93C52"/>
<stop offset="0.30858" stop-color="#DB3869" stop-opacity="0.927816"/>
<stop offset="0.703319" stop-color="#2B21F3" stop-opacity="0.5"/>
<stop offset="1" stop-color="#141320" stop-opacity="0"/>
</linearGradient>
<linearGradient id="paint7_linear_930_731" x1="272.581" y1="28.1838" x2="328.409" y2="-64.0134" gradientUnits="userSpaceOnUse">
<stop stop-color="#3B3A5F"/>
<stop offset="1" stop-color="#7A78C5" stop-opacity="0"/>
</linearGradient>
<linearGradient id="paint8_linear_930_731" x1="359.794" y1="-90.6878" x2="329.876" y2="-36.512" gradientUnits="userSpaceOnUse">
<stop stop-color="#F93C52"/>
<stop offset="0.30858" stop-color="#DB3869" stop-opacity="0.927816"/>
<stop offset="0.703319" stop-color="#2B21F3" stop-opacity="0.5"/>
<stop offset="1" stop-color="#141320" stop-opacity="0"/>
</linearGradient>
<linearGradient id="paint9_linear_930_731" x1="291.608" y1="186.617" x2="91.2134" y2="75.7572" gradientUnits="userSpaceOnUse">
<stop stop-color="#8281B1" stop-opacity="0"/>
<stop offset="1" stop-color="#F46E56"/>
</linearGradient>
<clipPath id="clip0_930_731">
<rect width="390" height="285" rx="8" fill="white"/>
</clipPath>
<clipPath id="clip1_930_731">
<rect width="35.568" height="31.7694" fill="white" transform="translate(307.5 112.199)"/>
</clipPath>
</defs>
</svg>
