<svg width="49" height="54" viewBox="0 0 49 54" fill="none" xmlns="http://www.w3.org/2000/svg">
<path fill-rule="evenodd" clip-rule="evenodd" d="M19.2745 10.1902C18.2178 10.5314 17.1354 9.74339 17.1354 8.63299V3.65452C17.1354 3.0521 17.4664 2.4984 17.9971 2.21318L21.525 0.316878C22.6107 -0.266697 23.9273 0.514134 23.936 1.7467L23.9763 7.46948C23.9813 8.18375 23.5225 8.81875 22.8427 9.03821L19.2745 10.1902ZM0.7003 13.9667C0.7003 15.0787 1.78577 15.8669 2.84323 15.5226L14.5709 11.7045C15.2447 11.4851 15.7007 10.8571 15.7007 10.1485V6.35863C15.7007 5.11329 14.3649 4.32438 13.2743 4.92561L1.54664 11.391C1.02454 11.6788 0.7003 12.2278 0.7003 12.824V13.9667ZM10.0701 14.561C9.38495 14.7732 8.91788 15.4069 8.91788 16.1241V18.9977C8.91788 20.0449 9.88789 20.8226 10.91 20.5949L22.6464 17.9805C23.383 17.8164 23.9118 17.17 23.9267 16.4155L24.004 12.4969C24.026 11.3813 22.9496 10.5714 21.8838 10.9015L10.0701 14.561ZM2.30825 29.5317C1.41572 29.5162 0.7003 28.7883 0.7003 27.8956V25.3647C0.7003 24.5896 1.24408 23.9208 2.00287 23.7627L13.7305 21.3191C14.7467 21.1074 15.7007 21.8831 15.7007 22.9211V28.0992C15.7007 29.0141 14.9506 29.7512 14.0359 29.7353L2.30825 29.5317ZM10.1792 38.0052C9.44018 37.8312 8.91792 37.1717 8.91792 36.4124V30.9375C8.91792 30.9368 8.9185 30.9362 8.91922 30.9362L23.5844 31.2467C23.808 31.2515 24.0341 31.3377 24.0482 31.5608C24.05 31.59 24.0518 31.6191 24.0553 31.6473C24.3318 33.9042 24.0787 37.7824 23.9118 40.1135C23.8937 40.3592 23.8942 40.6098 23.9615 40.8475C23.9815 40.9182 23.9774 40.9945 23.9419 41.0588C23.8878 41.1567 23.7752 41.2067 23.6664 41.1811L10.1792 38.0052ZM1.55143 41.8202C1.02665 41.5332 0.7003 40.9827 0.7003 40.3846V39.1214C0.7003 38.0668 1.6833 37.2875 2.71011 37.5282L14.4378 40.2773C15.1776 40.4507 15.7007 41.1106 15.7007 41.8705V46.7991C15.7007 48.042 14.3696 48.8311 13.2791 48.2347L1.55143 41.8202ZM17.9803 50.7423C17.4591 50.4542 17.1355 49.9057 17.1355 49.3102V40.9647C17.1355 40.9642 17.1357 40.9637 17.136 40.9634C17.1365 40.9629 17.1372 40.9627 17.1378 40.9629L22.9134 42.3823C23.4935 42.5248 23.8776 43.1586 23.9841 43.7463C24.0157 43.9207 24.0475 44.096 24.0552 44.2783C24.1218 45.8277 24.0694 47.4135 24.0172 48.9937C23.963 50.6356 23.909 52.2714 23.9887 53.8541C23.9905 53.8928 24.0119 53.923 24.0278 53.9454C24.1173 54.0716 23.7829 53.9495 23.6474 53.8746L17.9803 50.7423ZM18.4319 20.2437C17.676 20.4043 17.1355 21.0717 17.1355 21.8444V28.1583C17.1355 29.05 17.8495 29.7776 18.741 29.7944L22.3279 29.8619C23.2639 29.8796 24.0237 29.1096 24.023 28.1735C24.0223 27.2533 24.0389 26.3309 24.0555 25.4082V25.4081V25.408V25.4079C24.0837 23.8389 24.1119 22.269 24.0552 20.7079C24.0489 20.5242 24.0152 20.3619 23.9824 20.2038C23.9548 20.0706 23.9278 19.9404 23.9183 19.8028C23.9115 19.7078 23.9434 19.6177 23.9737 19.532C24.0843 19.2193 23.676 19.1299 23.3515 19.1988L18.4319 20.2437ZM2.36802 30.838C1.45216 30.8204 0.700249 31.558 0.700249 32.474V34.4525C0.700249 35.2147 1.22648 35.8759 1.96921 36.0471L5.47928 36.8558C6.5045 37.092 7.48303 36.3133 7.48303 35.2612V32.5414C7.48303 31.6499 6.76941 30.9225 5.87809 30.9054L2.36802 30.838ZM2.67475 22.3148C1.65739 22.5296 0.700249 21.7535 0.700249 20.7137V18.7317C0.700249 18.0131 1.16912 17.3786 1.85608 17.1675L5.36615 16.0892C6.41826 15.766 7.48303 16.5528 7.48303 17.6534V19.9724C7.48303 20.7458 6.94154 21.4136 6.18482 21.5735L2.67475 22.3148Z" fill="url(#paint0_linear_547_1416)"/>
<path fill-rule="evenodd" clip-rule="evenodd" d="M42.9821 9.58297C42.9821 8.98772 42.6588 8.43942 42.138 8.15121L27.7816 0.206959C26.691 -0.396558 25.353 0.392243 25.353 1.63873V3.71433C25.353 4.34191 25.7119 4.9142 26.2769 5.18745L38.6086 11.1516C39.1736 11.4248 39.5325 11.9971 39.5325 12.6247V17.2987C39.5325 17.9265 39.9441 18.481 40.2762 19.0138C40.4959 19.3664 40.6262 19.8055 40.6262 20.2815C40.6262 21.4439 39.849 22.3862 38.8903 22.3862C37.9316 22.3862 37.1544 21.4439 37.1544 20.2815C37.1544 19.8007 37.2874 19.3575 37.5112 19.0032C37.8564 18.4565 38.2926 17.8882 38.2926 17.2417V13.4007C38.2926 12.7731 37.9337 12.2008 37.3687 11.9276L27.7018 7.25225C26.6152 6.72672 25.353 7.51833 25.353 8.72537V51.3113C25.353 52.5563 26.6882 53.3453 27.7788 52.7447L31.4716 50.7109C31.9941 50.4231 32.3186 49.8739 32.3186 49.2775V33.5946C32.3186 33.0129 31.9796 32.4846 31.4509 32.2421C30.4653 31.7901 29.3427 32.5103 29.3427 33.5946V45.8204C29.3427 46.5083 29.8331 47.1288 30.1577 47.7352C30.3466 48.0881 30.4586 48.5278 30.4586 49.0045C30.4586 50.1669 29.7925 51.1092 28.9707 51.1092C28.149 51.1092 27.4828 50.1669 27.4828 49.0045C27.4828 48.5764 27.5731 48.1781 27.7283 47.8458C27.9099 47.4571 28.1028 47.0543 28.1028 46.6252V31.8949C28.1028 30.7025 29.3373 29.9105 30.4212 30.4075L32.6042 31.4086C33.1857 31.6753 33.5585 32.2563 33.5585 32.896V46.7922C33.5585 48.0373 34.8937 48.8262 35.9843 48.2256L37.4233 47.433C37.9458 47.1453 38.2703 46.5961 38.2703 45.9997L38.2703 28.4536C38.2704 28.4443 38.265 28.4358 38.2566 28.4318C37.6113 28.1249 37.1544 27.363 37.1544 26.4718C37.1544 25.3094 37.9316 24.3671 38.8903 24.3671C39.849 24.3671 40.6262 25.3094 40.6262 26.4718C40.6262 27.3631 40.1692 28.1251 39.5238 28.4319C39.5154 28.4359 39.5101 28.4444 39.5102 28.4536V43.5144C39.5102 44.7594 40.8454 45.5484 41.936 44.9477L42.1351 44.8381C42.6575 44.5503 42.9821 44.0011 42.9821 43.4047L42.9821 18.3354C42.9821 17.1194 44.2614 16.3282 45.3493 16.8713L46.2924 17.3421C46.8473 17.6191 47.1978 18.186 47.1978 18.8062V24.9461C47.1978 25.5833 47.6216 26.1446 47.9603 26.6844C48.1821 27.0379 48.3137 27.479 48.3137 27.9575C48.3137 29.1199 47.5365 30.0622 46.5778 30.0622C45.6191 30.0622 44.8419 29.1199 44.8419 27.9575C44.8419 27.479 44.9736 27.0379 45.1954 26.6844C45.5341 26.1446 45.9579 25.5832 45.9579 24.946V19.0961C45.9579 18.7672 45.7719 18.4665 45.4776 18.3196C44.9006 18.0315 44.222 18.4511 44.222 19.0961V42.2199C44.222 42.8802 44.9302 43.2987 45.5086 42.9801C45.7858 42.8275 45.9579 42.5362 45.9579 42.2198V32.6631C45.9579 32.3207 46.2355 32.0431 46.5779 32.0431C46.9203 32.0431 47.1978 32.3207 47.1978 32.6631L47.1978 40.7228C47.1978 41.3194 47.8376 41.6975 48.3602 41.4097C48.6102 41.272 48.7656 41.0094 48.766 40.724L48.8091 12.2456C48.8095 11.9973 48.6748 11.7684 48.4575 11.6482C48.0032 11.3968 47.4458 11.7254 47.4458 12.2446V13.9325C47.4458 15.1485 46.1665 15.9397 45.0786 15.3966L43.8875 14.8019C43.3326 14.5249 42.9821 13.9581 42.9821 13.3379V9.58297ZM45.6942 10.1191C45.0331 9.75325 44.222 10.2314 44.222 10.987V12.9713C44.222 13.3472 44.4345 13.6908 44.7709 13.8588C45.4304 14.188 46.2059 13.7084 46.2059 12.9713V10.987C46.2059 10.6262 46.0099 10.2938 45.6942 10.1191ZM32.2564 17.0073C32.8248 17.2792 33.1865 17.8533 33.1865 18.4834V23.1545C33.1865 24.3987 31.853 25.1877 30.7625 24.5889L30.3154 24.3433C29.792 24.0559 29.4667 23.5062 29.4667 22.909V20.4028C29.4667 19.9785 29.9034 19.6945 30.2913 19.8666C30.5872 19.9979 30.9335 19.8647 31.0651 19.569L31.0784 19.5393C31.2175 19.2266 31.0767 18.8603 30.7638 18.7215L30.1067 18.4299C29.2223 18.0374 28.2268 18.6848 28.2268 19.6523V23.641C28.2268 24.2382 28.5521 24.7879 29.0755 25.0754L32.0024 26.6828C33.093 27.2816 34.4265 26.4926 34.4265 25.2484V17.7038C34.4265 17.0737 34.0647 16.4996 33.4963 16.2277L29.5001 14.3157C29.3214 14.2302 29.2188 14.0416 29.2188 13.8435C29.2188 12.6811 28.6082 11.7388 27.8549 11.7388C27.1016 11.7388 26.491 12.6811 26.491 13.8435C26.491 15.0059 27.1016 15.9482 27.8549 15.9482C28.5241 15.9482 29.2518 15.5697 29.8554 15.8586L32.2564 17.0073ZM27.9789 13.8435C27.9789 13.8466 27.9789 13.8496 27.9789 13.8527C27.9783 13.9817 27.911 14.098 27.8551 14.2143C27.8371 14.252 27.7728 14.2515 27.7649 14.2105C27.7438 14.1012 27.7309 13.9783 27.7309 13.8435C27.7309 13.587 27.9789 13.587 27.9789 13.8435ZM39.3863 26.4718C39.3863 26.7823 39.2817 27.0262 39.1607 27.173C39.0417 27.3172 38.9401 27.3384 38.8903 27.3384C38.8406 27.3384 38.7389 27.3172 38.62 27.173C38.4989 27.0262 38.3944 26.7823 38.3944 26.4718C38.3944 26.1612 38.4989 25.9174 38.62 25.7706C38.7389 25.6263 38.8406 25.6051 38.8903 25.6051C38.9401 25.6051 39.0417 25.6263 39.1607 25.7706C39.2817 25.9174 39.3863 26.1612 39.3863 26.4718ZM39.1607 20.9827C39.2817 20.8359 39.3863 20.592 39.3863 20.2815C39.3863 19.9709 39.2817 19.7271 39.1607 19.5803C39.0417 19.436 38.9401 19.4148 38.8903 19.4148C38.8406 19.4148 38.7389 19.436 38.62 19.5803C38.4989 19.7271 38.3944 19.9709 38.3944 20.2815C38.3944 20.592 38.4989 20.8359 38.62 20.9827C38.7389 21.1269 38.8406 21.1481 38.8903 21.1481C38.9401 21.1481 39.0417 21.1269 39.1607 20.9827ZM47.0738 27.9575C47.0738 28.268 46.9692 28.5119 46.8482 28.6587C46.7292 28.8029 46.6276 28.8241 46.5778 28.8241C46.5281 28.8241 46.4264 28.8029 46.3075 28.6587C46.1864 28.5119 46.0819 28.268 46.0819 27.9575C46.0819 27.6469 46.1864 27.4031 46.3075 27.2563C46.4264 27.1121 46.5281 27.0908 46.5778 27.0908C46.6276 27.0908 46.7292 27.1121 46.8482 27.2563C46.9692 27.4031 47.0738 27.6469 47.0738 27.9575ZM27.7055 14.7484C27.7053 14.7472 27.7058 14.7497 27.7055 14.7484V14.7484ZM28.0043 12.9385C28.004 12.9373 28.0045 12.9398 28.0043 12.9385V12.9385ZM27.7055 12.9385C27.7053 12.9398 27.7058 12.9373 27.7055 12.9385V12.9385ZM29.2187 49.0045C29.2187 49.3606 29.1147 49.6304 29.0098 49.7788C28.9904 49.8062 28.951 49.8062 28.9316 49.7788C28.8267 49.6304 28.7227 49.3606 28.7227 49.0045C28.7227 48.6484 28.8267 48.3785 28.9316 48.2302C28.951 48.2027 28.9904 48.2027 29.0098 48.2302C29.1147 48.3785 29.2187 48.6484 29.2187 49.0045ZM28.9127 49.8817C28.9135 49.8813 28.9131 49.8805 28.9123 49.881C28.9109 49.8817 28.9103 49.8823 28.9103 49.8824C28.9103 49.8826 28.9111 49.8824 28.9127 49.8817ZM29.0311 49.8824C29.0308 49.8837 29.0314 49.8812 29.0311 49.8824V49.8824ZM29.0311 48.1265C29.0308 48.1252 29.0314 48.1278 29.0311 48.1265V48.1265ZM28.9103 48.1265C28.91 48.1278 28.9106 48.1252 28.9103 48.1265V48.1265Z" fill="#EFEFF5"/>
<defs>
<linearGradient id="paint0_linear_547_1416" x1="12.4391" y1="0.119629" x2="12.4391" y2="54" gradientUnits="userSpaceOnUse">
<stop stop-color="#F93C52"/>
<stop offset="1" stop-color="#2B21F3"/>
</linearGradient>
</defs>
</svg>
