<svg width="54" height="54" viewBox="0 0 54 54" fill="none" xmlns="http://www.w3.org/2000/svg">
<rect width="54" height="54" rx="12" fill="#E0DFEC"/>
<g clip-path="url(#clip0_441_344)">
<path d="M33 19H21C19.8954 19 19 19.8954 19 21V33C19 34.1046 19.8954 35 21 35H33C34.1046 35 35 34.1046 35 33V21C35 19.8954 34.1046 19 33 19Z" stroke="#323150" stroke-width="1.5" stroke-linecap="round" stroke-linejoin="round"/>
<path d="M30 24H24V30H30V24Z" stroke="#323150" stroke-width="1.5" stroke-linecap="round" stroke-linejoin="round"/>
<path d="M24 16V19" stroke="#323150" stroke-width="1.5" stroke-linecap="round" stroke-linejoin="round"/>
<path d="M30 16V19" stroke="#323150" stroke-width="1.5" stroke-linecap="round" stroke-linejoin="round"/>
<path d="M24 35V38" stroke="#323150" stroke-width="1.5" stroke-linecap="round" stroke-linejoin="round"/>
<path d="M30 35V38" stroke="#323150" stroke-width="1.5" stroke-linecap="round" stroke-linejoin="round"/>
<path d="M35 24H38" stroke="#323150" stroke-width="1.5" stroke-linecap="round" stroke-linejoin="round"/>
<path d="M35 29H38" stroke="#323150" stroke-width="1.5" stroke-linecap="round" stroke-linejoin="round"/>
<path d="M16 24H19" stroke="#323150" stroke-width="1.5" stroke-linecap="round" stroke-linejoin="round"/>
<path d="M16 29H19" stroke="#323150" stroke-width="1.5" stroke-linecap="round" stroke-linejoin="round"/>
</g>
<defs>
<clipPath id="clip0_441_344">
<rect width="24" height="24" fill="white" transform="translate(15 15)"/>
</clipPath>
</defs>
</svg>
