<svg width="54" height="54" viewBox="0 0 54 54" fill="none" xmlns="http://www.w3.org/2000/svg">
<rect width="54" height="54" rx="12" fill="#E0DFEC"/>
<path d="M34 26H20C18.8954 26 18 26.8954 18 28V35C18 36.1046 18.8954 37 20 37H34C35.1046 37 36 36.1046 36 35V28C36 26.8954 35.1046 26 34 26Z" stroke="#323150" stroke-width="1.5" stroke-linecap="round" stroke-linejoin="round"/>
<path d="M22 26V22C22 20.6739 22.5268 19.4021 23.4645 18.4645C24.4021 17.5268 25.6739 17 27 17C28.3261 17 29.5979 17.5268 30.5355 18.4645C31.4732 19.4021 32 20.6739 32 22V26" stroke="#323150" stroke-width="1.5" stroke-linecap="round" stroke-linejoin="round"/>
</svg>
