<svg width="195" height="226" viewBox="0 0 195 226" fill="none" xmlns="http://www.w3.org/2000/svg">
<rect x="1" y="1" width="193" height="217" rx="12" fill="#E0DFEC"/>
<path d="M58.2542 143.511H31.9393L1 173.528" stroke="#C1C0D8"/>
<path d="M29.733 130.508V130.008H29.5259L29.3795 130.155L29.733 130.508ZM18.8411 138.734C18.8411 140.206 20.0351 141.4 21.5078 141.4C22.9806 141.4 24.1745 140.206 24.1745 138.734C24.1745 137.261 22.9806 136.067 21.5078 136.067C20.0351 136.067 18.8411 137.261 18.8411 138.734ZM57.2931 130.008H29.733V131.008H57.2931V130.008ZM29.3795 130.155L21.1543 138.38L21.8614 139.087L30.0866 130.862L29.3795 130.155Z" fill="#C1C0D8"/>
<path d="M63.735 152.541V152.041H63.5279L63.3814 152.187L63.735 152.541ZM46.8038 169.472V169.972H47.0109L47.1573 169.826L46.8038 169.472ZM32.3333 169.472C32.3333 170.945 33.5272 172.139 35 172.139C36.4728 172.139 37.6667 170.945 37.6667 169.472C37.6667 167.999 36.4728 166.806 35 166.806C33.5272 166.806 32.3333 167.999 32.3333 169.472ZM67.4737 152.041H63.735V153.041H67.4737V152.041ZM63.3814 152.187L46.4502 169.119L47.1573 169.826L64.0885 152.895L63.3814 152.187ZM46.8038 168.972H35V169.972H46.8038V168.972Z" fill="#C1C0D8"/>
<path d="M21.4997 214.475L21.8532 214.829L21.9997 214.682V214.475H21.4997ZM21.4997 203.259L21.1461 202.905L20.9997 203.052V203.259H21.4997ZM38.2211 183.871C38.2211 185.343 39.415 186.537 40.8878 186.537C42.3605 186.537 43.5544 185.343 43.5544 183.871C43.5544 182.398 42.3605 181.204 40.8878 181.204C39.415 181.204 38.2211 182.398 38.2211 183.871ZM18.3282 218.354L21.8532 214.829L21.1461 214.121L17.6211 217.647L18.3282 218.354ZM21.9997 214.475V203.259H20.9997V214.475H21.9997ZM21.8532 203.612L41.2413 184.224L40.5342 183.517L21.1461 202.905L21.8532 203.612Z" fill="#C1C0D8"/>
<path d="M35.7059 210.255C35.7059 211.728 36.8998 212.922 38.3725 212.922C39.8453 212.922 41.0392 211.728 41.0392 210.255C41.0392 208.783 39.8453 207.589 38.3725 207.589C36.8998 207.589 35.7059 208.783 35.7059 210.255ZM30.9815 218.354L38.7261 210.609L38.019 209.902L30.2744 217.646L30.9815 218.354Z" fill="#C1C0D8"/>
<path d="M52.375 211.911L52.7285 212.265L52.875 212.119V211.911H52.375ZM49.7083 199.627C49.7083 201.1 50.9022 202.294 52.375 202.294C53.8477 202.294 55.0416 201.1 55.0416 199.627C55.0416 198.154 53.8477 196.96 52.375 196.96C50.9022 196.96 49.7083 198.154 49.7083 199.627ZM46.6397 218.354L52.7285 212.265L52.0214 211.558L45.9326 217.647L46.6397 218.354ZM52.875 211.911V199.627H51.875V211.911H52.875Z" fill="#C1C0D8"/>
<path d="M73.0103 162.927L72.6567 162.573L72.5103 162.72V162.927H73.0103ZM70.3436 201.384C70.3436 202.857 71.5375 204.051 73.0103 204.051C74.483 204.051 75.6769 202.857 75.6769 201.384C75.6769 199.911 74.483 198.717 73.0103 198.717C71.5375 198.717 70.3436 199.911 70.3436 201.384ZM75.5836 159.646L72.6567 162.573L73.3638 163.28L76.2907 160.354L75.5836 159.646ZM72.5103 162.927V201.384H73.5103V162.927H72.5103Z" fill="#C1C0D8"/>
<path d="M89.8978 26C89.8978 27.4728 91.0917 28.6667 92.5645 28.6667C94.0372 28.6667 95.2311 27.4728 95.2311 26C95.2311 24.5272 94.0372 23.3333 92.5645 23.3333C91.0917 23.3333 89.8978 24.5272 89.8978 26ZM92.0645 26L92.0645 218L93.0645 218L93.0645 26L92.0645 26Z" fill="#C1C0D8"/>
<path d="M104.333 190.516C104.333 191.988 105.527 193.182 107 193.182C108.473 193.182 109.667 191.988 109.667 190.516C109.667 189.043 108.473 187.849 107 187.849C105.527 187.849 104.333 189.043 104.333 190.516ZM106.5 190.516L106.5 218L107.5 218L107.5 190.516L106.5 190.516Z" fill="#C1C0D8"/>
<path d="M104.133 38.3906C104.133 39.8634 105.327 41.0573 106.799 41.0573C108.272 41.0573 109.466 39.8634 109.466 38.3906C109.466 36.9179 108.272 35.724 106.799 35.724C105.327 35.724 104.133 36.9179 104.133 38.3906ZM107.299 49.4475V38.3906H106.299V49.4475H107.299Z" fill="#C1C0D8"/>
<path d="M104.133 26C104.133 27.4728 105.327 28.6667 106.799 28.6667C108.272 28.6667 109.466 27.4728 109.466 26C109.466 24.5272 108.272 23.3333 106.799 23.3333C105.327 23.3333 104.133 24.5272 104.133 26ZM107.299 26L107.299 1L106.299 1L106.299 26L107.299 26Z" fill="#C1C0D8"/>
<path d="M163.384 91.7487V92.2487H163.591L163.737 92.1023L163.384 91.7487ZM173.034 79.4316C173.034 80.9044 174.228 82.0983 175.701 82.0983C177.174 82.0983 178.368 80.9044 178.368 79.4316C178.368 77.9589 177.174 76.765 175.701 76.765C174.228 76.765 173.034 77.9589 173.034 79.4316ZM150.418 92.2487H163.384V91.2487H150.418V92.2487ZM163.737 92.1023L176.054 79.7852L175.347 79.0781L163.03 91.3952L163.737 92.1023Z" fill="#C1C0D8"/>
<path d="M1 103.413H167.709L193.833 77.2886" stroke="#C1C0D8"/>
<path d="M133 56.662V30.6458L162.494 1" stroke="#C1C0D8"/>
<path d="M148.482 31.7431L148.128 31.3896L147.982 31.536V31.7431H148.482ZM145.815 47.2211C145.815 48.6938 147.009 49.8878 148.482 49.8878C149.955 49.8878 151.149 48.6938 151.149 47.2211C151.149 45.7483 149.955 44.5544 148.482 44.5544C147.009 44.5544 145.815 45.7483 145.815 47.2211ZM178.189 1.32906L148.128 31.3896L148.835 32.0967L178.896 2.03617L178.189 1.32906ZM147.982 31.7431V47.2211H148.982V31.7431H147.982Z" fill="#C1C0D8"/>
<path d="M153 144.714H153.5V144.214H153V144.714ZM150.333 171.621C150.333 173.094 151.527 174.288 153 174.288C154.473 174.288 155.667 173.094 155.667 171.621C155.667 170.148 154.473 168.955 153 168.955C151.527 168.955 150.333 170.148 150.333 171.621ZM136.602 145.214H153V144.214H136.602V145.214ZM152.5 144.714V171.621H153.5V144.714H152.5Z" fill="#C1C0D8"/>
<g clip-path="url(#clip0_521_352)">
<g filter="url(#filter0_dddd_521_352)">
<path d="M97.5 175.75C97.5 175.75 150.5 149.25 150.5 109.5V63.125L97.5 43.25L44.5 63.125V109.5C44.5 149.25 97.5 175.75 97.5 175.75Z" fill="#EFEFF5"/>
<path d="M97.5 175.75C97.5 175.75 150.5 149.25 150.5 109.5V63.125L97.5 43.25L44.5 63.125V109.5C44.5 149.25 97.5 175.75 97.5 175.75Z" stroke="url(#paint0_linear_521_352)" stroke-width="1.5" stroke-linecap="round" stroke-linejoin="round"/>
</g>
<g filter="url(#filter1_dddd_521_352)">
<path d="M97.5 175.75C97.5 175.75 150.5 149.25 150.5 109.5V63.125L97.5 43.25L44.5 63.125V109.5C44.5 149.25 97.5 175.75 97.5 175.75Z" fill="url(#paint1_linear_521_352)"/>
</g>
</g>
<g filter="url(#filter2_dddd_521_352)">
<path d="M97.5 162C97.5 162 139.5 141 139.5 109.5V72.75L97.5 57L55.5 72.75V109.5C55.5 141 97.5 162 97.5 162Z" fill="#EFEFF5"/>
</g>
<rect x="81.5" y="93.5" width="32" height="32" rx="16" fill="#859900" fill-opacity="0.15"/>
<path d="M103.833 104.75L95.1248 113.458L91.1665 109.5" stroke="#859900" stroke-width="4" stroke-linecap="round" stroke-linejoin="round"/>
<defs>
<filter id="filter0_dddd_521_352" x="28.75" y="39.5" width="143.5" height="201" filterUnits="userSpaceOnUse" color-interpolation-filters="sRGB">
<feFlood flood-opacity="0" result="BackgroundImageFix"/>
<feColorMatrix in="SourceAlpha" type="matrix" values="0 0 0 0 0 0 0 0 0 0 0 0 0 0 0 0 0 0 127 0" result="hardAlpha"/>
<feOffset dy="3"/>
<feGaussianBlur stdDeviation="3"/>
<feColorMatrix type="matrix" values="0 0 0 0 0.639216 0 0 0 0 0.639216 0 0 0 0 0.639216 0 0 0 0.1 0"/>
<feBlend mode="normal" in2="BackgroundImageFix" result="effect1_dropShadow_521_352"/>
<feColorMatrix in="SourceAlpha" type="matrix" values="0 0 0 0 0 0 0 0 0 0 0 0 0 0 0 0 0 0 127 0" result="hardAlpha"/>
<feOffset dx="1" dy="11"/>
<feGaussianBlur stdDeviation="5.5"/>
<feColorMatrix type="matrix" values="0 0 0 0 0.639216 0 0 0 0 0.639216 0 0 0 0 0.639216 0 0 0 0.09 0"/>
<feBlend mode="normal" in2="effect1_dropShadow_521_352" result="effect2_dropShadow_521_352"/>
<feColorMatrix in="SourceAlpha" type="matrix" values="0 0 0 0 0 0 0 0 0 0 0 0 0 0 0 0 0 0 127 0" result="hardAlpha"/>
<feOffset dx="2" dy="26"/>
<feGaussianBlur stdDeviation="7.5"/>
<feColorMatrix type="matrix" values="0 0 0 0 0.639216 0 0 0 0 0.639216 0 0 0 0 0.639216 0 0 0 0.05 0"/>
<feBlend mode="normal" in2="effect2_dropShadow_521_352" result="effect3_dropShadow_521_352"/>
<feColorMatrix in="SourceAlpha" type="matrix" values="0 0 0 0 0 0 0 0 0 0 0 0 0 0 0 0 0 0 127 0" result="hardAlpha"/>
<feOffset dx="3" dy="46"/>
<feGaussianBlur stdDeviation="9"/>
<feColorMatrix type="matrix" values="0 0 0 0 0.639216 0 0 0 0 0.639216 0 0 0 0 0.639216 0 0 0 0.01 0"/>
<feBlend mode="normal" in2="effect3_dropShadow_521_352" result="effect4_dropShadow_521_352"/>
<feBlend mode="normal" in="SourceGraphic" in2="effect4_dropShadow_521_352" result="shape"/>
</filter>
<filter id="filter1_dddd_521_352" x="29.5" y="40.25" width="142" height="199.5" filterUnits="userSpaceOnUse" color-interpolation-filters="sRGB">
<feFlood flood-opacity="0" result="BackgroundImageFix"/>
<feColorMatrix in="SourceAlpha" type="matrix" values="0 0 0 0 0 0 0 0 0 0 0 0 0 0 0 0 0 0 127 0" result="hardAlpha"/>
<feOffset dy="3"/>
<feGaussianBlur stdDeviation="3"/>
<feColorMatrix type="matrix" values="0 0 0 0 0.639216 0 0 0 0 0.639216 0 0 0 0 0.639216 0 0 0 0.1 0"/>
<feBlend mode="normal" in2="BackgroundImageFix" result="effect1_dropShadow_521_352"/>
<feColorMatrix in="SourceAlpha" type="matrix" values="0 0 0 0 0 0 0 0 0 0 0 0 0 0 0 0 0 0 127 0" result="hardAlpha"/>
<feOffset dx="1" dy="11"/>
<feGaussianBlur stdDeviation="5.5"/>
<feColorMatrix type="matrix" values="0 0 0 0 0.639216 0 0 0 0 0.639216 0 0 0 0 0.639216 0 0 0 0.09 0"/>
<feBlend mode="normal" in2="effect1_dropShadow_521_352" result="effect2_dropShadow_521_352"/>
<feColorMatrix in="SourceAlpha" type="matrix" values="0 0 0 0 0 0 0 0 0 0 0 0 0 0 0 0 0 0 127 0" result="hardAlpha"/>
<feOffset dx="2" dy="26"/>
<feGaussianBlur stdDeviation="7.5"/>
<feColorMatrix type="matrix" values="0 0 0 0 0.639216 0 0 0 0 0.639216 0 0 0 0 0.639216 0 0 0 0.05 0"/>
<feBlend mode="normal" in2="effect2_dropShadow_521_352" result="effect3_dropShadow_521_352"/>
<feColorMatrix in="SourceAlpha" type="matrix" values="0 0 0 0 0 0 0 0 0 0 0 0 0 0 0 0 0 0 127 0" result="hardAlpha"/>
<feOffset dx="3" dy="46"/>
<feGaussianBlur stdDeviation="9"/>
<feColorMatrix type="matrix" values="0 0 0 0 0.639216 0 0 0 0 0.639216 0 0 0 0 0.639216 0 0 0 0.01 0"/>
<feBlend mode="normal" in2="effect3_dropShadow_521_352" result="effect4_dropShadow_521_352"/>
<feBlend mode="normal" in="SourceGraphic" in2="effect4_dropShadow_521_352" result="shape"/>
</filter>
<filter id="filter2_dddd_521_352" x="19.5" y="43.5" width="162" height="193" filterUnits="userSpaceOnUse" color-interpolation-filters="sRGB">
<feFlood flood-opacity="0" result="BackgroundImageFix"/>
<feColorMatrix in="SourceAlpha" type="matrix" values="0 0 0 0 0 0 0 0 0 0 0 0 0 0 0 0 0 0 127 0" result="hardAlpha"/>
<feOffset dy="3"/>
<feGaussianBlur stdDeviation="3"/>
<feColorMatrix type="matrix" values="0 0 0 0 0.639216 0 0 0 0 0.639216 0 0 0 0 0.639216 0 0 0 0.1 0"/>
<feBlend mode="normal" in2="BackgroundImageFix" result="effect1_dropShadow_521_352"/>
<feColorMatrix in="SourceAlpha" type="matrix" values="0 0 0 0 0 0 0 0 0 0 0 0 0 0 0 0 0 0 127 0" result="hardAlpha"/>
<feOffset dx="1" dy="11"/>
<feGaussianBlur stdDeviation="5.5"/>
<feColorMatrix type="matrix" values="0 0 0 0 0.639216 0 0 0 0 0.639216 0 0 0 0 0.639216 0 0 0 0.09 0"/>
<feBlend mode="normal" in2="effect1_dropShadow_521_352" result="effect2_dropShadow_521_352"/>
<feColorMatrix in="SourceAlpha" type="matrix" values="0 0 0 0 0 0 0 0 0 0 0 0 0 0 0 0 0 0 127 0" result="hardAlpha"/>
<feOffset dx="2" dy="26"/>
<feGaussianBlur stdDeviation="7.5"/>
<feColorMatrix type="matrix" values="0 0 0 0 0.639216 0 0 0 0 0.639216 0 0 0 0 0.639216 0 0 0 0.05 0"/>
<feBlend mode="normal" in2="effect2_dropShadow_521_352" result="effect3_dropShadow_521_352"/>
<feColorMatrix in="SourceAlpha" type="matrix" values="0 0 0 0 0 0 0 0 0 0 0 0 0 0 0 0 0 0 127 0" result="hardAlpha"/>
<feOffset dx="3" dy="46"/>
<feGaussianBlur stdDeviation="9"/>
<feColorMatrix type="matrix" values="0 0 0 0 0.639216 0 0 0 0 0.639216 0 0 0 0 0.639216 0 0 0 0.01 0"/>
<feBlend mode="normal" in2="effect3_dropShadow_521_352" result="effect4_dropShadow_521_352"/>
<feBlend mode="normal" in="SourceGraphic" in2="effect4_dropShadow_521_352" result="shape"/>
</filter>
<linearGradient id="paint0_linear_521_352" x1="57.6132" y1="175.75" x2="126.081" y2="71.9902" gradientUnits="userSpaceOnUse">
<stop stop-color="#C1C0D8"/>
<stop offset="1" stop-color="#C1C0D8" stop-opacity="0"/>
</linearGradient>
<linearGradient id="paint1_linear_521_352" x1="137.967" y1="27.4561" x2="89.8328" y2="98.7785" gradientUnits="userSpaceOnUse">
<stop stop-color="#F93C52"/>
<stop offset="0.30858" stop-color="#DB3869" stop-opacity="0.927816"/>
<stop offset="0.703319" stop-color="#2B21F3" stop-opacity="0.5"/>
<stop offset="1" stop-color="#2B21F3" stop-opacity="0"/>
</linearGradient>
<clipPath id="clip0_521_352">
<rect width="159" height="159" fill="white" transform="translate(18 30)"/>
</clipPath>
</defs>
</svg>
