<svg width="121" height="25" viewBox="0 0 121 25" fill="none" xmlns="http://www.w3.org/2000/svg">
<path d="M9.90835 24.5H5.15179L0.395242 1.47396H3.45817L6.80938 18.6804L7.43998 21.9956H7.76429L8.37688 18.6804L11.7461 2.06853H16.1603L19.5296 18.6804L20.1421 21.9956H20.4665L21.1151 18.6804L24.4663 1.47396H27.4932L22.7546 24.5H18.0341L15.3676 11.2573L14.1064 4.53689H13.8181L12.5389 11.2573L9.90835 24.5ZM41.2938 24.5H38.393L38.5192 20.2299L38.4111 19.7795V14.1761L38.4291 13.1491C38.4291 11.7198 38.0627 10.6628 37.33 9.9781C36.6093 9.29345 35.4622 8.95112 33.8887 8.95112C32.6275 8.95112 31.4684 9.13129 30.4114 9.49164C29.3664 9.85198 28.4355 10.2724 27.6187 10.7528L27.889 8.26646C28.3454 7.9902 28.8859 7.71994 29.5105 7.45569C30.1472 7.17942 30.8678 6.95121 31.6726 6.77103C32.4894 6.59086 33.3842 6.50077 34.3572 6.50077C35.6184 6.50077 36.6874 6.65692 37.5642 6.96922C38.4531 7.26951 39.1678 7.70793 39.7083 8.28448C40.2608 8.86103 40.6632 9.5577 40.9155 10.3745C41.1677 11.1913 41.2938 12.1041 41.2938 13.1131V24.5ZM32.3392 24.8784C30.5976 24.8784 29.2583 24.458 28.3214 23.6172C27.3965 22.7643 26.9341 21.5512 26.9341 19.9777V19.4552C26.9341 17.8336 27.4326 16.6265 28.4295 15.8337C29.4385 15.0289 31.036 14.4704 33.2221 14.1581L38.7894 13.3653L38.9516 15.4914L33.5824 16.2661C32.2372 16.4583 31.2762 16.7886 30.6997 17.2571C30.1231 17.7135 29.8349 18.3922 29.8349 19.293V19.5813C29.8349 20.5062 30.1171 21.2149 30.6817 21.7073C31.2582 22.1998 32.117 22.446 33.2581 22.446C34.2671 22.446 35.1319 22.2719 35.8526 21.9235C36.5733 21.5752 37.1559 21.1068 37.6003 20.5182C38.0447 19.9296 38.345 19.275 38.5011 18.5543L38.9516 20.5362H38.393C38.2249 21.3049 37.9066 22.0196 37.4381 22.6803C36.9817 23.3409 36.3391 23.8754 35.5103 24.2838C34.6815 24.6802 33.6245 24.8784 32.3392 24.8784ZM47.3166 24.5H44.4159V0.627153H47.3166V24.5ZM54.0393 24.5H51.1386V0.627153H54.0393V24.5ZM64.8415 24.8964C62.1629 24.8964 60.145 24.2418 58.7877 22.9325C57.4304 21.6232 56.7518 19.7495 56.7518 17.3111V14.1761C56.7518 11.7018 57.3824 9.79793 58.6436 8.46465C59.9048 7.11937 61.7485 6.44672 64.1749 6.44672C65.8084 6.44672 67.1717 6.75301 68.2648 7.3656C69.3578 7.96618 70.1806 8.825 70.7331 9.94207C71.2857 11.0591 71.5619 12.3924 71.5619 13.9419V14.5905C71.5619 14.9749 71.5439 15.3593 71.5079 15.7436C71.4839 16.128 71.4478 16.5063 71.3998 16.8787H68.7152C68.7392 16.3022 68.7513 15.7556 68.7513 15.2391C68.7633 14.7226 68.7693 14.2482 68.7693 13.8158C68.7693 12.7468 68.5951 11.8459 68.2468 11.1132C67.9104 10.3685 67.4 9.80394 66.7153 9.41957C66.0427 9.02319 65.1958 8.825 64.1749 8.825C62.6614 8.825 61.5263 9.26342 60.7696 10.1403C60.0129 11.0171 59.6345 12.2723 59.6345 13.9059V15.5815L59.6525 15.9418V17.6174C59.6525 18.3501 59.7606 19.0107 59.9769 19.5993C60.1931 20.1879 60.5294 20.6984 60.9858 21.1308C61.4543 21.5512 62.0428 21.8755 62.7515 22.1037C63.4722 22.3199 64.325 22.428 65.31 22.428C66.4511 22.428 67.5141 22.2779 68.499 21.9776C69.484 21.6773 70.4088 21.2689 71.2737 20.7524L71.0034 23.2748C70.2227 23.7673 69.3158 24.1637 68.2828 24.464C67.2498 24.7522 66.1027 24.8964 64.8415 24.8964ZM70.7872 16.8787H58.2832V14.6806H70.7872V16.8787ZM79.8319 24.8784C77.7178 24.8784 76.1083 24.2237 75.0032 22.9145C73.8982 21.6052 73.3456 19.6954 73.3456 17.185V14.2842C73.3456 11.7618 73.9042 9.83997 75.0212 8.51871C76.1383 7.18543 77.7839 6.51879 79.958 6.51879C81.039 6.51879 81.9759 6.70497 82.7687 7.07733C83.5614 7.43767 84.204 7.94816 84.6965 8.60879C85.189 9.26942 85.5193 10.0502 85.6875 10.951H86.6424L85.7775 13.6356C85.7415 12.6026 85.5073 11.7378 85.0749 11.0411C84.6545 10.3324 84.0779 9.79793 83.3452 9.43758C82.6245 9.07724 81.7957 8.89707 80.8588 8.89707C79.3694 8.89707 78.2283 9.32948 77.4356 10.1943C76.6548 11.0591 76.2644 12.3324 76.2644 14.014V17.3652C76.2644 19.0228 76.6548 20.284 77.4356 21.1488C78.2283 22.0136 79.3694 22.446 80.8588 22.446C81.7477 22.446 82.5344 22.2779 83.2191 21.9416C83.9037 21.5932 84.4683 21.1188 84.9127 20.5182C85.3692 19.9056 85.6815 19.2149 85.8496 18.4462L86.5703 20.5362H85.7055C85.5373 21.329 85.213 22.0557 84.7325 22.7163C84.2641 23.3769 83.6275 23.9054 82.8227 24.3018C82.03 24.6862 81.033 24.8784 79.8319 24.8784ZM88.6243 24.5H85.7055L85.8316 20.2479L85.7775 19.311V11.96L85.7956 11.3474L85.7235 6.35664V0.627153H88.6243V24.5Z" fill="#EFEFF5"/>
<path d="M99.7049 24.5H96.678L103.885 1.47396H108.605L115.83 24.5H112.803L106.479 3.4919H106.029L99.7049 24.5ZM111.488 17.7075H101.002V15.2211H111.488V17.7075ZM121.004 1.47396V24.5H118.013V1.47396H121.004Z" fill="url(#paint0_linear_430_523)"/>
<defs>
<linearGradient id="paint0_linear_430_523" x1="61.7241" y1="1.5" x2="61.7241" y2="24.5" gradientUnits="userSpaceOnUse">
<stop stop-color="#F93C52"/>
<stop offset="1" stop-color="#2B21F3"/>
</linearGradient>
</defs>
</svg>
