<svg width="49" height="54" viewBox="0 0 49 54" fill="none" xmlns="http://www.w3.org/2000/svg">
<path fill-rule="evenodd" clip-rule="evenodd" d="M19.2743 10.1902C18.2176 10.5314 17.1352 9.74343 17.1352 8.63302V3.65455C17.1352 3.05213 17.4662 2.49843 17.9968 2.21322L21.5247 0.316912C22.6104 -0.266662 23.9271 0.514168 23.9358 1.74673L23.9761 7.46951C23.9811 8.18379 23.5222 8.81879 22.8425 9.03824L19.2743 10.1902ZM0.700056 13.9667C0.700056 15.0788 1.78553 15.8669 2.84299 15.5227L14.5707 11.7045C15.2444 11.4852 15.7004 10.8571 15.7004 10.1485V6.35866C15.7004 5.11333 14.3647 4.32441 13.2741 4.92564L1.5464 11.391C1.0243 11.6789 0.700056 12.2279 0.700056 12.824V13.9667ZM10.0698 14.561C9.3847 14.7733 8.91764 15.4069 8.91764 16.1241V18.9978C8.91764 20.045 9.88765 20.8227 10.9098 20.595L22.6462 17.9805C23.3827 17.8164 23.9115 17.17 23.9264 16.4156L24.0037 12.4969C24.0258 11.3814 22.9493 10.5714 21.8835 10.9016L10.0698 14.561ZM2.308 29.5317C1.41548 29.5163 0.700056 28.7883 0.700056 27.8956V25.3647C0.700056 24.5896 1.24384 23.9209 2.00263 23.7628L13.7303 21.3191C14.7465 21.1074 15.7004 21.8831 15.7004 22.9211V28.0993C15.7004 29.0141 14.9504 29.7513 14.0357 29.7354L2.308 29.5317ZM10.179 38.0052C9.43993 37.8312 8.91768 37.1717 8.91768 36.4124V30.9376C8.91768 30.9368 8.91826 30.9363 8.91898 30.9363L23.5842 31.2468C23.8078 31.2515 24.0339 31.3377 24.0479 31.5609C24.0498 31.5901 24.0516 31.6191 24.055 31.6473C24.3316 33.9042 24.0785 37.7825 23.9115 40.1136C23.8935 40.3593 23.894 40.6098 23.9612 40.8475C23.9812 40.9182 23.9771 40.9946 23.9416 41.0589C23.8876 41.1568 23.775 41.2067 23.6661 41.1811L10.179 38.0052ZM1.55118 41.8203C1.02641 41.5332 0.700056 40.9828 0.700056 40.3846V39.1214C0.700056 38.0668 1.68306 37.2876 2.70987 37.5283L14.4375 40.2773C15.1773 40.4507 15.7004 41.1106 15.7004 41.8705V46.7991C15.7004 48.042 14.3693 48.8312 13.2789 48.2347L1.55118 41.8203ZM17.98 50.7424C17.4588 50.4543 17.1353 49.9057 17.1353 49.3102V40.9648C17.1353 40.9643 17.1355 40.9638 17.1358 40.9634C17.1363 40.963 17.1369 40.9628 17.1376 40.9629L22.9132 42.3823C23.4932 42.5249 23.8774 43.1586 23.9839 43.7463C24.0155 43.9208 24.0472 44.0961 24.055 44.2783C24.1215 45.8278 24.0692 47.4136 24.017 48.9937C23.9627 50.6356 23.9087 52.2714 23.9885 53.8542C23.9902 53.8928 24.0117 53.9231 24.0275 53.9454C24.1171 54.0716 23.7826 53.9495 23.6471 53.8746L17.98 50.7424ZM18.4316 20.2438C17.6758 20.4043 17.1352 21.0717 17.1352 21.8444V28.1583C17.1352 29.0501 17.8492 29.7776 18.7408 29.7944L22.3276 29.862C23.2636 29.8796 24.0234 29.1097 24.0227 28.1735C24.022 27.2534 24.0386 26.331 24.0552 25.4082V25.4081V25.4081V25.408C24.0834 23.8389 24.1117 22.269 24.055 20.708C24.0486 20.5242 24.015 20.3619 23.9822 20.2038C23.9546 20.0706 23.9276 19.9404 23.918 19.8029C23.9113 19.7079 23.9431 19.6177 23.9734 19.532C24.084 19.2193 23.6757 19.13 23.3513 19.1989L18.4316 20.2438ZM2.36777 30.838C1.45192 30.8204 0.700005 31.558 0.700005 32.4741V34.4525C0.700005 35.2147 1.22624 35.876 1.96897 36.0471L5.47904 36.8558C6.50426 37.092 7.48279 36.3133 7.48279 35.2612V32.5415C7.48279 31.65 6.76917 30.9225 5.87784 30.9054L2.36777 30.838ZM2.6745 22.3148C1.65714 22.5297 0.700005 21.7536 0.700005 20.7138V18.7318C0.700005 18.0131 1.16888 17.3786 1.85583 17.1676L5.3659 16.0893C6.41802 15.766 7.48279 16.5528 7.48279 17.6535V19.9724C7.48279 20.7459 6.94129 21.4137 6.18457 21.5735L2.6745 22.3148Z" fill="url(#paint0_linear_844_1619)"/>
<path fill-rule="evenodd" clip-rule="evenodd" d="M42.9818 9.58295C42.9818 8.9877 42.6586 8.43939 42.1378 8.15119L27.7814 0.206937C26.6908 -0.39658 25.3528 0.392221 25.3528 1.6387V3.71431C25.3528 4.34189 25.7117 4.91418 26.2767 5.18742L38.6084 11.1516C39.1734 11.4248 39.5323 11.9971 39.5323 12.6247V17.2986C39.5323 17.9265 39.9439 18.481 40.276 19.0138C40.4957 19.3664 40.626 19.8055 40.626 20.2814C40.626 21.4438 39.8488 22.3861 38.8901 22.3861C37.9314 22.3861 37.1542 21.4438 37.1542 20.2814C37.1542 19.8007 37.2872 19.3575 37.5109 19.0031C37.8561 18.4565 38.2924 17.8882 38.2924 17.2416V13.4007C38.2924 12.7731 37.9334 12.2008 37.3685 11.9275L27.7016 7.25223C26.615 6.72669 25.3528 7.51831 25.3528 8.72535V51.3113C25.3528 52.5563 26.688 53.3453 27.7785 52.7446L31.4714 50.7108C31.9938 50.4231 32.3183 49.8739 32.3183 49.2775V33.5946C32.3183 33.0129 31.9794 32.4845 31.4506 32.2421C30.465 31.7901 29.3425 32.5103 29.3425 33.5946V45.8204C29.3425 46.5083 29.8329 47.1287 30.1575 47.7352C30.3464 48.088 30.4584 48.5277 30.4584 49.0044C30.4584 50.1668 29.7922 51.1092 28.9705 51.1092C28.1487 51.1092 27.4826 50.1668 27.4826 49.0044C27.4826 48.5764 27.5729 48.1781 27.7281 47.8458C27.9097 47.457 28.1026 47.0543 28.1026 46.6252V31.8949C28.1026 30.7024 29.3371 29.9104 30.421 30.4075L32.604 31.4086C33.1855 31.6752 33.5583 32.2563 33.5583 32.896V46.7922C33.5583 48.0372 34.8935 48.8262 35.984 48.2256L37.4231 47.433C37.9455 47.1453 38.27 46.5961 38.27 45.9997L38.27 28.4536C38.2702 28.4443 38.2648 28.4358 38.2564 28.4318C37.6111 28.1249 37.1542 27.363 37.1542 26.4718C37.1542 25.3094 37.9314 24.367 38.8901 24.367C39.8488 24.367 40.626 25.3094 40.626 26.4718C40.626 27.3631 40.169 28.1251 39.5235 28.4319C39.5152 28.4359 39.5099 28.4443 39.51 28.4536V43.5144C39.51 44.7594 40.8452 45.5483 41.9357 44.9477L42.1349 44.838C42.6573 44.5503 42.9818 44.0011 42.9818 43.4047L42.9818 18.3353C42.9818 17.1193 44.2612 16.3281 45.3491 16.8713L46.2922 17.3421C46.847 17.6191 47.1976 18.186 47.1976 18.8062V24.9461C47.1976 25.5833 47.6214 26.1446 47.9601 26.6844C48.1819 27.0379 48.3135 27.479 48.3135 27.9575C48.3135 29.1199 47.5363 30.0622 46.5776 30.0622C45.6189 30.0622 44.8417 29.1199 44.8417 27.9575C44.8417 27.479 44.9734 27.0378 45.1952 26.6843C45.5338 26.1446 45.9577 25.5832 45.9577 24.946V19.0961C45.9577 18.7672 45.7717 18.4665 45.4774 18.3195C44.9003 18.0314 44.2218 18.4511 44.2218 19.0961V42.2198C44.2218 42.8802 44.93 43.2987 45.5084 42.9801C45.7855 42.8275 45.9577 42.5362 45.9577 42.2198V32.663C45.9577 32.3206 46.2352 32.0431 46.5776 32.0431C46.92 32.0431 47.1976 32.3206 47.1976 32.663V40.7228C47.1976 41.3194 47.8374 41.6974 48.36 41.4096C48.6099 41.272 48.7654 41.0094 48.7658 40.724L48.8089 12.2456C48.8092 11.9973 48.6745 11.7684 48.4573 11.6482C48.003 11.3968 47.4456 11.7253 47.4456 12.2446V13.9325C47.4456 15.1485 46.1663 15.9397 45.0783 15.3965L43.8873 14.8019C43.3324 14.5249 42.9818 13.958 42.9818 13.3379V9.58295ZM45.694 10.1191C45.0329 9.75322 44.2218 10.2314 44.2218 10.987V12.9712C44.2218 13.3472 44.4343 13.6908 44.7706 13.8587C45.4302 14.188 46.2057 13.7084 46.2057 12.9712V10.987C46.2057 10.6262 46.0097 10.2938 45.694 10.1191ZM32.2562 17.0073C32.8246 17.2792 33.1863 17.8533 33.1863 18.4834V23.1545C33.1863 24.3987 31.8528 25.1877 30.7623 24.5888L30.3152 24.3433C29.7918 24.0559 29.4665 23.5061 29.4665 22.909V20.4028C29.4665 19.9784 29.9032 19.6945 30.2911 19.8666C30.5869 19.9979 30.9333 19.8647 31.0649 19.569L31.0781 19.5392C31.2173 19.2266 31.0764 18.8603 30.7636 18.7215L30.1064 18.4298C29.2221 18.0374 28.2266 18.6848 28.2266 19.6523V23.641C28.2266 24.2382 28.5518 24.7879 29.0753 25.0753L32.0022 26.6827C33.0927 27.2816 34.4263 26.4926 34.4263 25.2484V17.7038C34.4263 17.0737 34.0645 16.4996 33.4961 16.2277L29.4999 14.3157C29.3212 14.2302 29.2186 14.0416 29.2186 13.8435C29.2186 12.6811 28.608 11.7388 27.8547 11.7388C27.1014 11.7388 26.4907 12.6811 26.4907 13.8435C26.4907 15.0059 27.1014 15.9482 27.8547 15.9482C28.5239 15.9482 29.2515 15.5697 29.8552 15.8585L32.2562 17.0073ZM27.9787 13.8435C27.9787 13.8465 27.9787 13.8496 27.9786 13.8527C27.9781 13.9817 27.9107 14.098 27.8549 14.2143C27.8368 14.252 27.7726 14.2515 27.7647 14.2105C27.7436 14.1012 27.7307 13.9782 27.7307 13.8435C27.7307 13.587 27.9787 13.587 27.9787 13.8435ZM39.3861 26.4718C39.3861 26.7823 39.2815 27.0261 39.1604 27.173C39.0415 27.3172 38.9398 27.3384 38.8901 27.3384C38.8404 27.3384 38.7387 27.3172 38.6198 27.173C38.4987 27.0261 38.3941 26.7823 38.3941 26.4718C38.3941 26.1612 38.4987 25.9174 38.6198 25.7705C38.7387 25.6263 38.8404 25.6051 38.8901 25.6051C38.9398 25.6051 39.0415 25.6263 39.1604 25.7705C39.2815 25.9174 39.3861 26.1612 39.3861 26.4718ZM39.1604 20.9826C39.2815 20.8358 39.3861 20.592 39.3861 20.2814C39.3861 19.9709 39.2815 19.727 39.1604 19.5802C39.0415 19.436 38.9398 19.4148 38.8901 19.4148C38.8404 19.4148 38.7387 19.436 38.6198 19.5802C38.4987 19.727 38.3941 19.9709 38.3941 20.2814C38.3941 20.592 38.4987 20.8358 38.6198 20.9826C38.7387 21.1269 38.8404 21.1481 38.8901 21.1481C38.9398 21.1481 39.0415 21.1269 39.1604 20.9826ZM47.0736 27.9575C47.0736 28.268 46.969 28.5119 46.8479 28.6587C46.729 28.8029 46.6273 28.8241 46.5776 28.8241C46.5279 28.8241 46.4262 28.8029 46.3073 28.6587C46.1862 28.5119 46.0816 28.268 46.0816 27.9575C46.0816 27.6469 46.1862 27.4031 46.3073 27.2563C46.4262 27.112 46.5279 27.0908 46.5776 27.0908C46.6273 27.0908 46.729 27.112 46.8479 27.2563C46.969 27.4031 47.0736 27.6469 47.0736 27.9575ZM27.7053 14.7484C27.705 14.7471 27.7055 14.7497 27.7053 14.7484V14.7484ZM28.0041 12.9385C28.0038 12.9372 28.0043 12.9398 28.0041 12.9385V12.9385ZM27.7053 12.9385C27.705 12.9398 27.7055 12.9372 27.7053 12.9385V12.9385ZM29.2185 49.0044C29.2185 49.3605 29.1145 49.6304 29.0096 49.7787C28.9902 49.8062 28.9508 49.8062 28.9314 49.7787C28.8265 49.6304 28.7225 49.3605 28.7225 49.0044C28.7225 48.6483 28.8265 48.3785 28.9314 48.2302C28.9508 48.2027 28.9902 48.2027 29.0096 48.2302C29.1145 48.3785 29.2185 48.6483 29.2185 49.0044ZM28.9124 49.8817C28.9133 49.8813 28.9129 49.8805 28.9121 49.881C28.9107 49.8817 28.91 49.8822 28.9101 49.8824C28.9101 49.8826 28.9109 49.8824 28.9124 49.8817ZM29.0309 49.8824C29.0306 49.8837 29.0312 49.8811 29.0309 49.8824V49.8824ZM29.0309 48.1265C29.0306 48.1252 29.0312 48.1278 29.0309 48.1265V48.1265ZM28.9101 48.1265C28.9098 48.1278 28.9104 48.1252 28.9101 48.1265V48.1265Z" fill="#323150"/>
<defs>
<linearGradient id="paint0_linear_844_1619" x1="12.4389" y1="0.119663" x2="12.4389" y2="54" gradientUnits="userSpaceOnUse">
<stop stop-color="#F93C52"/>
<stop offset="1" stop-color="#2B21F3"/>
</linearGradient>
</defs>
</svg>
