<svg width="49" height="54" viewBox="0 0 49 54" fill="none" xmlns="http://www.w3.org/2000/svg">
<path fill-rule="evenodd" clip-rule="evenodd" d="M18.9742 10.1902C17.9175 10.5314 16.8351 9.74343 16.8351 8.63303V3.65455C16.8351 3.05214 17.1661 2.49844 17.6967 2.21322L21.2246 0.316915C22.3103 -0.26666 23.627 0.514171 23.6357 1.74673L23.6759 7.46952C23.681 8.18379 23.2221 8.81879 22.5424 9.03824L18.9742 10.1902ZM0.399953 13.9667C0.399953 15.0788 1.48543 15.8669 2.54288 15.5227L14.2706 11.7045C14.9443 11.4852 15.4003 10.8571 15.4003 10.1485V6.35866C15.4003 5.11333 14.0646 4.32441 12.974 4.92565L1.2463 11.391C0.724197 11.6789 0.399953 12.2279 0.399953 12.8241V13.9667ZM9.76971 14.561C9.0846 14.7733 8.61754 15.4069 8.61754 16.1241V18.9978C8.61754 20.045 9.58755 20.8227 10.6097 20.595L22.3461 17.9805C23.0826 17.8164 23.6114 17.17 23.6263 16.4156L23.7036 12.4969C23.7257 11.3814 22.6492 10.5714 21.5834 10.9016L9.76971 14.561ZM2.0079 29.5317C1.11538 29.5163 0.399953 28.7883 0.399953 27.8956V25.3647C0.399953 24.5896 0.943734 23.9209 1.70252 23.7628L13.4302 21.3191C14.4464 21.1074 15.4003 21.8831 15.4003 22.9211V28.0993C15.4003 29.0141 14.6503 29.7513 13.7356 29.7354L2.0079 29.5317ZM9.87887 38.0052C9.13983 37.8312 8.61757 37.1717 8.61757 36.4124V30.9376C8.61757 30.9368 8.61816 30.9363 8.61887 30.9363L23.2841 31.2468C23.5077 31.2515 23.7338 31.3377 23.7478 31.5609C23.7497 31.5901 23.7515 31.6191 23.7549 31.6473C24.0314 33.9042 23.7784 37.7825 23.6114 40.1136C23.5934 40.3593 23.5939 40.6098 23.6611 40.8475C23.6811 40.9182 23.677 40.9946 23.6415 41.0589C23.5875 41.1568 23.4749 41.2067 23.366 41.1811L9.87887 38.0052ZM1.25108 41.8203C0.726308 41.5332 0.399953 40.9828 0.399953 40.3846V39.1214C0.399953 38.0668 1.38296 37.2876 2.40976 37.5283L14.1374 40.2773C14.8772 40.4507 15.4003 41.1106 15.4003 41.8705V46.7991C15.4003 48.042 14.0692 48.8312 12.9788 48.2347L1.25108 41.8203ZM17.6799 50.7424C17.1587 50.4543 16.8352 49.9058 16.8352 49.3102V40.9648C16.8352 40.9643 16.8354 40.9638 16.8357 40.9634C16.8362 40.963 16.8368 40.9628 16.8375 40.9629L22.6131 42.3823C23.1931 42.5249 23.5773 43.1586 23.6838 43.7463C23.7154 43.9208 23.7471 44.0961 23.7549 44.2783C23.8214 45.8278 23.7691 47.4136 23.7169 48.9937C23.6626 50.6356 23.6086 52.2714 23.6884 53.8542C23.6901 53.8928 23.7116 53.9231 23.7274 53.9454C23.817 54.0716 23.4825 53.9495 23.347 53.8746L17.6799 50.7424ZM18.1315 20.2438C17.3757 20.4043 16.8351 21.0717 16.8351 21.8444V28.1583C16.8351 29.0501 17.5491 29.7776 18.4407 29.7944L22.0275 29.862C22.9635 29.8796 23.7233 29.1097 23.7226 28.1735C23.7219 27.2534 23.7385 26.331 23.7551 25.4082V25.4081V25.4081V25.408C23.7833 23.8389 23.8116 22.269 23.7549 20.708C23.7485 20.5242 23.7149 20.3619 23.6821 20.2038C23.6545 20.0706 23.6275 19.9404 23.6179 19.8029C23.6112 19.7079 23.643 19.6177 23.6733 19.5321C23.7839 19.2193 23.3756 19.13 23.0512 19.1989L18.1315 20.2438ZM2.06767 30.838C1.15181 30.8204 0.399902 31.558 0.399902 32.4741V34.4525C0.399902 35.2147 0.926133 35.876 1.66887 36.0471L5.17894 36.8558C6.20416 37.092 7.18269 36.3133 7.18269 35.2612V32.5415C7.18269 31.65 6.46907 30.9225 5.57774 30.9054L2.06767 30.838ZM2.3744 22.3148C1.35704 22.5297 0.399902 21.7536 0.399902 20.7138V18.7318C0.399902 18.0131 0.868775 17.3786 1.55573 17.1676L5.0658 16.0893C6.11792 15.766 7.18269 16.5528 7.18269 17.6535V19.9724C7.18269 20.7459 6.64119 21.4137 5.88447 21.5735L2.3744 22.3148Z" fill="url(#paint0_linear_1047_294)"/>
<path fill-rule="evenodd" clip-rule="evenodd" d="M42.6818 9.58297C42.6818 8.98772 42.3585 8.43942 41.8377 8.15121L27.4814 0.206959C26.3907 -0.396558 25.0527 0.392243 25.0527 1.63873V3.71433C25.0527 4.34191 25.4116 4.9142 25.9766 5.18745L38.3083 11.1516C38.8733 11.4248 39.2322 11.9971 39.2322 12.6247V17.2987C39.2322 17.9265 39.6438 18.481 39.9759 19.0138C40.1956 19.3664 40.3259 19.8055 40.3259 20.2815C40.3259 21.4439 39.5488 22.3862 38.59 22.3862C37.6313 22.3862 36.8541 21.4439 36.8541 20.2815C36.8541 19.8007 36.9871 19.3575 37.2109 19.0032C37.5561 18.4565 37.9923 17.8882 37.9923 17.2417V13.4007C37.9923 12.7731 37.6334 12.2008 37.0684 11.9276L27.4015 7.25225C26.3149 6.72672 25.0527 7.51833 25.0527 8.72537V51.3113C25.0527 52.5563 26.3879 53.3453 27.4785 52.7447L31.1713 50.7109C31.6938 50.4231 32.0183 49.8739 32.0183 49.2775V33.5946C32.0183 33.0129 31.6793 32.4846 31.1506 32.2421C30.165 31.7901 29.0424 32.5103 29.0424 33.5946V45.8204C29.0424 46.5083 29.5328 47.1288 29.8574 47.7352C30.0463 48.0881 30.1583 48.5278 30.1583 49.0045C30.1583 50.1669 29.4922 51.1092 28.6704 51.1092C27.8487 51.1092 27.1825 50.1669 27.1825 49.0045C27.1825 48.5764 27.2728 48.1781 27.4281 47.8458C27.6096 47.4571 27.8025 47.0543 27.8025 46.6252V31.8949C27.8025 30.7025 29.037 29.9105 30.1209 30.4075L32.304 31.4086C32.8854 31.6753 33.2582 32.2563 33.2582 32.896V46.7922C33.2582 48.0373 34.5934 48.8262 35.684 48.2256L37.123 47.433C37.6455 47.1453 37.97 46.5961 37.97 45.9997L37.97 28.4536C37.9701 28.4443 37.9647 28.4358 37.9563 28.4318C37.311 28.1249 36.8541 27.363 36.8541 26.4718C36.8541 25.3094 37.6313 24.3671 38.59 24.3671C39.5488 24.3671 40.3259 25.3094 40.3259 26.4718C40.3259 27.3631 39.8689 28.1251 39.2235 28.4319C39.2151 28.4359 39.2098 28.4444 39.2099 28.4536V43.5144C39.2099 44.7594 40.5451 45.5484 41.6357 44.9477L41.8348 44.8381C42.3572 44.5503 42.6818 44.0011 42.6818 43.4047L42.6818 18.3354C42.6818 17.1194 43.9611 16.3282 45.049 16.8713L45.9921 17.3421C46.547 17.6191 46.8975 18.186 46.8975 18.8062V24.9461C46.8975 25.5833 47.3213 26.1446 47.66 26.6844C47.8818 27.0379 48.0134 27.479 48.0134 27.9575C48.0134 29.1199 47.2363 30.0622 46.2775 30.0622C45.3188 30.0622 44.5416 29.1199 44.5416 27.9575C44.5416 27.479 44.6733 27.0379 44.8951 26.6844C45.2338 26.1446 45.6576 25.5832 45.6576 24.946V19.0961C45.6576 18.7672 45.4717 18.4665 45.1773 18.3196C44.6003 18.0315 43.9217 18.4511 43.9217 19.0961V42.2199C43.9217 42.8802 44.6299 43.2987 45.2084 42.9801C45.4855 42.8275 45.6576 42.5362 45.6576 42.2198V32.6631C45.6576 32.3207 45.9352 32.0431 46.2776 32.0431C46.62 32.0431 46.8975 32.3207 46.8975 32.6631L46.8975 40.7228C46.8975 41.3194 47.5373 41.6975 48.0599 41.4097C48.3099 41.272 48.4653 41.0094 48.4657 40.724L48.5088 12.2456C48.5092 11.9973 48.3745 11.7684 48.1572 11.6482C47.7029 11.3968 47.1455 11.7254 47.1455 12.2446V13.9325C47.1455 15.1485 45.8662 15.9397 44.7783 15.3966L43.5872 14.8019C43.0323 14.5249 42.6818 13.9581 42.6818 13.3379V9.58297ZM45.3939 10.1191C44.7328 9.75325 43.9217 10.2314 43.9217 10.987V12.9713C43.9217 13.3472 44.1342 13.6908 44.4706 13.8588C45.1301 14.188 45.9056 13.7084 45.9056 12.9713V10.987C45.9056 10.6262 45.7096 10.2938 45.3939 10.1191ZM31.9561 17.0073C32.5245 17.2792 32.8862 17.8533 32.8862 18.4834V23.1545C32.8862 24.3987 31.5527 25.1877 30.4622 24.5889L30.0151 24.3433C29.4917 24.0559 29.1664 23.5062 29.1664 22.909V20.4028C29.1664 19.9785 29.6031 19.6945 29.991 19.8666C30.2869 19.9979 30.6332 19.8647 30.7648 19.569L30.7781 19.5393C30.9172 19.2266 30.7764 18.8603 30.4636 18.7215L29.8064 18.4299C28.922 18.0374 27.9265 18.6848 27.9265 19.6523V23.641C27.9265 24.2382 28.2518 24.7879 28.7752 25.0754L31.7021 26.6828C32.7927 27.2816 34.1262 26.4926 34.1262 25.2484V17.7038C34.1262 17.0737 33.7644 16.4996 33.1961 16.2277L29.1998 14.3157C29.0211 14.2302 28.9185 14.0416 28.9185 13.8435C28.9185 12.6811 28.3079 11.7388 27.5546 11.7388C26.8013 11.7388 26.1907 12.6811 26.1907 13.8435C26.1907 15.0059 26.8013 15.9482 27.5546 15.9482C28.2238 15.9482 28.9515 15.5697 29.5551 15.8586L31.9561 17.0073ZM27.6786 13.8435C27.6786 13.8466 27.6786 13.8496 27.6786 13.8527C27.678 13.9817 27.6107 14.098 27.5548 14.2143C27.5368 14.252 27.4725 14.2515 27.4646 14.2105C27.4435 14.1012 27.4306 13.9783 27.4306 13.8435C27.4306 13.587 27.6786 13.587 27.6786 13.8435ZM39.086 26.4718C39.086 26.7823 38.9815 27.0262 38.8604 27.173C38.7414 27.3172 38.6398 27.3384 38.59 27.3384C38.5403 27.3384 38.4387 27.3172 38.3197 27.173C38.1986 27.0262 38.0941 26.7823 38.0941 26.4718C38.0941 26.1612 38.1986 25.9174 38.3197 25.7706C38.4387 25.6263 38.5403 25.6051 38.59 25.6051C38.6398 25.6051 38.7414 25.6263 38.8604 25.7706C38.9815 25.9174 39.086 26.1612 39.086 26.4718ZM38.8604 20.9827C38.9815 20.8359 39.086 20.592 39.086 20.2815C39.086 19.9709 38.9815 19.7271 38.8604 19.5803C38.7414 19.436 38.6398 19.4148 38.59 19.4148C38.5403 19.4148 38.4387 19.436 38.3197 19.5803C38.1986 19.7271 38.0941 19.9709 38.0941 20.2815C38.0941 20.592 38.1986 20.8359 38.3197 20.9827C38.4387 21.1269 38.5403 21.1481 38.59 21.1481C38.6398 21.1481 38.7414 21.1269 38.8604 20.9827ZM46.7735 27.9575C46.7735 28.268 46.669 28.5119 46.5479 28.6587C46.4289 28.8029 46.3273 28.8241 46.2775 28.8241C46.2278 28.8241 46.1262 28.8029 46.0072 28.6587C45.8861 28.5119 45.7816 28.268 45.7816 27.9575C45.7816 27.6469 45.8861 27.4031 46.0072 27.2563C46.1262 27.1121 46.2278 27.0908 46.2775 27.0908C46.3273 27.0908 46.4289 27.1121 46.5479 27.2563C46.669 27.4031 46.7735 27.6469 46.7735 27.9575ZM27.4052 14.7484C27.405 14.7472 27.4055 14.7497 27.4052 14.7484V14.7484ZM27.704 12.9385C27.7037 12.9373 27.7042 12.9398 27.704 12.9385V12.9385ZM27.4052 12.9385C27.405 12.9398 27.4055 12.9373 27.4052 12.9385V12.9385ZM28.9184 49.0045C28.9184 49.3606 28.8144 49.6304 28.7096 49.7788C28.6901 49.8062 28.6507 49.8062 28.6313 49.7788C28.5264 49.6304 28.4224 49.3606 28.4224 49.0045C28.4224 48.6484 28.5264 48.3785 28.6313 48.2302C28.6507 48.2027 28.6901 48.2027 28.7096 48.2302C28.8144 48.3785 28.9184 48.6484 28.9184 49.0045ZM28.6124 49.8817C28.6132 49.8813 28.6128 49.8805 28.612 49.881C28.6106 49.8817 28.61 49.8823 28.61 49.8824C28.6101 49.8826 28.6108 49.8824 28.6124 49.8817ZM28.7308 49.8824C28.7306 49.8837 28.7311 49.8812 28.7308 49.8824V49.8824ZM28.7308 48.1265C28.7306 48.1252 28.7311 48.1278 28.7308 48.1265V48.1265ZM28.61 48.1265C28.6097 48.1278 28.6103 48.1252 28.61 48.1265V48.1265Z" fill="#EFEFF5"/>
<defs>
<linearGradient id="paint0_linear_1047_294" x1="12.1389" y1="0.119663" x2="12.1389" y2="54" gradientUnits="userSpaceOnUse">
<stop stop-color="#F93C52"/>
<stop offset="1" stop-color="#2B21F3"/>
</linearGradient>
</defs>
</svg>
