<svg width="190" height="46" viewBox="0 0 190 46" fill="none" xmlns="http://www.w3.org/2000/svg">
<path fill-rule="evenodd" clip-rule="evenodd" d="M17.4227 9.23338C16.5573 9.51278 15.6709 8.86746 15.6709 7.95808V3.88089C15.6709 3.38753 15.942 2.93406 16.3765 2.70048L19.2658 1.14747C20.1549 0.669546 21.2332 1.30902 21.2403 2.31845L21.2733 7.00521C21.2774 7.59017 20.9017 8.11021 20.345 8.28994L17.4227 9.23338ZM2.21118 12.3262C2.21118 13.2369 3.10014 13.8824 3.96617 13.6005L13.5707 10.4735C14.1225 10.2939 14.496 9.77953 14.496 9.19924V6.09546C14.496 5.07557 13.402 4.42948 12.5089 4.92186L2.90431 10.2168C2.47673 10.4525 2.21118 10.9021 2.21118 11.3904V12.3262ZM9.88459 12.8129C9.32351 12.9867 8.941 13.5056 8.941 14.093V16.4464C8.941 17.3041 9.73541 17.941 10.5725 17.7545L20.1842 15.6133C20.7874 15.479 21.2205 14.9496 21.2327 14.3317L21.296 11.1225C21.314 10.2089 20.4325 9.54556 19.5596 9.81594L9.88459 12.8129ZM3.52804 25.0734C2.79709 25.0607 2.21118 24.4646 2.21118 23.7335V21.6608C2.21118 21.026 2.65652 20.4783 3.27794 20.3488L12.8825 18.3476C13.7147 18.1742 14.496 18.8094 14.496 19.6595V23.9003C14.496 24.6495 13.8817 25.2532 13.1326 25.2402L3.52804 25.0734ZM9.97409 32.0129C9.36884 31.8704 8.94113 31.3303 8.94113 30.7085V26.2247C8.94113 26.2241 8.94161 26.2237 8.9422 26.2237L20.9525 26.478C21.1356 26.4818 21.3208 26.5524 21.3323 26.7352L21.3323 26.7353C21.3338 26.7591 21.3353 26.7829 21.3381 26.806C21.5646 28.6543 21.3573 31.8305 21.2206 33.7396C21.2058 33.9408 21.2062 34.146 21.2613 34.3407C21.2777 34.3986 21.2743 34.4611 21.2452 34.5137C21.201 34.5939 21.1088 34.6348 21.0196 34.6138L9.97409 32.0129ZM2.90823 35.1373C2.47845 34.9022 2.21118 34.4514 2.21118 33.9615V32.927C2.21118 32.0633 3.01623 31.4252 3.85715 31.6223L13.4617 33.8737C14.0676 34.0157 14.496 34.5561 14.496 35.1784V39.2148C14.496 40.2327 13.4058 40.879 12.5128 40.3905L2.90823 35.1373ZM16.363 42.4442C15.9361 42.2082 15.6711 41.759 15.6711 41.2713V34.4367C15.6711 34.4363 15.6713 34.4359 15.6716 34.4356C15.672 34.4352 15.6725 34.435 15.6731 34.4352L20.4031 35.5976C20.8781 35.7143 21.1927 36.2334 21.2799 36.7147C21.3058 36.8575 21.3318 37.0011 21.3382 37.1504C21.3927 38.4192 21.3498 39.7179 21.307 41.0119V41.012V41.012V41.0121V41.0121C21.2626 42.3568 21.2184 43.6964 21.2837 44.9926C21.2851 45.0243 21.3027 45.0491 21.3157 45.0674C21.389 45.1707 21.1151 45.0707 21.0042 45.0094L16.363 42.4442ZM16.7328 17.4669C16.1138 17.5984 15.6711 18.1449 15.6711 18.7778V23.9486C15.6711 24.6789 16.2558 25.2748 16.986 25.2885L19.9235 25.3439C20.6901 25.3583 21.3123 24.7278 21.3117 23.9611C21.3112 23.2074 21.3248 22.4519 21.3384 21.6962V21.6961C21.3615 20.4111 21.3846 19.1255 21.3382 17.847C21.3329 17.6965 21.3054 17.5636 21.2785 17.4342L21.2785 17.4341C21.2559 17.3251 21.2338 17.2184 21.226 17.1058C21.2205 17.028 21.2466 16.9542 21.2714 16.884C21.362 16.6279 21.0276 16.5547 20.7618 16.6111L16.7328 17.4669ZM3.57708 26.1432C2.82703 26.1288 2.21124 26.7329 2.21124 27.4831V29.1034C2.21124 29.7276 2.6422 30.2691 3.25048 30.4093L6.1251 31.0716C6.96472 31.265 7.7661 30.6273 7.7661 29.7657V27.5383C7.7661 26.8082 7.18168 26.2124 6.45171 26.1984L3.57708 26.1432ZM3.82828 19.163C2.9951 19.339 2.21124 18.7034 2.21124 17.8518V16.2286C2.21124 15.6401 2.59523 15.1204 3.15782 14.9476L6.03245 14.0645C6.89409 13.7998 7.7661 14.4441 7.7661 15.3455V17.2447C7.7661 17.8781 7.32264 18.425 6.70291 18.5559L3.82828 19.163Z" fill="url(#paint0_linear_430_494)"/>
<path fill-rule="evenodd" clip-rule="evenodd" d="M36.8385 8.73604C36.8385 8.24855 36.5737 7.79951 36.1472 7.56347L24.3899 1.05741C23.4967 0.563147 22.4009 1.20915 22.4009 2.22997V3.92983C22.4009 4.44379 22.6948 4.91248 23.1575 5.13625L33.2568 10.0207C33.7195 10.2445 34.0134 10.7132 34.0134 11.2271V15.0549C34.0134 15.5691 34.3505 16.0232 34.6225 16.4596C34.8024 16.7483 34.9091 17.1079 34.9091 17.4977C34.9091 18.4497 34.2726 19.2214 33.4875 19.2214C32.7023 19.2214 32.0658 18.4497 32.0658 17.4977C32.0658 17.104 32.1747 16.7411 32.358 16.4508C32.6407 16.0031 32.998 15.5377 32.998 15.0082V11.8626C32.998 11.3486 32.704 10.88 32.2413 10.6562L24.3245 6.82726C23.4346 6.39686 22.4009 7.04517 22.4009 8.03369V42.9101C22.4009 43.9297 23.4944 44.5759 24.3875 44.084L27.4117 42.4184C27.8396 42.1828 28.1053 41.733 28.1053 41.2446V28.4007C28.1053 27.9243 27.8277 27.4916 27.3947 27.2931C26.5875 26.9229 25.6682 27.5127 25.6682 28.4007V38.4134C25.6682 38.9767 26.0698 39.4848 26.3356 39.9814C26.4903 40.2704 26.582 40.6305 26.582 41.0209C26.582 41.9729 26.0364 42.7446 25.3635 42.7446C24.6905 42.7446 24.1449 41.9729 24.1449 41.0209C24.1449 40.6703 24.2189 40.3441 24.346 40.0719C24.4948 39.7535 24.6528 39.4236 24.6528 39.0722V27.0088C24.6528 26.0322 25.6638 25.3835 26.5515 25.7906L28.3393 26.6105C28.8155 26.8289 29.1208 27.3047 29.1208 27.8286V39.2092C29.1208 40.2288 30.2143 40.8749 31.1074 40.3831L32.2859 39.734C32.7138 39.4984 32.9796 39.0486 32.9796 38.5601L32.9796 24.1904C32.9797 24.1828 32.9753 24.1758 32.9683 24.1725C32.4399 23.9211 32.0658 23.2972 32.0658 22.5674C32.0658 21.6154 32.7023 20.8437 33.4875 20.8437C34.2726 20.8437 34.9091 21.6154 34.9091 22.5674C34.9091 23.2975 34.5348 23.9215 34.0061 24.1728C33.9993 24.176 33.9949 24.1829 33.995 24.1904V36.5248C33.995 37.5444 35.0885 38.1905 35.9816 37.6986L36.1448 37.6087C36.5727 37.3731 36.8385 36.9233 36.8385 36.4349L36.8385 15.9039C36.8385 14.9081 37.8862 14.2601 38.7772 14.7049L39.5495 15.0905C40.0039 15.3174 40.291 15.7816 40.291 16.2895V21.3179C40.291 21.8397 40.6381 22.2995 40.9155 22.7415C41.0971 23.031 41.2049 23.3923 41.2049 23.7841C41.2049 24.7361 40.5684 25.5078 39.7833 25.5078C38.9981 25.5078 38.3616 24.7361 38.3616 23.7841C38.3616 23.3923 38.4695 23.031 38.6511 22.7415C38.9285 22.2994 39.2756 21.8397 39.2756 21.3178V16.527C39.2756 16.2576 39.1233 16.0113 38.8823 15.891C38.4097 15.6551 37.8539 15.9988 37.8539 16.527L37.8539 35.4647C37.8539 36.0054 38.4338 36.3481 38.9075 36.0872C39.1344 35.9623 39.2754 35.7237 39.2754 35.4647V27.6378C39.2754 27.3574 39.5027 27.1301 39.7831 27.1301C40.0635 27.1301 40.2908 27.3574 40.2908 27.6378V34.2384C40.2908 34.7271 40.8149 35.0368 41.2429 34.801C41.4477 34.6883 41.575 34.4732 41.5753 34.2394L41.6106 10.9167C41.6109 10.7133 41.5006 10.5258 41.3226 10.4274C40.9506 10.2215 40.4941 10.4906 40.4941 10.9158V12.2982C40.4941 13.294 39.4464 13.942 38.5554 13.4972L37.58 13.0102C37.1256 12.7833 36.8385 12.3191 36.8385 11.8112V8.73604ZM39.0596 9.1751C38.5182 8.87549 37.8539 9.26709 37.8539 9.8859V11.5109C37.8539 11.8188 38.028 12.1002 38.3034 12.2378C38.8436 12.5074 39.4787 12.1146 39.4787 11.5109V9.88591C39.4787 9.59039 39.3182 9.31818 39.0596 9.1751ZM28.0544 14.8163C28.5199 15.039 28.8162 15.5092 28.8162 16.0252V19.8507C28.8162 20.8696 27.7241 21.5158 26.831 21.0253L26.4648 20.8243C26.0362 20.5889 25.7698 20.1386 25.7698 19.6496V17.5971C25.7698 17.2496 26.1274 17.017 26.4451 17.158C26.6874 17.2655 26.971 17.1564 27.0788 16.9142L27.0897 16.8899C27.2036 16.6338 27.0883 16.3339 26.8321 16.2202L26.2938 15.9813C25.5696 15.6599 24.7543 16.1901 24.7543 16.9825V20.2491C24.7543 20.7381 25.0207 21.1884 25.4494 21.4238L27.8464 22.7402C28.7395 23.2306 29.8316 22.5844 29.8316 21.5655V15.3867C29.8316 14.8707 29.5354 14.4005 29.0699 14.1778L25.7971 12.612C25.6507 12.542 25.5668 12.3875 25.5668 12.2253C25.5668 11.2733 25.0666 10.5016 24.4497 10.5016C23.8328 10.5016 23.3327 11.2733 23.3327 12.2253C23.3327 13.1772 23.8328 13.9489 24.4497 13.9489C24.9978 13.9489 25.5937 13.639 26.0881 13.8755L28.0544 14.8163ZM24.5513 12.2253C24.5513 12.2278 24.5513 12.2303 24.5513 12.2328C24.5508 12.3384 24.4957 12.4337 24.4499 12.5289C24.4351 12.5598 24.3825 12.5594 24.3761 12.5258C24.3588 12.4363 24.3482 12.3356 24.3482 12.2253C24.3482 12.0152 24.5513 12.0152 24.5513 12.2253ZM33.8937 22.5674C33.8937 22.8217 33.808 23.0214 33.7089 23.1416C33.6115 23.2598 33.5282 23.2771 33.4875 23.2771C33.4467 23.2771 33.3635 23.2598 33.2661 23.1416C33.1669 23.0214 33.0813 22.8217 33.0813 22.5674C33.0813 22.3131 33.1669 22.1133 33.2661 21.9931C33.3635 21.875 33.4467 21.8576 33.4875 21.8576C33.5282 21.8576 33.6115 21.875 33.7089 21.9931C33.808 22.1133 33.8937 22.3131 33.8937 22.5674ZM33.7089 18.072C33.808 17.9518 33.8937 17.752 33.8937 17.4977C33.8937 17.2434 33.808 17.0437 33.7089 16.9235C33.6115 16.8054 33.5282 16.788 33.4875 16.788C33.4467 16.788 33.3635 16.8054 33.2661 16.9235C33.1669 17.0437 33.0813 17.2434 33.0813 17.4977C33.0813 17.752 33.1669 17.9518 33.2661 18.072C33.3635 18.1901 33.4467 18.2075 33.4875 18.2075C33.5282 18.2075 33.6115 18.1901 33.7089 18.072ZM40.1895 23.7841C40.1895 24.0384 40.1038 24.2382 40.0047 24.3584C39.9073 24.4765 39.824 24.4939 39.7833 24.4939C39.7425 24.4939 39.6593 24.4765 39.5619 24.3584C39.4627 24.2382 39.3771 24.0384 39.3771 23.7841C39.3771 23.5298 39.4627 23.3301 39.5619 23.2099C39.6593 23.0917 39.7425 23.0744 39.7833 23.0744C39.824 23.0744 39.9073 23.0917 40.0047 23.2099C40.1038 23.3301 40.1895 23.5298 40.1895 23.7841ZM24.3274 12.9664C24.3272 12.9653 24.3276 12.9674 24.3274 12.9664V12.9664ZM24.5721 11.4841C24.5719 11.4831 24.5723 11.4852 24.5721 11.4841V11.4841ZM24.3274 11.4841C24.3272 11.4852 24.3276 11.4831 24.3274 11.4841V11.4841ZM25.5665 41.0209C25.5665 41.3125 25.4814 41.5335 25.3955 41.655C25.3796 41.6775 25.3473 41.6775 25.3314 41.655C25.2455 41.5335 25.1604 41.3125 25.1604 41.0209C25.1604 40.7293 25.2455 40.5083 25.3314 40.3868C25.3473 40.3643 25.3796 40.3643 25.3955 40.3868C25.4814 40.5083 25.5665 40.7293 25.5665 41.0209ZM25.314 41.7399C25.3138 41.7389 25.3142 41.741 25.314 41.7399V41.7399ZM25.4129 41.7399C25.4127 41.741 25.4131 41.7389 25.4129 41.7399V41.7399ZM25.4129 40.3019C25.4127 40.3008 25.4131 40.3029 25.4129 40.3019V40.3019ZM25.314 40.3019C25.3138 40.3029 25.3142 40.3008 25.314 40.3019V40.3019Z" fill="#EFEFF5"/>
<path d="M66.9083 34.5H62.1518L57.3952 11.474H60.4582L63.8094 28.6804L64.44 31.9956H64.7643L65.3769 28.6804L68.7461 12.0685H73.1603L76.5296 28.6804L77.1421 31.9956H77.4665L78.1151 28.6804L81.4663 11.474H84.4932L79.7546 34.5H75.0341L72.3676 21.2573L71.1064 14.5369H70.8181L69.5389 21.2573L66.9083 34.5ZM98.2938 34.5H95.393L95.5192 30.2299L95.4111 29.7795V24.1761L95.4291 23.1491C95.4291 21.7198 95.0627 20.6628 94.33 19.9781C93.6093 19.2934 92.4622 18.9511 90.8887 18.9511C89.6275 18.9511 88.4684 19.1313 87.4114 19.4916C86.3664 19.852 85.4355 20.2724 84.6187 20.7528L84.889 18.2665C85.3454 17.9902 85.8859 17.7199 86.5105 17.4557C87.1472 17.1794 87.8678 16.9512 88.6726 16.771C89.4894 16.5909 90.3842 16.5008 91.3572 16.5008C92.6184 16.5008 93.6874 16.6569 94.5642 16.9692C95.4531 17.2695 96.1678 17.7079 96.7083 18.2845C97.2608 18.861 97.6632 19.5577 97.9155 20.3745C98.1677 21.1913 98.2938 22.1041 98.2938 23.1131V34.5ZM89.3392 34.8784C87.5976 34.8784 86.2583 34.458 85.3214 33.6172C84.3965 32.7643 83.9341 31.5512 83.9341 29.9777V29.4552C83.9341 27.8336 84.4326 26.6265 85.4295 25.8337C86.4385 25.0289 88.036 24.4704 90.2221 24.1581L95.7894 23.3653L95.9516 25.4914L90.5824 26.2661C89.2372 26.4583 88.2762 26.7886 87.6997 27.2571C87.1231 27.7135 86.8349 28.3922 86.8349 29.293V29.5813C86.8349 30.5062 87.1171 31.2149 87.6817 31.7073C88.2582 32.1998 89.117 32.446 90.2581 32.446C91.2671 32.446 92.1319 32.2719 92.8526 31.9235C93.5733 31.5752 94.1559 31.1068 94.6003 30.5182C95.0447 29.9296 95.345 29.275 95.5011 28.5543L95.9516 30.5362H95.393C95.2249 31.3049 94.9066 32.0196 94.4381 32.6803C93.9817 33.3409 93.3391 33.8754 92.5103 34.2838C91.6815 34.6802 90.6245 34.8784 89.3392 34.8784ZM104.317 34.5H101.416V10.6272H104.317V34.5ZM111.039 34.5H108.139V10.6272H111.039V34.5ZM121.842 34.8964C119.163 34.8964 117.145 34.2418 115.788 32.9325C114.43 31.6232 113.752 29.7495 113.752 27.3111V24.1761C113.752 21.7018 114.382 19.7979 115.644 18.4647C116.905 17.1194 118.749 16.4467 121.175 16.4467C122.808 16.4467 124.172 16.753 125.265 17.3656C126.358 17.9662 127.181 18.825 127.733 19.9421C128.286 21.0591 128.562 22.3924 128.562 23.9419V24.5905C128.562 24.9749 128.544 25.3593 128.508 25.7436C128.484 26.128 128.448 26.5063 128.4 26.8787H125.715C125.739 26.3022 125.751 25.7556 125.751 25.2391C125.763 24.7226 125.769 24.2482 125.769 23.8158C125.769 22.7468 125.595 21.8459 125.247 21.1132C124.91 20.3685 124.4 19.8039 123.715 19.4196C123.043 19.0232 122.196 18.825 121.175 18.825C119.661 18.825 118.526 19.2634 117.77 20.1403C117.013 21.0171 116.635 22.2723 116.635 23.9059V25.5815L116.653 25.9418V27.6174C116.653 28.3501 116.761 29.0107 116.977 29.5993C117.193 30.1879 117.529 30.6984 117.986 31.1308C118.454 31.5512 119.043 31.8755 119.752 32.1037C120.472 32.3199 121.325 32.428 122.31 32.428C123.451 32.428 124.514 32.2779 125.499 31.9776C126.484 31.6773 127.409 31.2689 128.274 30.7524L128.003 33.2748C127.223 33.7673 126.316 34.1637 125.283 34.464C124.25 34.7522 123.103 34.8964 121.842 34.8964ZM127.787 26.8787H115.283V24.6806H127.787V26.8787ZM136.832 34.8784C134.718 34.8784 133.108 34.2237 132.003 32.9145C130.898 31.6052 130.346 29.6954 130.346 27.185V24.2842C130.346 21.7618 130.904 19.84 132.021 18.5187C133.138 17.1854 134.784 16.5188 136.958 16.5188C138.039 16.5188 138.976 16.705 139.769 17.0773C140.561 17.4377 141.204 17.9482 141.697 18.6088C142.189 19.2694 142.519 20.0502 142.687 20.951H143.642L142.778 23.6356C142.742 22.6026 142.507 21.7378 142.075 21.0411C141.654 20.3324 141.078 19.7979 140.345 19.4376C139.625 19.0772 138.796 18.8971 137.859 18.8971C136.369 18.8971 135.228 19.3295 134.436 20.1943C133.655 21.0591 133.264 22.3324 133.264 24.014V27.3652C133.264 29.0228 133.655 30.284 134.436 31.1488C135.228 32.0136 136.369 32.446 137.859 32.446C138.748 32.446 139.534 32.2779 140.219 31.9416C140.904 31.5932 141.468 31.1188 141.913 30.5182C142.369 29.9056 142.681 29.2149 142.85 28.4462L143.57 30.5362H142.705C142.537 31.329 142.213 32.0557 141.733 32.7163C141.264 33.3769 140.627 33.9054 139.823 34.3018C139.03 34.6862 138.033 34.8784 136.832 34.8784ZM145.624 34.5H142.705L142.832 30.2479L142.778 29.311V21.96L142.796 21.3474L142.723 16.3566V10.6272H145.624V34.5Z" fill="#EFEFF5"/>
<path d="M156.705 34.5H153.678L160.885 11.474H165.605L172.83 34.5H169.803L163.479 13.4919H163.029L156.705 34.5ZM168.488 27.7075H158.002V25.2211H168.488V27.7075ZM178.004 11.474V34.5H175.013V11.474H178.004Z" fill="url(#paint1_linear_430_494)"/>
<defs>
<linearGradient id="paint0_linear_430_494" x1="11.825" y1="0.985931" x2="11.825" y2="45.1121" gradientUnits="userSpaceOnUse">
<stop stop-color="#F93C52"/>
<stop offset="1" stop-color="#2B21F3"/>
</linearGradient>
<linearGradient id="paint1_linear_430_494" x1="118.724" y1="11.5" x2="118.724" y2="34.5" gradientUnits="userSpaceOnUse">
<stop stop-color="#F93C52"/>
<stop offset="1" stop-color="#2B21F3"/>
</linearGradient>
</defs>
</svg>
