<svg width="193" height="217" viewBox="0 0 193 217" fill="none" xmlns="http://www.w3.org/2000/svg">
<rect width="193" height="217" rx="12" fill="#E0DFEC"/>
<path d="M57.2542 142.511H30.9393L0 172.528" stroke="#C1C0D8"/>
<path d="M28.733 129.508V129.008H28.5259L28.3795 129.155L28.733 129.508ZM17.8411 137.734C17.8411 139.206 19.0351 140.4 20.5078 140.4C21.9806 140.4 23.1745 139.206 23.1745 137.734C23.1745 136.261 21.9806 135.067 20.5078 135.067C19.0351 135.067 17.8411 136.261 17.8411 137.734ZM56.2931 129.008H28.733V130.008H56.2931V129.008ZM28.3795 129.155L20.1543 137.38L20.8614 138.087L29.0866 129.862L28.3795 129.155Z" fill="#C1C0D8"/>
<path d="M62.735 151.541V151.041H62.5279L62.3814 151.187L62.735 151.541ZM45.8038 168.472V168.972H46.0109L46.1573 168.826L45.8038 168.472ZM31.3333 168.472C31.3333 169.945 32.5272 171.139 34 171.139C35.4728 171.139 36.6667 169.945 36.6667 168.472C36.6667 166.999 35.4728 165.806 34 165.806C32.5272 165.806 31.3333 166.999 31.3333 168.472ZM66.4737 151.041H62.735V152.041H66.4737V151.041ZM62.3814 151.187L45.4502 168.119L46.1573 168.826L63.0885 151.895L62.3814 151.187ZM45.8038 167.972H34V168.972H45.8038V167.972Z" fill="#C1C0D8"/>
<path d="M20.4997 213.475L20.8532 213.829L20.9997 213.682V213.475H20.4997ZM20.4997 202.259L20.1461 201.905L19.9997 202.052V202.259H20.4997ZM37.2211 182.871C37.2211 184.343 38.415 185.537 39.8878 185.537C41.3605 185.537 42.5544 184.343 42.5544 182.871C42.5544 181.398 41.3605 180.204 39.8878 180.204C38.415 180.204 37.2211 181.398 37.2211 182.871ZM17.3282 217.354L20.8532 213.829L20.1461 213.121L16.6211 216.647L17.3282 217.354ZM20.9997 213.475V202.259H19.9997V213.475H20.9997ZM20.8532 202.612L40.2413 183.224L39.5342 182.517L20.1461 201.905L20.8532 202.612Z" fill="#C1C0D8"/>
<path d="M34.7059 209.255C34.7059 210.728 35.8998 211.922 37.3725 211.922C38.8453 211.922 40.0392 210.728 40.0392 209.255C40.0392 207.783 38.8453 206.589 37.3725 206.589C35.8998 206.589 34.7059 207.783 34.7059 209.255ZM29.9815 217.354L37.7261 209.609L37.019 208.902L29.2744 216.646L29.9815 217.354Z" fill="#C1C0D8"/>
<path d="M51.375 210.911L51.7285 211.265L51.875 211.119V210.911H51.375ZM48.7083 198.627C48.7083 200.1 49.9022 201.294 51.375 201.294C52.8477 201.294 54.0416 200.1 54.0416 198.627C54.0416 197.154 52.8477 195.96 51.375 195.96C49.9022 195.96 48.7083 197.154 48.7083 198.627ZM45.6397 217.354L51.7285 211.265L51.0214 210.558L44.9326 216.647L45.6397 217.354ZM51.875 210.911V198.627H50.875V210.911H51.875Z" fill="#C1C0D8"/>
<path d="M72.0098 161.927L71.6562 161.573L71.5098 161.72V161.927H72.0098ZM69.3431 200.384C69.3431 201.857 70.537 203.051 72.0098 203.051C73.4825 203.051 74.6764 201.857 74.6764 200.384C74.6764 198.911 73.4825 197.717 72.0098 197.717C70.537 197.717 69.3431 198.911 69.3431 200.384ZM74.5831 158.646L71.6562 161.573L72.3633 162.28L75.2902 159.354L74.5831 158.646ZM71.5098 161.927V200.384H72.5098V161.927H71.5098Z" fill="#C1C0D8"/>
<path d="M88.8978 25C88.8978 26.4728 90.0917 27.6667 91.5645 27.6667C93.0372 27.6667 94.2311 26.4728 94.2311 25C94.2311 23.5272 93.0372 22.3333 91.5645 22.3333C90.0917 22.3333 88.8978 23.5272 88.8978 25ZM91.0645 25L91.0645 217L92.0645 217L92.0645 25L91.0645 25Z" fill="#C1C0D8"/>
<path d="M103.333 189.516C103.333 190.988 104.527 192.182 106 192.182C107.473 192.182 108.667 190.988 108.667 189.516C108.667 188.043 107.473 186.849 106 186.849C104.527 186.849 103.333 188.043 103.333 189.516ZM105.5 189.516L105.5 217L106.5 217L106.5 189.516L105.5 189.516Z" fill="#C1C0D8"/>
<path d="M103.132 37.3906C103.132 38.8634 104.326 40.0573 105.799 40.0573C107.272 40.0573 108.465 38.8634 108.465 37.3906C108.465 35.9179 107.272 34.724 105.799 34.724C104.326 34.724 103.132 35.9179 103.132 37.3906ZM106.299 48.4475V37.3906H105.299V48.4475H106.299Z" fill="#C1C0D8"/>
<path d="M103.132 25C103.132 26.4728 104.326 27.6667 105.799 27.6667C107.272 27.6667 108.465 26.4728 108.465 25C108.465 23.5272 107.272 22.3333 105.799 22.3333C104.326 22.3333 103.132 23.5272 103.132 25ZM106.299 25L106.299 -2.18557e-08L105.299 2.18557e-08L105.299 25L106.299 25Z" fill="#C1C0D8"/>
<path d="M162.383 90.7487V91.2487H162.59L162.737 91.1023L162.383 90.7487ZM172.034 78.4316C172.034 79.9044 173.228 81.0983 174.7 81.0983C176.173 81.0983 177.367 79.9044 177.367 78.4316C177.367 76.9589 176.173 75.765 174.7 75.765C173.228 75.765 172.034 76.9589 172.034 78.4316ZM149.418 91.2487H162.383V90.2487H149.418V91.2487ZM162.737 91.1023L175.054 78.7852L174.347 78.0781L162.03 90.3952L162.737 91.1023Z" fill="#C1C0D8"/>
<path d="M0 102.413H166.709L192.833 76.2886" stroke="#C1C0D8"/>
<path d="M132 55.662V29.6458L161.494 0" stroke="#C1C0D8"/>
<path d="M147.482 30.7431L147.129 30.3896L146.982 30.536V30.7431H147.482ZM144.816 46.2211C144.816 47.6938 146.01 48.8878 147.482 48.8878C148.955 48.8878 150.149 47.6938 150.149 46.2211C150.149 44.7483 148.955 43.5544 147.482 43.5544C146.01 43.5544 144.816 44.7483 144.816 46.2211ZM177.189 0.329063L147.129 30.3896L147.836 31.0967L177.897 1.03617L177.189 0.329063ZM146.982 30.7431V46.2211H147.982V30.7431H146.982Z" fill="#C1C0D8"/>
<path d="M152 143.714H152.5V143.214H152V143.714ZM149.333 170.621C149.333 172.094 150.527 173.288 152 173.288C153.473 173.288 154.667 172.094 154.667 170.621C154.667 169.148 153.473 167.955 152 167.955C150.527 167.955 149.333 169.148 149.333 170.621ZM135.602 144.214H152V143.214H135.602V144.214ZM151.5 143.714V170.621H152.5V143.714H151.5Z" fill="#C1C0D8"/>
<g clip-path="url(#clip0_1156_13109)">
<g filter="url(#filter0_dddd_1156_13109)">
<path d="M96.5 174.75C96.5 174.75 149.5 148.25 149.5 108.5V62.125L96.5 42.25L43.5 62.125V108.5C43.5 148.25 96.5 174.75 96.5 174.75Z" fill="#EFEFF5"/>
<path d="M96.5 174.75C96.5 174.75 149.5 148.25 149.5 108.5V62.125L96.5 42.25L43.5 62.125V108.5C43.5 148.25 96.5 174.75 96.5 174.75Z" stroke="url(#paint0_linear_1156_13109)" stroke-width="1.5" stroke-linecap="round" stroke-linejoin="round"/>
</g>
<g filter="url(#filter1_dddd_1156_13109)">
<path d="M96.5 174.75C96.5 174.75 149.5 148.25 149.5 108.5V62.125L96.5 42.25L43.5 62.125V108.5C43.5 148.25 96.5 174.75 96.5 174.75Z" fill="url(#paint1_linear_1156_13109)"/>
</g>
</g>
<g filter="url(#filter2_dddd_1156_13109)">
<path d="M96.5 161C96.5 161 138.5 140 138.5 108.5V71.75L96.5 56L54.5 71.75V108.5C54.5 140 96.5 161 96.5 161Z" fill="#EFEFF5"/>
</g>
<rect x="80.5" y="92.5" width="32" height="32" rx="16" fill="#859900" fill-opacity="0.15"/>
<path d="M102.834 103.75L94.1253 112.458L90.167 108.5" stroke="#859900" stroke-width="4" stroke-linecap="round" stroke-linejoin="round"/>
<defs>
<filter id="filter0_dddd_1156_13109" x="27.75" y="38.5" width="143.5" height="201" filterUnits="userSpaceOnUse" color-interpolation-filters="sRGB">
<feFlood flood-opacity="0" result="BackgroundImageFix"/>
<feColorMatrix in="SourceAlpha" type="matrix" values="0 0 0 0 0 0 0 0 0 0 0 0 0 0 0 0 0 0 127 0" result="hardAlpha"/>
<feOffset dy="3"/>
<feGaussianBlur stdDeviation="3"/>
<feColorMatrix type="matrix" values="0 0 0 0 0.639216 0 0 0 0 0.639216 0 0 0 0 0.639216 0 0 0 0.1 0"/>
<feBlend mode="normal" in2="BackgroundImageFix" result="effect1_dropShadow_1156_13109"/>
<feColorMatrix in="SourceAlpha" type="matrix" values="0 0 0 0 0 0 0 0 0 0 0 0 0 0 0 0 0 0 127 0" result="hardAlpha"/>
<feOffset dx="1" dy="11"/>
<feGaussianBlur stdDeviation="5.5"/>
<feColorMatrix type="matrix" values="0 0 0 0 0.639216 0 0 0 0 0.639216 0 0 0 0 0.639216 0 0 0 0.09 0"/>
<feBlend mode="normal" in2="effect1_dropShadow_1156_13109" result="effect2_dropShadow_1156_13109"/>
<feColorMatrix in="SourceAlpha" type="matrix" values="0 0 0 0 0 0 0 0 0 0 0 0 0 0 0 0 0 0 127 0" result="hardAlpha"/>
<feOffset dx="2" dy="26"/>
<feGaussianBlur stdDeviation="7.5"/>
<feColorMatrix type="matrix" values="0 0 0 0 0.639216 0 0 0 0 0.639216 0 0 0 0 0.639216 0 0 0 0.05 0"/>
<feBlend mode="normal" in2="effect2_dropShadow_1156_13109" result="effect3_dropShadow_1156_13109"/>
<feColorMatrix in="SourceAlpha" type="matrix" values="0 0 0 0 0 0 0 0 0 0 0 0 0 0 0 0 0 0 127 0" result="hardAlpha"/>
<feOffset dx="3" dy="46"/>
<feGaussianBlur stdDeviation="9"/>
<feColorMatrix type="matrix" values="0 0 0 0 0.639216 0 0 0 0 0.639216 0 0 0 0 0.639216 0 0 0 0.01 0"/>
<feBlend mode="normal" in2="effect3_dropShadow_1156_13109" result="effect4_dropShadow_1156_13109"/>
<feBlend mode="normal" in="SourceGraphic" in2="effect4_dropShadow_1156_13109" result="shape"/>
</filter>
<filter id="filter1_dddd_1156_13109" x="28.5" y="39.25" width="142" height="199.5" filterUnits="userSpaceOnUse" color-interpolation-filters="sRGB">
<feFlood flood-opacity="0" result="BackgroundImageFix"/>
<feColorMatrix in="SourceAlpha" type="matrix" values="0 0 0 0 0 0 0 0 0 0 0 0 0 0 0 0 0 0 127 0" result="hardAlpha"/>
<feOffset dy="3"/>
<feGaussianBlur stdDeviation="3"/>
<feColorMatrix type="matrix" values="0 0 0 0 0.639216 0 0 0 0 0.639216 0 0 0 0 0.639216 0 0 0 0.1 0"/>
<feBlend mode="normal" in2="BackgroundImageFix" result="effect1_dropShadow_1156_13109"/>
<feColorMatrix in="SourceAlpha" type="matrix" values="0 0 0 0 0 0 0 0 0 0 0 0 0 0 0 0 0 0 127 0" result="hardAlpha"/>
<feOffset dx="1" dy="11"/>
<feGaussianBlur stdDeviation="5.5"/>
<feColorMatrix type="matrix" values="0 0 0 0 0.639216 0 0 0 0 0.639216 0 0 0 0 0.639216 0 0 0 0.09 0"/>
<feBlend mode="normal" in2="effect1_dropShadow_1156_13109" result="effect2_dropShadow_1156_13109"/>
<feColorMatrix in="SourceAlpha" type="matrix" values="0 0 0 0 0 0 0 0 0 0 0 0 0 0 0 0 0 0 127 0" result="hardAlpha"/>
<feOffset dx="2" dy="26"/>
<feGaussianBlur stdDeviation="7.5"/>
<feColorMatrix type="matrix" values="0 0 0 0 0.639216 0 0 0 0 0.639216 0 0 0 0 0.639216 0 0 0 0.05 0"/>
<feBlend mode="normal" in2="effect2_dropShadow_1156_13109" result="effect3_dropShadow_1156_13109"/>
<feColorMatrix in="SourceAlpha" type="matrix" values="0 0 0 0 0 0 0 0 0 0 0 0 0 0 0 0 0 0 127 0" result="hardAlpha"/>
<feOffset dx="3" dy="46"/>
<feGaussianBlur stdDeviation="9"/>
<feColorMatrix type="matrix" values="0 0 0 0 0.639216 0 0 0 0 0.639216 0 0 0 0 0.639216 0 0 0 0.01 0"/>
<feBlend mode="normal" in2="effect3_dropShadow_1156_13109" result="effect4_dropShadow_1156_13109"/>
<feBlend mode="normal" in="SourceGraphic" in2="effect4_dropShadow_1156_13109" result="shape"/>
</filter>
<filter id="filter2_dddd_1156_13109" x="18.5" y="42.5" width="162" height="193" filterUnits="userSpaceOnUse" color-interpolation-filters="sRGB">
<feFlood flood-opacity="0" result="BackgroundImageFix"/>
<feColorMatrix in="SourceAlpha" type="matrix" values="0 0 0 0 0 0 0 0 0 0 0 0 0 0 0 0 0 0 127 0" result="hardAlpha"/>
<feOffset dy="3"/>
<feGaussianBlur stdDeviation="3"/>
<feColorMatrix type="matrix" values="0 0 0 0 0.639216 0 0 0 0 0.639216 0 0 0 0 0.639216 0 0 0 0.1 0"/>
<feBlend mode="normal" in2="BackgroundImageFix" result="effect1_dropShadow_1156_13109"/>
<feColorMatrix in="SourceAlpha" type="matrix" values="0 0 0 0 0 0 0 0 0 0 0 0 0 0 0 0 0 0 127 0" result="hardAlpha"/>
<feOffset dx="1" dy="11"/>
<feGaussianBlur stdDeviation="5.5"/>
<feColorMatrix type="matrix" values="0 0 0 0 0.639216 0 0 0 0 0.639216 0 0 0 0 0.639216 0 0 0 0.09 0"/>
<feBlend mode="normal" in2="effect1_dropShadow_1156_13109" result="effect2_dropShadow_1156_13109"/>
<feColorMatrix in="SourceAlpha" type="matrix" values="0 0 0 0 0 0 0 0 0 0 0 0 0 0 0 0 0 0 127 0" result="hardAlpha"/>
<feOffset dx="2" dy="26"/>
<feGaussianBlur stdDeviation="7.5"/>
<feColorMatrix type="matrix" values="0 0 0 0 0.639216 0 0 0 0 0.639216 0 0 0 0 0.639216 0 0 0 0.05 0"/>
<feBlend mode="normal" in2="effect2_dropShadow_1156_13109" result="effect3_dropShadow_1156_13109"/>
<feColorMatrix in="SourceAlpha" type="matrix" values="0 0 0 0 0 0 0 0 0 0 0 0 0 0 0 0 0 0 127 0" result="hardAlpha"/>
<feOffset dx="3" dy="46"/>
<feGaussianBlur stdDeviation="9"/>
<feColorMatrix type="matrix" values="0 0 0 0 0.639216 0 0 0 0 0.639216 0 0 0 0 0.639216 0 0 0 0.01 0"/>
<feBlend mode="normal" in2="effect3_dropShadow_1156_13109" result="effect4_dropShadow_1156_13109"/>
<feBlend mode="normal" in="SourceGraphic" in2="effect4_dropShadow_1156_13109" result="shape"/>
</filter>
<linearGradient id="paint0_linear_1156_13109" x1="56.6132" y1="174.75" x2="125.081" y2="70.9902" gradientUnits="userSpaceOnUse">
<stop stop-color="#C1C0D8"/>
<stop offset="1" stop-color="#C1C0D8" stop-opacity="0"/>
</linearGradient>
<linearGradient id="paint1_linear_1156_13109" x1="136.967" y1="26.4561" x2="88.8328" y2="97.7785" gradientUnits="userSpaceOnUse">
<stop stop-color="#F93C52"/>
<stop offset="0.30858" stop-color="#DB3869" stop-opacity="0.927816"/>
<stop offset="0.703319" stop-color="#2B21F3" stop-opacity="0.5"/>
<stop offset="1" stop-color="#2B21F3" stop-opacity="0"/>
</linearGradient>
<clipPath id="clip0_1156_13109">
<rect width="159" height="159" fill="white" transform="translate(17 29)"/>
</clipPath>
</defs>
</svg>
