<svg width="193" height="217" viewBox="0 0 193 217" fill="none" xmlns="http://www.w3.org/2000/svg">
<g clip-path="url(#clip0_1156_13192)">
<rect width="193" height="217" rx="12" fill="white"/>
<rect width="193" height="217" rx="12" fill="#E0DFEC"/>
<path d="M66.0702 164.478V185.487L52.4473 199.11V217" stroke="#C1C0D8" stroke-linecap="round"/>
<path d="M127.243 164.478V185.487L140.866 199.11V217" stroke="#C1C0D8" stroke-linecap="round"/>
<path d="M96.5 0L96.5 217" stroke="#C1C0D8" stroke-linecap="round"/>
<path d="M15.584 126.863C17.0567 126.863 18.2507 125.67 18.2507 124.197C18.2507 122.724 17.0567 121.53 15.584 121.53C14.1112 121.53 12.9173 122.724 12.9173 124.197C12.9173 125.67 14.1112 126.863 15.584 126.863ZM177.73 126.863C179.203 126.863 180.397 125.67 180.397 124.197C180.397 122.724 179.203 121.53 177.73 121.53C176.258 121.53 175.064 122.724 175.064 124.197C175.064 125.67 176.258 126.863 177.73 126.863ZM15.584 124.697L177.73 124.697L177.73 123.697L15.584 123.697L15.584 124.697Z" fill="#C1C0D8"/>
<path d="M15.584 155.295C17.0567 155.295 18.2507 154.101 18.2507 152.628C18.2507 151.155 17.0567 149.961 15.584 149.961C14.1112 149.961 12.9173 151.155 12.9173 152.628C12.9173 154.101 14.1112 155.295 15.584 155.295ZM177.73 155.295C179.203 155.295 180.397 154.101 180.397 152.628C180.397 151.155 179.203 149.961 177.73 149.961C176.258 149.961 175.064 151.155 175.064 152.628C175.064 154.101 176.258 155.295 177.73 155.295ZM15.584 153.128L177.73 153.128L177.73 152.128L15.584 152.128L15.584 153.128Z" fill="#C1C0D8"/>
<path d="M87.7837 66.5688V79.9689L79 88.7526V102.447" stroke="#C1C0D8" stroke-linecap="round"/>
<path d="M105.252 66.5688V79.9689L114.036 88.7526V102.447" stroke="#C1C0D8" stroke-linecap="round"/>
<g filter="url(#filter0_dddd_1156_13192)">
<rect x="76.1445" y="27.1416" width="40.7098" height="40.7098" rx="10" fill="url(#paint0_linear_1156_13192)"/>
</g>
<g filter="url(#filter1_dddd_1156_13192)">
<rect x="77.623" y="28.6206" width="37.7521" height="37.7521" rx="10" fill="#EFEFF5"/>
</g>
<g filter="url(#filter2_dddd_1156_13192)">
<rect x="32.624" y="86.9668" width="128.065" height="102.892" rx="16" fill="#EFEFF5"/>
<rect x="33.124" y="87.4668" width="127.065" height="101.892" rx="15.5" stroke="url(#paint1_linear_1156_13192)"/>
</g>
<circle cx="61.5481" cy="108.452" r="10.095" stroke="url(#paint2_linear_1156_13192)"/>
<circle cx="61.5481" cy="137.47" r="10.095" stroke="url(#paint3_linear_1156_13192)"/>
<circle cx="61.5481" cy="166.488" r="10.095" stroke="url(#paint4_linear_1156_13192)"/>
<g filter="url(#filter3_dddd_1156_13192)">
<circle cx="61.5485" cy="108.453" r="8.66566" fill="#EFEFF5"/>
<circle cx="61.5485" cy="108.453" r="8.41566" stroke="#E0DFEC" stroke-width="0.5"/>
</g>
<g filter="url(#filter4_dddd_1156_13192)">
<circle cx="61.5485" cy="137.47" r="8.66566" fill="#EFEFF5"/>
<circle cx="61.5485" cy="137.47" r="8.41566" stroke="#E0DFEC" stroke-width="0.5"/>
</g>
<g filter="url(#filter5_dddd_1156_13192)">
<circle cx="61.5485" cy="166.487" r="8.66566" fill="#EFEFF5"/>
<circle cx="61.5485" cy="166.487" r="8.41566" stroke="#E0DFEC" stroke-width="0.5"/>
</g>
<path d="M63.3815 106.619L61.5482 108.452L59.7148 110.286" stroke="#F46E56" stroke-width="2" stroke-linecap="round" stroke-linejoin="round"/>
<path d="M63.3809 110.286L61.5475 108.452L59.7142 106.619" stroke="#F46E56" stroke-width="2" stroke-linecap="round" stroke-linejoin="round"/>
<path d="M63.3815 135.637L61.5482 137.47L59.7148 139.303" stroke="#F46E56" stroke-width="2" stroke-linecap="round" stroke-linejoin="round"/>
<path d="M63.3809 139.303L61.5475 137.47L59.7142 135.637" stroke="#F46E56" stroke-width="2" stroke-linecap="round" stroke-linejoin="round"/>
<g clip-path="url(#clip1_1156_13192)">
<path d="M64.2142 164.488L60.5475 168.154L58.8809 166.488" stroke="#859900" stroke-width="2" stroke-linecap="round" stroke-linejoin="round"/>
</g>
<path d="M80.1436 104.662H141.317" stroke="#C1C0D8" stroke-width="4" stroke-linecap="round"/>
<path d="M80.1436 133.68H141.317" stroke="#C1C0D8" stroke-width="4" stroke-linecap="round"/>
<path d="M80.1436 162.697H141.317" stroke="#C1C0D8" stroke-width="4" stroke-linecap="round"/>
<path d="M80.1436 112.243H110.73" stroke="#C1C0D8" stroke-width="4" stroke-linecap="round"/>
<path d="M80.1436 141.26H110.73" stroke="#C1C0D8" stroke-width="4" stroke-linecap="round"/>
<path d="M80.1436 170.278H110.73" stroke="#C1C0D8" stroke-width="4" stroke-linecap="round"/>
<path d="M34.3164 0V39.2782C34.3164 44.2488 38.3458 48.2782 43.3164 48.2782H67.2578" stroke="#C1C0D8" stroke-linecap="round"/>
<path d="M158.684 0V39.2782C158.684 44.2488 154.654 48.2782 149.684 48.2782H125.742" stroke="#C1C0D8" stroke-linecap="round"/>
<g filter="url(#filter6_dddd_1156_13192)">
<rect x="67.2578" y="40.188" width="4.41943" height="14.6176" rx="2.20972" fill="#EFEFF5"/>
</g>
<g filter="url(#filter7_dddd_1156_13192)">
<rect x="121.322" y="40.188" width="4.41943" height="14.6176" rx="2.20972" fill="#EFEFF5"/>
</g>
<path fill-rule="evenodd" clip-rule="evenodd" d="M93.9555 40.0256C93.4859 40.1772 93.0048 39.827 93.0048 39.3335V37.1209C93.0048 36.8531 93.1519 36.607 93.3878 36.4803L94.9557 35.6375C95.4383 35.3781 96.0235 35.7251 96.0273 36.2729L96.0452 38.8164C96.0474 39.1339 95.8435 39.4161 95.5414 39.5136L93.9555 40.0256ZM85.7003 41.704C85.7003 42.1983 86.1827 42.5486 86.6527 42.3956L91.865 40.6986C92.1644 40.6011 92.3671 40.322 92.3671 40.0071V38.3227C92.3671 37.7692 91.7734 37.4186 91.2887 37.6858L86.0764 40.5593C85.8444 40.6872 85.7003 40.9312 85.7003 41.1962V41.704ZM89.8647 41.9682C89.5602 42.0625 89.3526 42.3441 89.3526 42.6629V43.9401C89.3526 44.4055 89.7837 44.7511 90.238 44.6499L95.4542 43.4879C95.7815 43.415 96.0165 43.1277 96.0232 42.7924L96.0575 41.0508C96.0673 40.555 95.5889 40.195 95.1152 40.3418L89.8647 41.9682ZM86.4149 48.6218C86.0182 48.6149 85.7003 48.2914 85.7003 47.8947V46.7698C85.7003 46.4253 85.942 46.1281 86.2792 46.0578L91.4915 44.9718C91.9431 44.8777 92.3671 45.2224 92.3671 45.6838V47.9852C92.3671 48.3918 92.0338 48.7194 91.6272 48.7123L86.4149 48.6218ZM89.9131 52.3878C89.5847 52.3105 89.3525 52.0174 89.3525 51.6799V49.2466C89.3525 49.2463 89.3528 49.2461 89.3531 49.2461L95.871 49.3841C95.9704 49.3862 96.0709 49.4245 96.0771 49.5237V49.5237V49.5237C96.0779 49.5367 96.0787 49.5496 96.0803 49.5621C96.2032 50.5651 96.0907 52.2888 96.0165 53.3249C96.0085 53.4341 96.0087 53.5454 96.0386 53.6511C96.0475 53.6825 96.0456 53.7164 96.0299 53.745C96.0058 53.7885 95.9558 53.8107 95.9074 53.7993L89.9131 52.3878ZM86.0786 54.0834C85.8453 53.9558 85.7003 53.7112 85.7003 53.4453V52.8839C85.7003 52.4152 86.1372 52.0689 86.5935 52.1758L91.8058 53.3976C92.1346 53.4747 92.3671 53.768 92.3671 54.1057V56.2962C92.3671 56.8486 91.7755 57.1994 91.2908 56.9343L86.0786 54.0834ZM93.3802 58.0488C93.1486 57.9207 93.0048 57.6769 93.0048 57.4123V53.7032C93.0048 53.703 93.0048 53.7027 93.005 53.7026C93.0052 53.7024 93.0055 53.7023 93.0058 53.7024L95.5727 54.3332C95.8305 54.3966 96.0012 54.6782 96.0486 54.9394C96.0626 55.017 96.0767 55.0949 96.0802 55.1759C96.1098 55.8645 96.0865 56.5692 96.0633 57.2715V57.2715V57.2716V57.2716V57.2716C96.0392 58.0013 96.0152 58.7284 96.0506 59.4318C96.0514 59.449 96.0609 59.4624 96.068 59.4723C96.1078 59.5285 95.9591 59.4742 95.8989 59.4409L93.3802 58.0488ZM93.5809 44.4938C93.245 44.5652 93.0047 44.8618 93.0047 45.2053V48.0114C93.0047 48.4078 93.3221 48.7311 93.7183 48.7386L95.3125 48.7686C95.7285 48.7764 96.0662 48.4342 96.0658 48.0182C96.0655 47.6092 96.0729 47.1992 96.0803 46.7891V46.789V46.789V46.789C96.0928 46.0917 96.1054 45.3939 96.0802 44.7002C96.0774 44.6185 96.0624 44.5464 96.0478 44.4761C96.0356 44.4169 96.0236 44.359 96.0193 44.2979C96.0163 44.2557 96.0305 44.2156 96.0439 44.1775C96.0931 44.0385 95.9116 43.9988 95.7674 44.0294L93.5809 44.4938ZM86.4414 49.2024C86.0344 49.1946 85.7002 49.5224 85.7002 49.9295V50.8088C85.7002 51.1476 85.9341 51.4415 86.2642 51.5175L87.8242 51.877C88.2799 51.982 88.7148 51.6359 88.7148 51.1683V49.9595C88.7148 49.5633 88.3976 49.2399 88.0015 49.2323L86.4414 49.2024ZM86.5778 45.4143C86.1256 45.5098 85.7002 45.1649 85.7002 44.7027V43.8218C85.7002 43.5024 85.9086 43.2204 86.2139 43.1266L87.7739 42.6474C88.2415 42.5037 88.7148 42.8534 88.7148 43.3426V44.3733C88.7148 44.717 88.4741 45.0138 88.1378 45.0848L86.5778 45.4143Z" fill="url(#paint5_linear_1156_13192)"/>
<path fill-rule="evenodd" clip-rule="evenodd" d="M104.492 39.7557C104.492 39.4911 104.349 39.2474 104.117 39.1193L97.7366 35.5886C97.2519 35.3203 96.6572 35.6709 96.6572 36.2249V37.1474C96.6572 37.4263 96.8167 37.6807 97.0678 37.8021L102.549 40.4528C102.8 40.5743 102.959 40.8286 102.959 41.1076V43.1849C102.959 43.4639 103.142 43.7103 103.29 43.9472C103.387 44.1039 103.445 44.299 103.445 44.5106C103.445 45.0272 103.1 45.446 102.674 45.446C102.248 45.446 101.902 45.0272 101.902 44.5106C101.902 44.2969 101.961 44.0999 102.061 43.9424C102.214 43.6995 102.408 43.4469 102.408 43.1595V41.4524C102.408 41.1735 102.249 40.9192 101.998 40.7977L97.7011 38.7198C97.2182 38.4862 96.6572 38.8381 96.6572 39.3745V58.3016C96.6572 58.8549 97.2506 59.2056 97.7353 58.9386L99.3766 58.0348C99.6087 57.9069 99.753 57.6628 99.753 57.3977V50.4275C99.753 50.169 99.6023 49.9342 99.3673 49.8264C98.9293 49.6255 98.4304 49.9456 98.4304 50.4275V55.861C98.4304 56.1668 98.6485 56.4426 98.7928 56.7122C98.8767 56.8691 98.9265 57.0645 98.9265 57.2763C98.9265 57.793 98.6304 58.2118 98.2652 58.2118C97.9 58.2118 97.6039 57.793 97.6039 57.2763C97.6039 57.0861 97.644 56.9091 97.713 56.7615C97.7936 56.5888 97.8793 56.4098 97.8793 56.2192V49.6721C97.8793 49.1421 98.428 48.7901 98.9097 49.011L99.8799 49.456C100.138 49.5745 100.304 49.8327 100.304 50.117V56.2931C100.304 56.8465 100.897 57.1971 101.382 56.9302L102.022 56.5778C102.254 56.45 102.398 56.2059 102.398 55.9408L102.398 48.1426C102.398 48.1385 102.396 48.1348 102.392 48.133C102.105 47.9967 101.902 47.658 101.902 47.2618C101.902 46.7452 102.248 46.3264 102.674 46.3264C103.1 46.3264 103.445 46.7452 103.445 47.2618C103.445 47.6579 103.242 47.9964 102.956 48.1329C102.952 48.1347 102.949 48.1385 102.949 48.1426V54.8362C102.949 55.3896 103.543 55.7402 104.028 55.4733L104.116 55.4246C104.348 55.2967 104.492 55.0526 104.492 54.7876L104.492 43.6456C104.492 43.1052 105.061 42.7535 105.544 42.9949L105.964 43.2042C106.21 43.3273 106.366 43.5792 106.366 43.8549V46.5837C106.366 46.8669 106.554 47.1164 106.705 47.3563C106.803 47.5134 106.862 47.7095 106.862 47.9221C106.862 48.4387 106.517 48.8575 106.09 48.8575C105.664 48.8575 105.319 48.4387 105.319 47.9221C105.319 47.7095 105.377 47.5134 105.476 47.3563C105.627 47.1164 105.815 46.8669 105.815 46.5837V43.9837C105.815 43.8375 105.732 43.7039 105.602 43.6386C105.345 43.5106 105.043 43.6971 105.043 43.9837V54.2609C105.043 54.5544 105.358 54.7404 105.615 54.5988C105.739 54.531 105.815 54.4015 105.815 54.2609V50.0135C105.815 49.8613 105.938 49.7379 106.091 49.7379C106.243 49.7379 106.366 49.8613 106.366 50.0135V53.5956C106.366 53.8607 106.65 54.0287 106.883 53.9009C106.994 53.8397 107.063 53.723 107.063 53.5962L107.082 40.9391C107.082 40.8287 107.022 40.727 106.926 40.6735C106.724 40.5618 106.476 40.7078 106.476 40.9386V41.6888C106.476 42.2292 105.908 42.5809 105.424 42.3395L104.895 42.0752C104.648 41.9521 104.492 41.7001 104.492 41.4245V39.7557ZM105.698 39.9939C105.404 39.8313 105.043 40.0439 105.043 40.3797V41.2616C105.043 41.4287 105.138 41.5814 105.287 41.656C105.581 41.8023 105.925 41.5892 105.925 41.2616V40.3797C105.925 40.2193 105.838 40.0716 105.698 39.9939ZM99.7255 43.0554C99.9781 43.1762 100.139 43.4314 100.139 43.7114V45.7875C100.139 46.3404 99.5462 46.6911 99.0615 46.425L98.8628 46.3158C98.6302 46.1881 98.4856 45.9438 98.4856 45.6784V44.5645C98.4856 44.3759 98.6797 44.2497 98.8521 44.3262C98.9836 44.3845 99.1375 44.3253 99.196 44.1939L99.2019 44.1807C99.2637 44.0417 99.2011 43.8789 99.0621 43.8172L98.77 43.6876C98.377 43.5132 97.9345 43.8009 97.9345 44.2309V46.0037C97.9345 46.2691 98.0791 46.5134 98.3117 46.6412L99.6126 47.3556C100.097 47.6217 100.69 47.2711 100.69 46.7181V43.3649C100.69 43.0849 100.529 42.8297 100.277 42.7089L98.5006 41.8592C98.4211 41.8212 98.3755 41.7373 98.3755 41.6492C98.3755 41.1326 98.1041 40.7138 97.7693 40.7138C97.4346 40.7138 97.1632 41.1326 97.1632 41.6492C97.1632 42.1659 97.4346 42.5847 97.7693 42.5847C98.0667 42.5847 98.3901 42.4165 98.6584 42.5448L99.7255 43.0554ZM97.8244 41.6492C97.8244 41.6505 97.8244 41.6518 97.8244 41.653C97.8242 41.7105 97.7942 41.7622 97.7693 41.814C97.7613 41.8307 97.7329 41.8305 97.7293 41.8123C97.72 41.7638 97.7142 41.7091 97.7142 41.6492C97.7142 41.5352 97.8244 41.5352 97.8244 41.6492ZM102.894 47.2618C102.894 47.3998 102.848 47.5082 102.794 47.5735C102.741 47.6376 102.696 47.647 102.674 47.647C102.652 47.647 102.607 47.6376 102.554 47.5735C102.5 47.5082 102.453 47.3998 102.453 47.2618C102.453 47.1238 102.5 47.0154 102.554 46.9502C102.607 46.8861 102.652 46.8766 102.674 46.8766C102.696 46.8766 102.741 46.8861 102.794 46.9502C102.848 47.0154 102.894 47.1238 102.894 47.2618ZM102.794 44.8222C102.848 44.757 102.894 44.6486 102.894 44.5106C102.894 44.3725 102.848 44.2642 102.794 44.1989C102.741 44.1348 102.696 44.1254 102.674 44.1254C102.652 44.1254 102.607 44.1348 102.554 44.1989C102.5 44.2642 102.453 44.3725 102.453 44.5106C102.453 44.6486 102.5 44.757 102.554 44.8222C102.607 44.8863 102.652 44.8957 102.674 44.8957C102.696 44.8957 102.741 44.8863 102.794 44.8222ZM106.311 47.9221C106.311 48.0601 106.264 48.1685 106.211 48.2338C106.158 48.2979 106.113 48.3073 106.09 48.3073C106.068 48.3073 106.023 48.2979 105.97 48.2338C105.917 48.1685 105.87 48.0601 105.87 47.9221C105.87 47.7841 105.917 47.6757 105.97 47.6105C106.023 47.5464 106.068 47.537 106.09 47.537C106.113 47.537 106.158 47.5464 106.211 47.6105C106.264 47.6757 106.311 47.7841 106.311 47.9221ZM97.7029 42.0514C97.7028 42.0509 97.7031 42.052 97.7029 42.0514V42.0514ZM97.8357 41.247C97.8356 41.2465 97.8358 41.2476 97.8357 41.247V41.247ZM97.7029 41.247C97.7028 41.2476 97.7031 41.2465 97.7029 41.247V41.247ZM98.3754 57.2763C98.3754 57.4346 98.3292 57.5545 98.2826 57.6205C98.274 57.6327 98.2564 57.6327 98.2478 57.6205C98.2012 57.5545 98.155 57.4346 98.155 57.2763C98.155 57.1181 98.2012 56.9981 98.2478 56.9322C98.2564 56.92 98.274 56.92 98.2826 56.9322C98.3292 56.9981 98.3754 57.1181 98.3754 57.2763ZM98.2384 57.6665C98.2382 57.666 98.2385 57.6671 98.2384 57.6665V57.6665ZM98.2921 57.6665C98.2921 57.6665 98.2919 57.6663 98.2915 57.6661C98.2911 57.6658 98.2909 57.6662 98.2914 57.6664C98.2918 57.6666 98.292 57.6666 98.2921 57.6665ZM98.2917 56.8864C98.292 56.8863 98.2921 56.8862 98.2921 56.8861C98.292 56.8861 98.2919 56.8861 98.2916 56.8862C98.2911 56.8864 98.2913 56.8867 98.2917 56.8864ZM98.2384 56.8861C98.2382 56.8867 98.2385 56.8856 98.2384 56.8861V56.8861Z" fill="#323150"/>
</g>
<defs>
<filter id="filter0_dddd_1156_13192" x="61.1445" y="24.1416" width="76.71" height="107.71" filterUnits="userSpaceOnUse" color-interpolation-filters="sRGB">
<feFlood flood-opacity="0" result="BackgroundImageFix"/>
<feColorMatrix in="SourceAlpha" type="matrix" values="0 0 0 0 0 0 0 0 0 0 0 0 0 0 0 0 0 0 127 0" result="hardAlpha"/>
<feOffset dy="3"/>
<feGaussianBlur stdDeviation="3"/>
<feColorMatrix type="matrix" values="0 0 0 0 0.639216 0 0 0 0 0.639216 0 0 0 0 0.639216 0 0 0 0.1 0"/>
<feBlend mode="normal" in2="BackgroundImageFix" result="effect1_dropShadow_1156_13192"/>
<feColorMatrix in="SourceAlpha" type="matrix" values="0 0 0 0 0 0 0 0 0 0 0 0 0 0 0 0 0 0 127 0" result="hardAlpha"/>
<feOffset dx="1" dy="11"/>
<feGaussianBlur stdDeviation="5.5"/>
<feColorMatrix type="matrix" values="0 0 0 0 0.639216 0 0 0 0 0.639216 0 0 0 0 0.639216 0 0 0 0.09 0"/>
<feBlend mode="normal" in2="effect1_dropShadow_1156_13192" result="effect2_dropShadow_1156_13192"/>
<feColorMatrix in="SourceAlpha" type="matrix" values="0 0 0 0 0 0 0 0 0 0 0 0 0 0 0 0 0 0 127 0" result="hardAlpha"/>
<feOffset dx="2" dy="26"/>
<feGaussianBlur stdDeviation="7.5"/>
<feColorMatrix type="matrix" values="0 0 0 0 0.639216 0 0 0 0 0.639216 0 0 0 0 0.639216 0 0 0 0.05 0"/>
<feBlend mode="normal" in2="effect2_dropShadow_1156_13192" result="effect3_dropShadow_1156_13192"/>
<feColorMatrix in="SourceAlpha" type="matrix" values="0 0 0 0 0 0 0 0 0 0 0 0 0 0 0 0 0 0 127 0" result="hardAlpha"/>
<feOffset dx="3" dy="46"/>
<feGaussianBlur stdDeviation="9"/>
<feColorMatrix type="matrix" values="0 0 0 0 0.639216 0 0 0 0 0.639216 0 0 0 0 0.639216 0 0 0 0.01 0"/>
<feBlend mode="normal" in2="effect3_dropShadow_1156_13192" result="effect4_dropShadow_1156_13192"/>
<feBlend mode="normal" in="SourceGraphic" in2="effect4_dropShadow_1156_13192" result="shape"/>
</filter>
<filter id="filter1_dddd_1156_13192" x="62.623" y="25.6206" width="73.752" height="104.752" filterUnits="userSpaceOnUse" color-interpolation-filters="sRGB">
<feFlood flood-opacity="0" result="BackgroundImageFix"/>
<feColorMatrix in="SourceAlpha" type="matrix" values="0 0 0 0 0 0 0 0 0 0 0 0 0 0 0 0 0 0 127 0" result="hardAlpha"/>
<feOffset dy="3"/>
<feGaussianBlur stdDeviation="3"/>
<feColorMatrix type="matrix" values="0 0 0 0 0.639216 0 0 0 0 0.639216 0 0 0 0 0.639216 0 0 0 0.1 0"/>
<feBlend mode="normal" in2="BackgroundImageFix" result="effect1_dropShadow_1156_13192"/>
<feColorMatrix in="SourceAlpha" type="matrix" values="0 0 0 0 0 0 0 0 0 0 0 0 0 0 0 0 0 0 127 0" result="hardAlpha"/>
<feOffset dx="1" dy="11"/>
<feGaussianBlur stdDeviation="5.5"/>
<feColorMatrix type="matrix" values="0 0 0 0 0.639216 0 0 0 0 0.639216 0 0 0 0 0.639216 0 0 0 0.09 0"/>
<feBlend mode="normal" in2="effect1_dropShadow_1156_13192" result="effect2_dropShadow_1156_13192"/>
<feColorMatrix in="SourceAlpha" type="matrix" values="0 0 0 0 0 0 0 0 0 0 0 0 0 0 0 0 0 0 127 0" result="hardAlpha"/>
<feOffset dx="2" dy="26"/>
<feGaussianBlur stdDeviation="7.5"/>
<feColorMatrix type="matrix" values="0 0 0 0 0.639216 0 0 0 0 0.639216 0 0 0 0 0.639216 0 0 0 0.05 0"/>
<feBlend mode="normal" in2="effect2_dropShadow_1156_13192" result="effect3_dropShadow_1156_13192"/>
<feColorMatrix in="SourceAlpha" type="matrix" values="0 0 0 0 0 0 0 0 0 0 0 0 0 0 0 0 0 0 127 0" result="hardAlpha"/>
<feOffset dx="3" dy="46"/>
<feGaussianBlur stdDeviation="9"/>
<feColorMatrix type="matrix" values="0 0 0 0 0.639216 0 0 0 0 0.639216 0 0 0 0 0.639216 0 0 0 0.01 0"/>
<feBlend mode="normal" in2="effect3_dropShadow_1156_13192" result="effect4_dropShadow_1156_13192"/>
<feBlend mode="normal" in="SourceGraphic" in2="effect4_dropShadow_1156_13192" result="shape"/>
</filter>
<filter id="filter2_dddd_1156_13192" x="17.624" y="83.9668" width="164.065" height="169.892" filterUnits="userSpaceOnUse" color-interpolation-filters="sRGB">
<feFlood flood-opacity="0" result="BackgroundImageFix"/>
<feColorMatrix in="SourceAlpha" type="matrix" values="0 0 0 0 0 0 0 0 0 0 0 0 0 0 0 0 0 0 127 0" result="hardAlpha"/>
<feOffset dy="3"/>
<feGaussianBlur stdDeviation="3"/>
<feColorMatrix type="matrix" values="0 0 0 0 0.639216 0 0 0 0 0.639216 0 0 0 0 0.639216 0 0 0 0.1 0"/>
<feBlend mode="normal" in2="BackgroundImageFix" result="effect1_dropShadow_1156_13192"/>
<feColorMatrix in="SourceAlpha" type="matrix" values="0 0 0 0 0 0 0 0 0 0 0 0 0 0 0 0 0 0 127 0" result="hardAlpha"/>
<feOffset dx="1" dy="11"/>
<feGaussianBlur stdDeviation="5.5"/>
<feColorMatrix type="matrix" values="0 0 0 0 0.639216 0 0 0 0 0.639216 0 0 0 0 0.639216 0 0 0 0.09 0"/>
<feBlend mode="normal" in2="effect1_dropShadow_1156_13192" result="effect2_dropShadow_1156_13192"/>
<feColorMatrix in="SourceAlpha" type="matrix" values="0 0 0 0 0 0 0 0 0 0 0 0 0 0 0 0 0 0 127 0" result="hardAlpha"/>
<feOffset dx="2" dy="26"/>
<feGaussianBlur stdDeviation="7.5"/>
<feColorMatrix type="matrix" values="0 0 0 0 0.639216 0 0 0 0 0.639216 0 0 0 0 0.639216 0 0 0 0.05 0"/>
<feBlend mode="normal" in2="effect2_dropShadow_1156_13192" result="effect3_dropShadow_1156_13192"/>
<feColorMatrix in="SourceAlpha" type="matrix" values="0 0 0 0 0 0 0 0 0 0 0 0 0 0 0 0 0 0 127 0" result="hardAlpha"/>
<feOffset dx="3" dy="46"/>
<feGaussianBlur stdDeviation="9"/>
<feColorMatrix type="matrix" values="0 0 0 0 0.639216 0 0 0 0 0.639216 0 0 0 0 0.639216 0 0 0 0.01 0"/>
<feBlend mode="normal" in2="effect3_dropShadow_1156_13192" result="effect4_dropShadow_1156_13192"/>
<feBlend mode="normal" in="SourceGraphic" in2="effect4_dropShadow_1156_13192" result="shape"/>
</filter>
<filter id="filter3_dddd_1156_13192" x="37.8828" y="96.7871" width="53.3311" height="84.3315" filterUnits="userSpaceOnUse" color-interpolation-filters="sRGB">
<feFlood flood-opacity="0" result="BackgroundImageFix"/>
<feColorMatrix in="SourceAlpha" type="matrix" values="0 0 0 0 0 0 0 0 0 0 0 0 0 0 0 0 0 0 127 0" result="hardAlpha"/>
<feOffset dy="3"/>
<feGaussianBlur stdDeviation="3"/>
<feColorMatrix type="matrix" values="0 0 0 0 0.639216 0 0 0 0 0.639216 0 0 0 0 0.639216 0 0 0 0.1 0"/>
<feBlend mode="normal" in2="BackgroundImageFix" result="effect1_dropShadow_1156_13192"/>
<feColorMatrix in="SourceAlpha" type="matrix" values="0 0 0 0 0 0 0 0 0 0 0 0 0 0 0 0 0 0 127 0" result="hardAlpha"/>
<feOffset dx="1" dy="11"/>
<feGaussianBlur stdDeviation="5.5"/>
<feColorMatrix type="matrix" values="0 0 0 0 0.639216 0 0 0 0 0.639216 0 0 0 0 0.639216 0 0 0 0.09 0"/>
<feBlend mode="normal" in2="effect1_dropShadow_1156_13192" result="effect2_dropShadow_1156_13192"/>
<feColorMatrix in="SourceAlpha" type="matrix" values="0 0 0 0 0 0 0 0 0 0 0 0 0 0 0 0 0 0 127 0" result="hardAlpha"/>
<feOffset dx="2" dy="26"/>
<feGaussianBlur stdDeviation="7.5"/>
<feColorMatrix type="matrix" values="0 0 0 0 0.639216 0 0 0 0 0.639216 0 0 0 0 0.639216 0 0 0 0.05 0"/>
<feBlend mode="normal" in2="effect2_dropShadow_1156_13192" result="effect3_dropShadow_1156_13192"/>
<feColorMatrix in="SourceAlpha" type="matrix" values="0 0 0 0 0 0 0 0 0 0 0 0 0 0 0 0 0 0 127 0" result="hardAlpha"/>
<feOffset dx="3" dy="46"/>
<feGaussianBlur stdDeviation="9"/>
<feColorMatrix type="matrix" values="0 0 0 0 0.639216 0 0 0 0 0.639216 0 0 0 0 0.639216 0 0 0 0.01 0"/>
<feBlend mode="normal" in2="effect3_dropShadow_1156_13192" result="effect4_dropShadow_1156_13192"/>
<feBlend mode="normal" in="SourceGraphic" in2="effect4_dropShadow_1156_13192" result="shape"/>
</filter>
<filter id="filter4_dddd_1156_13192" x="37.8828" y="125.804" width="53.3311" height="84.3315" filterUnits="userSpaceOnUse" color-interpolation-filters="sRGB">
<feFlood flood-opacity="0" result="BackgroundImageFix"/>
<feColorMatrix in="SourceAlpha" type="matrix" values="0 0 0 0 0 0 0 0 0 0 0 0 0 0 0 0 0 0 127 0" result="hardAlpha"/>
<feOffset dy="3"/>
<feGaussianBlur stdDeviation="3"/>
<feColorMatrix type="matrix" values="0 0 0 0 0.639216 0 0 0 0 0.639216 0 0 0 0 0.639216 0 0 0 0.1 0"/>
<feBlend mode="normal" in2="BackgroundImageFix" result="effect1_dropShadow_1156_13192"/>
<feColorMatrix in="SourceAlpha" type="matrix" values="0 0 0 0 0 0 0 0 0 0 0 0 0 0 0 0 0 0 127 0" result="hardAlpha"/>
<feOffset dx="1" dy="11"/>
<feGaussianBlur stdDeviation="5.5"/>
<feColorMatrix type="matrix" values="0 0 0 0 0.639216 0 0 0 0 0.639216 0 0 0 0 0.639216 0 0 0 0.09 0"/>
<feBlend mode="normal" in2="effect1_dropShadow_1156_13192" result="effect2_dropShadow_1156_13192"/>
<feColorMatrix in="SourceAlpha" type="matrix" values="0 0 0 0 0 0 0 0 0 0 0 0 0 0 0 0 0 0 127 0" result="hardAlpha"/>
<feOffset dx="2" dy="26"/>
<feGaussianBlur stdDeviation="7.5"/>
<feColorMatrix type="matrix" values="0 0 0 0 0.639216 0 0 0 0 0.639216 0 0 0 0 0.639216 0 0 0 0.05 0"/>
<feBlend mode="normal" in2="effect2_dropShadow_1156_13192" result="effect3_dropShadow_1156_13192"/>
<feColorMatrix in="SourceAlpha" type="matrix" values="0 0 0 0 0 0 0 0 0 0 0 0 0 0 0 0 0 0 127 0" result="hardAlpha"/>
<feOffset dx="3" dy="46"/>
<feGaussianBlur stdDeviation="9"/>
<feColorMatrix type="matrix" values="0 0 0 0 0.639216 0 0 0 0 0.639216 0 0 0 0 0.639216 0 0 0 0.01 0"/>
<feBlend mode="normal" in2="effect3_dropShadow_1156_13192" result="effect4_dropShadow_1156_13192"/>
<feBlend mode="normal" in="SourceGraphic" in2="effect4_dropShadow_1156_13192" result="shape"/>
</filter>
<filter id="filter5_dddd_1156_13192" x="37.8828" y="154.822" width="53.3311" height="84.3315" filterUnits="userSpaceOnUse" color-interpolation-filters="sRGB">
<feFlood flood-opacity="0" result="BackgroundImageFix"/>
<feColorMatrix in="SourceAlpha" type="matrix" values="0 0 0 0 0 0 0 0 0 0 0 0 0 0 0 0 0 0 127 0" result="hardAlpha"/>
<feOffset dy="3"/>
<feGaussianBlur stdDeviation="3"/>
<feColorMatrix type="matrix" values="0 0 0 0 0.639216 0 0 0 0 0.639216 0 0 0 0 0.639216 0 0 0 0.1 0"/>
<feBlend mode="normal" in2="BackgroundImageFix" result="effect1_dropShadow_1156_13192"/>
<feColorMatrix in="SourceAlpha" type="matrix" values="0 0 0 0 0 0 0 0 0 0 0 0 0 0 0 0 0 0 127 0" result="hardAlpha"/>
<feOffset dx="1" dy="11"/>
<feGaussianBlur stdDeviation="5.5"/>
<feColorMatrix type="matrix" values="0 0 0 0 0.639216 0 0 0 0 0.639216 0 0 0 0 0.639216 0 0 0 0.09 0"/>
<feBlend mode="normal" in2="effect1_dropShadow_1156_13192" result="effect2_dropShadow_1156_13192"/>
<feColorMatrix in="SourceAlpha" type="matrix" values="0 0 0 0 0 0 0 0 0 0 0 0 0 0 0 0 0 0 127 0" result="hardAlpha"/>
<feOffset dx="2" dy="26"/>
<feGaussianBlur stdDeviation="7.5"/>
<feColorMatrix type="matrix" values="0 0 0 0 0.639216 0 0 0 0 0.639216 0 0 0 0 0.639216 0 0 0 0.05 0"/>
<feBlend mode="normal" in2="effect2_dropShadow_1156_13192" result="effect3_dropShadow_1156_13192"/>
<feColorMatrix in="SourceAlpha" type="matrix" values="0 0 0 0 0 0 0 0 0 0 0 0 0 0 0 0 0 0 127 0" result="hardAlpha"/>
<feOffset dx="3" dy="46"/>
<feGaussianBlur stdDeviation="9"/>
<feColorMatrix type="matrix" values="0 0 0 0 0.639216 0 0 0 0 0.639216 0 0 0 0 0.639216 0 0 0 0.01 0"/>
<feBlend mode="normal" in2="effect3_dropShadow_1156_13192" result="effect4_dropShadow_1156_13192"/>
<feBlend mode="normal" in="SourceGraphic" in2="effect4_dropShadow_1156_13192" result="shape"/>
</filter>
<filter id="filter6_dddd_1156_13192" x="52.2578" y="37.188" width="40.4199" height="81.6177" filterUnits="userSpaceOnUse" color-interpolation-filters="sRGB">
<feFlood flood-opacity="0" result="BackgroundImageFix"/>
<feColorMatrix in="SourceAlpha" type="matrix" values="0 0 0 0 0 0 0 0 0 0 0 0 0 0 0 0 0 0 127 0" result="hardAlpha"/>
<feOffset dy="3"/>
<feGaussianBlur stdDeviation="3"/>
<feColorMatrix type="matrix" values="0 0 0 0 0.639216 0 0 0 0 0.639216 0 0 0 0 0.639216 0 0 0 0.1 0"/>
<feBlend mode="normal" in2="BackgroundImageFix" result="effect1_dropShadow_1156_13192"/>
<feColorMatrix in="SourceAlpha" type="matrix" values="0 0 0 0 0 0 0 0 0 0 0 0 0 0 0 0 0 0 127 0" result="hardAlpha"/>
<feOffset dx="1" dy="11"/>
<feGaussianBlur stdDeviation="5.5"/>
<feColorMatrix type="matrix" values="0 0 0 0 0.639216 0 0 0 0 0.639216 0 0 0 0 0.639216 0 0 0 0.09 0"/>
<feBlend mode="normal" in2="effect1_dropShadow_1156_13192" result="effect2_dropShadow_1156_13192"/>
<feColorMatrix in="SourceAlpha" type="matrix" values="0 0 0 0 0 0 0 0 0 0 0 0 0 0 0 0 0 0 127 0" result="hardAlpha"/>
<feOffset dx="2" dy="26"/>
<feGaussianBlur stdDeviation="7.5"/>
<feColorMatrix type="matrix" values="0 0 0 0 0.639216 0 0 0 0 0.639216 0 0 0 0 0.639216 0 0 0 0.05 0"/>
<feBlend mode="normal" in2="effect2_dropShadow_1156_13192" result="effect3_dropShadow_1156_13192"/>
<feColorMatrix in="SourceAlpha" type="matrix" values="0 0 0 0 0 0 0 0 0 0 0 0 0 0 0 0 0 0 127 0" result="hardAlpha"/>
<feOffset dx="3" dy="46"/>
<feGaussianBlur stdDeviation="9"/>
<feColorMatrix type="matrix" values="0 0 0 0 0.639216 0 0 0 0 0.639216 0 0 0 0 0.639216 0 0 0 0.01 0"/>
<feBlend mode="normal" in2="effect3_dropShadow_1156_13192" result="effect4_dropShadow_1156_13192"/>
<feBlend mode="normal" in="SourceGraphic" in2="effect4_dropShadow_1156_13192" result="shape"/>
</filter>
<filter id="filter7_dddd_1156_13192" x="106.322" y="37.188" width="40.4199" height="81.6177" filterUnits="userSpaceOnUse" color-interpolation-filters="sRGB">
<feFlood flood-opacity="0" result="BackgroundImageFix"/>
<feColorMatrix in="SourceAlpha" type="matrix" values="0 0 0 0 0 0 0 0 0 0 0 0 0 0 0 0 0 0 127 0" result="hardAlpha"/>
<feOffset dy="3"/>
<feGaussianBlur stdDeviation="3"/>
<feColorMatrix type="matrix" values="0 0 0 0 0.639216 0 0 0 0 0.639216 0 0 0 0 0.639216 0 0 0 0.1 0"/>
<feBlend mode="normal" in2="BackgroundImageFix" result="effect1_dropShadow_1156_13192"/>
<feColorMatrix in="SourceAlpha" type="matrix" values="0 0 0 0 0 0 0 0 0 0 0 0 0 0 0 0 0 0 127 0" result="hardAlpha"/>
<feOffset dx="1" dy="11"/>
<feGaussianBlur stdDeviation="5.5"/>
<feColorMatrix type="matrix" values="0 0 0 0 0.639216 0 0 0 0 0.639216 0 0 0 0 0.639216 0 0 0 0.09 0"/>
<feBlend mode="normal" in2="effect1_dropShadow_1156_13192" result="effect2_dropShadow_1156_13192"/>
<feColorMatrix in="SourceAlpha" type="matrix" values="0 0 0 0 0 0 0 0 0 0 0 0 0 0 0 0 0 0 127 0" result="hardAlpha"/>
<feOffset dx="2" dy="26"/>
<feGaussianBlur stdDeviation="7.5"/>
<feColorMatrix type="matrix" values="0 0 0 0 0.639216 0 0 0 0 0.639216 0 0 0 0 0.639216 0 0 0 0.05 0"/>
<feBlend mode="normal" in2="effect2_dropShadow_1156_13192" result="effect3_dropShadow_1156_13192"/>
<feColorMatrix in="SourceAlpha" type="matrix" values="0 0 0 0 0 0 0 0 0 0 0 0 0 0 0 0 0 0 127 0" result="hardAlpha"/>
<feOffset dx="3" dy="46"/>
<feGaussianBlur stdDeviation="9"/>
<feColorMatrix type="matrix" values="0 0 0 0 0.639216 0 0 0 0 0.639216 0 0 0 0 0.639216 0 0 0 0.01 0"/>
<feBlend mode="normal" in2="effect3_dropShadow_1156_13192" result="effect4_dropShadow_1156_13192"/>
<feBlend mode="normal" in="SourceGraphic" in2="effect4_dropShadow_1156_13192" result="shape"/>
</filter>
<linearGradient id="paint0_linear_1156_13192" x1="112.041" y1="22.289" x2="98.7077" y2="46.9845" gradientUnits="userSpaceOnUse">
<stop stop-color="#F93C52"/>
<stop offset="0.30858" stop-color="#DB3869" stop-opacity="0.927816"/>
<stop offset="0.703319" stop-color="#2B21F3" stop-opacity="0.5"/>
<stop offset="1" stop-color="#2B21F3" stop-opacity="0"/>
</linearGradient>
<linearGradient id="paint1_linear_1156_13192" x1="48.467" y1="189.858" x2="90.042" y2="91.8337" gradientUnits="userSpaceOnUse">
<stop stop-color="#C1C0D8"/>
<stop offset="1" stop-color="#C1C0D8" stop-opacity="0"/>
</linearGradient>
<linearGradient id="paint2_linear_1156_13192" x1="53.5745" y1="119.047" x2="63.4082" y2="100.419" gradientUnits="userSpaceOnUse">
<stop stop-color="#C1C0D8"/>
<stop offset="1" stop-color="#C1C0D8" stop-opacity="0"/>
</linearGradient>
<linearGradient id="paint3_linear_1156_13192" x1="53.5745" y1="148.065" x2="63.4082" y2="129.437" gradientUnits="userSpaceOnUse">
<stop stop-color="#C1C0D8"/>
<stop offset="1" stop-color="#C1C0D8" stop-opacity="0"/>
</linearGradient>
<linearGradient id="paint4_linear_1156_13192" x1="53.5745" y1="177.083" x2="63.4082" y2="158.455" gradientUnits="userSpaceOnUse">
<stop stop-color="#C1C0D8"/>
<stop offset="1" stop-color="#C1C0D8" stop-opacity="0"/>
</linearGradient>
<linearGradient id="paint5_linear_1156_13192" x1="90.9175" y1="35.5498" x2="90.9175" y2="59.4966" gradientUnits="userSpaceOnUse">
<stop stop-color="#F93C52"/>
<stop offset="1" stop-color="#2B21F3"/>
</linearGradient>
<clipPath id="clip0_1156_13192">
<rect width="193" height="217" rx="12" fill="white"/>
</clipPath>
<clipPath id="clip1_1156_13192">
<rect width="8" height="8" fill="white" transform="translate(57.5479 162.488)"/>
</clipPath>
</defs>
</svg>
