<svg width="599" height="355" viewBox="0 0 599 355" fill="none" xmlns="http://www.w3.org/2000/svg">
<rect x="0.508789" width="598" height="355" rx="30" fill="#141320"/>
<g clip-path="url(#clip0_946_23592)">
<path d="M311.766 62.9233C317.436 64.5162 322.972 66.3987 328.182 69.1592C331.992 67.5391 337.139 58.0722 341.635 59.4479L351.441 68.1817C354.114 72.1911 356.94 74.1642 353.247 78.608C352.543 79.4588 349.338 81.5404 350.078 82.4365C354.006 83.1967 358.042 83.8574 361.916 84.8258C386.729 91.0346 411.46 101.343 432.996 114.946C434.702 116.023 436.743 116.838 438.341 118.177C439.551 117.164 438.829 115.39 439.063 113.933C442.233 93.967 471.163 91.1341 476.635 110.575C479.416 120.44 472.608 131.826 462.513 133.826C461.447 134.034 459.804 132.821 459.786 134.921L469.15 140.741C471.28 140.397 472.563 139.075 474.901 138.976C479.624 138.768 481.962 142.153 483.705 146.026C489.944 145.963 494.315 150.253 493.683 156.615C497.863 157.294 500.915 159.765 501.285 164.182C501.403 165.657 500.825 166.689 500.879 167.721C500.924 168.472 507.877 178.753 509.015 180.292C517.755 192.166 525.918 204.005 532.708 217.282C549.891 250.86 559.264 299.851 553.133 337.32C553.024 338.008 552.175 341.719 551.661 341.728L550.965 339.719C556.392 305.381 551.914 269.866 539.579 237.546C531.787 217.11 520.753 198.393 508.536 180.419C508.021 179.658 504.22 175.205 503.805 175.214C503.498 176.454 500.229 179.025 500.048 179.586C499.245 182.138 501.321 184.338 499.597 188.184C497.619 192.592 495.064 190.22 493.43 191.958C492.337 193.967 491.678 197.343 489.746 198.674C487.958 199.914 485.836 199.497 484.202 200.357C482.694 201.145 482.233 202.991 479.904 203.742C476.499 204.837 473.141 201.706 473.773 208.023C474.522 215.571 485.836 216.214 491.515 218.296C502.947 222.477 508.518 227.925 509.954 240.542C515.444 245.764 520.238 251.204 521.882 258.906C523.362 265.857 521.701 292.809 525.358 296.375C525.719 296.728 526.55 296.783 527.019 297.19C531.317 300.91 530.956 305.933 526.152 308.938C530.134 310.983 534.342 312.847 537.665 315.943C541.439 319.454 547.814 330.388 548.961 335.393C549.62 338.289 549.575 341.819 548.735 344.706C547.895 347.593 545.042 349.783 544.257 352.815C545.837 360.309 549.665 367.577 551.543 374.89C551.796 375.876 552.329 377.089 552.23 378.075C551.923 381.279 544.88 389.407 542.857 392.674C541.114 395.48 539.606 397.815 540.663 401.182L541.719 401.933C548.302 402.503 558.144 399.308 559.796 408.241C562.379 422.17 542.577 417.31 534.938 418.215C534.071 418.314 533.313 418.432 532.717 419.156C527.426 429.012 521.647 438.633 515.218 447.774C511.146 453.576 506.685 459.296 502.206 464.599C499.055 468.328 495.534 471.831 492.355 475.551C491.823 477.307 492.807 477.94 493.06 479.189C494.206 484.991 497.321 493.751 497.692 498.992C498.477 510.097 485.375 518.496 476.888 523.383C468.355 528.298 447.813 536.805 438.323 537.222C422.603 537.91 403.198 530.642 390.367 521.492C384.805 517.528 381.392 513.455 378.277 507.373C374.069 512.242 368.146 516.957 362.394 519.953C360.904 520.731 356.697 521.845 355.893 522.94C354.593 524.714 357.699 529.538 355.866 532.877C355.613 533.339 354.069 534.986 353.645 535.176C352.164 535.873 350.511 536.652 349.013 537.321C345.328 538.941 342.511 537.729 339.017 537.665C321.418 537.339 303.658 538.127 286.195 538.154C277.003 538.172 264.262 539.122 255.521 538.091C248.659 537.276 248.415 532.461 247.946 526.678L246.916 525.908L224.686 535.348L222.573 534.09C218.862 537.529 213.67 539.557 208.767 540.643C207.584 540.905 203.178 541.747 202.193 541.747C201.453 541.747 199.123 541.294 198.582 540.842C196.965 538.416 194.202 534.588 196.288 531.764C198.374 528.94 206.157 527.013 206.473 523.827C206.546 523.076 206.148 522.379 206.194 521.682C207.277 501.906 203.972 479.524 202.419 459.603C201.435 446.933 201.281 433.23 199.71 420.686C199.548 419.364 199.069 418.133 198.807 416.839C197.968 416.215 196.062 419.446 195.448 420.025C189.372 425.754 180.098 426.587 173.119 421.998C171.502 420.939 170.41 419.582 169.019 418.414C168.568 418.034 168.432 417.554 167.665 417.744C167.9 421.156 167.015 424.55 166.762 427.926C164.541 457.214 162.906 486.737 161.335 516.161C161.227 518.252 160.694 520.822 160.432 522.94C160.504 523.818 161.245 524.234 161.832 524.723C164.134 526.66 173.534 531.149 173.967 533.366C174.356 535.375 173.128 538.76 171.52 539.946C170.834 540.453 167.972 541.222 167.006 541.304C164.532 541.503 159.448 540.308 156.92 539.602C153.389 538.606 149.642 537.032 146.581 535.004L143.845 536.461C141.895 535.656 140.125 534.434 138.346 533.321C132.387 529.592 112.793 517.564 109.849 512.559C104.54 503.508 109.976 486.828 111.158 476.736C111.312 475.46 111.682 473.342 111.267 472.256C110.337 470.356 108.386 469.523 106.933 467.975C93.7857 454.019 84.684 443.294 75.3476 426.324C74.5981 424.967 71.7538 419.536 71.0766 418.839C70.5168 418.269 70.2459 418.242 69.4965 418.161C62.5257 417.391 52.0696 419.419 45.6497 418.079C43.5458 417.645 40.0063 414.622 39.5548 412.423C37.7218 403.544 46.3088 400.611 53.4511 401.888L53.4692 382.637L52.5301 372.717C53.6949 356.309 47.3743 341.339 46.2276 325.184C41.6857 260.743 64.44 202.312 108.982 156.416C145.985 118.286 195.241 93.1072 247.133 82.2011L248.036 81.3051C246.004 78.7257 242.79 76.5626 242.817 72.9242C243.296 70.9241 250.004 64.8511 251.883 62.9776C252.479 62.3893 252.795 61.4933 253.436 60.9141C260.307 54.651 265.219 65.7471 269.923 68.8877C270.339 69.1682 270.637 69.4398 271.188 69.2497L284.651 62.7875L285.057 61.8372C285.192 54.1261 285.057 47.7363 294.321 47.148C296.244 47.0213 297.824 47.5553 299.332 47.5553C300.84 47.5553 302.33 46.9942 304.253 47.148C312.84 47.863 311.224 56.5788 311.766 62.9233ZM352.399 127.753C356.922 127.346 365.889 129.373 366.746 122.902C367.117 120.105 367.505 115.236 367.261 112.512C367.044 110.204 366.042 109.181 364.218 107.869C362.168 107.308 354.755 108.584 353.654 107.145C353.265 106.638 351.396 98.7095 350.755 96.9265C350.114 95.1435 349.049 92.6546 348.218 90.8717C347.387 89.0887 344.669 85.6856 345.338 84.2556C345.699 83.4863 349.419 79.3411 350.304 78.3637C351.676 76.8432 353.771 76.4087 353.148 74.1823C352.525 71.9558 347.468 67.8649 345.554 65.9372C343.956 64.3171 343.098 62.0363 340.344 61.6291C339.36 61.5657 338.845 62.0182 338.123 62.5341C336.073 63.9913 329.78 71.8291 328.109 71.9739C322.89 68.1636 316.479 66.4711 310.375 64.5524C309.798 64.2718 309.563 63.8193 309.463 63.2039C308.868 59.6108 310.222 50.2343 305.138 49.4379C302.755 49.0668 294.511 49.0849 292.046 49.3926C285.851 50.171 288.515 60.4887 286.917 64.6158L269.969 71.6029C266.844 69.8199 262.546 62.6065 259.314 61.4299C255.801 60.1448 255.666 62.1721 253.932 63.6926C251.747 65.6113 245.562 70.5982 244.957 73.2772C244.235 76.4992 249.923 79.8118 251.883 81.993C252.379 82.5541 254.239 84.9344 254.284 85.4684C252.379 88.9258 250.176 92.3379 248.722 96.0396C247.801 98.3746 246.844 104.176 245.986 105.516C244.469 107.887 237.553 106.312 235.169 106.412C230.383 106.602 229.833 109.344 229.535 113.462C229.336 116.204 229.589 120.657 230.004 123.391C230.934 129.464 242.51 125.4 245.788 127.029C246.736 127.5 247.503 132.387 248.018 133.844C248.659 135.618 249.968 138.351 250.871 140.035C251.973 142.098 253.418 144.877 255.287 146.117C254.555 151.692 243.566 153.783 248.686 160.77C249.517 161.901 256.235 168.698 257.264 169.377C257.553 169.567 257.779 169.829 258.176 169.793C259.26 169.82 262.673 166.77 263.964 166.082C270.619 162.58 277.454 159.91 284.262 156.109C284.804 155.801 287.414 154.208 287.531 153.955C287.91 151.411 288.786 147.809 288 145.32C287.702 144.388 285.265 142.044 284.398 140.786C282.89 138.559 281.96 135.437 280.723 133.609C279.838 132.296 277.445 130.758 276.361 128.93C274.194 125.255 273.147 118.576 278.709 117.969C280.831 116.485 278.845 106.629 279.152 103.932C279.684 99.2344 284.921 97.8949 288.66 96.7184C289.364 94.7363 289.12 92.9171 290.068 90.8898C292.551 85.6042 299.82 83.1424 304.958 86.2287C308.741 88.5004 311.278 92.9623 310.989 97.3791C311.91 98.7004 313.671 98.6552 314.935 99.3068C322.069 102.954 318.132 111.091 319.874 117.435C320.19 118.413 321.834 118.485 322.728 119.101C326.394 121.617 323.965 129.482 321.166 132.025C320.344 132.776 319.008 133.057 318.412 133.79C317.743 134.613 317.608 136.242 316.994 137.347C315.269 140.487 313.084 143.374 310.944 146.234C310.926 147.927 310.971 153.104 312.109 154.172C312.633 154.67 313.671 154.724 314.321 155.122C317.689 157.204 320.786 159.566 324.353 161.358C331.234 164.815 338.809 167.268 344.615 172.735C347.342 172.554 346.566 170.3 347.225 168.544C348.624 164.824 355.721 160.607 352.949 156.226C351.315 153.638 346.999 150.959 345.067 148.75C342.629 145.963 347.875 142.098 348.317 138.876L352.353 127.762L352.399 127.753ZM147.367 197.38H170.617L171.295 196.701V189.686H172.198V196.701L172.875 197.38H187.773L188.451 196.701V180.862C187.114 179.215 184.026 181.26 183.033 179.278H193.191C193.327 179.278 193.859 178.681 194.293 178.572C198.329 177.64 201.272 175.685 204.243 172.707C224.018 152.923 196.523 120.395 173.128 139.709C161.579 149.248 163.574 165.413 174.22 174.744L182.572 179.269C178.473 179.36 175.358 176.391 171.746 174.961C171.114 172.87 169.344 171.992 168.134 170.436C162.744 163.512 162.518 150.678 167.313 143.383C177.66 127.635 201.453 129.174 209.896 145.773C214.51 154.842 212.884 164.933 206.284 172.49C202.139 177.233 195.512 179.839 189.408 180.69L189.57 196.465L190.247 197.144L233.381 197.389L237.345 196.836L246.501 183.387L256.135 172.201C253.589 167.576 245.12 162.498 245.309 156.887C245.472 151.909 252.849 148.732 252.849 146.922L247.648 138.27L244.217 129.491C243.503 128.631 238.221 129.156 236.587 128.993C232.839 128.622 228.216 127.364 227.72 122.947C227.368 119.861 227.422 112.937 227.711 109.787C228.225 104.149 234.383 104.077 238.808 104.131C240.442 104.149 242.51 105.335 243.973 103.923C244.713 103.208 245.779 96.9627 246.465 95.1073C247.72 91.7586 249.734 88.3194 251.594 85.2693C251.91 84.0746 250.591 83.4592 249.58 83.3415C247.539 83.0972 238.781 85.5137 236.207 86.1744C185.805 99.1801 135.321 127.608 101.325 167.286C66.0292 208.503 42.7331 264.227 47.9973 319.391C49.0357 330.234 49.8845 341.185 52.792 351.693C54.1464 349.901 54.2277 347.421 55.0584 345.366C56.3225 342.226 60.5031 337.185 62.9411 334.714C64.2233 333.42 65.5506 332.949 66.6883 331.673C67.1217 329.754 66.4716 327.853 66.5709 325.681C66.6793 323.373 67.3023 320.296 68.0247 318.097C70.2369 311.381 77.6772 307.281 78.6343 300.222C79.5553 293.461 76.3137 286.51 76.4943 279.071C76.7923 266.843 75.8532 252.824 78.5169 240.823C81.8668 225.771 93.3704 220.585 106.842 216.268C108.775 215.644 115.583 214.73 116.134 212.91C116.423 206.937 116.784 200.855 115.312 195.008C113.344 193.497 111.42 194.04 109.434 192.193C105.208 188.284 105.389 182.645 109.804 178.998C109.533 175.35 108.332 168.481 110.165 165.286C114.427 157.864 128.558 150.135 137.001 153.249C140.414 154.507 140.197 156.95 141.94 158.706C142.608 159.376 144.116 159.801 145.082 160.534C148.82 163.367 150.373 169.051 150.039 173.567C149.832 176.382 147.99 179.314 147.818 181.776C147.628 184.437 148.567 187.741 148.306 190.836C148.116 193.08 147.06 195.081 147.385 197.38H147.367ZM460.689 138.098L460.481 136.731C456.382 134.315 453.113 130.866 449.366 127.961C428.463 111.688 396.887 96.0848 371.306 88.9982C366.123 87.5591 356.624 84.7625 351.613 84.3099C350.764 84.2285 347.577 83.9117 347.378 84.9435C349.13 88.609 351.198 92.184 352.552 96.0305C353.238 97.9673 354.34 103.923 355.288 105.054C356.57 106.584 360.742 105.787 362.837 106.086C369.862 107.09 369.338 112.05 369.067 117.978C368.995 119.589 368.769 122.232 368.561 123.807C367.713 130.052 359.767 130.495 354.882 129.599L354.367 129.907L349.193 142.623L452.779 143.094C454.007 142.931 455 140.469 456.49 139.528C457.781 138.713 459.253 138.415 460.707 138.089L460.689 138.098ZM470.928 103.407C470.531 102.999 465.511 100.022 464.851 99.7684C458.088 97.1618 450.025 99.515 445.339 104.828C442.549 107.986 437.772 116.983 441.628 120.458C444.373 122.929 448.96 125.59 452.084 127.952C454.413 129.717 456.409 132.722 459.569 132.704C465.24 132.667 469.321 129.699 472.626 125.391C477.366 119.191 476.382 108.891 470.937 103.407H470.928ZM312.949 109.706C312.57 109.389 312.145 109.308 311.667 109.371C309.147 109.724 305.788 111.498 302.863 111.815C299.937 112.132 296.587 111.878 293.644 111.19C292.082 110.828 287.793 108.71 286.854 108.882C285.328 109.163 285.698 111.389 285.174 112.647C284.569 114.096 283.377 115.136 283.016 116.82C282.529 119.119 283.26 121.418 282.303 123.572H280.614C279.088 117.137 275.946 120.295 277.048 125.572C277.21 126.332 279.07 129.925 279.666 130.224L281.915 130.613C283.079 134.713 284.605 138.197 287.332 141.501C292.551 147.818 300.723 150.018 307.956 145.447C313.689 141.827 314.764 135.89 317.563 130.16L320.272 130.875C321.057 128.169 323.847 124.422 322.583 121.562L320.678 120.232L318.854 123.11L317.139 123.173L312.94 109.724L312.949 109.706ZM415.542 251.683V240.144C415.542 237.257 419.135 232.333 418.72 228.849L418.476 145.338L417.483 144.524H348.137C344.471 147.393 349.383 149.149 351.198 150.778C353.852 153.167 356.796 156.19 355.523 160.064L349.184 169.775C352.913 170.291 355.351 169.114 358.53 167.603C359.216 167.277 359.667 166.589 360.354 166.263C372.733 160.444 388.887 168.227 392.652 181.188C393.708 184.817 394.061 188.628 393.88 192.402H414.873C415.144 192.402 415.794 193.415 415.551 193.759L393.853 194.411C392.219 198.42 392.851 204.439 389.139 207.335C388.246 208.032 386.512 208.476 385.997 209.163C385.293 210.114 384.896 213.408 384.128 214.983C383.198 216.893 379.46 221.183 379.09 222.604C378.774 223.825 378.783 229.265 378.954 230.668C378.999 231.057 378.945 231.455 379.18 231.799C384.489 233.953 390.196 235.284 395.46 237.655C403.93 241.474 408.453 244.063 414.512 251.113C414.792 251.43 414.485 251.964 415.542 251.692V251.683ZM443.081 144.433H419.605V228.83L420.734 229.509C425.429 222.667 434.702 220.033 442.287 217.626C445.583 216.576 451.533 215.798 454.251 214.232C456.779 212.766 457.754 206.919 457.538 204.167C454.115 204.602 452.571 203.923 449.899 202.095C449.23 201.633 448.571 200.556 448.048 200.33C447.045 199.877 445.637 200.176 444.409 199.905C439.578 198.809 438.404 196.321 439.018 191.506C435.361 191.415 431.795 189.877 430.567 186.184C429.447 182.817 430.946 181.659 431.831 178.608C431.108 175.151 428.273 173.468 429.664 169.676C430.53 167.313 432.228 167.277 433.537 165.386C433.429 162.589 432.58 160.163 433.655 157.385C435.063 153.774 437.465 153.855 440.625 152.606C441.005 151.239 440.734 149.927 441.032 148.488C441.402 146.687 442.639 146.008 443.09 144.442L443.081 144.433ZM308.994 147.148C307.17 147.04 305.653 148.696 304.037 149.194C299.125 150.723 295.125 149.013 290.484 147.601C290.077 148.026 291.143 156.371 288.235 156.869L299.739 167.983C304.235 165.186 307.829 161.295 311.242 157.312L311.044 156.643C310.204 156.362 309.003 154.977 309.003 154.163V147.148H308.994ZM284.948 157.629C284.578 157.702 280.948 160.145 280.56 160.516C280.145 160.905 279.973 161.096 280.28 161.657L292.01 174.726C293.12 173.477 298.141 171.024 297.671 169.196C293.924 165.395 289.102 162.562 286.429 157.783L284.948 157.638V157.629ZM319.333 160.326C317.734 159.928 315.125 156.95 313.527 157.774L301.806 169.495L307.36 174.726C310.809 172.056 313.075 168.354 315.784 165.033C316.543 164.109 320.073 161.43 319.333 160.326ZM291.838 279.288C292.317 246.434 294.655 213.725 295.865 180.898C295.865 179.722 294.411 177.323 293.328 177.079C292.759 176.952 292.136 177.432 291.666 177.35C291.079 177.251 284.696 169.766 283.72 168.626C282.348 167.015 280.027 162.652 278.032 162.526C277.373 162.489 267.106 166.761 265.797 167.422C252.551 174.128 236.189 202.602 230.04 216.205C229.517 217.354 229.119 218.585 228.632 219.762C229.372 220.757 230.699 220.377 231.819 220.658C233.535 221.083 236.677 221.689 238.086 222.522C240.244 223.807 242.7 227.681 244.894 229.274L253.698 230.876C254.781 230.785 255.097 229.446 255.494 228.586C256.984 225.373 257.752 221.545 258.898 218.187L260.479 218.63C261.047 229.763 261.634 240.85 263.431 251.873C266.077 256.869 272.795 260.245 272.921 266.382C272.957 268.246 272.127 269.911 271.964 271.794C271.756 274.301 272.1 276.808 272.434 279.279H291.847L291.838 279.288ZM341.5 217.517V236.75C346.475 235.79 351.107 233.881 355.514 231.473L355.414 223.02C353.464 221.318 351.911 219.182 350.746 216.838C349.581 214.494 349.04 210.711 348.028 209.154C347.378 208.15 346.186 208.086 345.374 207.29C342.863 204.828 339.477 189.587 339.757 185.876C340.055 181.984 341.319 178.21 343.252 174.852L343.116 173.83C339.559 171.468 335.965 169.105 332.191 167.105C329.987 165.938 325.175 163.322 323.017 162.725C322.014 162.444 320.904 162.227 320.028 162.933L307.721 177.215C302.177 175.884 303.477 184.881 303.567 188.555C304.163 213.671 305.716 238.985 306.746 264.11C306.953 269.151 306.827 274.228 307.197 279.27C308.75 279.08 311.477 279.93 312.371 278.346C314.673 270.581 314.908 260.589 318.683 253.448C319.513 251.882 326.042 244.787 327.54 243.773C329.735 242.289 338.258 239.302 339.017 237.628C339.604 235.917 338.737 234.297 338.764 232.424C338.782 231.138 339.243 230.025 339.27 228.83C339.333 225.889 338.764 221.002 339.27 218.413C339.414 217.653 339.83 217.273 340.398 216.82L341.518 217.499L341.5 217.517ZM487.199 190.465C488.563 188.827 488.211 184.691 486.008 184.003C484.96 183.677 483.849 183.994 482.82 183.577C479.651 182.193 480.111 171.54 479.452 168.399C477.89 160.86 470.359 168.68 466.757 168.852C463.154 169.024 459.524 164.87 456.445 165.268C450.576 166.019 452.364 178.337 450.251 182.165C448.246 185.795 445.962 182.727 444.174 184.22C442.793 185.36 443.063 188.89 444.291 190.184L450.224 191.605C450.504 192.338 450.513 193.171 450.892 193.877C455.38 202.348 464.59 207.489 473.502 201.832C477.8 199.108 479.524 195.85 481.077 191.098C481.719 190.637 485.403 192.637 487.217 190.465H487.199ZM391.623 197.389C391.993 190.32 392.86 185.396 389.609 178.808C384.742 168.942 372.047 163.467 361.717 168.092C360.101 168.816 357.419 171.133 356.074 171.486C354.114 172.002 352.281 171.232 349.961 172.146C345.536 173.875 342.818 179.043 342.421 183.595C342.195 186.121 342.719 196.927 345.437 197.76C349.04 198.828 352.001 194.338 353.618 191.65C354.53 190.13 356.552 184.066 357.591 183.84C363.568 188.528 370.837 188.284 378.06 187.46C378.349 191.062 380.489 197.769 384.697 198.203C385.383 198.276 386.097 197.497 386.9 197.416C388.453 197.253 390.06 197.479 391.623 197.398V197.389ZM116.161 192.012C117.064 197.796 120.54 202.529 125.551 205.453C133.452 210.059 141.57 205.588 144.604 197.551C145.669 194.719 146.816 189.279 146.427 186.329C146.265 185.089 145.588 184.147 145.534 182.681C145.434 180.428 146.256 178.482 145.967 175.93C145.705 173.631 143.439 168.399 140.838 168.372C137.687 169.413 134.518 170.499 131.222 171.006C127.077 171.649 122.834 171.169 118.933 172.717C116.991 174.934 117.822 184.718 116.233 185.849L115.095 185.605C114.553 184.428 114.535 181.134 113.217 180.699C111.149 180.02 108.91 181.496 108.576 183.595C107.718 188.98 110.707 192.51 116.17 191.994L116.161 192.012ZM376.616 189.786C376.191 189.315 368.308 189.84 366.611 189.65C363.703 189.315 360.977 187.369 358.06 187.487C357.356 187.713 355.902 191.687 355.243 192.827C353.13 196.456 349.509 198.692 349.599 203.054C349.943 219.354 365.139 235.139 378.756 219.572C383.315 214.358 385.194 207.742 384.769 200.855C384.453 199.887 381.744 199.28 380.805 198.493C378.539 196.583 377.464 192.519 376.607 189.795L376.616 189.786ZM171.295 214.576V198.963L170.617 198.285H146.689C145.398 199.515 144.911 201.416 143.953 202.783C142.473 204.882 140.495 206.258 138.969 208.231C138.798 208.801 139.303 213.435 139.574 214.015C140.233 215.399 143.159 215.282 144.667 215.698C154.635 218.458 162.825 222.712 169.046 231.084C169.859 232.179 170.5 233.609 170.879 234.912L171.746 234.478L178.076 261.63C179.502 260.924 179.602 259.367 180.803 258.263C182.816 256.426 185.778 255.62 188.035 254.199L188.451 251.674L190.022 252.57C196.035 247.973 192.117 241.013 198.681 236.804C200.207 235.827 202.157 235.655 203.575 234.469C204.026 232.532 204.514 227.907 205.733 226.441C205.859 226.287 208.46 224.215 208.641 224.151C210.338 223.608 212.677 223.608 214.627 222.911C216.577 222.214 218.844 220.368 220.848 220.069C223.097 219.735 224.587 221.201 226.627 219.101L235.855 198.71L189.778 198.475L189.119 199.615L187.331 198.248C183.033 198.647 177.931 197.742 173.751 198.239C173.092 198.321 172.595 198.294 172.198 198.945V214.558H171.295V214.576ZM389.772 199.235C385.455 198.683 386.846 203.081 386.656 205.987L388.796 205.416C389.88 203.335 390.918 201.579 389.772 199.235ZM347.821 205.534C347.884 204.358 347.92 199.497 345.798 200.104C344.119 200.583 346.105 204.294 346.439 205.254L347.821 205.534ZM119.827 202.819L118.933 203.1L118.057 215.3C120.982 220.124 127.122 222.205 132.567 220.341C133.877 219.888 138.382 217.372 138.265 215.798C136.477 213.58 137.452 211.2 136.549 208.91C130.436 210.838 122.96 208.448 119.827 202.828V202.819ZM471.515 205.543C467.307 206.584 464.003 206.611 459.795 205.525C459.714 207.29 459.452 209.462 458.802 211.091C457.89 213.354 455.903 213.589 456.201 216.567C456.806 222.531 461.05 230.55 462.504 236.523C462.739 242.958 460.012 245.493 453.691 245.384C449.194 245.312 442.774 240.343 441.176 236.18C439.768 232.478 443.858 225.002 444.689 220.938C444.824 220.278 445.158 219.825 444.436 219.327L436.526 222.269L439.009 272.961C447.352 273.332 455.732 273.115 464.084 273.396C468.725 273.55 469.646 275.432 470.152 269.115C470.657 262.797 469.529 257.765 472.77 251.828C473.402 250.679 476.481 247.574 476.5 246.941C476.536 245.791 474.612 245.628 473.746 245.158C467.768 241.891 467.253 239.13 469.023 232.686C470.676 226.649 473.637 220.486 475.001 214.277C475.046 212.675 472.96 211.815 472.382 210.331C471.804 208.847 471.913 207.064 471.497 205.561L471.515 205.543ZM160.586 271.73C161.805 270.69 164.107 270.536 165.552 271.26C167.556 272.264 167.882 275.179 169.236 276.156C172.279 278.374 175.376 273.875 176.369 271.477C177.236 269.386 175.99 267.974 175.818 265.947C174.78 253.855 172.685 240.316 165.435 230.197C161.046 224.079 151.249 219.943 144.206 217.988C142.933 217.635 141.642 217.336 140.36 217.019C134.798 222.929 127.989 225.093 120.594 220.848C118.21 219.481 117.091 216.295 114.716 216.431C104.576 219.101 93.1898 221.572 85.9662 229.745C82.7246 233.41 81.4966 237.103 80.4131 241.827C78.0113 252.326 78.9142 263.178 78.7607 273.875L82.4447 265.585C94.2553 246.977 122.617 248.615 131.204 269.495C132.694 273.106 133.308 276.962 133.904 280.817L134.572 281.505H157.705C158.274 281.116 158.653 273.405 160.604 271.739L160.586 271.73ZM476.969 216.866L471.055 236.976C470.432 239.32 473.204 242.868 475.344 243.112C477.962 243.42 484.734 242.406 485.096 239.266C485.43 236.342 483.913 233.663 484.066 230.749C482.062 226.106 483.515 217.599 476.969 216.866ZM454.368 217.291L448.165 218.775L443.479 234.261C443.452 238.125 451.93 243.827 455.38 242.977C463.596 240.94 457.745 231.356 456.301 226.45C456.039 225.554 456.237 224.568 455.976 223.608C455.38 221.463 454.016 219.617 454.368 217.3V217.291ZM507.191 238.107C506.604 232.867 503.606 229.545 500.446 225.636C495.443 222.812 490.053 220.875 484.617 219.11L488.68 239.474C489.285 240.026 494.622 236.922 496.112 236.75C497.737 236.56 502.712 236.514 504.229 236.777C505.367 236.976 505.972 238.198 507.182 238.116L507.191 238.107ZM417.799 269.785H434.278C434.386 269.785 435.334 269.314 435.424 269.024V243.746C433.944 237.582 436.066 229.844 434.494 223.862C434.332 223.228 434.892 223.174 433.826 223.156C427.307 223.065 419.749 232.315 418.043 238.125C416.752 242.515 417.366 245.447 417.366 249.629C417.366 256.362 417.149 263.087 417.799 269.785ZM376.715 224.531C375.451 224.224 375.035 225.355 374.123 225.78C368.435 228.441 363.144 228.287 357.762 224.984C356.823 227.844 357.572 230.966 358.177 233.844L367.631 241.049C368.29 241.13 368.904 240.895 369.455 240.569C372.272 238.913 375.144 235.564 378.313 234.053L378.53 233.365C377.762 232.939 376.724 232.034 376.724 231.102V224.54L376.715 224.531ZM259.332 234.94V226.115C259.332 225.862 258.682 225.183 258.203 225.889C257.77 226.532 256.108 230.822 256.172 231.528C256.289 232.749 258.122 234.614 259.332 234.94ZM353.979 234.994C352.787 235.392 353.184 240.596 353.302 241.9C353.437 243.547 354.213 249.149 354.719 250.434C354.927 250.968 355.478 251.792 356.119 251.647C357.329 250.751 358.204 249.484 359.351 248.525C360.706 247.393 363.983 245.556 364.787 244.47C366.936 241.565 363.947 241.194 362.132 239.836C360.453 238.587 355.956 234.324 353.988 234.985L353.979 234.994ZM383.397 235.944L380.679 235.021L369.952 242.424C369.762 243.194 379.072 251.991 380.182 252.091C381.058 252.172 381.681 250.552 381.907 249.873C382.521 248.054 384.029 237.057 383.397 235.944ZM359.559 310.965L350.313 235.863C340.615 239.42 327.107 243.719 321.256 252.887C317.229 259.195 315.179 273.676 313.635 281.451C311.73 291.081 310.231 300.855 308.533 310.503L336.94 310.92L333.374 264.798H334.719L339.243 310.956H359.559V310.965ZM421.862 310.965V294.9C421.862 294.438 418.44 289.886 417.853 288.51C413.004 277.116 418.792 261.123 412.562 251.729C410.729 248.959 404.471 244.66 401.392 243.013C399.903 242.216 386.259 236.08 385.744 236.75C384.58 247.674 383.072 258.625 381.112 269.441C378.674 282.854 374.692 294.493 375.794 308.503C375.866 309.381 376.056 310.132 376.272 310.974H399.298L400.869 267.974L402.223 267.531C403.162 267.667 402.955 274.31 402.927 275.477C402.648 285.795 402.196 296.421 401.555 306.684C401.465 308.114 401.609 309.562 401.555 310.983H421.871L421.862 310.965ZM235.35 243.149C232.876 242.533 232.37 244.669 231.052 245.737C228 248.208 223.277 249.258 219.431 248.914C216.054 248.615 212.857 246.95 209.525 246.76C208.036 247.239 207.963 252.842 207.412 254.398C205.634 254.634 206.582 251.71 205.155 250.968L202.672 252.127C201.859 253.81 202.744 256.942 203.954 258.317C205.002 259.512 207.575 260.598 208.514 261.666C209.905 263.259 210.32 266.744 211.62 268.291C217.318 275.061 227.973 274.265 234.275 268.87C236.858 266.653 239.025 263.838 238.763 260.263L242.447 259.403C246.636 255.991 243.711 243.728 238.79 251.249L237.444 250.778L235.359 243.139L235.35 243.149ZM381.681 253.041L380.002 253.874L374.223 250.299L370.936 254.254L374.918 288.782L375.821 287.198L381.681 253.032V253.041ZM359.559 290.148C360.435 283.958 360.624 277.631 361.419 271.423C362.078 266.282 363.929 260.164 364.101 255.05C364.155 253.394 362.647 251.285 361.112 250.751C359.983 250.652 354.981 254.299 355.017 255.955C356.507 266.78 357.311 277.695 358.692 288.519C358.746 288.972 358.891 290.212 359.55 290.139L359.559 290.148ZM489.583 250.778C489.032 250.299 486.405 252.226 485.827 252.67C480.725 256.553 477.845 263.847 476.536 269.947L472.165 271.106C470.296 272.572 472.617 279.089 474.45 280.22C475.154 280.654 475.94 280.591 476.472 280.908C477.61 281.568 479.434 288.311 481.962 290.791C490.188 298.873 501.647 297.661 508.301 288.32C509.8 286.221 510.08 283.614 511.453 281.523C512.798 280.573 515.326 281.623 516.942 279.786C518.089 278.482 517.809 274.907 516.879 273.432C514.812 270.11 512.789 271.504 509.71 271.115C501.069 270.002 490.053 259.919 489.574 250.787L489.583 250.778ZM128.865 282.455L126.409 282.944L125.696 284.039L125.217 305.335C132.432 306.331 130.662 304.512 131.114 299.425C132.071 288.737 133.913 280.709 129.389 270.382C119.321 247.384 86.9775 250.172 80.8826 273.966C78.7336 282.365 80.4492 289.705 80.5847 298.059C80.7382 307.779 72.3317 310.775 69.9389 318.658C69.2798 320.839 67.9615 327.944 69.4784 329.528C70.5981 330.704 74.1196 328.053 75.5914 327.491C80.684 325.546 87.3387 324.541 91.9889 321.301C94.4268 319.599 95.9528 312.123 95.3569 309.481C95.1131 308.404 91.1672 304.186 90.1288 302.503C89.3161 301.19 88.5667 299.787 87.9076 298.394C87.0859 296.665 87.131 293.769 85.0813 293.298V292.646C85.5147 291.298 89.8128 290.682 91.1762 290.167C95.3207 288.601 99.0138 286.7 102.048 283.388C103.059 283.161 103.456 285.053 104.016 285.397C105.822 286.519 106.31 284.293 107.402 283.342C112.441 278.935 120.495 283.27 117.208 289.551C115.529 292.764 111.691 293.235 108.675 291.588C106.68 290.501 106.851 288.356 105.154 286.981C103.258 289.524 101.443 293.072 97.5691 291.859C96.8106 291.624 96.3411 290.329 95.2395 290.556L88.8737 292.837C87.6728 293.742 89.3794 297.353 89.9482 298.602C92.9821 305.182 100.648 311.635 108.296 310.485C111.186 310.051 117.271 305.978 119.168 303.733C122.725 299.516 124.233 291.714 124.378 286.311C124.405 285.243 124.359 284.184 123.935 283.198C123.42 282.437 120.405 282.51 119.357 282.256C113.353 280.763 102.815 271.495 100.766 265.594C100.386 264.508 99.9799 263.413 101.1 262.553L104.937 269.097C108.567 273.731 117.958 280.654 123.782 281.469C125.028 281.641 126.554 281.252 128.17 281.568C128.892 281.713 128.955 281.243 128.856 282.455H128.865ZM434.278 271.595H418.476L417.799 272.952H433.826C433.98 272.952 434.485 272.355 434.955 272.491L434.278 271.595ZM166.238 278.283L166.59 277.269C163.439 270.11 161.127 273.441 160.468 279.505L161.38 280.003L166.238 278.283ZM215.539 273.857V280.419C215.539 280.564 215.954 280.826 215.81 281.541C215.62 282.501 214.23 283.614 214.203 284.483C217.778 291.886 226.429 292.61 231.268 285.768C234.049 281.831 232.406 277.26 231.801 272.952C230.392 272.934 229.517 273.993 228.099 274.446C223.873 275.803 219.647 275.351 215.548 273.857H215.539ZM470.061 276.238C469.366 275.722 468.535 275.713 467.705 275.649C459.958 275.097 451.19 275.785 443.289 275.686C435.569 275.586 426.711 274.346 418.91 275.188C418.287 275.26 417.691 275.188 417.402 275.921C418.928 284.7 418.756 293.334 429.745 294.23C438.07 294.909 457.7 291.968 466.215 290.031C468.256 289.569 471.28 288.682 471.542 286.32C471.804 283.958 471.75 277.876 470.052 276.229L470.061 276.238ZM174.419 278.437C172.676 276.962 160.793 283.08 158.184 283.659L158.753 305.444C163.638 308.567 171.448 311.571 177.173 309.843C180.839 308.738 179.999 307.155 181.76 304.485C183.042 302.548 187.412 298.068 187.53 296.24C187.647 294.411 185.426 289.642 183.918 288.583C183.168 288.058 182.202 287.949 181.435 287.451C177.751 285.071 174.5 283.397 174.41 278.437H174.419ZM311.251 281.098H271.747C270.411 282.709 269.21 285.107 267.621 286.465C265.174 288.547 261.634 289.162 258.998 290.511C258.573 290.728 258.275 290.393 258.429 291.28C262.537 295.579 266.628 300.521 268.939 306.087C271.251 311.653 272.163 317.626 272.867 323.419C273.409 327.853 272.768 332.641 274.673 336.759L200.631 337.221C204.902 341.719 208.171 346.072 209.887 352.154C211.494 357.865 210.871 362.888 210.997 368.69C211.069 371.821 212.099 373.098 210.78 376.582C209.571 379.786 207.548 379.94 204.938 381.587L201.011 391.678L194.979 398.783L195.981 403.643L217.146 410.078C219.9 408.911 220.668 401.037 223.891 401.037H294.547C294.547 397.217 290.339 395.914 288.94 392.403C288.082 390.248 287.549 385.343 286.366 383.669C285.608 382.592 283.675 382.266 282.601 380.655C281.445 378.917 281.129 376.22 281.553 374.211C281.815 372.98 283.016 371.849 283.233 370.464C283.693 367.513 282.989 363.649 283.26 360.535C283.468 358.119 285.472 353.367 284.967 351.593C284.795 350.978 284.082 350.408 283.82 349.557C282.79 346.154 282.303 342.615 284.416 339.52C285.129 338.479 287.721 336.325 288.903 336.325H295.45V313.472C295.45 313.282 296.488 311.879 296.777 311.635C299.071 309.68 303.441 310.865 306.267 310.512C306.881 307.082 312.308 282.166 311.251 281.116V281.098ZM115.204 284.383C114.581 283.723 112.414 283.243 111.474 283.324C104.242 285.062 109.822 294.113 115.122 289.28C116.125 288.429 116.007 285.243 115.195 284.383H115.204ZM155.945 283.361H134.274C133.877 290.357 133.542 297.371 132.992 304.331L133.597 305.082H156.396L155.945 283.361ZM214.799 288.637C213.86 287.623 213.426 286.275 212.604 285.18C209.282 285.922 212.65 290.845 213.805 292.574C214.961 294.303 219.638 299.597 221.155 300.584C222.248 301.29 223.232 301.145 224.28 300.502L237.192 284.501C234.058 281.912 233.426 286.936 231.431 288.8C229.697 290.42 224.514 293.09 222.194 292.791C220.469 292.565 215.99 289.949 214.781 288.646L214.799 288.637ZM223.666 304.403V334.723L224.343 335.402H251.883C253.914 331.899 253.093 325.763 254.483 322.17C255.124 320.504 256.587 320.432 256.659 322.504C256.768 325.473 254.474 331.926 255.341 334.66L255.946 335.411H270.844L271.738 334.497C272.036 328.478 270.98 321.753 269.589 315.843C267.422 306.621 263.368 296.755 255.503 291.045C253.661 289.705 242.203 283.496 240.686 283.885L223.666 304.412V304.403ZM101.768 286.99L97.533 288.764L97.2621 290.139C99.5555 290.918 102.445 289.832 101.768 286.99ZM193.868 332.913V321.147L195.674 320.468V334.723L196.351 335.402H221.182L221.86 334.723V303.951C221.065 302.34 219.449 301.833 218.293 300.738C216.027 298.575 212.749 295.163 211.097 292.565C210.275 291.271 209.489 287.343 208.469 287.026C206.663 287.062 204.803 287.732 203.114 288.329C188.153 293.633 180.451 309.345 177.281 323.98C177.01 325.229 175.791 332.216 176.261 332.686C178.789 333.03 181.227 332.116 183.728 332.207C186.229 332.297 190.031 333.709 192.297 333.628C192.983 333.601 193.471 333.519 193.868 332.913ZM472.427 305.535V290.148C469.727 292.764 466.883 292.357 463.669 292.909C456.219 294.185 448.788 295.66 441.276 296.484L441.691 317.898C442.197 318.694 448.102 320.441 449.194 320.405C450.847 320.341 452.427 317.889 453.691 316.857C459.371 312.223 465.294 307.607 472.418 305.535H472.427ZM504.933 310.739C505.619 306.367 504.428 300.367 504.933 295.805L503.85 295.163C499.425 298.267 493.881 298.719 488.662 298.032L487.786 306.557L485.935 308.014C486.829 313.291 490.324 319.382 495.723 320.903C498.992 321.047 504.473 313.689 504.933 310.739ZM423.668 296.031V310.965C425.104 311.399 431.795 310.141 431.795 312.096V334.497H443.759C444.86 332.858 446.946 326.985 446.702 325.238C446.251 321.916 439.587 321.925 438.666 317.418L439.018 296.022H423.668V296.031ZM118.797 306.992C115.574 307.942 117.497 316.015 118.472 318.441C118.797 319.255 119.077 320.206 119.637 320.893C122.824 324.713 132.414 325.292 136.883 327.645C138.337 327.808 140.658 324.468 141.308 323.21C143.33 319.273 142.924 316.314 141.281 312.332C140.929 311.49 139.529 308.847 139.005 308.277C136.667 305.743 132.369 307.308 129.569 307.372C125.94 307.453 122.418 306.992 118.806 306.992H118.797ZM157.245 307.861C156.459 306.693 144.585 308.413 142.409 307.797C142.084 308.096 144.26 311.11 144.54 311.761C146.725 316.857 146.13 324.749 141.506 328.387C145.1 331.157 148.784 333.592 151.619 337.248C154.653 341.167 155.502 344.126 156.838 348.769C157.028 349.439 156.586 349.557 157.75 349.43C157.118 346.715 160.541 344.38 160.893 342.398C161.164 340.886 161.028 337.284 160.929 335.61C160.613 330.315 159.845 323.753 159.06 318.477C158.536 314.929 157.001 311.499 157.236 307.861H157.245ZM472.653 394.683H520.058L520.952 393.769C521.439 392.728 521.268 388.23 521.177 386.764C521.069 384.909 520.292 382.275 520.319 380.474C520.41 373.107 523.272 364.201 523.462 356.417C523.507 354.689 522.279 353.313 522.08 351.467C521.873 349.493 522.143 347.149 522.107 345.113C521.954 336.913 521.475 329.872 527.055 322.957C529.322 320.151 532.816 319.111 535.624 317.074C533.493 314.558 530.469 312.866 527.408 311.743C523.453 310.286 511.624 307.073 507.859 307.797L506.929 308.223C506.712 314.911 499.335 327.066 491.606 321.373C487.263 318.169 484.635 313.246 484.066 307.897C483.208 307.381 482.206 307.318 481.222 307.318C472.554 307.281 467.443 309.3 460.897 314.585C460.165 315.173 459.542 315.979 458.883 316.649C458.748 317.273 462.874 319.798 463.678 320.622C471.244 328.396 470.937 339.99 470.17 350.127C469.872 354.118 468.192 358.734 468.319 362.789C468.463 367.568 470.233 372.12 470.603 376.817C471.019 382.076 470.314 387.796 470.603 393.108C470.558 393.905 472.003 394.575 472.644 394.683H472.653ZM160.929 309.164L160.541 310.721L163.728 336.433C164.83 339.9 172.523 335.067 173.778 333.139C174.238 325.926 176.64 319.174 178.058 312.132C177.769 311.743 177.733 311.49 177.146 311.598C176.234 311.761 175.566 312.25 174.265 312.341C172.351 312.467 169.922 312.169 168.044 311.752C165.453 311.164 163.43 309.58 160.938 309.173L160.929 309.164ZM114.86 310.512C112.684 310.413 110.86 312.006 108.729 312.286C104.928 312.784 101.127 312.259 97.9303 310.069C96.946 310.123 96.946 316.35 96.6932 317.409C96.4675 318.332 95.4923 321.065 95.104 322.152C94.6164 323.509 93.3794 324.459 93.2169 326.179C93.0273 328.134 94.5803 332.886 95.1311 335.049C97.5962 344.669 100.468 354.218 103.005 363.812C103.872 367.088 103.971 370.943 105.614 373.867C111.52 358.092 114.481 341.294 119.348 325.156C119.601 322.052 118.021 322.269 116.928 320.432C115.484 317.997 115.113 313.345 114.86 310.503V310.512ZM429.989 347.846V313.906L298.132 312.974C297.608 313.345 297.301 315.825 297.238 316.603C296.741 323.219 297.599 330.487 297.301 337.167C303.648 338.868 320.868 339.257 325.247 343.773C326.033 344.579 328.796 348.371 329.509 349.457C332.498 353.964 331.622 361.938 331.586 367.323C331.568 371.432 331.613 369.794 332.805 373.306C333.662 375.858 333.5 379.279 331.577 381.343C330.656 382.329 329.455 382.221 328.615 382.899C327.396 383.868 327.134 388.185 326.367 390.149C324.805 394.176 321.021 396.276 322.087 401.019H347.143L357.554 351.267L358.43 350.335H372.426L373.446 351.521L364.074 401.471H393.194C396.246 401.471 400.354 396.539 400.643 393.552C400.932 390.565 399.686 389.262 399.325 386.565C400.399 386.004 401.889 386.302 402.9 385.85C403.722 385.479 404.39 383.841 405.149 383.126C405.907 382.411 408.011 381.533 408.255 380.809C408.517 375.333 407.74 370.129 409.474 364.834C411.424 358.87 417.329 352.788 423.108 350.444C424.535 349.865 429.736 348.842 429.998 347.846H429.989ZM467.876 350.752C468.021 342.479 469.881 334.153 465.754 326.487C464.544 324.233 459.28 318.015 456.49 318.73C454.856 319.147 449.899 325.953 449.276 327.817C446.639 335.691 448.12 344.018 454.811 349.222C459.443 352.824 462.504 352.417 467.876 350.752ZM536.401 318.73C532.229 320.921 527.055 324.26 525.241 328.822C523.606 332.922 523.037 341.601 523.092 346.036C523.101 347.104 523.453 350.742 523.796 351.575C524.256 352.679 525.665 353.602 526.748 354.046C533.033 356.625 539.588 354.327 543.76 349.195C549.078 342.651 547.733 337.863 544.609 330.713C543.742 328.731 538.306 318.558 536.401 318.73ZM90.4177 325.057L83.3928 327.464C85.3974 337.004 89.3613 346.471 91.5103 355.874C91.6999 356.707 92.1424 356.888 91.1491 357.576C90.3726 357.73 90.0385 356.761 89.8037 356.218C86.3364 348.263 84.8466 337.574 81.9391 329.256C81.6321 327.953 80.6569 328.025 79.5192 328.261C75.2482 329.139 68.2594 332.949 64.9817 335.872C49.9477 349.276 54.4534 368.699 55.257 386.773C55.4737 391.66 55.0855 396.548 55.7717 401.417L73.3521 401.734C74.4266 401.019 74.4898 387.615 74.6794 385.415C74.8148 383.913 75.6365 379.46 76.9277 382.7L79.2664 401.173L79.9345 401.86H130.382C131.095 401.625 131.637 398.865 131.89 397.951C133.019 393.896 133.533 387.633 135.141 384.013C136.269 381.487 137.181 383.216 137.38 384.999C137.813 388.818 137.804 392.855 138.382 396.674C138.617 398.249 139.357 399.752 139.312 401.399C140.053 401.815 140.874 401.888 141.705 401.951C145.362 402.222 151.177 402.213 154.834 401.951C155.656 401.888 156.495 401.87 157.191 401.372C158.13 399.028 157.606 396.475 157.75 394.014C157.94 390.837 158.978 382.492 157.859 379.867C157.561 379.18 156.703 378.573 156.306 377.804C154.202 373.803 156.107 358.635 155.448 352.869C154.915 348.235 151.231 340.633 148.053 337.203C142.292 330.985 131.628 327.075 123.457 325.193C122.87 325.057 122.283 324.84 121.669 325.021L107.637 376.238C107.285 377.243 104.395 377.207 103.682 376.464C100.738 362.979 96.7835 349.702 93.4155 336.298C92.9099 334.307 91.5284 325.817 90.4177 325.039V325.057ZM443.533 336.307H431.795L432.011 342.651C433.682 343.783 435.939 344.959 437.429 346.271C438.811 347.493 439.352 349.095 441.05 349.874L443.533 336.307ZM446.693 351.693L448.057 346.081L445.808 340.389L444.436 350.109L444.896 351.023L446.702 351.693H446.693ZM437.212 348.525C436.923 347.348 432.526 344.543 431.795 345.357L431.831 348.489L437.212 348.525ZM457.086 363.459C457.772 363.622 457.809 363.35 458.179 362.979C459.858 361.305 460.048 357.892 461.529 355.883C461.79 354.091 457.33 353.05 455.587 352.055C454.459 351.412 450.585 348.045 449.881 348.543C449.447 350.426 447.75 351.34 448.743 353.494C451.912 356.535 456.039 358.788 457.095 363.459H457.086ZM443.109 365.748C443.587 365.685 444.111 365.658 444.58 365.821C446.413 366.445 449.971 373.17 450.639 375.143C451.434 377.487 451.65 379.985 452.544 382.293C452.978 382.628 456.933 381.216 457.52 380.881C459.822 379.587 458.422 371.966 457.935 369.631C456.599 363.259 452.075 358.164 446.666 354.68C426.982 342.018 406.268 358.381 410.359 380.211C410.738 380.999 412.761 381.768 413.627 381.913C420.887 383.135 429.664 379.768 435.379 375.424C438.431 373.107 442.052 369.423 443.109 365.748ZM359.333 352.145L349.292 400.358C349.446 400.856 349.843 400.955 350.304 401.019C352.985 401.399 358.132 401.815 360.715 401.489C361.094 401.444 361.518 401.507 361.852 401.272L371.577 353.068L371.081 352.136H359.342L359.333 352.145ZM535.101 401.381L550.072 378.13C550.379 375.858 548.211 370.645 547.39 368.201C545.927 363.839 544.049 359.603 542.785 355.168L542.135 354.426C537.764 355.874 534.162 357.856 529.322 357.123L534.162 375.378C531.543 382.746 527.381 389.488 524.274 396.638C523.913 397.462 522.649 400.295 522.613 400.883C522.514 402.775 525.484 401.507 526.387 401.471C529.286 401.363 532.211 401.634 535.101 401.381ZM197.029 357.585C195.512 357.259 195.069 358.689 194.094 359.386C188.721 363.187 182.554 362.934 177.2 359.141C176.559 358.68 172.423 354.317 171.755 355.322C170.59 360.915 168.73 366.59 165.164 371.115C164.748 371.64 163.954 371.903 163.412 372.527C162.744 373.306 162.446 375.948 160.911 374.111C160.08 373.07 160.098 370.011 157.976 371.604C157.209 373.722 158.301 375.749 159.087 377.641C159.71 378.51 160.929 377.822 161.976 378.437C164.179 379.732 163.34 381.877 163.827 383.859C165.606 391.126 171.331 398.285 178.78 400.096C187.593 402.241 195.042 397.543 199.394 390.04C201.254 386.827 201.607 382.764 203.331 379.505C204.722 378.112 207.051 379.813 208.794 376.383C209.868 374.274 209.841 369.106 207.169 371.134C206.257 372.31 205.345 373.369 205.616 374.971L204.496 375.224C203.241 373.043 200.722 372.093 199.367 369.957C196.857 366.011 197.95 361.82 197.029 357.585ZM467.01 355.322L463.813 355.956C463.497 358.906 459.84 363.305 459.84 365.948C459.84 366.862 460.599 367.93 460.689 369.106C460.987 372.898 460.59 378.175 461.158 381.759C461.438 383.524 463.181 384.438 463.416 386.284C463.542 387.298 463.542 389.814 463.371 390.81C463.172 391.95 461.601 393.633 461.592 394.457C461.592 395.172 463.19 396.864 463.614 397.851C463.921 398.566 464.328 401.01 464.554 401.046L468.806 401.019C469.131 400.702 467.064 393.697 466.982 392.212C466.784 388.791 468.337 384.13 468.391 380.438C468.454 376.202 466.459 371.821 466.107 367.758C465.754 363.694 465.899 359.015 467 355.322H467.01ZM522.098 396.493L531.94 375.804C531.706 373.351 527.281 356.263 525.936 356.227C524.536 358.028 525.033 360.689 524.753 362.725C523.823 369.495 522.234 376.274 522.55 383.144C522.658 385.443 523.48 388.61 523.489 390.837C523.489 392.837 522.134 394.511 522.098 396.493ZM323.775 380.537C327.152 377.098 325.951 364.192 323.188 360.318C318.583 353.856 314.005 359.286 308.317 359.838C303.432 360.309 298.52 359.576 293.861 358.2C292.235 358.381 290.7 364.889 290.547 366.454C290.348 368.418 290.186 374.998 290.745 376.555C290.935 377.098 293.788 381.632 294.104 381.786C296.262 382.845 297.861 380.872 299.775 380.22C304.515 378.609 311.486 378.808 316.335 379.867C318.61 380.365 321.735 382.619 323.784 380.528L323.775 380.537ZM412.833 383.823C413.573 387.886 414.512 392.52 415.767 396.493C419.081 406.992 429.582 415.979 440.689 410.169C446.594 407.074 451.118 397.236 452.057 390.792C452.31 389.072 452.102 387.217 452.517 385.488C449.474 383.859 450.413 381.252 449.628 378.392C449.221 376.908 445.844 369.17 444.607 368.907C442.305 370.446 441.23 372.998 439.018 374.998C435.56 378.13 425.302 383.814 420.724 383.814H412.824L412.833 383.823ZM328.407 380.202L330.683 379.098C331.983 377.333 331.559 370.283 328.407 372.736V380.202ZM284.262 380.103L285.301 380.655C286.384 380.591 286.393 373.333 284.84 372.971C282.149 374.328 283.585 377.894 284.262 380.103ZM160.468 380.655L159.502 402.539L158.825 403.218C135.213 403.426 111.601 403.173 87.9888 403.263C79.0316 403.299 69.9299 403.109 60.9004 403.263C57.6769 403.318 53.9839 403.146 50.9951 403.281C47.1124 403.453 42.2365 404.639 41.3878 409.047C40.3313 414.54 45.5142 416.532 50.0651 416.875C58.6701 417.536 67.7086 416.577 76.2686 416.405C94.1288 416.052 112.585 418.143 130.463 416.875C135.448 416.522 139.854 413.536 144.432 411.87C149.01 410.205 154.328 408.513 159.114 407.128C162.735 406.087 166.708 405.969 169.994 404.005C170.599 403.281 170.599 399.58 170.31 398.62C170.094 397.896 168.92 397.19 168.405 396.457C166.617 393.932 164.604 390.728 163.412 387.886C162.437 385.569 162.166 382.465 160.477 380.655H160.468ZM408.192 383.451C406.277 383.804 405.085 387.289 405.131 389.036C405.221 392.828 408.733 396.421 412.553 395.987L413.23 395.009L412.408 393.063C407.334 393.941 407.731 387.09 409.69 384.067C409.203 383.442 409.004 383.307 408.201 383.451H408.192ZM453.51 392.909C451.831 396.502 455.497 395.923 457.691 394.62C462.865 391.543 462.034 380.881 454.784 384.112C454.766 385.859 451.659 392.547 455.425 391.452C456.454 391.009 457.167 389.244 457.014 388.221C456.86 387.198 455.632 386.719 455.741 385.642C459.38 384.565 458.883 389.733 457.763 391.959L456.508 393L453.529 392.909H453.51ZM311.712 385.189C309.066 384.664 305.084 383.886 303.585 386.764C305.563 389.063 308.75 388.619 311.053 387.017L311.712 385.189ZM411.478 386.538L410.458 387.108C409.32 388.013 411.496 393 412.381 391.968L411.478 386.538ZM136.08 390.611C135.258 390.755 135.312 391.534 135.123 392.131C134.373 394.538 133.416 398.521 133.1 400.992C132.91 402.458 137.651 402.25 137.85 401.209L136.08 390.611ZM386.972 438C386.738 438.307 386.051 438.407 385.753 438.787C383.324 441.909 383.306 447.43 386.051 450.299L387.243 450.272C389.799 448.399 389.898 444.86 392.074 442.425C398.413 435.321 406.882 430.66 415.56 427.048C417.293 426.324 421.022 426.198 421.673 424.125L423.469 410.993C421.375 408.612 418.341 406.431 416.715 403.698C415.569 401.77 415.478 399.833 414.196 398.05C413.51 397.625 412.309 398.331 411.325 398.285C407.487 398.113 404.453 393.995 403.352 390.62L401.573 397.987C398.07 400.883 395.37 402.376 396.246 407.481C396.86 411.047 401.013 414.142 396.363 417.771C392.408 420.858 389.302 421.075 387.46 426.949C386.494 430.035 388.634 435.827 386.972 438.009V438ZM459.651 396.113C458.748 396.159 457.763 397.217 456.833 397.38C455.587 397.598 453.52 397.036 452.562 397.625C451.217 399.462 450.919 401.86 449.61 403.716C448.138 405.797 444.4 408.386 444.4 411.201C444.4 413.825 445.736 421.464 446.558 424.025C447.379 426.587 450.341 426.216 452.571 427.048C457.222 428.795 461.691 431.13 466.269 433.058C467.551 432.841 470.775 428.171 471.308 426.804C472.852 422.858 472.274 417.78 469.736 414.368C467.922 411.934 461.763 408.25 460.942 406.44C459.641 403.58 462.17 401.734 461.98 399.996C461.89 399.145 460.671 396.05 459.669 396.104L459.651 396.113ZM193.417 400.123C190.798 400.53 188.469 402.34 185.859 402.72C181.128 403.408 176.821 402.25 172.884 399.679C171.674 400.693 172.396 402.467 172.161 403.924C170.952 411.527 164.848 414.703 174.32 420.405C178.32 422.813 184.387 423.7 188.776 421.935C190.627 421.193 197.2 416.106 197.498 414.359C197.832 412.359 195.15 408.359 194.527 406.033C194.049 404.241 194.229 401.978 193.426 400.123H193.417ZM297.256 401.471V412.106C297.256 412.332 299.576 415.373 299.946 415.744C302.565 418.396 308.732 419.238 312.272 418.559C315.188 418.007 317.084 415.138 319.143 413.228L319.82 399.661C313.418 404.865 304.38 405.734 297.247 401.471H297.256ZM537.9 401.924C538.153 402.241 539.624 400.114 539.245 399.661C538.297 400.032 537.728 400.901 537.9 401.924ZM224.894 402.928C224.325 403.055 223.873 403.363 223.44 403.734C222.492 404.539 219.62 410.16 220.252 411.002C220.605 411.481 225.219 412.558 226.374 413.02C228.686 413.943 231.918 416.142 234.266 416.423C244.217 417.6 258.122 416.233 268.605 416.387C269.508 416.396 270.303 416.839 271.197 416.776C278.077 412.504 285.806 409.345 293.788 407.725L294.547 406.684L294.484 403.571L293.418 402.829L224.884 402.928H224.894ZM394.331 402.829L322.096 403.281C322.141 404.648 321.662 406.341 323.017 407.11C331.613 408.974 339.739 411.671 347.161 416.396L395.496 415.988C397.672 414.423 394.792 409.87 394.449 407.463C394.232 405.915 394.358 404.367 394.331 402.829ZM463.064 403.852C461.068 405.77 465.33 407.381 466.341 408.268C467.515 409.291 469.475 411.155 470.423 412.323C471.299 413.409 472.102 416.142 473.556 416.423C475.235 416.749 477.971 416.314 479.877 416.423C503.498 417.781 527.489 416.35 551.209 416.866C560.618 416.332 560.78 404.313 551.218 403.29C542.722 402.385 531.173 403.345 522.297 403.318C505.493 403.263 488.111 403.046 471.317 403.318C469.565 403.345 464.075 402.874 463.064 403.861V403.852ZM230.889 483.841C231.006 484.529 231.286 485.162 231.35 485.868C231.702 489.842 231.35 494.629 231.774 498.566C231.846 499.245 231.81 499.689 232.469 500.114L242.573 493.055C242.528 490.086 242.077 487.072 241.661 484.131C240.84 478.447 238.384 470.021 239.016 464.59C239.223 462.807 240.469 461.441 240.975 459.757C242.754 453.847 243.783 448.064 246.718 442.434C244.822 433.773 240.993 421.844 232.415 417.826C224.568 414.151 209.58 409.02 201.119 407.11C199.656 406.784 198.076 406.603 196.595 406.449C195.954 407.046 199.494 411.708 199.855 412.459C202.13 417.247 201.968 431.04 202.464 436.995C204.55 462.011 206.6 487.072 208.785 512.115L209.273 517.727C212.397 518.071 213.372 514.749 215.097 513.002C217.715 510.341 228.857 503.933 229.769 501.915C230.618 496.702 228.623 490.104 229.553 484.954C229.697 484.176 230.04 483.687 230.898 483.823L230.889 483.841ZM169.037 406.911C166.653 407.381 164.053 407.752 161.714 408.395C154.924 410.25 135.105 416.16 130.662 420.713C125.091 426.433 122.048 434.207 119.493 441.647C117.488 460.617 111.222 480.71 109.497 499.508C109.046 504.377 109.84 509.78 112.829 513.708L143.069 534.099C143.692 534.172 143.899 533.792 144.098 533.303C145.127 530.805 145.326 526.714 146.364 523.809C147.078 521.827 148.315 519.211 149.994 517.953V515.817L127.05 498.105L128.54 497.028L136.522 502.395C136.188 500.44 136.901 498.594 136.992 496.756C137.136 494.095 136.757 491.235 136.974 488.593C137.01 488.131 137.624 482.999 138.771 484.294L138.662 504.087C139.538 506.16 146.256 509.807 148.36 511.436C149.236 512.124 151.231 513.826 152.08 514.622C154.337 516.722 155.89 520.089 159.087 520.496C158.762 516.469 159.71 512.486 159.99 508.504C161.949 480.646 162.798 452.671 164.965 424.795C165.218 421.546 165.606 417.174 166.446 414.061C167.114 411.599 168.694 409.481 169.019 406.92L169.037 406.911ZM288.759 411.056C287.468 423.003 299.883 430.424 310.574 429.528C318.078 428.904 325.942 424.406 328.2 416.875C329.807 411.472 329.265 409.472 323.279 409.273C321.68 409.87 322.321 411.554 321.888 412.803C319.342 420.116 309.725 423.03 302.827 420.568C297.545 418.686 295.233 415.165 294.131 409.807L288.768 411.056H288.759ZM352.2 421.989C350.232 420.423 347.306 418.305 345.13 417.075C343.387 416.097 332.579 411.219 331.387 411.472C329.933 412.812 330.493 415.283 330.123 416.975C326.737 432.316 302.737 435.565 292.353 425.636C288.425 421.88 287.152 417.753 286.429 412.558C286.348 411.961 286.709 411.717 285.815 411.925C284.235 412.278 279.811 414.305 278.14 415.102C261.12 423.247 249.553 438.117 243.774 455.775C243.404 456.906 242.384 459.975 242.691 460.916L244.199 461.676C278.808 461.658 313.5 461.839 348.037 461.178C351.848 461.106 362.078 460.02 362.205 465.486C362.295 469.469 360.254 476.22 359.622 480.483C358.439 488.593 357.193 496.793 356.028 504.938C355.27 510.242 354.466 515.6 354.15 520.931C363.108 518.939 372.056 512.441 377.446 505.101C377.816 503.897 376.787 500.06 376.724 498.53C376.291 488.728 378.783 480.103 377.573 470.075C375.379 451.883 366.62 433.483 352.2 421.98V421.989ZM425.483 412.332C424.679 415.283 424.616 425.157 422.557 426.831C421.691 427.537 420.255 427.293 420.047 428.877C419.903 429.99 421.6 436.027 422.305 437.013C423.217 438.289 426.296 438.497 427.939 438.606C430.431 438.769 442.233 438.525 443.804 437.276L446.657 427.917C442.919 423.555 443.596 417.256 442.413 411.87C441.953 411.246 441.808 411.499 441.258 411.635C440.246 411.879 438.901 412.685 437.655 413.011C433.086 414.206 429.853 413.843 425.474 412.332H425.483ZM473.782 418.894V425.682C473.782 427.781 469.258 431.936 469.782 433.728C472.472 436.515 475.606 437.556 478.305 440.606C486.035 449.322 487.913 461.16 491.163 472.066L492.509 473.424C498.053 466.328 504.247 459.812 509.638 452.571C513.475 447.412 517.466 441.71 520.924 436.28C524.527 430.623 527.633 424.623 531.11 418.894C530.685 418.233 530.243 418.269 529.566 418.197C522.125 417.382 513.204 418.83 505.592 418.242L503.353 417.853C494.504 419.301 484.075 417.174 475.335 418.197C474.676 418.278 474.179 418.251 473.782 418.903V418.894ZM129.308 418.677L74.4356 418.197L72.8916 418.894C75.6455 423.283 77.8307 428.08 80.5485 432.479C88.1423 444.77 97.226 455.567 107.167 465.966C107.79 466.618 111.321 470.383 111.917 470.256C112.63 469.831 112.486 469.324 112.603 468.672C115.032 454.526 116.937 438.588 124.242 426.035C124.694 425.265 129.768 419.066 129.299 418.667L129.308 418.677ZM268.361 418.215H236.758C237.733 419.708 239.232 420.704 240.289 422.143C242.618 425.311 244.822 430.008 246.004 433.61C246.682 435.674 247.386 437.972 248.271 439.927C249.102 439.909 253.535 432.117 254.582 430.877C258.032 426.759 263.946 423.202 267.675 419.563C268.118 419.129 268.524 418.966 268.361 418.215ZM391.162 418.215H350.981C354.873 422.541 359.902 426.143 363.613 430.669C365.573 433.058 367.279 435.837 368.959 438.434C370.078 440.172 369.374 441.05 371.974 441.294C373.681 441.457 380.859 441.547 381.943 440.869C382.169 440.724 385.41 437.013 385.528 436.769C386.34 434.986 385.203 431.909 385.284 429.745C385.365 427.582 386.286 424.641 387.361 422.776L391.171 418.224L391.162 418.215ZM396.58 496.955V475.008C396.58 474.854 397.022 474.492 397.004 474.157L398.359 473.894L398.81 498.901C404.724 501.997 409.365 506.73 414.422 510.966C415.542 511.898 417.004 512.396 418.025 513.238C420.327 515.138 422.007 517.79 424.345 519.573H433.826L434.531 518.016C434.07 506.088 435.397 493.933 433.754 482.121C428.932 478.456 425.628 473.351 421.646 468.889C417.113 463.794 411.821 458.907 407.686 453.467C407.09 452.689 406.521 451.829 406.142 450.915C405.23 446.507 417.149 429.99 415.993 428.623C408.11 432.415 400.517 436.027 394.792 442.887C388.543 450.363 385.97 457.92 383.361 467.179C377.212 489.054 372.923 510.341 396.173 522.922L415.307 531.791C416.923 530.597 415.09 530.262 414.738 529.203C414.494 528.452 414.124 525.746 414.368 524.994C415.036 522.949 418.214 519.012 420.508 518.668C420.679 517.998 420.354 517.926 420.065 517.537C417.636 514.324 405.429 505.834 401.519 503.544C400.155 502.739 397.645 502.205 396.598 501.236C396.182 500.847 393.934 497.29 393.862 496.729C393.763 496.023 393.844 495.951 394.548 496.041L396.58 496.955ZM454.07 513.4C453.7 513.735 451.19 516.794 451.19 517.093C452.96 519.627 454.45 521.818 455.136 524.922C455.786 527.854 455.578 527.673 454.359 530.217C454.061 530.832 453.664 530.579 454.594 531.339C457.077 529.827 460.192 529.357 462.829 528.28C471.109 524.886 486.649 515.962 492.292 508.938C496.202 504.069 495.94 500.567 494.902 494.575C493.096 484.122 489.023 470.021 485.854 459.748C481.312 445.059 477.05 439.393 462.964 433.366C459.145 431.737 455.343 430.071 451.452 428.614C450.892 428.795 451.289 429.573 451.461 429.963C452.12 431.411 453.718 433.375 454.549 435.013C457.059 439.936 459.298 445.032 461.845 449.928L435.479 478.275C435.181 480.13 436.318 481.768 436.345 483.606C436.508 494.43 436.562 505.707 436.336 516.659C436.318 517.428 436.057 518.125 435.912 518.867C436.129 519.971 439.181 519.618 440.048 519.473C446.332 518.442 451.136 513.292 456.039 509.708C460.418 506.504 464.87 503.409 469.502 500.576L470.188 473.876C471.443 473.623 472.102 474.428 472.346 475.56C473.014 478.709 473.267 482.411 473.926 485.742C474.811 490.186 475.578 494.684 476.987 498.983L476.22 500.087L473.809 499.87C472.698 500.947 471.371 502.105 470.07 502.938C465.204 506.051 458.377 509.59 454.088 513.391L454.07 513.4ZM459.335 449.44C458.946 447.159 457.276 445.014 456.237 442.815C454.296 438.678 452.562 433.99 449.781 430.279C449.393 429.764 449.303 429.356 448.499 429.537C446.91 435.574 445.113 441.584 443.208 447.539C441.032 454.345 435.117 467.894 434.494 474.112C434.422 474.818 434.16 475.949 435.181 475.705L457.005 452.327L457.068 451.268C454.901 450.544 448.499 452.879 447.596 450.58C447.334 449.928 448.508 449.458 448.725 449.458H459.335V449.44ZM408.77 449.44H418.476L419.153 450.562C418.864 451.901 411.731 451.141 410.341 451.25C409.672 451.304 409.031 450.897 409.221 451.919L432.472 478.854C433.673 479.216 433.023 477.352 432.941 477.017C431.533 471.197 428.562 464.292 426.702 458.382C423.785 449.096 421.068 439.737 418.241 430.433C417.943 430.198 417.429 431.194 417.257 431.474C415.524 434.244 410.052 444.498 409.122 447.304C408.878 448.028 408.634 448.634 408.77 449.44ZM443.081 439.945H423.217C423.406 442.57 424.797 444.824 425.591 447.295C427.767 454.064 429.384 462.871 432.219 469.161C432.508 469.804 432.797 470.283 433.375 470.718L443.081 439.945ZM381.004 443.104H372.652C372.986 448.435 376.173 453.739 377.41 458.925C378.187 462.183 378.476 466.038 379.117 469.432C379.252 470.156 379.108 472.247 380.092 472.075C381.582 468.337 382.169 464.228 383.352 460.4C383.975 458.391 385.79 455.476 385.78 453.739C385.78 451.711 383.288 450.037 382.548 447.883C381.961 446.199 382.413 444.344 380.995 443.104H381.004ZM471.524 487V499.218C472.951 499.091 474.215 498.223 474.269 496.738C474.314 495.507 473.059 489.299 472.644 487.896C472.409 487.09 472.554 486.837 471.524 487.009V487ZM301.617 493.027C299.341 493.163 296.262 495.417 295.368 497.553C292.19 505.182 302.89 512.342 308.109 504.44C311.36 499.508 307.333 492.684 301.617 493.037V493.027ZM243.079 495.598L216.505 514.206C215.774 515.292 219.051 517.727 219.792 518.713C220.605 519.79 222.022 521.989 222.564 523.175C223.458 525.139 224.568 532.226 226.239 532.651L247.088 523.365V518.505L243.079 495.598ZM214.952 517.374C213.896 518.849 208.225 520.478 208.767 522.523L210.121 522.985L217.137 519.6L216.911 518.442L214.961 517.365L214.952 517.374ZM153.687 520.035C153.796 517.645 151.276 516.749 151.43 519.582L153.687 520.035ZM435.867 535.421C438.91 534.968 441.763 533.873 444.788 533.285C447.524 532.751 448.129 533.629 450.72 531.538C455.723 527.519 452.445 522.216 448.942 518.424L448.355 518.297C445.989 518.632 442.332 521.799 440.508 522.207C439.551 522.415 434.865 522.478 434.503 522.75C434.467 525.184 437.655 522.741 438.558 524.334C437.573 526.316 433.871 526.289 434.052 528.633C434.63 529.221 439.695 525.23 440.689 525.085C441.185 525.012 442.034 525.791 442.169 526.153C442.504 527.013 438.892 527.927 438.413 528.714L434.513 530.461L435.19 532.253L443.081 527.728C444.716 529.456 437.546 533.746 436.156 534.036L435.858 535.412L435.867 535.421ZM433.158 525.021L430.251 524.533C428.689 520.505 423.876 521.609 420.309 520.478C418.115 521.537 416.192 525.021 416.481 527.456C416.643 528.814 418.296 532.407 419.469 533.067C420.147 533.448 426.865 534.796 428.011 534.914C428.779 534.986 433.257 535.312 431.813 533.819C430.847 532.823 426.512 532.181 426.837 530.669C427.731 528.859 431.731 531.828 432.255 531.339C431.939 528.814 428.047 528.578 428.652 525.908C429.131 525.402 433.294 529.348 433.167 525.003L433.158 525.021ZM168.586 531.8C168.468 531.203 167.836 530.859 167.376 530.524C164.432 528.397 158.292 524.125 155.159 522.858C153.705 522.27 152.152 521.935 150.653 521.492L149.615 522.044C148.459 524.153 145.163 530.407 146.518 532.416C146.951 533.067 151.475 535.529 152.477 535.955C153.678 536.47 158.726 538.344 159.565 537.674L158.69 536.507L159.322 535.475C162.374 535.909 165.344 538.045 168.36 538.145C169.335 538.181 169.678 538.362 169.498 537.231L160.297 534.09L160.017 532.705L170.852 535.873C171.033 534.968 170.419 534.814 169.823 534.425C168.73 533.719 163.042 531.782 162.735 531.339L162.96 530.443L168.604 531.8H168.586ZM222.69 531.275C222.672 528.044 221.48 525.003 219.837 522.297C218.699 521.121 212.83 523.438 211.331 524.189C208.37 525.673 204.911 528.732 201.977 530.651C200.532 531.592 198.681 531.493 198.392 533.837C199.06 534.697 198.907 534.398 199.593 534.154C200.929 533.674 207.629 530.217 208.324 530.904L208.045 532.289C205.146 533.909 201.444 534.316 199.295 537.014C198.952 537.846 199.828 537.792 200.397 537.665C202.257 537.249 207.611 533.71 209.236 534.724L209.679 535.864L201.552 538.588C201.507 539.457 201.345 539.503 202.239 539.503C204.622 539.503 213.724 536.833 216.108 535.746C218.492 534.66 220.487 532.733 222.699 531.257L222.69 531.275ZM353.247 524.56C353.428 526.931 352.164 529.465 351.983 531.701C351.785 534.226 354.259 532.841 354.593 531.113C354.9 529.502 354.981 525.429 353.247 524.56Z" fill="#756EF7"/>
<path d="M176.839 81.4046C176.27 80.952 174.609 78.4541 174.482 77.6667C172.993 68.4622 184.388 65.8827 186.97 73.7477C188.433 78.2006 185.634 81.0425 181.805 82.8165C181.227 82.8979 177.291 81.7666 176.839 81.4136V81.4046Z" fill="#756EF7"/>
<path d="M129.091 330.885C129.66 330.768 130.237 331.374 130.192 331.962L123.222 356.689L121.867 358.037C120.874 357.386 121.398 357.078 121.479 356.318C122.075 350.679 125.587 339.954 127.384 334.153C127.628 333.347 128.278 331.057 129.1 330.885H129.091Z" fill="#756EF7"/>
<path d="M189.354 216.838V241.501L188.451 242.18V216.838H189.354Z" fill="#756EF7"/>
<path d="M189.354 200.095H188.451V212.313H189.354V200.095Z" fill="#756EF7"/>
<path d="M303.125 136.749C302.872 138.84 300.633 139.157 298.881 138.967C296.669 138.731 296.723 136.777 297.996 136.351C299.351 135.908 301.725 136.387 303.125 136.74V136.749Z" fill="#756EF7"/>
<path d="M140.595 185.161L138.762 184.962L138.346 182.907L140.17 183.098L140.595 185.161Z" fill="#756EF7"/>
<path d="M358.99 195.669C360.281 195.542 363.171 196.339 362.719 198.049C362.62 198.411 361.834 199.018 361.392 198.502C359.721 196.284 356.904 200.547 355.956 197.615C356.706 196.692 357.762 195.786 358.99 195.669Z" fill="#756EF7"/>
<path d="M378.07 198.737C376.724 199.027 375.469 198.348 374.232 198.285C373.212 198.23 372.137 199.38 371.307 198.067C372.21 196.954 373.501 195.977 375.027 196.121C376.354 196.601 378.44 196.818 378.07 198.737Z" fill="#756EF7"/>
<path d="M358.214 203.271L358.304 200.873C359.379 197.226 363.505 203.344 358.214 203.271Z" fill="#756EF7"/>
<path d="M374.683 199.651C375.18 200.131 376.101 200.973 376.11 201.678C376.128 204.855 370.918 202.466 374.683 199.651Z" fill="#756EF7"/>
</g>
<defs>
<clipPath id="clip0_946_23592">
<rect x="39.5088" y="47" width="521" height="308" rx="30" fill="white"/>
</clipPath>
</defs>
</svg>
