<svg width="415" height="418" viewBox="0 0 415 418" fill="none" xmlns="http://www.w3.org/2000/svg">
<path opacity="0.52" d="M636.645 410.357L630.901 416.411L135.71 417.871C132.437 418.886 123.981 413.686 123.981 410.978V320.362L122.12 318.501H7.91984C3.93382 318.501 1.48088 311.367 1.09221 307.951C-2.35831 277.514 3.71357 240.935 1.03175 209.829C-0.0953874 205.329 6.34789 198.095 10.3987 198.095H123.981V121.135H7.91984L1.0663 110.61C3.29036 78.9898 -1.79258 43.6166 1.03607 12.4582C1.56294 6.58068 3.73085 3.09129 9.4227 0.983834L502.027 0.655624C505.3 -0.359235 513.756 4.8403 513.756 7.54803V98.1642L515.617 100.025H629.817L636.645 107.475V212.986C634.809 215.409 630.452 220.435 627.334 220.435H513.752V297.396H629.817L636.645 304.846V410.357ZM246.874 23.0646H23.4364V100.025H245.013L246.874 98.1642V23.0646ZM491.412 23.0646H267.974V98.1642L269.836 100.025H491.412V23.0646ZM369.763 198.091V122.992L367.901 121.13H146.325V198.091H369.763ZM614.301 121.13H390.863V198.091H614.301V121.13ZM246.874 220.435H23.4364V297.396H246.874V220.435ZM491.412 220.435H267.974V295.535L269.836 297.396H491.412V220.435ZM369.763 395.462V320.362L367.901 318.501H146.325V395.462H369.763ZM614.301 318.501H392.724L390.863 320.362V395.462H614.301V318.501Z" fill="#E0DFEC"/>
</svg>
