<svg width="25" height="25" viewBox="0 0 25 25" fill="none" xmlns="http://www.w3.org/2000/svg">
<path d="M19.626 11.8535H5.62598C4.52141 11.8535 3.62598 12.7479 3.62598 13.8512V20.8435C3.62598 21.9469 4.52141 22.8413 5.62598 22.8413H19.626C20.7305 22.8413 21.626 21.9469 21.626 20.8435V13.8512C21.626 12.7479 20.7305 11.8535 19.626 11.8535Z" stroke="#EFEFF5" stroke-width="2" stroke-linecap="round" stroke-linejoin="round"/>
<path d="M7.62598 11.8535V7.85788C7.62598 6.53326 8.15276 5.2629 9.09044 4.32625C10.0281 3.38961 11.2999 2.8634 12.626 2.8634C13.9521 2.8634 15.2238 3.38961 16.1615 4.32625C17.0992 5.2629 17.626 6.53326 17.626 7.85788V11.8535" stroke="#EFEFF5" stroke-width="2" stroke-linecap="round" stroke-linejoin="round"/>
</svg>
