<svg width="41" height="36" viewBox="0 0 41 36" fill="none" xmlns="http://www.w3.org/2000/svg">
<g clip-path="url(#clip0_370_181)">
<path d="M2.23013 7.28358L18.2253 7.25014C18.8654 7.14148 19.2608 6.71728 19.3508 6.07784C19.4889 5.12078 19.4491 2.88694 19.3738 1.87973C19.3278 1.26119 19.1479 0.740865 18.5286 0.502644C13.1711 0.241437 7.76129 0.460851 2.38494 0.389803C1.68204 0.456672 1.23645 0.728327 0.962402 1.38448V6.28681C1.21971 6.89699 1.55024 7.21253 2.22804 7.28149L2.23013 7.28358Z" fill="#4F4E7E"/>
<path d="M18.2254 19.1172L2.38086 19.0796C1.63194 19.1381 1.27212 19.3993 0.9646 20.0784V24.9808C1.14451 25.3736 1.38508 25.7059 1.80975 25.8605C7.13799 26.1301 12.529 25.8981 17.8802 25.9796C18.8823 25.9002 19.3007 25.4907 19.376 24.4855C19.4513 23.4804 19.4911 21.2466 19.353 20.2895C19.2609 19.6501 18.8676 19.2259 18.2275 19.1172H18.2254Z" fill="#4F4E7E"/>
<path d="M28.3881 28.4266L12.5289 28.4496C11.9432 28.5248 11.46 29.0305 11.3972 29.6177C11.2926 30.5915 11.2842 33.1701 11.4056 34.1292C11.5185 35.0132 12.2256 35.3162 13.0415 35.3287C17.9848 35.0424 23.3381 35.6965 28.2333 35.3287C29.1371 35.2597 29.7228 34.963 29.8044 33.9871C29.8902 32.9778 29.9257 30.5141 29.796 29.5487C29.7061 28.8905 29.045 28.3931 28.3881 28.4287V28.4266Z" fill="#4F4E7E"/>
<path d="M23.3193 7.28763H38.894C39.6659 7.24792 40.168 6.80074 40.237 6.02339C40.327 5.01408 40.3584 2.47515 40.2266 1.50764C40.1157 0.692675 39.3856 0.435647 38.6639 0.385495C33.6578 0.0407021 28.2375 0.632075 23.1896 0.412661C22.3696 0.454454 21.9072 0.918357 21.8256 1.73123C21.7273 2.7071 21.7169 5.05379 21.834 6.01294C21.9344 6.84253 22.4993 7.27509 23.3172 7.28972L23.3193 7.28763Z" fill="#4F4E7E"/>
<path d="M29.8064 15.2932C29.8943 14.2692 29.9215 11.9247 29.7959 10.9321C29.6913 10.1025 29.0219 9.74096 28.2353 9.7326L12.6836 9.75768C11.9619 9.82455 11.4724 10.2738 11.3971 11.001C11.2946 12.0145 11.2862 14.4343 11.4055 15.4353C11.4996 16.2293 12.1272 16.6138 12.8887 16.6347H28.388C29.2374 16.5616 29.7332 16.1562 29.8064 15.2932Z" fill="#4F4E7E"/>
<path d="M38.7414 19.0796L23.0349 19.1026C22.2944 19.2133 21.9011 19.6918 21.8278 20.4232C21.7295 21.397 21.7191 23.7458 21.8362 24.7049C21.9513 25.6432 22.5307 25.9211 23.3968 25.9817C28.3694 26.3244 33.729 25.7163 38.7435 25.9817C39.551 25.919 40.1618 25.5847 40.2392 24.7175C40.3292 23.7061 40.3606 21.1713 40.2288 20.2017C40.1325 19.4891 39.4338 19.0482 38.7435 19.0796H38.7414Z" fill="#4F4E7E"/>
<path d="M2.45815 16.6326C3.73425 16.7413 6.33457 16.7559 7.59811 16.6284C8.25499 16.5615 8.801 16.2168 8.86794 15.523C8.97044 14.4656 8.99136 11.8013 8.86585 10.7669C8.78217 10.0732 8.14621 9.79315 7.52071 9.73673C6.3011 9.6218 3.52296 9.60717 2.32845 9.75763C1.64019 9.8433 1.14021 10.2153 1.05026 10.932C0.926834 11.8995 0.943569 14.3758 1.04189 15.3663C1.12348 16.1833 1.6653 16.5657 2.45815 16.6347V16.6326Z" fill="#4F4E7E"/>
<path d="M32.3315 15.5982C32.4152 16.2857 33.0616 16.5804 33.6724 16.6326C34.9485 16.7413 37.5509 16.7559 38.8124 16.6284C39.6262 16.5469 40.0885 16.1039 40.1575 15.291C40.2496 14.2232 40.26 12.0563 40.1533 10.9989C40.0697 10.1756 39.5174 9.80779 38.735 9.73465C37.5154 9.61972 34.7372 9.6051 33.5427 9.75555C32.9507 9.82869 32.4947 10.0899 32.3378 10.6959C32.4654 12.236 32.1495 14.0958 32.3315 15.5961V15.5982Z" fill="#4F4E7E"/>
<path d="M7.59805 28.4308C5.89728 28.2594 3.90573 28.5394 2.17358 28.4496C1.52089 28.5457 1.10668 29.0451 1.04183 29.695C0.937229 30.7357 0.937229 33.0217 1.04183 34.0603C1.13178 34.9421 1.72172 35.2556 2.53758 35.3245C3.43504 35.3998 7.42232 35.4457 8.10012 35.2138C8.53107 35.0654 8.81767 34.6579 8.86578 34.2149C8.98084 33.1346 8.97456 30.627 8.86997 29.5383C8.80302 28.8424 8.25702 28.4976 7.60014 28.4329L7.59805 28.4308Z" fill="#4F4E7E"/>
<path d="M38.8897 28.4308C37.7307 28.3138 34.5823 28.2887 33.4652 28.4496C32.9234 28.527 32.4673 28.8488 32.3376 29.3921C32.4485 30.928 32.1703 32.7104 32.3335 34.215C32.3816 34.658 32.6682 35.0655 33.0991 35.2138C33.7769 35.4458 37.7642 35.4019 38.6617 35.3246C39.5382 35.2494 40.0821 34.9171 40.1616 33.9872C40.2536 32.9131 40.2641 30.7566 40.1574 29.6951C40.0842 28.972 39.6177 28.504 38.8918 28.4308H38.8897Z" fill="#4F4E7E"/>
<path d="M21.3707 27.6167C21.5071 27.5362 22.9163 26.6939 24.4878 25.3378C26.0394 23.9989 27.8574 22.0678 28.6741 19.7897C30.2115 15.5015 29.4483 10.6163 29.4145 10.4052C29.3158 9.78836 28.8267 9.34702 28.2589 9.24804C28.2589 9.24803 28.2589 9.24803 28.2588 9.24802L20.8872 7.96272L20.8851 7.96235C20.7219 7.93429 20.555 7.93429 20.3919 7.96235L20.3898 7.96272L13.0181 9.24799C13.018 9.248 13.0179 9.24801 13.0179 9.24802C13.0178 9.24803 13.0178 9.24803 13.0178 9.24804C12.4489 9.34716 11.9602 9.78935 11.8621 10.4063L12.7916 10.5544L11.862 10.4068C11.8276 10.6226 11.0665 15.5044 12.6026 19.7897C13.4192 22.0678 15.2372 23.9989 16.7888 25.3378C18.3603 26.6939 19.7695 27.5362 19.9053 27.6165L19.9056 27.6166C20.1335 27.7511 20.3879 27.8161 20.6382 27.8161C20.8885 27.8161 21.1429 27.7512 21.3707 27.6167ZM21.3707 27.6167L20.8931 26.8072L21.3708 27.6166C21.3708 27.6166 21.3708 27.6167 21.3707 27.6167Z" fill="#EFEFF5" stroke="#141320" stroke-width="1.88277"/>
</g>
<defs>
<clipPath id="clip0_370_181">
<rect width="39.352" height="35.1689" fill="white" transform="translate(0.962402 0.27478)"/>
</clipPath>
</defs>
</svg>
