<svg width="41" height="36" viewBox="0 0 41 36" fill="none" xmlns="http://www.w3.org/2000/svg">
<g clip-path="url(#clip0_370_194)">
<path d="M2.2186 7.09731L18.213 7.06388C18.8531 6.95522 19.2484 6.53105 19.3384 5.89164C19.4765 4.93463 19.4367 2.7009 19.3614 1.69374C19.3154 1.07523 19.1355 0.554933 18.5163 0.316724C13.159 0.0555306 7.74948 0.274933 2.37339 0.203889C1.67053 0.270754 1.22496 0.542396 0.950928 1.19851V6.1006C1.20823 6.71075 1.53874 7.02627 2.2165 7.09522L2.2186 7.09731Z" fill="#4F4E7E"/>
<path d="M18.2131 18.9303L2.36932 18.8927C1.62043 18.9512 1.26063 19.2124 0.953125 19.8915V24.7936C1.13303 25.1864 1.37359 25.5187 1.79824 25.6733C7.12621 25.9428 12.5169 25.7109 17.8679 25.7924C18.8699 25.713 19.2883 25.3034 19.3636 24.2984C19.4389 23.2933 19.4786 21.0596 19.3406 20.1025C19.2485 19.4631 18.8553 19.039 18.2152 18.9303H18.2131Z" fill="#4F4E7E"/>
<path d="M28.3756 28.2393L12.5172 28.2622C11.9314 28.3375 11.4482 28.8431 11.3855 29.4303C11.2809 30.404 11.2725 32.9825 11.3938 33.9416C11.5068 34.8255 12.2138 35.1285 13.0297 35.141C17.9727 34.8548 23.3258 35.5088 28.2208 35.141C29.1245 35.0721 29.7102 34.7754 29.7918 33.7996C29.8775 32.7903 29.9131 30.3267 29.7834 29.3613C29.6934 28.7031 29.0324 28.2058 28.3756 28.2413V28.2393Z" fill="#4F4E7E"/>
<path d="M23.3068 7.10142H38.8807C39.6526 7.06172 40.1546 6.61456 40.2237 5.83724C40.3136 4.82799 40.345 2.28919 40.2132 1.32173C40.1023 0.506802 39.3723 0.249787 38.6506 0.199638C33.6448 -0.145138 28.2247 0.446205 23.1771 0.226802C22.3571 0.268593 21.8948 0.732473 21.8132 1.54531C21.7149 2.52113 21.7044 4.86769 21.8216 5.8268C21.922 6.65635 22.4868 7.08888 23.3047 7.10351L23.3068 7.10142Z" fill="#4F4E7E"/>
<path d="M29.7935 15.1064C29.8814 14.0826 29.9086 11.7381 29.783 10.7455C29.6784 9.91599 29.009 9.5545 28.2225 9.54614L12.6716 9.57122C11.9499 9.63808 11.4604 10.0873 11.3851 10.8145C11.2826 11.8279 11.2743 14.2476 11.3935 15.2485C11.4876 16.0426 12.1152 16.427 12.8766 16.4479H28.3752C29.2245 16.3748 29.7203 15.9694 29.7935 15.1064Z" fill="#4F4E7E"/>
<path d="M38.7278 18.8927L23.0221 18.9157C22.2816 19.0265 21.8884 19.505 21.8151 20.2363C21.7168 21.2101 21.7064 23.5587 21.8235 24.5178C21.9386 25.456 22.518 25.7339 23.384 25.7945C28.3564 26.1372 33.7157 25.5292 38.7299 25.7945C39.5374 25.7318 40.1482 25.3975 40.2256 24.5303C40.3156 23.519 40.3469 20.9844 40.2152 20.0148C40.1189 19.3023 39.4202 18.8614 38.7299 18.8927H38.7278Z" fill="#4F4E7E"/>
<path d="M2.44685 16.4459C3.72288 16.5546 6.32307 16.5692 7.58655 16.4417C8.24339 16.3749 8.78937 16.0301 8.85631 15.3363C8.95881 14.279 8.97973 11.6149 8.85422 10.5805C8.77054 9.8868 8.13462 9.6068 7.50915 9.55038C6.2896 9.43546 3.5116 9.42083 2.31715 9.57128C1.62893 9.65695 1.12897 10.0289 1.03902 10.7456C0.915605 11.7131 0.93234 14.1892 1.03066 15.1796C1.11224 15.9966 1.65403 16.379 2.44685 16.448V16.4459Z" fill="#4F4E7E"/>
<path d="M32.3185 15.4115C32.4022 16.099 33.0486 16.3936 33.6594 16.4459C34.9355 16.5545 37.5377 16.5691 38.7991 16.4417C39.6129 16.3602 40.0752 15.9172 40.1442 15.1044C40.2362 14.0366 40.2467 11.8697 40.14 10.8124C40.0563 9.98914 39.5041 9.62138 38.7217 9.54825C37.5022 9.43332 34.7242 9.4187 33.5297 9.56914C32.9377 9.64228 32.4817 9.90347 32.3248 10.5094C32.4524 12.0494 32.1365 13.9091 32.3185 15.4094V15.4115Z" fill="#4F4E7E"/>
<path d="M7.58649 28.2434C5.8858 28.0721 3.89435 28.3521 2.16229 28.2623C1.50963 28.3584 1.09544 28.8578 1.03059 29.5076C0.926 30.5482 0.926 32.8342 1.03059 33.8727C1.12054 34.7545 1.71045 35.0679 2.52627 35.1369C3.42368 35.2121 7.41077 35.2581 8.08853 35.0261C8.51946 34.8778 8.80604 34.4703 8.85415 34.0273C8.96921 32.947 8.96293 30.4396 8.85834 29.3509C8.7914 28.6551 8.24542 28.3103 7.58858 28.2455L7.58649 28.2434Z" fill="#4F4E7E"/>
<path d="M38.8766 28.2434C37.7178 28.1264 34.5695 28.1014 33.4525 28.2623C32.9107 28.3396 32.4546 28.6614 32.3249 29.2046C32.4358 30.7405 32.1576 32.5228 32.3208 34.0273C32.3689 34.4703 32.6555 34.8778 33.0864 35.0261C33.7641 35.2581 37.7512 35.2142 38.6486 35.1369C39.5251 35.0616 40.069 34.7294 40.1485 33.7996C40.2405 32.7255 40.251 30.5691 40.1443 29.5076C40.0711 28.7846 39.6046 28.3166 38.8787 28.2434H38.8766Z" fill="#4F4E7E"/>
<path d="M26.069 15.9507C26.8649 15.9659 27.4681 16.5539 27.5492 17.3396V25.3715C27.4681 26.0685 26.951 26.6261 26.2363 26.6869H15.016C14.2911 26.6235 13.764 26.0482 13.7031 25.336L13.7133 17.2002C13.84 16.4424 14.4888 15.9177 15.2593 15.9507C15.2593 14.5542 15.1377 13.2768 15.6978 11.9639C17.2743 8.26856 22.1431 7.5589 24.7714 10.6029C26.1172 12.159 26.1299 13.9839 26.069 15.9507ZM23.6993 15.9507V13.7102C23.6993 13.4136 23.4281 12.7749 23.2709 12.5088C22.138 10.6155 19.3602 10.5268 18.1309 12.3618C17.3934 13.4618 17.624 14.6936 17.5911 15.9482H23.6993V15.9507ZM19.9127 21.3289C20.0876 21.5444 19.9608 22.989 19.9963 23.3743C20.0698 24.16 21.1876 24.16 21.2889 23.4072C21.3447 22.9966 21.1926 21.5722 21.365 21.3365C21.4207 21.2605 21.5627 21.1895 21.6438 21.0983C22.209 20.4697 22.0772 19.4863 21.3295 19.0783C20.0267 18.3686 18.6505 19.9299 19.6238 21.0806C19.6998 21.1693 19.862 21.2706 19.9102 21.3315L19.9127 21.3289Z" fill="#EFEFF5"/>
</g>
<defs>
<clipPath id="clip0_370_194">
<rect width="39.35" height="35.1671" fill="white" transform="translate(0.950928 0.0888672)"/>
</clipPath>
</defs>
</svg>
