<svg width="40" height="36" viewBox="0 0 40 36" fill="none" xmlns="http://www.w3.org/2000/svg">
<g clip-path="url(#clip0_370_246)">
<path d="M1.47714 7.28469L17.4715 7.25126C18.1116 7.1426 18.507 6.71842 18.5969 6.07902C18.735 5.12201 18.6953 2.88828 18.6199 1.88112C18.5739 1.26261 18.394 0.742311 17.7748 0.504102C12.4176 0.242909 7.00802 0.462311 1.63194 0.391267C0.929073 0.458132 0.483506 0.729774 0.209473 1.38589V6.28798C0.466772 6.89813 0.797286 7.21365 1.47505 7.2826L1.47714 7.28469Z" fill="#4F4E7E"/>
<path d="M17.4716 19.1177L1.62786 19.0801C0.878974 19.1386 0.519174 19.3998 0.21167 20.0789V24.981C0.39157 25.3738 0.632134 25.706 1.05678 25.8607C6.38475 26.1302 11.7755 25.8983 17.1265 25.9798C18.1285 25.9004 18.5468 25.4908 18.6221 24.4857C18.6974 23.4807 18.7372 21.2469 18.5991 20.2899C18.5071 19.6505 18.1138 19.2263 17.4737 19.1177H17.4716Z" fill="#4F4E7E"/>
<path d="M27.6341 28.4266L11.7757 28.4496C11.19 28.5248 10.7068 29.0305 10.644 29.6177C10.5394 30.5914 10.5311 33.1699 10.6524 34.129C10.7653 35.0129 11.4724 35.3159 12.2882 35.3284C17.2313 35.0422 22.5844 35.6962 27.4793 35.3284C28.383 35.2595 28.9687 34.9627 29.0503 33.9869C29.1361 32.9777 29.1716 30.5141 29.0419 29.5487C28.952 28.8905 28.291 28.3932 27.6341 28.4287V28.4266Z" fill="#4F4E7E"/>
<path d="M22.5653 7.2888H38.1392C38.9111 7.2491 39.4132 6.80193 39.4822 6.02462C39.5722 5.01537 39.6035 2.47657 39.4717 1.5091C39.3609 0.694179 38.6308 0.437165 37.9091 0.387016C32.9033 0.0422398 27.4833 0.633582 22.4356 0.41418C21.6156 0.455971 21.1533 0.919851 21.0717 1.73269C20.9734 2.70851 20.963 5.05507 21.0801 6.01417C21.1805 6.84373 21.7453 7.27626 22.5632 7.29089L22.5653 7.2888Z" fill="#4F4E7E"/>
<path d="M29.052 15.2938C29.1399 14.2699 29.1671 11.9255 29.0416 10.9329C28.937 10.1034 28.2676 9.74188 27.4811 9.73352L11.9302 9.7586C11.2085 9.82546 10.719 10.2747 10.6437 11.0019C10.5412 12.0153 10.5328 14.435 10.652 15.4359C10.7462 16.2299 11.3737 16.6144 12.1352 16.6353H27.6338C28.4831 16.5622 28.9788 16.1568 29.052 15.2938Z" fill="#4F4E7E"/>
<path d="M37.9864 19.0801L22.2807 19.1031C21.5402 19.2139 21.1469 19.6924 21.0737 20.4237C20.9754 21.3974 20.9649 23.7461 21.0821 24.7052C21.1971 25.6434 21.7766 25.9213 22.6426 25.9819C27.6149 26.3246 32.9743 25.7165 37.9885 25.9819C38.7959 25.9192 39.4068 25.5849 39.4842 24.7177C39.5741 23.7064 39.6055 21.1718 39.4737 20.2022C39.3775 19.4897 38.6788 19.0488 37.9885 19.0801H37.9864Z" fill="#4F4E7E"/>
<path d="M1.70539 16.6333C2.98143 16.7419 5.58161 16.7566 6.8451 16.6291C7.50194 16.5622 8.04792 16.2175 8.11486 15.5237C8.21736 14.4664 8.23827 11.8022 8.11276 10.7679C8.02909 10.0742 7.39316 9.79418 6.7677 9.73776C5.54814 9.62284 2.77015 9.60821 1.5757 9.75866C0.887475 9.84433 0.38752 10.2163 0.29757 10.933C0.17415 11.9004 0.190885 14.3766 0.289202 15.367C0.370785 16.184 0.912577 16.5664 1.70539 16.6354V16.6333Z" fill="#4F4E7E"/>
<path d="M31.5771 15.5989C31.6608 16.2864 32.3071 16.581 32.918 16.6332C34.194 16.7419 36.7963 16.7565 38.0577 16.6291C38.8714 16.5476 39.3337 16.1046 39.4027 15.2917C39.4948 14.224 39.5052 12.0571 39.3985 10.9998C39.3149 10.1765 38.7626 9.80876 37.9803 9.73563C36.7607 9.6207 33.9827 9.60607 32.7883 9.75652C32.1963 9.82966 31.7402 10.0908 31.5834 10.6968C31.711 12.2368 31.3951 14.0965 31.5771 15.5968V15.5989Z" fill="#4F4E7E"/>
<path d="M6.84503 28.4308C5.14435 28.2595 3.1529 28.5395 1.42084 28.4496C0.768174 28.5457 0.353986 29.0451 0.289138 29.695C0.184545 30.7356 0.184545 33.0216 0.289138 34.0601C0.379088 34.9419 0.968993 35.2553 1.78482 35.3242C2.68223 35.3995 6.66931 35.4454 7.34708 35.2135C7.778 35.0651 8.06459 34.6577 8.1127 34.2147C8.22775 33.1344 8.22148 30.6269 8.11688 29.5383C8.04994 28.8425 7.50397 28.4977 6.84712 28.4329L6.84503 28.4308Z" fill="#4F4E7E"/>
<path d="M38.1352 28.4308C36.9763 28.3138 33.8281 28.2887 32.711 28.4496C32.1692 28.5269 31.7132 28.8487 31.5835 29.392C31.6944 30.9278 31.4161 32.7102 31.5793 34.2147C31.6274 34.6577 31.914 35.0651 32.3449 35.2135C33.0227 35.4454 37.0098 35.4016 37.9072 35.3242C38.7837 35.249 39.3276 34.9168 39.407 33.9869C39.4991 32.9129 39.5095 30.7565 39.4029 29.695C39.3296 28.972 38.8632 28.504 38.1373 28.4308H38.1352Z" fill="#4F4E7E"/>
<rect x="10.8896" y="8.88422" width="17.99" height="17.99" rx="3.34698" fill="#EFEFF5"/>
<path d="M17.1514 18.0436L18.864 19.7563L22.618 16.0023" stroke="#141320" stroke-width="1.88268" stroke-linecap="round"/>
</g>
<defs>
<clipPath id="clip0_370_246">
<rect width="39.35" height="35.1671" fill="white" transform="translate(0.209717 0.276245)"/>
</clipPath>
</defs>
</svg>
